<?xml version="1.0" encoding="utf-8" standalone="no"?>
<!DOCTYPE svg PUBLIC "-//W3C//DTD SVG 1.1//EN"
  "http://www.w3.org/Graphics/SVG/1.1/DTD/svg11.dtd">
<!-- Created with matplotlib (http://matplotlib.org/) -->
<svg height="441pt" version="1.1" viewBox="0 0 585 441" width="585pt" xmlns="http://www.w3.org/2000/svg" xmlns:xlink="http://www.w3.org/1999/xlink">
 <defs>
  <style type="text/css">
*{stroke-linecap:butt;stroke-linejoin:round;}
  </style>
 </defs>
 <g id="figure_1">
  <g id="patch_1">
   <path d="
M0 441
L585 441
L585 0
L0 0
z
" style="fill:#ffffff;"/>
  </g>
  <g id="axes_1">
   <g id="patch_2">
    <path d="
M73.125 352.8
L526.5 352.8
L526.5 44.1
L73.125 44.1
z
" style="fill:#ffffff;"/>
   </g>
   <g id="PathCollection_1">
    <defs>
     <path d="
M0 2.23607
C0.593012 2.23607 1.16182 2.00046 1.58114 1.58114
C2.00046 1.16182 2.23607 0.593012 2.23607 0
C2.23607 -0.593012 2.00046 -1.16182 1.58114 -1.58114
C1.16182 -2.00046 0.593012 -2.23607 0 -2.23607
C-0.593012 -2.23607 -1.16182 -2.00046 -1.58114 -1.58114
C-2.00046 -1.16182 -2.23607 -0.593012 -2.23607 0
C-2.23607 0.593012 -2.00046 1.16182 -1.58114 1.58114
C-1.16182 2.00046 -0.593012 2.23607 0 2.23607
z
" id="C0_0_919e3f95db"/>
    </defs>
    <g clip-path="url(#p8c402b6962)">
     <use style="fill:#ffa500;stroke:#ffa500;stroke-width:3.0;" x="73.125" xlink:href="#C0_0_919e3f95db" y="309.672794118"/>
    </g>
    <g clip-path="url(#p8c402b6962)">
     <use style="fill:#ffa500;stroke:#ffa500;stroke-width:3.0;" x="89.0780363224" xlink:href="#C0_0_919e3f95db" y="252.926470588"/>
    </g>
    <g clip-path="url(#p8c402b6962)">
     <use style="fill:#ffa500;stroke:#ffa500;stroke-width:3.0;" x="103.48723042" xlink:href="#C0_0_919e3f95db" y="105.386029412"/>
    </g>
    <g clip-path="url(#p8c402b6962)">
     <use style="fill:#ffa500;stroke:#ffa500;stroke-width:3.0;" x="119.440266742" xlink:href="#C0_0_919e3f95db" y="82.6875"/>
    </g>
    <g clip-path="url(#p8c402b6962)">
     <use style="fill:#ffa500;stroke:#ffa500;stroke-width:3.0;" x="134.87868899" xlink:href="#C0_0_919e3f95db" y="116.735294118"/>
    </g>
    <g clip-path="url(#p8c402b6962)">
     <use style="fill:#ffa500;stroke:#ffa500;stroke-width:3.0;" x="150.831725312" xlink:href="#C0_0_919e3f95db" y="116.735294118"/>
    </g>
    <g clip-path="url(#p8c402b6962)">
     <use style="fill:#ffa500;stroke:#ffa500;stroke-width:3.0;" x="166.27014756" xlink:href="#C0_0_919e3f95db" y="150.783088235"/>
    </g>
    <g clip-path="url(#p8c402b6962)">
     <use style="fill:#ffa500;stroke:#ffa500;stroke-width:3.0;" x="182.223183882" xlink:href="#C0_0_919e3f95db" y="162.132352941"/>
    </g>
    <g clip-path="url(#p8c402b6962)">
     <use style="fill:#ffa500;stroke:#ffa500;stroke-width:3.0;" x="198.176220204" xlink:href="#C0_0_919e3f95db" y="173.481617647"/>
    </g>
    <g clip-path="url(#p8c402b6962)">
     <use style="fill:#ffa500;stroke:#ffa500;stroke-width:3.0;" x="213.614642452" xlink:href="#C0_0_919e3f95db" y="173.481617647"/>
    </g>
    <g clip-path="url(#p8c402b6962)">
     <use style="fill:#ffa500;stroke:#ffa500;stroke-width:3.0;" x="229.567678774" xlink:href="#C0_0_919e3f95db" y="173.481617647"/>
    </g>
    <g clip-path="url(#p8c402b6962)">
     <use style="fill:#ffa500;stroke:#ffa500;stroke-width:3.0;" x="245.006101022" xlink:href="#C0_0_919e3f95db" y="139.433823529"/>
    </g>
    <g clip-path="url(#p8c402b6962)">
     <use style="fill:#ffa500;stroke:#ffa500;stroke-width:3.0;" x="260.959137344" xlink:href="#C0_0_919e3f95db" y="128.084558824"/>
    </g>
    <g clip-path="url(#p8c402b6962)">
     <use style="fill:#ffa500;stroke:#ffa500;stroke-width:3.0;" x="276.912173666" xlink:href="#C0_0_919e3f95db" y="128.084558824"/>
    </g>
    <g clip-path="url(#p8c402b6962)">
     <use style="fill:#ffa500;stroke:#ffa500;stroke-width:3.0;" x="291.321367764" xlink:href="#C0_0_919e3f95db" y="139.433823529"/>
    </g>
    <g clip-path="url(#p8c402b6962)">
     <use style="fill:#ffa500;stroke:#ffa500;stroke-width:3.0;" x="307.274404086" xlink:href="#C0_0_919e3f95db" y="128.9925"/>
    </g>
    <g clip-path="url(#p8c402b6962)">
     <use style="fill:#ffa500;stroke:#ffa500;stroke-width:3.0;" x="322.712826334" xlink:href="#C0_0_919e3f95db" y="173.481617647"/>
    </g>
    <g clip-path="url(#p8c402b6962)">
     <use style="fill:#ffa500;stroke:#ffa500;stroke-width:3.0;" x="338.665862656" xlink:href="#C0_0_919e3f95db" y="196.180147059"/>
    </g>
    <g clip-path="url(#p8c402b6962)">
     <use style="fill:#ffa500;stroke:#ffa500;stroke-width:3.0;" x="354.104284904" xlink:href="#C0_0_919e3f95db" y="196.180147059"/>
    </g>
    <g clip-path="url(#p8c402b6962)">
     <use style="fill:#ffa500;stroke:#ffa500;stroke-width:3.0;" x="370.057321226" xlink:href="#C0_0_919e3f95db" y="218.878676471"/>
    </g>
    <g clip-path="url(#p8c402b6962)">
     <use style="fill:#ffa500;stroke:#ffa500;stroke-width:3.0;" x="386.010357548" xlink:href="#C0_0_919e3f95db" y="196.180147059"/>
    </g>
    <g clip-path="url(#p8c402b6962)">
     <use style="fill:#ffa500;stroke:#ffa500;stroke-width:3.0;" x="401.448779796" xlink:href="#C0_0_919e3f95db" y="207.529411765"/>
    </g>
    <g clip-path="url(#p8c402b6962)">
     <use style="fill:#ffa500;stroke:#ffa500;stroke-width:3.0;" x="417.401816118" xlink:href="#C0_0_919e3f95db" y="218.878676471"/>
    </g>
    <g clip-path="url(#p8c402b6962)">
     <use style="fill:#ffa500;stroke:#ffa500;stroke-width:3.0;" x="432.840238366" xlink:href="#C0_0_919e3f95db" y="218.878676471"/>
    </g>
    <g clip-path="url(#p8c402b6962)">
     <use style="fill:#ffa500;stroke:#ffa500;stroke-width:3.0;" x="448.793274688" xlink:href="#C0_0_919e3f95db" y="218.878676471"/>
    </g>
    <g clip-path="url(#p8c402b6962)">
     <use style="fill:#ffa500;stroke:#ffa500;stroke-width:3.0;" x="464.74631101" xlink:href="#C0_0_919e3f95db" y="218.878676471"/>
    </g>
   </g>
   <g id="line2d_1">
    <path clip-path="url(#p8c402b6962)" d="
M119.44 119.539
L134.879 133.869
L150.832 149.091
L166.27 162.078
L182.223 170.301
L198.176 172.507
L213.615 169.057
L229.568 161.826
L245.006 153.704
L260.959 147.817
L276.912 146.694
L291.321 151.587
L307.274 162.137
L322.713 176.467
L338.666 191.69
L354.104 204.676
L370.057 212.899
L386.01 215.105
L401.449 211.655
L417.402 204.425
L432.84 196.302
L448.793 190.415
L464.746 189.292
L479.156 194.185
L495.109 204.735
L510.547 219.066
L526.5 234.288" style="fill:none;stroke:#008000;stroke-dasharray:6.000000,6.000000;stroke-dashoffset:0.0;stroke-width:3;"/>
   </g>
   <g id="matplotlib.axis_1">
    <g id="xtick_1">
     <g id="line2d_2">
      <defs>
       <path d="
M0 0
L0 -4" id="m93b0483c22" style="stroke:#000000;stroke-width:0.5;"/>
      </defs>
      <g>
       <use style="stroke:#000000;stroke-width:0.5;" x="89.0780363224" xlink:href="#m93b0483c22" y="352.8"/>
      </g>
     </g>
     <g id="text_1">
      <!-- Feb 2013 -->
      <defs>
       <path d="
M6.70312 71.4062
L6.70312 0
L15.2031 0
L15.2031 6.90625
L15.4062 6.90625
Q16.7969 4.59375 18.8438 3.04688
Q20.9062 1.5 23.2031 0.59375
Q25.5 -0.296875 27.8438 -0.6875
Q30.2031 -1.09375 32.0938 -1.09375
Q38 -1.09375 42.4531 1
Q46.9062 3.09375 49.8438 6.75
Q52.7969 10.4062 54.25 15.2969
Q55.7031 20.2031 55.7031 25.7031
Q55.7031 31.2031 54.2031 36.0938
Q52.7031 41 49.75 44.75
Q46.7969 48.5 42.3438 50.7031
Q37.9062 52.9062 31.9062 52.9062
Q26.5 52.9062 22 50.9531
Q17.5 49 15.4062 44.7031
L15.2031 44.7031
L15.2031 71.4062
z

M46.7031 26.2969
Q46.7031 22.5 45.8906 18.8906
Q45.0938 15.2969 43.2969 12.5
Q41.5 9.70312 38.5469 8
Q35.5938 6.29688 31.2031 6.29688
Q26.7969 6.29688 23.6875 7.9375
Q20.5938 9.59375 18.6406 12.2969
Q16.7031 15 15.7969 18.5469
Q14.9062 22.0938 14.9062 25.9062
Q14.9062 29.5 15.75 33
Q16.5938 36.5 18.5 39.25
Q20.4062 42 23.4062 43.7031
Q26.4062 45.4062 30.7031 45.4062
Q34.7969 45.4062 37.8438 43.7969
Q40.9062 42.2031 42.8438 39.5
Q44.7969 36.7969 45.75 33.3438
Q46.7031 29.9062 46.7031 26.2969" id="HelveticaNeue-62"/>
       <path d="
M42.2969 30.7969
L12.5938 30.7969
Q12.7969 33.7969 13.8906 36.4375
Q15 39.0938 16.8906 41.0938
Q18.7969 43.0938 21.4375 44.25
Q24.0938 45.4062 27.4062 45.4062
Q30.5938 45.4062 33.25 44.25
Q35.9062 43.0938 37.8438 41.1406
Q39.7969 39.2031 40.9375 36.5
Q42.0938 33.7969 42.2969 30.7969
M50.5 16.4062
L42.0938 16.4062
Q41 11.2969 37.5469 8.79688
Q34.0938 6.29688 28.7031 6.29688
Q24.5 6.29688 21.3906 7.6875
Q18.2969 9.09375 16.2969 11.4375
Q14.2969 13.7969 13.3906 16.8438
Q12.5 19.9062 12.5938 23.2969
L51.2969 23.2969
Q51.5 28 50.4531 33.2031
Q49.4062 38.4062 46.6562 42.7969
Q43.9062 47.2031 39.3438 50.0469
Q34.7969 52.9062 27.9062 52.9062
Q22.5938 52.9062 18.1406 50.9062
Q13.7031 48.9062 10.4531 45.2969
Q7.20312 41.7031 5.39062 36.7969
Q3.59375 31.9062 3.59375 26
Q3.79688 20.0938 5.34375 15.0938
Q6.90625 10.0938 10 6.5
Q13.0938 2.90625 17.6406 0.90625
Q22.2031 -1.09375 28.4062 -1.09375
Q37.2031 -1.09375 43 3.29688
Q48.7969 7.70312 50.5 16.4062" id="HelveticaNeue-65"/>
       <path d="
M21.7969 40.5
L21.7969 33.2969
Q24.2031 33.5938 26.9062 33.5938
Q30.0938 33.5938 32.8438 32.75
Q35.5938 31.9062 37.5938 30.1562
Q39.5938 28.4062 40.7969 25.8438
Q42 23.2969 42 20
Q42 16.7969 40.75 14.25
Q39.5 11.7031 37.3906 9.95312
Q35.2969 8.20312 32.5 7.25
Q29.7031 6.29688 26.5938 6.29688
Q19.2969 6.29688 15.5 10.6406
Q11.7031 15 11.5 21.9062
L3 21.9062
Q2.90625 16.4062 4.54688 12.0938
Q6.20312 7.79688 9.29688 4.84375
Q12.4062 1.90625 16.7969 0.40625
Q21.2031 -1.09375 26.5938 -1.09375
Q31.5938 -1.09375 36.0469 0.25
Q40.5 1.59375 43.7969 4.29688
Q47.0938 7 49.0469 11.0469
Q51 15.0938 51 20.4062
Q51 26.7969 47.8438 31.5
Q44.7031 36.2031 38.2031 37.5938
L38.2031 37.7969
Q42.4062 39.7031 45.2031 43.3906
Q48 47.0938 48 51.9062
Q48 56.7969 46.3438 60.3906
Q44.7031 64 41.7969 66.2969
Q38.9062 68.5938 34.9531 69.75
Q31 70.9062 26.4062 70.9062
Q21.0938 70.9062 17.0469 69.2031
Q13 67.5 10.2969 64.5
Q7.59375 61.5 6.14062 57.2969
Q4.70312 53.0938 4.5 48
L13 48
Q13 51.0938 13.7969 53.8906
Q14.5938 56.7031 16.25 58.7969
Q17.9062 60.9062 20.4531 62.1562
Q23 63.4062 26.4062 63.4062
Q31.7969 63.4062 35.3906 60.5469
Q39 57.7031 39 52
Q39 49.2031 37.8906 47
Q36.7969 44.7969 34.9375 43.3438
Q33.0938 41.9062 30.6406 41.1562
Q28.2031 40.4062 25.5 40.4062
L23.7031 40.4062
Q23.2031 40.4062 22.7031 40.4062
Q22.2969 40.4062 21.7969 40.5" id="HelveticaNeue-33"/>
       <path d="
M13.2031 34.9062
Q13.2031 37.5 13.25 40.6406
Q13.2969 43.7969 13.75 46.9375
Q14.2031 50.0938 15.0469 53.0938
Q15.9062 56.0938 17.5469 58.3438
Q19.2031 60.5938 21.7031 62
Q24.2031 63.4062 27.7969 63.4062
Q31.4062 63.4062 33.9062 62
Q36.4062 60.5938 38.0469 58.3438
Q39.7031 56.0938 40.5469 53.0938
Q41.4062 50.0938 41.8438 46.9375
Q42.2969 43.7969 42.3438 40.6406
Q42.4062 37.5 42.4062 34.9062
Q42.4062 30.9062 42.1562 25.9531
Q41.9062 21 40.5469 16.6406
Q39.2031 12.2969 36.2031 9.29688
Q33.2031 6.29688 27.7969 6.29688
Q22.4062 6.29688 19.4062 9.29688
Q16.4062 12.2969 15.0469 16.6406
Q13.7031 21 13.4531 25.9531
Q13.2031 30.9062 13.2031 34.9062
M4.20312 34.7969
Q4.20312 30.9062 4.39062 26.7031
Q4.59375 22.5 5.39062 18.5
Q6.20312 14.5 7.70312 10.9531
Q9.20312 7.40625 11.7969 4.70312
Q14.4062 2 18.3438 0.453125
Q22.2969 -1.09375 27.7969 -1.09375
Q33.4062 -1.09375 37.2969 0.453125
Q41.2031 2 43.7969 4.70312
Q46.4062 7.40625 47.9062 10.9531
Q49.4062 14.5 50.2031 18.5
Q51 22.5 51.2031 26.7031
Q51.4062 30.9062 51.4062 34.7969
Q51.4062 38.7031 51.2031 42.8906
Q51 47.0938 50.2031 51.0938
Q49.4062 55.0938 47.9062 58.6875
Q46.4062 62.2969 43.7969 65
Q41.2031 67.7031 37.25 69.2969
Q33.2969 70.9062 27.7969 70.9062
Q22.2969 70.9062 18.3438 69.2969
Q14.4062 67.7031 11.7969 65
Q9.20312 62.2969 7.70312 58.6875
Q6.20312 55.0938 5.39062 51.0938
Q4.59375 47.0938 4.39062 42.8906
Q4.20312 38.7031 4.20312 34.7969" id="HelveticaNeue-30"/>
       <path d="
M35.5938 0
L35.5938 70.9062
L29.0938 70.9062
Q28.4062 66.9062 26.5 64.2969
Q24.5938 61.7031 21.8438 60.2031
Q19.0938 58.7031 15.6875 58.1406
Q12.2969 57.5938 8.70312 57.5938
L8.70312 50.7969
L27.0938 50.7969
L27.0938 0
z
" id="HelveticaNeue-31"/>
       <path d="
M4.40625 45.7969
L12.9062 45.7969
Q12.7969 49 13.5469 52.1406
Q14.2969 55.2969 16 57.7969
Q17.7031 60.2969 20.3438 61.8438
Q23 63.4062 26.7031 63.4062
Q29.5 63.4062 32 62.5
Q34.5 61.5938 36.3438 59.8906
Q38.2031 58.2031 39.2969 55.8438
Q40.4062 53.5 40.4062 50.5938
Q40.4062 46.9062 39.25 44.0938
Q38.0938 41.2969 35.8438 38.8906
Q33.5938 36.5 30.1875 34.1406
Q26.7969 31.7969 22.2969 29
Q18.5938 26.7969 15.1875 24.2969
Q11.7969 21.7969 9.09375 18.5
Q6.40625 15.2031 4.65625 10.75
Q2.90625 6.29688 2.40625 0
L48.7031 0
L48.7031 7.5
L12.2969 7.5
Q12.9062 10.7969 14.8438 13.3438
Q16.7969 15.9062 19.5469 18.0938
Q22.2969 20.2969 25.5938 22.25
Q28.9062 24.2031 32.2031 26.2031
Q35.5 28.2969 38.5938 30.5938
Q41.7031 32.9062 44.0938 35.75
Q46.5 38.5938 47.9531 42.1875
Q49.4062 45.7969 49.4062 50.5
Q49.4062 55.5 47.6562 59.2969
Q45.9062 63.0938 42.9062 65.6406
Q39.9062 68.2031 35.8438 69.5469
Q31.7969 70.9062 27.2031 70.9062
Q21.5938 70.9062 17.1875 69
Q12.7969 67.0938 9.84375 63.75
Q6.90625 60.4062 5.5 55.7969
Q4.09375 51.2031 4.40625 45.7969" id="HelveticaNeue-32"/>
       <path id="HelveticaNeue-20"/>
       <path d="
M7.79688 71.4062
L7.79688 0
L17.2969 0
L17.2969 32.7031
L50.0938 32.7031
L50.0938 40.7031
L17.2969 40.7031
L17.2969 63.4062
L54.7031 63.4062
L54.7031 71.4062
z
" id="HelveticaNeue-46"/>
      </defs>
      <g transform="translate(32.1106930023 381.529294765)rotate(-15.0)scale(0.14 -0.14)">
       <use xlink:href="#HelveticaNeue-46"/>
       <use x="57.3999938965" xlink:href="#HelveticaNeue-65"/>
       <use x="111.099990845" xlink:href="#HelveticaNeue-62"/>
       <use x="170.399978638" xlink:href="#HelveticaNeue-20"/>
       <use x="198.199966431" xlink:href="#HelveticaNeue-32"/>
       <use x="253.799957275" xlink:href="#HelveticaNeue-30"/>
       <use x="309.39994812" xlink:href="#HelveticaNeue-31"/>
       <use x="364.999938965" xlink:href="#HelveticaNeue-33"/>
      </g>
     </g>
    </g>
    <g id="xtick_2">
     <g id="line2d_3">
      <g>
       <use style="stroke:#000000;stroke-width:0.5;" x="134.87868899" xlink:href="#m93b0483c22" y="352.8"/>
      </g>
     </g>
     <g id="text_2">
      <!-- May 2013 -->
      <defs>
       <path d="
M26.7031 -6.79688
L49.2031 51.7031
L40.2031 51.7031
L25.7031 9.40625
L25.5 9.40625
L10.4062 51.7031
L0.796875 51.7031
L21.2969 0.296875
L17.7969 -8.40625
Q16.5938 -10.7031 15 -11.8906
Q13.4062 -13.0938 10.7969 -13.0938
Q9.5 -13.0938 8.25 -12.6875
Q7 -12.2969 5.79688 -11.9062
L5.79688 -19.7031
Q7.20312 -20.2031 8.70312 -20.3906
Q10.2031 -20.5938 11.7031 -20.5938
Q14.5938 -20.5938 16.6875 -19.8438
Q18.7969 -19.0938 20.5469 -17.4375
Q22.2969 -15.7969 23.75 -13.1875
Q25.2031 -10.5938 26.7031 -6.79688" id="HelveticaNeue-79"/>
       <path d="
M52.2031 0.203125
L52.2031 6.79688
Q50.7031 6.29688 49.5938 6.29688
Q47.5938 6.29688 47.25 7.6875
Q46.9062 9.09375 46.9062 12.0938
L46.9062 38.7031
Q46.9062 43.2031 45.2031 46
Q43.5 48.7969 40.7031 50.3438
Q37.9062 51.9062 34.4531 52.4062
Q31 52.9062 27.5 52.9062
Q23.2031 52.9062 19.2969 52
Q15.4062 51.0938 12.4062 49.0469
Q9.40625 47 7.59375 43.7031
Q5.79688 40.4062 5.59375 35.5938
L14.0938 35.5938
Q14.4062 41.2969 18 43.3438
Q21.5938 45.4062 27 45.4062
Q29 45.4062 31.0469 45.0938
Q33.0938 44.7969 34.75 43.8906
Q36.4062 43 37.4531 41.2969
Q38.5 39.5938 38.5 36.7969
Q38.5 34.4062 37.0938 33.1562
Q35.7031 31.9062 33.2969 31.25
Q30.9062 30.5938 27.75 30.25
Q24.5938 29.9062 21.0938 29.2031
Q17.7969 28.5938 14.6406 27.6875
Q11.5 26.7969 9.04688 25.0469
Q6.59375 23.2969 5.09375 20.5
Q3.59375 17.7031 3.59375 13.2969
Q3.59375 9.40625 4.9375 6.65625
Q6.29688 3.90625 8.64062 2.15625
Q11 0.40625 14.0938 -0.34375
Q17.2031 -1.09375 20.7031 -1.09375
Q26.0938 -1.09375 30.75 0.75
Q35.4062 2.59375 38.9062 6.79688
Q38.9062 2.59375 40.8438 0.75
Q42.7969 -1.09375 46.0938 -1.09375
Q50 -1.09375 52.2031 0.203125
M38.4062 26.7031
L38.4062 18
Q38.4062 16.2031 37.5 14.1406
Q36.5938 12.0938 34.6875 10.3438
Q32.7969 8.59375 29.7969 7.4375
Q26.7969 6.29688 22.5938 6.29688
Q20.7031 6.29688 18.8438 6.6875
Q17 7.09375 15.6406 8
Q14.2969 8.90625 13.4375 10.3438
Q12.5938 11.7969 12.5938 13.9062
Q12.5938 17.0938 14.0469 18.9375
Q15.5 20.7969 17.7969 21.7969
Q20.0938 22.7969 23 23.25
Q25.9062 23.7031 28.75 24.0469
Q31.5938 24.4062 34.1875 24.9531
Q36.7969 25.5 38.4062 26.7031" id="HelveticaNeue-61"/>
       <path d="
M8 71.4062
L8 0
L17 0
L17 59.4062
L17.2031 59.4062
L39.5 0
L47.5938 0
L69.9062 59.4062
L70.0938 59.4062
L70.0938 0
L79.0938 0
L79.0938 71.4062
L66.0938 71.4062
L43.5 11.4062
L21 71.4062
z
" id="HelveticaNeue-4d"/>
      </defs>
      <g transform="translate(75.1216577878 382.268142258)rotate(-15.0)scale(0.14 -0.14)">
       <use xlink:href="#HelveticaNeue-4d"/>
       <use x="87.0999908447" xlink:href="#HelveticaNeue-61"/>
       <use x="140.799987793" xlink:href="#HelveticaNeue-79"/>
       <use x="190.799972534" xlink:href="#HelveticaNeue-20"/>
       <use x="218.599960327" xlink:href="#HelveticaNeue-32"/>
       <use x="274.199951172" xlink:href="#HelveticaNeue-30"/>
       <use x="329.799942017" xlink:href="#HelveticaNeue-31"/>
       <use x="385.399932861" xlink:href="#HelveticaNeue-33"/>
      </g>
     </g>
    </g>
    <g id="xtick_3">
     <g id="line2d_4">
      <g>
       <use style="stroke:#000000;stroke-width:0.5;" x="182.223183882" xlink:href="#m93b0483c22" y="352.8"/>
      </g>
     </g>
     <g id="text_3">
      <!-- Aug 2013 -->
      <defs>
       <path d="
M20.0938 29.5
L32.2031 62.7969
L32.4062 62.7969
L44.2969 29.5
z

M27.2031 71.4062
L-0.59375 0
L9.09375 0
L17.0938 21.5
L47.2969 21.5
L55.0938 0
L65.5938 0
L37.7031 71.4062
z
" id="HelveticaNeue-41"/>
       <path d="
M51 4.40625
L51 51.7031
L43 51.7031
L43 44.2969
L42.9062 44.2969
Q40.5938 48.5938 36.5 50.75
Q32.4062 52.9062 27.5 52.9062
Q20.7969 52.9062 16.1875 50.3438
Q11.5938 47.7969 8.79688 43.8438
Q6 39.9062 4.79688 35.0469
Q3.59375 30.2031 3.59375 25.5938
Q3.59375 20.2969 5.04688 15.5469
Q6.5 10.7969 9.39062 7.25
Q12.2969 3.70312 16.5938 1.59375
Q20.9062 -0.5 26.7031 -0.5
Q31.7031 -0.5 36.1406 1.75
Q40.5938 4 42.7969 8.79688
L43 8.79688
L43 5.40625
Q43 1.09375 42.1406 -2.5
Q41.2969 -6.09375 39.3906 -8.64062
Q37.5 -11.2031 34.5938 -12.6406
Q31.7031 -14.0938 27.5 -14.0938
Q25.4062 -14.0938 23.0938 -13.6406
Q20.7969 -13.2031 18.8438 -12.2031
Q16.9062 -11.2031 15.5469 -9.59375
Q14.2031 -8 14.0938 -5.70312
L5.59375 -5.70312
Q5.79688 -9.90625 7.79688 -12.7969
Q9.79688 -15.7031 12.8438 -17.5
Q15.9062 -19.2969 19.6562 -20.0938
Q23.4062 -20.9062 27 -20.9062
Q39.4062 -20.9062 45.2031 -14.5938
Q51 -8.29688 51 4.40625
M27.2031 6.90625
Q23 6.90625 20.2031 8.65625
Q17.4062 10.4062 15.7031 13.25
Q14 16.0938 13.2969 19.5938
Q12.5938 23.0938 12.5938 26.5938
Q12.5938 30.2969 13.4375 33.6875
Q14.2969 37.0938 16.1406 39.6875
Q18 42.2969 20.8906 43.8438
Q23.7969 45.4062 27.9062 45.4062
Q31.9062 45.4062 34.7031 43.7969
Q37.5 42.2031 39.25 39.5469
Q41 36.9062 41.7969 33.5938
Q42.5938 30.2969 42.5938 26.9062
Q42.5938 23.2969 41.75 19.6875
Q40.9062 16.0938 39.0938 13.25
Q37.2969 10.4062 34.3438 8.65625
Q31.4062 6.90625 27.2031 6.90625" id="HelveticaNeue-67"/>
       <path d="
M49.2031 0
L49.2031 51.7031
L40.7031 51.7031
L40.7031 22.5
Q40.7031 19 39.75 16.0469
Q38.7969 13.0938 36.8906 10.8906
Q35 8.70312 32.1406 7.5
Q29.2969 6.29688 25.4062 6.29688
Q20.5 6.29688 17.7031 9.09375
Q14.9062 11.9062 14.9062 16.7031
L14.9062 51.7031
L6.40625 51.7031
L6.40625 17.7031
Q6.40625 13.5 7.25 10.0469
Q8.09375 6.59375 10.1875 4.09375
Q12.2969 1.59375 15.6875 0.25
Q19.0938 -1.09375 24.2031 -1.09375
Q29.9062 -1.09375 34.0938 1.15625
Q38.2969 3.40625 41 8.20312
L41.2031 8.20312
L41.2031 0
z
" id="HelveticaNeue-75"/>
      </defs>
      <g transform="translate(124.132521766 381.818605929)rotate(-15.0)scale(0.14 -0.14)">
       <use xlink:href="#HelveticaNeue-41"/>
       <use x="64.799987793" xlink:href="#HelveticaNeue-75"/>
       <use x="120.399978638" xlink:href="#HelveticaNeue-67"/>
       <use x="177.799972534" xlink:href="#HelveticaNeue-20"/>
       <use x="205.599960327" xlink:href="#HelveticaNeue-32"/>
       <use x="261.199951172" xlink:href="#HelveticaNeue-30"/>
       <use x="316.799942017" xlink:href="#HelveticaNeue-31"/>
       <use x="372.399932861" xlink:href="#HelveticaNeue-33"/>
      </g>
     </g>
    </g>
    <g id="xtick_4">
     <g id="line2d_5">
      <g>
       <use style="stroke:#000000;stroke-width:0.5;" x="229.567678774" xlink:href="#m93b0483c22" y="352.8"/>
      </g>
     </g>
     <g id="text_4">
      <!-- Nov 2013 -->
      <defs>
       <path d="
M7.70312 71.4062
L7.70312 0
L16.7031 0
L16.7031 57.2969
L16.9062 57.2969
L54.2031 0
L64.5938 0
L64.5938 71.4062
L55.5938 71.4062
L55.5938 13.5
L55.4062 13.5
L17.7969 71.4062
z
" id="HelveticaNeue-4e"/>
       <path d="
M12.5938 25.7969
Q12.5938 30.5 13.8438 34.1406
Q15.0938 37.7969 17.2969 40.2969
Q19.5 42.7969 22.4531 44.0938
Q25.4062 45.4062 28.7031 45.4062
Q32 45.4062 34.9531 44.0938
Q37.9062 42.7969 40.0938 40.2969
Q42.2969 37.7969 43.5469 34.1406
Q44.7969 30.5 44.7969 25.7969
Q44.7969 21.0938 43.5469 17.4375
Q42.2969 13.7969 40.0938 11.3438
Q37.9062 8.90625 34.9531 7.59375
Q32 6.29688 28.7031 6.29688
Q25.4062 6.29688 22.4531 7.59375
Q19.5 8.90625 17.2969 11.3438
Q15.0938 13.7969 13.8438 17.4375
Q12.5938 21.0938 12.5938 25.7969
M3.59375 25.7969
Q3.59375 20.0938 5.1875 15.1875
Q6.79688 10.2969 10 6.64062
Q13.2031 3 17.8906 0.953125
Q22.5938 -1.09375 28.7031 -1.09375
Q34.9062 -1.09375 39.5469 0.953125
Q44.2031 3 47.3906 6.64062
Q50.5938 10.2969 52.1875 15.1875
Q53.7969 20.0938 53.7969 25.7969
Q53.7969 31.5 52.1875 36.4531
Q50.5938 41.4062 47.3906 45.0469
Q44.2031 48.7031 39.5469 50.7969
Q34.9062 52.9062 28.7031 52.9062
Q22.5938 52.9062 17.8906 50.7969
Q13.2031 48.7031 10 45.0469
Q6.79688 41.4062 5.1875 36.4531
Q3.59375 31.5 3.59375 25.7969" id="HelveticaNeue-6f"/>
       <path d="
M29.7031 0
L48.5938 51.7031
L39.7031 51.7031
L25.5938 8.59375
L25.4062 8.59375
L10.9062 51.7031
L1.40625 51.7031
L20.5938 0
z
" id="HelveticaNeue-76"/>
      </defs>
      <g transform="translate(171.355800397 381.862766928)rotate(-15.0)scale(0.14 -0.14)">
       <use xlink:href="#HelveticaNeue-4e"/>
       <use x="72.1999816895" xlink:href="#HelveticaNeue-6f"/>
       <use x="129.599975586" xlink:href="#HelveticaNeue-76"/>
       <use x="179.599960327" xlink:href="#HelveticaNeue-20"/>
       <use x="207.39994812" xlink:href="#HelveticaNeue-32"/>
       <use x="262.999938965" xlink:href="#HelveticaNeue-30"/>
       <use x="318.59992981" xlink:href="#HelveticaNeue-31"/>
       <use x="374.199920654" xlink:href="#HelveticaNeue-33"/>
      </g>
     </g>
    </g>
    <g id="xtick_5">
     <g id="line2d_6">
      <g>
       <use style="stroke:#000000;stroke-width:0.5;" x="276.912173666" xlink:href="#m93b0483c22" y="352.8"/>
      </g>
     </g>
     <g id="text_5">
      <!-- Feb 2014 -->
      <defs>
       <path d="
M33.9062 24.0938
L10.0938 24.0938
L33.7031 58.7969
L33.9062 58.7969
z

M41.9062 24.0938
L41.9062 70.9062
L35.0938 70.9062
L2.79688 24.7969
L2.79688 16.5938
L33.9062 16.5938
L33.9062 0
L41.9062 0
L41.9062 16.5938
L51.5 16.5938
L51.5 24.0938
z
" id="HelveticaNeue-34"/>
      </defs>
      <g transform="translate(219.877215538 381.547412098)rotate(-15.0)scale(0.14 -0.14)">
       <use xlink:href="#HelveticaNeue-46"/>
       <use x="57.3999938965" xlink:href="#HelveticaNeue-65"/>
       <use x="111.099990845" xlink:href="#HelveticaNeue-62"/>
       <use x="170.399978638" xlink:href="#HelveticaNeue-20"/>
       <use x="198.199966431" xlink:href="#HelveticaNeue-32"/>
       <use x="253.799957275" xlink:href="#HelveticaNeue-30"/>
       <use x="309.39994812" xlink:href="#HelveticaNeue-31"/>
       <use x="364.999938965" xlink:href="#HelveticaNeue-34"/>
      </g>
     </g>
    </g>
    <g id="xtick_6">
     <g id="line2d_7">
      <g>
       <use style="stroke:#000000;stroke-width:0.5;" x="322.712826334" xlink:href="#m93b0483c22" y="352.8"/>
      </g>
     </g>
     <g id="text_6">
      <!-- May 2014 -->
      <g transform="translate(262.888180324 382.286259591)rotate(-15.0)scale(0.14 -0.14)">
       <use xlink:href="#HelveticaNeue-4d"/>
       <use x="87.0999908447" xlink:href="#HelveticaNeue-61"/>
       <use x="140.799987793" xlink:href="#HelveticaNeue-79"/>
       <use x="190.799972534" xlink:href="#HelveticaNeue-20"/>
       <use x="218.599960327" xlink:href="#HelveticaNeue-32"/>
       <use x="274.199951172" xlink:href="#HelveticaNeue-30"/>
       <use x="329.799942017" xlink:href="#HelveticaNeue-31"/>
       <use x="385.399932861" xlink:href="#HelveticaNeue-34"/>
      </g>
     </g>
    </g>
    <g id="xtick_7">
     <g id="line2d_8">
      <g>
       <use style="stroke:#000000;stroke-width:0.5;" x="370.057321226" xlink:href="#m93b0483c22" y="352.8"/>
      </g>
     </g>
     <g id="text_7">
      <!-- Aug 2014 -->
      <g transform="translate(311.899044302 381.836723262)rotate(-15.0)scale(0.14 -0.14)">
       <use xlink:href="#HelveticaNeue-41"/>
       <use x="64.799987793" xlink:href="#HelveticaNeue-75"/>
       <use x="120.399978638" xlink:href="#HelveticaNeue-67"/>
       <use x="177.799972534" xlink:href="#HelveticaNeue-20"/>
       <use x="205.599960327" xlink:href="#HelveticaNeue-32"/>
       <use x="261.199951172" xlink:href="#HelveticaNeue-30"/>
       <use x="316.799942017" xlink:href="#HelveticaNeue-31"/>
       <use x="372.399932861" xlink:href="#HelveticaNeue-34"/>
      </g>
     </g>
    </g>
    <g id="xtick_8">
     <g id="line2d_9">
      <g>
       <use style="stroke:#000000;stroke-width:0.5;" x="417.401816118" xlink:href="#m93b0483c22" y="352.8"/>
      </g>
     </g>
     <g id="text_8">
      <!-- Nov 2014 -->
      <g transform="translate(359.122322933 381.880884261)rotate(-15.0)scale(0.14 -0.14)">
       <use xlink:href="#HelveticaNeue-4e"/>
       <use x="72.1999816895" xlink:href="#HelveticaNeue-6f"/>
       <use x="129.599975586" xlink:href="#HelveticaNeue-76"/>
       <use x="179.599960327" xlink:href="#HelveticaNeue-20"/>
       <use x="207.39994812" xlink:href="#HelveticaNeue-32"/>
       <use x="262.999938965" xlink:href="#HelveticaNeue-30"/>
       <use x="318.59992981" xlink:href="#HelveticaNeue-31"/>
       <use x="374.199920654" xlink:href="#HelveticaNeue-34"/>
      </g>
     </g>
    </g>
    <g id="xtick_9">
     <g id="line2d_10">
      <g>
       <use style="stroke:#000000;stroke-width:0.5;" x="464.74631101" xlink:href="#m93b0483c22" y="352.8"/>
      </g>
     </g>
     <g id="text_9">
      <!-- Feb 2015 -->
      <defs>
       <path d="
M47 62.2031
L47 69.7031
L12 69.7031
L5.40625 32.9062
L12.7031 32.5
Q15.2031 35.5 18.4531 37.3438
Q21.7031 39.2031 25.9062 39.2031
Q29.5 39.2031 32.4531 38
Q35.4062 36.7969 37.5 34.6406
Q39.5938 32.5 40.75 29.5469
Q41.9062 26.5938 41.9062 23.0938
Q41.9062 18.9062 40.7031 15.75
Q39.5 12.5938 37.4531 10.5
Q35.4062 8.40625 32.6562 7.34375
Q29.9062 6.29688 26.9062 6.29688
Q23.7031 6.29688 21.0469 7.25
Q18.4062 8.20312 16.4531 9.95312
Q14.5 11.7031 13.3438 14.0469
Q12.2031 16.4062 12 19.0938
L3.5 19.0938
Q3.59375 14.2969 5.39062 10.5
Q7.20312 6.70312 10.2969 4.14062
Q13.4062 1.59375 17.4531 0.25
Q21.5 -1.09375 26.0938 -1.09375
Q32.2969 -1.09375 36.9375 0.84375
Q41.5938 2.79688 44.6875 6.09375
Q47.7969 9.40625 49.3438 13.6562
Q50.9062 17.9062 50.9062 22.4062
Q50.9062 28.5 49.0938 33.0469
Q47.2969 37.5938 44.1875 40.6406
Q41.0938 43.7031 36.8906 45.2031
Q32.7031 46.7031 28 46.7031
Q24.4062 46.7031 20.75 45.4531
Q17.0938 44.2031 14.7969 41.5938
L14.5938 41.7969
L18.4062 62.2031
z
" id="HelveticaNeue-35"/>
      </defs>
      <g transform="translate(407.791645467 381.525897765)rotate(-15.0)scale(0.14 -0.14)">
       <use xlink:href="#HelveticaNeue-46"/>
       <use x="57.3999938965" xlink:href="#HelveticaNeue-65"/>
       <use x="111.099990845" xlink:href="#HelveticaNeue-62"/>
       <use x="170.399978638" xlink:href="#HelveticaNeue-20"/>
       <use x="198.199966431" xlink:href="#HelveticaNeue-32"/>
       <use x="253.799957275" xlink:href="#HelveticaNeue-30"/>
       <use x="309.39994812" xlink:href="#HelveticaNeue-31"/>
       <use x="364.999938965" xlink:href="#HelveticaNeue-35"/>
      </g>
     </g>
    </g>
    <g id="xtick_10">
     <g id="line2d_11">
      <g>
       <use style="stroke:#000000;stroke-width:0.5;" x="510.546963678" xlink:href="#m93b0483c22" y="352.8"/>
      </g>
     </g>
     <g id="text_10">
      <!-- May 2015 -->
      <g transform="translate(450.802610252 382.264745258)rotate(-15.0)scale(0.14 -0.14)">
       <use xlink:href="#HelveticaNeue-4d"/>
       <use x="87.0999908447" xlink:href="#HelveticaNeue-61"/>
       <use x="140.799987793" xlink:href="#HelveticaNeue-79"/>
       <use x="190.799972534" xlink:href="#HelveticaNeue-20"/>
       <use x="218.599960327" xlink:href="#HelveticaNeue-32"/>
       <use x="274.199951172" xlink:href="#HelveticaNeue-30"/>
       <use x="329.799942017" xlink:href="#HelveticaNeue-31"/>
       <use x="385.399932861" xlink:href="#HelveticaNeue-35"/>
      </g>
     </g>
    </g>
    <g id="text_11">
     <!-- Month ending -->
     <defs>
      <path d="
M23.4062 51.7031
L23.4062 67.2031
L9.20312 67.2031
L9.20312 51.7031
L0.59375 51.7031
L0.59375 42.2031
L9.20312 42.2031
L9.20312 11.7031
Q9.20312 7.79688 10.5 5.39062
Q11.7969 3 14.0469 1.70312
Q16.2969 0.40625 19.25 -0.046875
Q22.2031 -0.5 25.5 -0.5
Q27.5938 -0.5 29.7969 -0.390625
Q32 -0.296875 33.7969 0
L33.7969 11
Q32.7969 10.7969 31.6875 10.6875
Q30.5938 10.5938 29.4062 10.5938
Q25.7969 10.5938 24.5938 11.7969
Q23.4062 13 23.4062 16.5938
L23.4062 42.2031
L33.7969 42.2031
L33.7969 51.7031
z
" id="HelveticaNeue-Bold-74"/>
      <path d="
M42.0938 26
Q42.0938 22.7969 41.5 19.7969
Q40.9062 16.7969 39.5 14.4375
Q38.0938 12.0938 35.75 10.6875
Q33.4062 9.29688 29.9062 9.29688
Q26.5938 9.29688 24.25 10.75
Q21.9062 12.2031 20.3438 14.5469
Q18.7969 16.9062 18.0938 19.9062
Q17.4062 22.9062 17.4062 25.9062
Q17.4062 29.0938 18.0469 32.0469
Q18.7031 35 20.1406 37.2969
Q21.5938 39.5938 24 41
Q26.4062 42.4062 29.9062 42.4062
Q33.4062 42.4062 35.7031 41
Q38 39.5938 39.4531 37.3438
Q40.9062 35.0938 41.5 32.1406
Q42.0938 29.2031 42.0938 26
M42.2969 6.59375
L42.2969 0
L55.7969 0
L55.7969 71.4062
L41.5938 71.4062
L41.5938 45.4062
L41.4062 45.4062
Q39 49.2031 34.8438 51.1406
Q30.7031 53.0938 26.0938 53.0938
Q20.4062 53.0938 16.0938 50.8438
Q11.7969 48.5938 8.9375 44.8906
Q6.09375 41.2031 4.64062 36.3438
Q3.20312 31.5 3.20312 26.2969
Q3.20312 20.9062 4.64062 15.9062
Q6.09375 10.9062 8.9375 7.04688
Q11.7969 3.20312 16.1875 0.953125
Q20.5938 -1.29688 26.4062 -1.29688
Q31.5 -1.29688 35.5469 0.546875
Q39.5938 2.40625 42.0938 6.59375
z
" id="HelveticaNeue-Bold-64"/>
      <path d="
M40.2031 31.4062
L17.0938 31.4062
Q17.2031 32.9062 17.75 34.7969
Q18.2969 36.7031 19.6406 38.3906
Q21 40.0938 23.25 41.25
Q25.5 42.4062 28.9062 42.4062
Q34.0938 42.4062 36.6406 39.5938
Q39.2031 36.7969 40.2031 31.4062
M17.0938 22.4062
L54.4062 22.4062
Q54.7969 28.4062 53.3906 33.9062
Q52 39.4062 48.8438 43.7031
Q45.7031 48 40.7969 50.5469
Q35.9062 53.0938 29.2969 53.0938
Q23.4062 53.0938 18.5469 51
Q13.7031 48.9062 10.2031 45.25
Q6.70312 41.5938 4.79688 36.5938
Q2.90625 31.5938 2.90625 25.7969
Q2.90625 19.7969 4.75 14.7969
Q6.59375 9.79688 10 6.1875
Q13.4062 2.59375 18.2969 0.640625
Q23.2031 -1.29688 29.2969 -1.29688
Q38.0938 -1.29688 44.2969 2.70312
Q50.5 6.70312 53.5 16
L41 16
Q40.2969 13.5938 37.1875 11.4375
Q34.0938 9.29688 29.7969 9.29688
Q23.7969 9.29688 20.5938 12.3906
Q17.4062 15.5 17.0938 22.4062" id="HelveticaNeue-Bold-65"/>
      <path d="
M29.5 12.2031
Q26.2031 12.2031 24 13.5938
Q21.7969 15 20.4375 17.2031
Q19.0938 19.4062 18.5469 22.1562
Q18 24.9062 18 27.7031
Q18 30.5938 18.6406 33.25
Q19.2969 35.9062 20.75 37.9531
Q22.2031 40 24.3438 41.2031
Q26.5 42.4062 29.5 42.4062
Q33 42.4062 35.2969 41.0938
Q37.5938 39.7969 39 37.5938
Q40.4062 35.4062 41 32.5469
Q41.5938 29.7031 41.5938 26.5
Q41.5938 23.7031 40.8438 21.1406
Q40.0938 18.5938 38.5938 16.5938
Q37.0938 14.5938 34.7969 13.3906
Q32.5 12.2031 29.5 12.2031
M55.0938 3.29688
L55.0938 51.7031
L41.5938 51.7031
L41.5938 44.7969
L41.4062 44.7969
Q38.7969 49.2969 34.9375 51.1875
Q31.0938 53.0938 26 53.0938
Q20.5938 53.0938 16.4375 51
Q12.2969 48.9062 9.5 45.3438
Q6.70312 41.7969 5.25 37.1406
Q3.79688 32.5 3.79688 27.5
Q3.79688 22.2031 5.04688 17.4531
Q6.29688 12.7031 9 9.14062
Q11.7031 5.59375 15.8906 3.54688
Q20.0938 1.5 25.9062 1.5
Q30.5938 1.5 34.8438 3.45312
Q39.0938 5.40625 41.4062 9.5
L41.5938 9.5
L41.5938 2.70312
Q41.7031 -2.79688 38.9531 -6.39062
Q36.2031 -10 30.2031 -10
Q26.4062 -10 23.5 -8.45312
Q20.5938 -6.90625 19.5938 -2.90625
L5.5 -2.90625
Q5.79688 -7.29688 7.9375 -10.4375
Q10.0938 -13.5938 13.3438 -15.5938
Q16.5938 -17.5938 20.5469 -18.5469
Q24.5 -19.5 28.2969 -19.5
Q37.2031 -19.5 42.5 -17.0938
Q47.7969 -14.7031 50.5938 -11.25
Q53.4062 -7.79688 54.25 -3.79688
Q55.0938 0.203125 55.0938 3.29688" id="HelveticaNeue-Bold-67"/>
      <path id="HelveticaNeue-Bold-20"/>
      <path d="
M5.40625 71.4062
L5.40625 0
L19.5938 0
L19.5938 27.0938
Q19.5938 35 22.1875 38.4531
Q24.7969 41.9062 30.5938 41.9062
Q35.7031 41.9062 37.7031 38.75
Q39.7031 35.5938 39.7031 29.2031
L39.7031 0
L53.9062 0
L53.9062 31.7969
Q53.9062 36.5938 53.0469 40.5469
Q52.2031 44.5 50.0938 47.25
Q48 50 44.3438 51.5469
Q40.7031 53.0938 35 53.0938
Q31 53.0938 26.7969 51.0469
Q22.5938 49 19.9062 44.5
L19.5938 44.5
L19.5938 71.4062
z
" id="HelveticaNeue-Bold-68"/>
      <path d="
M20 59.7031
L20 71.4062
L5.79688 71.4062
L5.79688 59.7031
z

M5.79688 51.7031
L5.79688 0
L20 0
L20 51.7031
z
" id="HelveticaNeue-Bold-69"/>
      <path d="
M18 25.7969
Q18 28.9062 18.5938 31.9062
Q19.2031 34.9062 20.6406 37.2031
Q22.0938 39.5 24.5 40.9531
Q26.9062 42.4062 30.5 42.4062
Q34.0938 42.4062 36.5469 40.9531
Q39 39.5 40.4531 37.2031
Q41.9062 34.9062 42.5 31.9062
Q43.0938 28.9062 43.0938 25.7969
Q43.0938 22.7031 42.5 19.75
Q41.9062 16.7969 40.4531 14.4375
Q39 12.0938 36.5469 10.6875
Q34.0938 9.29688 30.5 9.29688
Q26.9062 9.29688 24.5 10.6875
Q22.0938 12.0938 20.6406 14.4375
Q19.2031 16.7969 18.5938 19.75
Q18 22.7031 18 25.7969
M3.79688 25.7969
Q3.79688 19.5938 5.6875 14.5938
Q7.59375 9.59375 11.0938 6.04688
Q14.5938 2.5 19.5 0.59375
Q24.4062 -1.29688 30.5 -1.29688
Q36.5938 -1.29688 41.5469 0.59375
Q46.5 2.5 50 6.04688
Q53.5 9.59375 55.3906 14.5938
Q57.2969 19.5938 57.2969 25.7969
Q57.2969 32 55.3906 37.0469
Q53.5 42.0938 50 45.6406
Q46.5 49.2031 41.5469 51.1406
Q36.5938 53.0938 30.5 53.0938
Q24.4062 53.0938 19.5 51.1406
Q14.5938 49.2031 11.0938 45.6406
Q7.59375 42.0938 5.6875 37.0469
Q3.79688 32 3.79688 25.7969" id="HelveticaNeue-Bold-6f"/>
      <path d="
M5.40625 51.7031
L5.40625 0
L19.5938 0
L19.5938 27.0938
Q19.5938 35 22.1875 38.4531
Q24.7969 41.9062 30.5938 41.9062
Q35.7031 41.9062 37.7031 38.75
Q39.7031 35.5938 39.7031 29.2031
L39.7031 0
L53.9062 0
L53.9062 31.7969
Q53.9062 36.5938 53.0469 40.5469
Q52.2031 44.5 50.0938 47.25
Q48 50 44.3438 51.5469
Q40.7031 53.0938 35 53.0938
Q30.5 53.0938 26.2031 51.0469
Q21.9062 49 19.2031 44.5
L18.9062 44.5
L18.9062 51.7031
z
" id="HelveticaNeue-Bold-6e"/>
      <path d="
M6.90625 71.4062
L6.90625 0
L21.5938 0
L21.5938 50.0938
L21.7969 50.0938
L39.2969 0
L51.4062 0
L68.9062 50.5938
L69.0938 50.5938
L69.0938 0
L83.7969 0
L83.7969 71.4062
L61.7031 71.4062
L45.9062 22.2969
L45.7031 22.2969
L29 71.4062
z
" id="HelveticaNeue-Bold-4d"/>
     </defs>
     <g transform="translate(247.7025 401.496144489)scale(0.16 -0.16)">
      <use xlink:href="#HelveticaNeue-Bold-4d"/>
      <use x="90.6999816895" xlink:href="#HelveticaNeue-Bold-6f"/>
      <use x="151.799972534" xlink:href="#HelveticaNeue-Bold-6e"/>
      <use x="211.099960327" xlink:href="#HelveticaNeue-Bold-74"/>
      <use x="246.299957275" xlink:href="#HelveticaNeue-Bold-68"/>
      <use x="305.599945068" xlink:href="#HelveticaNeue-Bold-20"/>
      <use x="333.399932861" xlink:href="#HelveticaNeue-Bold-65"/>
      <use x="390.799926758" xlink:href="#HelveticaNeue-Bold-6e"/>
      <use x="450.099914551" xlink:href="#HelveticaNeue-Bold-64"/>
      <use x="511.199905396" xlink:href="#HelveticaNeue-Bold-69"/>
      <use x="536.999893188" xlink:href="#HelveticaNeue-Bold-6e"/>
      <use x="596.299880981" xlink:href="#HelveticaNeue-Bold-67"/>
     </g>
    </g>
   </g>
   <g id="matplotlib.axis_2">
    <g id="ytick_1">
     <g id="line2d_12">
      <defs>
       <path d="
M0 0
L4 0" id="m728421d6d4" style="stroke:#000000;stroke-width:0.5;"/>
      </defs>
      <g>
       <use style="stroke:#000000;stroke-width:0.5;" x="73.125" xlink:href="#m728421d6d4" y="352.8"/>
      </g>
     </g>
     <g id="text_12">
      <!-- 0.65 -->
      <defs>
       <path d="
M8.29688 11.0938
L8.29688 0
L19.4062 0
L19.4062 11.0938
z
" id="HelveticaNeue-2e"/>
       <path d="
M41.4062 52.7969
L49.9062 52.7969
Q49.0938 61.5938 43.8906 66.25
Q38.7031 70.9062 29.9062 70.9062
Q22.2969 70.9062 17.2969 67.7031
Q12.2969 64.5 9.29688 59.2031
Q6.29688 53.9062 5.04688 47.0469
Q3.79688 40.2031 3.79688 32.9062
Q3.79688 27.2969 4.64062 21.2969
Q5.5 15.2969 8.09375 10.2969
Q10.7031 5.29688 15.5 2.09375
Q20.2969 -1.09375 28.2031 -1.09375
Q34.9062 -1.09375 39.4531 1.15625
Q44 3.40625 46.75 6.84375
Q49.5 10.2969 50.7031 14.5
Q51.9062 18.7031 51.9062 22.5938
Q51.9062 27.5 50.4062 31.7031
Q48.9062 35.9062 46.1562 39
Q43.4062 42.0938 39.3438 43.8438
Q35.2969 45.5938 30.2031 45.5938
Q24.4062 45.5938 19.9531 43.3906
Q15.5 41.2031 12.5 36.2969
L12.2969 36.5
Q12.4062 40.5938 13.0938 45.2969
Q13.7969 50 15.6406 54.0469
Q17.5 58.0938 20.7969 60.75
Q24.0938 63.4062 29.5 63.4062
Q34.5938 63.4062 37.6875 60.5
Q40.7969 57.5938 41.4062 52.7969
M28.5938 38.0938
Q32.2031 38.0938 34.8906 36.7969
Q37.5938 35.5 39.3906 33.3438
Q41.2031 31.2031 42.0469 28.25
Q42.9062 25.2969 42.9062 22
Q42.9062 18.9062 41.9531 16.0469
Q41 13.2031 39.2031 11
Q37.4062 8.79688 34.75 7.54688
Q32.0938 6.29688 28.5938 6.29688
Q25.0938 6.29688 22.3438 7.54688
Q19.5938 8.79688 17.75 10.8906
Q15.9062 13 14.9062 15.8906
Q13.9062 18.7969 13.9062 22.0938
Q13.9062 25.4062 14.8438 28.3438
Q15.7969 31.2969 17.6875 33.4375
Q19.5938 35.5938 22.2969 36.8438
Q25 38.0938 28.5938 38.0938" id="HelveticaNeue-36"/>
      </defs>
      <g transform="translate(43.12875 356.41921875)scale(0.14 -0.14)">
       <use xlink:href="#HelveticaNeue-30"/>
       <use x="55.5999908447" xlink:href="#HelveticaNeue-2e"/>
       <use x="83.3999786377" xlink:href="#HelveticaNeue-36"/>
       <use x="138.999969482" xlink:href="#HelveticaNeue-35"/>
      </g>
     </g>
    </g>
    <g id="ytick_2">
     <g id="line2d_13">
      <g>
       <use style="stroke:#000000;stroke-width:0.5;" x="73.125" xlink:href="#m728421d6d4" y="314.2125"/>
      </g>
     </g>
     <g id="text_13">
      <!-- 0.70 -->
      <defs>
       <path d="
M50.9062 62.4062
L50.9062 69.7031
L5 69.7031
L5 61.7031
L42.2031 61.7031
Q36.5938 55.7969 31.75 48.7969
Q26.9062 41.7969 23.2031 33.9375
Q19.5 26.0938 17.1406 17.5469
Q14.7969 9 14.2031 0
L23.7031 0
Q24.2031 8.29688 26.5 17.0938
Q28.7969 25.9062 32.4375 34.2031
Q36.0938 42.5 40.7969 49.7969
Q45.5 57.0938 50.9062 62.4062" id="HelveticaNeue-37"/>
      </defs>
      <g transform="translate(43.05875 317.83171875)scale(0.14 -0.14)">
       <use xlink:href="#HelveticaNeue-30"/>
       <use x="55.5999908447" xlink:href="#HelveticaNeue-2e"/>
       <use x="83.3999786377" xlink:href="#HelveticaNeue-37"/>
       <use x="138.999969482" xlink:href="#HelveticaNeue-30"/>
      </g>
     </g>
    </g>
    <g id="ytick_3">
     <g id="line2d_14">
      <g>
       <use style="stroke:#000000;stroke-width:0.5;" x="73.125" xlink:href="#m728421d6d4" y="275.625"/>
      </g>
     </g>
     <g id="text_14">
      <!-- 0.75 -->
      <g transform="translate(43.12875 279.24421875)scale(0.14 -0.14)">
       <use xlink:href="#HelveticaNeue-30"/>
       <use x="55.5999908447" xlink:href="#HelveticaNeue-2e"/>
       <use x="83.3999786377" xlink:href="#HelveticaNeue-37"/>
       <use x="138.999969482" xlink:href="#HelveticaNeue-35"/>
      </g>
     </g>
    </g>
    <g id="ytick_4">
     <g id="line2d_15">
      <g>
       <use style="stroke:#000000;stroke-width:0.5;" x="73.125" xlink:href="#m728421d6d4" y="237.0375"/>
      </g>
     </g>
     <g id="text_15">
      <!-- 0.80 -->
      <defs>
       <path d="
M15.5 52.5
Q15.5 55.2031 16.5 57.2031
Q17.5 59.2031 19.1406 60.5938
Q20.7969 62 23.0938 62.7031
Q25.4062 63.4062 27.9062 63.4062
Q33.0938 63.4062 36.4375 60.6562
Q39.7969 57.9062 39.7969 52.5
Q39.7969 47.0938 36.5 44.0938
Q33.2031 41.0938 28.0938 41.0938
Q25.5 41.0938 23.2031 41.7969
Q20.9062 42.5 19.2031 43.8906
Q17.5 45.2969 16.5 47.4375
Q15.5 49.5938 15.5 52.5
M6.5 52.7969
Q6.5 48 9.20312 43.9531
Q11.9062 39.9062 16.4062 38.0938
Q10.4062 36 7.20312 31.3438
Q4 26.7031 4 20.4062
Q4 15 5.84375 10.9531
Q7.70312 6.90625 10.9531 4.20312
Q14.2031 1.5 18.5938 0.203125
Q23 -1.09375 28.0938 -1.09375
Q33 -1.09375 37.2969 0.296875
Q41.5938 1.70312 44.75 4.45312
Q47.9062 7.20312 49.75 11.2031
Q51.5938 15.2031 51.5938 20.4062
Q51.5938 27 48.5 31.5469
Q45.4062 36.0938 39 38.0938
Q43.5 40.0938 46.1406 44.0469
Q48.7969 48 48.7969 52.7969
Q48.7969 56.2031 47.5938 59.4531
Q46.4062 62.7031 43.8438 65.25
Q41.2969 67.7969 37.1875 69.3438
Q33.0938 70.9062 27.2969 70.9062
Q23.2031 70.9062 19.4531 69.7031
Q15.7031 68.5 12.7969 66.2031
Q9.90625 63.9062 8.20312 60.5469
Q6.5 57.2031 6.5 52.7969
M13 20
Q13 23.0938 14.1406 25.5938
Q15.2969 28.0938 17.3438 29.8906
Q19.4062 31.7031 22.1562 32.6406
Q24.9062 33.5938 28 33.5938
Q31 33.5938 33.6406 32.5469
Q36.2969 31.5 38.2969 29.7031
Q40.2969 27.9062 41.4375 25.4531
Q42.5938 23 42.5938 20.0938
Q42.5938 17.0938 41.5469 14.5938
Q40.5 12.0938 38.5469 10.25
Q36.5938 8.40625 33.9375 7.34375
Q31.2969 6.29688 28.0938 6.29688
Q21.5 6.29688 17.25 9.9375
Q13 13.5938 13 20" id="HelveticaNeue-38"/>
      </defs>
      <g transform="translate(43.05875 240.65671875)scale(0.14 -0.14)">
       <use xlink:href="#HelveticaNeue-30"/>
       <use x="55.5999908447" xlink:href="#HelveticaNeue-2e"/>
       <use x="83.3999786377" xlink:href="#HelveticaNeue-38"/>
       <use x="138.999969482" xlink:href="#HelveticaNeue-30"/>
      </g>
     </g>
    </g>
    <g id="ytick_5">
     <g id="line2d_16">
      <g>
       <use style="stroke:#000000;stroke-width:0.5;" x="73.125" xlink:href="#m728421d6d4" y="198.45"/>
      </g>
     </g>
     <g id="text_16">
      <!-- 0.85 -->
      <g transform="translate(43.12875 202.06921875)scale(0.14 -0.14)">
       <use xlink:href="#HelveticaNeue-30"/>
       <use x="55.5999908447" xlink:href="#HelveticaNeue-2e"/>
       <use x="83.3999786377" xlink:href="#HelveticaNeue-38"/>
       <use x="138.999969482" xlink:href="#HelveticaNeue-35"/>
      </g>
     </g>
    </g>
    <g id="ytick_6">
     <g id="line2d_17">
      <g>
       <use style="stroke:#000000;stroke-width:0.5;" x="73.125" xlink:href="#m728421d6d4" y="159.8625"/>
      </g>
     </g>
     <g id="text_17">
      <!-- 0.90 -->
      <defs>
       <path d="
M13.4062 17.0938
L4.90625 17.0938
Q5.70312 7.90625 11.5938 3.40625
Q17.5 -1.09375 26.4062 -1.09375
Q39.2969 -1.09375 45.1406 8.75
Q51 18.5938 51 37
Q51 47.0938 49.0469 53.6406
Q47.0938 60.2031 43.7969 64
Q40.5 67.7969 36.0938 69.3438
Q31.7031 70.9062 26.7031 70.9062
Q21.5938 70.9062 17.2969 69.2031
Q13 67.5 9.89062 64.4531
Q6.79688 61.4062 5.09375 57.1562
Q3.40625 52.9062 3.40625 47.7969
Q3.40625 42.5938 4.84375 38.1875
Q6.29688 33.7969 9.14062 30.6875
Q12 27.5938 16.2031 25.8438
Q20.4062 24.0938 25.7969 24.0938
Q31 24.0938 35.3906 26.75
Q39.7969 29.4062 42.2031 33.9062
L42.4062 33.7031
Q42 19.7969 38.0938 13.0469
Q34.2031 6.29688 26.4062 6.29688
Q21.2969 6.29688 17.5938 9.09375
Q13.9062 11.9062 13.4062 17.0938
M40.9062 47.2031
Q40.9062 44.0938 39.9062 41.25
Q38.9062 38.4062 37 36.25
Q35.0938 34.0938 32.3906 32.8438
Q29.7031 31.5938 26.4062 31.5938
Q23.2969 31.5938 20.75 32.8438
Q18.2031 34.0938 16.3438 36.1875
Q14.5 38.2969 13.4531 41
Q12.4062 43.7031 12.4062 46.5938
Q12.4062 49.9062 13.1562 52.9062
Q13.9062 55.9062 15.5469 58.25
Q17.2031 60.5938 19.8438 62
Q22.5 63.4062 26.2969 63.4062
Q29.9062 63.4062 32.5938 62.0938
Q35.2969 60.7969 37.1406 58.5469
Q39 56.2969 39.9531 53.3906
Q40.9062 50.5 40.9062 47.2031" id="HelveticaNeue-39"/>
      </defs>
      <g transform="translate(43.05875 163.48171875)scale(0.14 -0.14)">
       <use xlink:href="#HelveticaNeue-30"/>
       <use x="55.5999908447" xlink:href="#HelveticaNeue-2e"/>
       <use x="83.3999786377" xlink:href="#HelveticaNeue-39"/>
       <use x="138.999969482" xlink:href="#HelveticaNeue-30"/>
      </g>
     </g>
    </g>
    <g id="ytick_7">
     <g id="line2d_18">
      <g>
       <use style="stroke:#000000;stroke-width:0.5;" x="73.125" xlink:href="#m728421d6d4" y="121.275"/>
      </g>
     </g>
     <g id="text_18">
      <!-- 0.95 -->
      <g transform="translate(43.12875 124.89421875)scale(0.14 -0.14)">
       <use xlink:href="#HelveticaNeue-30"/>
       <use x="55.5999908447" xlink:href="#HelveticaNeue-2e"/>
       <use x="83.3999786377" xlink:href="#HelveticaNeue-39"/>
       <use x="138.999969482" xlink:href="#HelveticaNeue-35"/>
      </g>
     </g>
    </g>
    <g id="ytick_8">
     <g id="line2d_19">
      <g>
       <use style="stroke:#000000;stroke-width:0.5;" x="73.125" xlink:href="#m728421d6d4" y="82.6875"/>
      </g>
     </g>
     <g id="text_19">
      <!-- 1.00 -->
      <g transform="translate(43.68875 86.30671875)scale(0.14 -0.14)">
       <use xlink:href="#HelveticaNeue-31"/>
       <use x="55.5999908447" xlink:href="#HelveticaNeue-2e"/>
       <use x="83.3999786377" xlink:href="#HelveticaNeue-30"/>
       <use x="138.999969482" xlink:href="#HelveticaNeue-30"/>
      </g>
     </g>
    </g>
    <g id="ytick_9">
     <g id="line2d_20">
      <g>
       <use style="stroke:#000000;stroke-width:0.5;" x="73.125" xlink:href="#m728421d6d4" y="44.1"/>
      </g>
     </g>
     <g id="text_20">
      <!-- 1.05 -->
      <g transform="translate(43.75875 47.71921875)scale(0.14 -0.14)">
       <use xlink:href="#HelveticaNeue-31"/>
       <use x="55.5999908447" xlink:href="#HelveticaNeue-2e"/>
       <use x="83.3999786377" xlink:href="#HelveticaNeue-30"/>
       <use x="138.999969482" xlink:href="#HelveticaNeue-35"/>
      </g>
     </g>
    </g>
    <g id="text_21">
     <!-- Spending/Max -->
     <defs>
      <path d="
M17.5938 23.7031
L2.40625 23.7031
Q2.29688 17.0938 4.79688 12.2969
Q7.29688 7.5 11.5469 4.39062
Q15.7969 1.29688 21.3438 -0.140625
Q26.9062 -1.59375 32.7969 -1.59375
Q40.0938 -1.59375 45.6406 0.09375
Q51.2031 1.79688 54.9531 4.84375
Q58.7031 7.90625 60.5938 12.0938
Q62.5 16.2969 62.5 21.2031
Q62.5 27.2031 59.9531 31.0469
Q57.4062 34.9062 53.9062 37.2031
Q50.4062 39.5 46.8438 40.5469
Q43.2969 41.5938 41.2969 42
Q34.5938 43.7031 30.4375 44.7969
Q26.2969 45.9062 23.9375 47
Q21.5938 48.0938 20.7969 49.3906
Q20 50.7031 20 52.7969
Q20 55.0938 21 56.5938
Q22 58.0938 23.5469 59.0938
Q25.0938 60.0938 27 60.5
Q28.9062 60.9062 30.7969 60.9062
Q33.7031 60.9062 36.1406 60.4062
Q38.5938 59.9062 40.5 58.7031
Q42.4062 57.5 43.5469 55.3906
Q44.7031 53.2969 44.9062 50.0938
L60.0938 50.0938
Q60.0938 56.2969 57.75 60.6406
Q55.4062 65 51.4062 67.7969
Q47.4062 70.5938 42.25 71.8438
Q37.0938 73.0938 31.5 73.0938
Q26.7031 73.0938 21.8906 71.7969
Q17.0938 70.5 13.2969 67.7969
Q9.5 65.0938 7.14062 61.0469
Q4.79688 57 4.79688 51.5
Q4.79688 46.5938 6.64062 43.1406
Q8.5 39.7031 11.5 37.3906
Q14.5 35.0938 18.2969 33.6406
Q22.0938 32.2031 26.0938 31.2031
Q30 30.0938 33.7969 29.1875
Q37.5938 28.2969 40.5938 27.0938
Q43.5938 25.9062 45.4375 24.0938
Q47.2969 22.2969 47.2969 19.4062
Q47.2969 16.7031 45.8906 14.9531
Q44.5 13.2031 42.3906 12.2031
Q40.2969 11.2031 37.8906 10.8438
Q35.5 10.5 33.4062 10.5
Q30.2969 10.5 27.3906 11.25
Q24.5 12 22.3438 13.5469
Q20.2031 15.0938 18.8906 17.5938
Q17.5938 20.0938 17.5938 23.7031" id="HelveticaNeue-Bold-53"/>
      <path d="
M18.5938 27.2031
L0 0
L15.9062 0
L26.7031 16.2969
L37.5 0
L53.7031 0
L34.5938 27.5
L51.5938 51.7031
L35.9062 51.7031
L26.9062 38.2031
L17.7969 51.7031
L1.59375 51.7031
z
" id="HelveticaNeue-Bold-78"/>
      <path d="
M26.7969 73.0938
L-1 -1.59375
L10.2969 -1.59375
L38.2031 73.0938
z
" id="HelveticaNeue-Bold-2f"/>
      <path d="
M31.5 9.29688
Q28.0938 9.29688 25.6875 10.6875
Q23.2969 12.0938 21.8438 14.3438
Q20.4062 16.5938 19.75 19.5938
Q19.0938 22.5938 19.0938 25.7031
Q19.0938 28.9062 19.6875 31.9062
Q20.2969 34.9062 21.75 37.2031
Q23.2031 39.5 25.5469 40.9531
Q27.9062 42.4062 31.4062 42.4062
Q34.7969 42.4062 37.1406 40.9531
Q39.5 39.5 41 37.1406
Q42.5 34.7969 43.1406 31.7969
Q43.7969 28.7969 43.7969 25.7031
Q43.7969 22.5938 43.1875 19.5938
Q42.5938 16.5938 41.1406 14.3438
Q39.7031 12.0938 37.3438 10.6875
Q35 9.29688 31.5 9.29688
M5.40625 51.7031
L5.40625 -18.0938
L19.5938 -18.0938
L19.5938 6.40625
L19.7969 6.40625
Q22.4062 2.59375 26.4531 0.640625
Q30.5 -1.29688 35.2969 -1.29688
Q41 -1.29688 45.25 0.890625
Q49.5 3.09375 52.3438 6.79688
Q55.2031 10.5 56.5938 15.2969
Q58 20.0938 58 25.2969
Q58 30.7969 56.5938 35.8438
Q55.2031 40.9062 52.2969 44.7031
Q49.4062 48.5 45 50.7969
Q40.5938 53.0938 34.5 53.0938
Q29.7031 53.0938 25.7031 51.1875
Q21.7031 49.2969 19.0938 45.0938
L18.9062 45.0938
L18.9062 51.7031
z
" id="HelveticaNeue-Bold-70"/>
      <path d="
M4.79688 35.7969
L19 35.7969
Q19.4062 40 21.7969 41.7969
Q24.2031 43.5938 28.4062 43.5938
Q30.2969 43.5938 31.9375 43.3438
Q33.5938 43.0938 34.8438 42.3438
Q36.0938 41.5938 36.8438 40.25
Q37.5938 38.9062 37.5938 36.5938
Q37.7031 34.4062 36.2969 33.25
Q34.9062 32.0938 32.5 31.5
Q30.0938 30.9062 27 30.5938
Q23.9062 30.2969 20.7031 29.7969
Q17.5 29.2969 14.3438 28.4375
Q11.2031 27.5938 8.75 25.8906
Q6.29688 24.2031 4.75 21.3438
Q3.20312 18.5 3.20312 14.0938
Q3.20312 10.0938 4.54688 7.1875
Q5.90625 4.29688 8.29688 2.39062
Q10.7031 0.5 13.8906 -0.390625
Q17.0938 -1.29688 20.7969 -1.29688
Q25.5938 -1.29688 30.1875 0.09375
Q34.7969 1.5 38.2031 5
Q38.2969 3.70312 38.5469 2.45312
Q38.7969 1.20312 39.2031 0
L53.5938 0
Q52.5938 1.59375 52.1875 4.79688
Q51.7969 8 51.7969 11.5
L51.7969 38.4062
Q51.7969 43.0938 49.6875 45.9375
Q47.5938 48.7969 44.2969 50.3906
Q41 52 37 52.5469
Q33 53.0938 29.0938 53.0938
Q24.7969 53.0938 20.5469 52.25
Q16.2969 51.4062 12.8906 49.4062
Q9.5 47.4062 7.29688 44.0938
Q5.09375 40.7969 4.79688 35.7969
M37.5938 25.2969
L37.5938 20
Q37.5938 18.7969 37.3438 16.7969
Q37.0938 14.7969 36 12.8438
Q34.9062 10.9062 32.5938 9.5
Q30.2969 8.09375 26.0938 8.09375
Q24.4062 8.09375 22.7969 8.39062
Q21.2031 8.70312 20 9.45312
Q18.7969 10.2031 18.0938 11.5
Q17.4062 12.7969 17.4062 14.7031
Q17.4062 16.7031 18.0938 18
Q18.7969 19.2969 19.9375 20.1406
Q21.0938 21 22.6406 21.5
Q24.2031 22 25.7969 22.2969
Q27.5 22.5938 29.2031 22.7969
Q30.9062 23 32.4531 23.2969
Q34 23.5938 35.3438 24.0469
Q36.7031 24.5 37.5938 25.2969" id="HelveticaNeue-Bold-61"/>
     </defs>
     <g transform="translate(34.93875 253.3775)rotate(-90.0)scale(0.16 -0.16)">
      <use xlink:href="#HelveticaNeue-Bold-53"/>
      <use x="64.8999938965" xlink:href="#HelveticaNeue-Bold-70"/>
      <use x="125.999984741" xlink:href="#HelveticaNeue-Bold-65"/>
      <use x="183.399978638" xlink:href="#HelveticaNeue-Bold-6e"/>
      <use x="242.699966431" xlink:href="#HelveticaNeue-Bold-64"/>
      <use x="303.799957275" xlink:href="#HelveticaNeue-Bold-69"/>
      <use x="329.599945068" xlink:href="#HelveticaNeue-Bold-6e"/>
      <use x="388.899932861" xlink:href="#HelveticaNeue-Bold-67"/>
      <use x="449.999923706" xlink:href="#HelveticaNeue-Bold-2f"/>
      <use x="487.099914551" xlink:href="#HelveticaNeue-Bold-4d"/>
      <use x="577.79989624" xlink:href="#HelveticaNeue-Bold-61"/>
      <use x="635.199890137" xlink:href="#HelveticaNeue-Bold-78"/>
     </g>
    </g>
   </g>
   <g id="patch_3">
    <path d="
M73.125 352.8
L526.5 352.8" style="fill:none;stroke:#000000;"/>
   </g>
   <g id="patch_4">
    <path d="
M73.125 352.8
L73.125 44.1" style="fill:none;stroke:#000000;"/>
   </g>
   <g id="legend_1">
    <g id="PathCollection_2">
     <defs>
      <path d="
M0 2.23607
C0.593012 2.23607 1.16182 2.00046 1.58114 1.58114
C2.00046 1.16182 2.23607 0.593012 2.23607 0
C2.23607 -0.593012 2.00046 -1.16182 1.58114 -1.58114
C1.16182 -2.00046 0.593012 -2.23607 0 -2.23607
C-0.593012 -2.23607 -1.16182 -2.00046 -1.58114 -1.58114
C-2.00046 -1.16182 -2.23607 -0.593012 -2.23607 0
C-2.23607 0.593012 -2.00046 1.16182 -1.58114 1.58114
C-1.16182 2.00046 -0.593012 2.23607 0 2.23607
z
" id="C1_0_919e3f95db"/>
      <path d="
M0 2.23607
C0.593012 2.23607 1.16182 2.00046 1.58114 1.58114
C2.00046 1.16182 2.23607 0.593012 2.23607 0
C2.23607 -0.593012 2.00046 -1.16182 1.58114 -1.58114
C1.16182 -2.00046 0.593012 -2.23607 0 -2.23607
C-0.593012 -2.23607 -1.16182 -2.00046 -1.58114 -1.58114
C-2.00046 -1.16182 -2.23607 -0.593012 -2.23607 0
C-2.23607 0.593012 -2.00046 1.16182 -1.58114 1.58114
C-1.16182 2.00046 -0.593012 2.23607 0 2.23607
z
" id="C1_1_919e3f95db"/>
      <path d="
M0 2.23607
C0.593012 2.23607 1.16182 2.00046 1.58114 1.58114
C2.00046 1.16182 2.23607 0.593012 2.23607 0
C2.23607 -0.593012 2.00046 -1.16182 1.58114 -1.58114
C1.16182 -2.00046 0.593012 -2.23607 0 -2.23607
C-0.593012 -2.23607 -1.16182 -2.00046 -1.58114 -1.58114
C-2.00046 -1.16182 -2.23607 -0.593012 -2.23607 0
C-2.23607 0.593012 -2.00046 1.16182 -1.58114 1.58114
C-1.16182 2.00046 -0.593012 2.23607 0 2.23607
z
" id="C1_2_919e3f95db"/>
     </defs>
     <use style="fill:#ffa500;stroke:#ffa500;stroke-width:3.0;" x="432.1975" xlink:href="#C1_0_919e3f95db" y="64.705"/>
     <use style="fill:#ffa500;stroke:#ffa500;stroke-width:3.0;" x="442.2775" xlink:href="#C1_1_919e3f95db" y="63.445"/>
     <use style="fill:#ffa500;stroke:#ffa500;stroke-width:3.0;" x="452.3575" xlink:href="#C1_2_919e3f95db" y="65.335"/>
    </g>
    <g id="text_22">
     <!-- Data -->
     <defs>
      <path d="
M22.5938 13.2031
L22.5938 58.2031
L33.7969 58.2031
Q39.5938 58.2031 43.5469 56.5469
Q47.5 54.9062 49.8906 51.7969
Q52.2969 48.7031 53.3438 44.3438
Q54.4062 40 54.4062 34.5938
Q54.4062 28.7031 52.9062 24.5938
Q51.4062 20.5 48.9062 17.9531
Q46.4062 15.4062 43.2031 14.2969
Q40 13.2031 36.5938 13.2031
z

M6.90625 71.4062
L6.90625 0
L37.7031 0
Q45.9062 0 51.9531 2.75
Q58 5.5 62.0469 10.2969
Q66.0938 15.0938 68.0938 21.6875
Q70.0938 28.2969 70.0938 36.0938
Q70.0938 45 67.6406 51.5938
Q65.2031 58.2031 60.8438 62.5938
Q56.5 67 50.5469 69.2031
Q44.5938 71.4062 37.7031 71.4062
z
" id="HelveticaNeue-Bold-44"/>
     </defs>
     <g transform="translate(468.1975 68.485)scale(0.16 -0.16)">
      <use xlink:href="#HelveticaNeue-Bold-44"/>
      <use x="74.0999908447" xlink:href="#HelveticaNeue-Bold-61"/>
      <use x="131.499984741" xlink:href="#HelveticaNeue-Bold-74"/>
      <use x="166.699981689" xlink:href="#HelveticaNeue-Bold-61"/>
     </g>
    </g>
    <g id="line2d_21">
     <path d="
M432.197 84.965
L452.357 84.965" style="fill:none;stroke:#008000;stroke-dasharray:6.000000,6.000000;stroke-dashoffset:0.0;stroke-width:3;"/>
    </g>
    <g id="line2d_22"/>
    <g id="text_23">
     <!-- Model -->
     <defs>
      <path d="
M5.79688 71.4062
L5.79688 0
L20 0
L20 71.4062
z
" id="HelveticaNeue-Bold-6c"/>
     </defs>
     <g transform="translate(468.1975 90.005)scale(0.16 -0.16)">
      <use xlink:href="#HelveticaNeue-Bold-4d"/>
      <use x="90.6999816895" xlink:href="#HelveticaNeue-Bold-6f"/>
      <use x="151.799972534" xlink:href="#HelveticaNeue-Bold-64"/>
      <use x="212.899963379" xlink:href="#HelveticaNeue-Bold-65"/>
      <use x="270.299957275" xlink:href="#HelveticaNeue-Bold-6c"/>
     </g>
    </g>
   </g>
  </g>
 </g>
 <defs>
  <clipPath id="p8c402b6962">
   <rect height="308.7" width="453.375" x="73.125" y="44.1"/>
  </clipPath>
 </defs>
</svg>
