<?xml version="1.0" encoding="utf-8" standalone="no"?>
<!DOCTYPE svg PUBLIC "-//W3C//DTD SVG 1.1//EN"
  "http://www.w3.org/Graphics/SVG/1.1/DTD/svg11.dtd">
<!-- Created with matplotlib (http://matplotlib.org/) -->
<svg height="441pt" version="1.1" viewBox="0 0 585 441" width="585pt" xmlns="http://www.w3.org/2000/svg" xmlns:xlink="http://www.w3.org/1999/xlink">
 <defs>
  <style type="text/css">
*{stroke-linecap:butt;stroke-linejoin:round;}
  </style>
 </defs>
 <g id="figure_1">
  <g id="patch_1">
   <path d="
M0 441
L585 441
L585 0
L0 0
z
" style="fill:#ffffff;"/>
  </g>
  <g id="axes_1">
   <g id="patch_2">
    <path d="
M73.125 396.9
L526.5 396.9
L526.5 44.1
L73.125 44.1
z
" style="fill:#ffffff;"/>
   </g>
   <g id="matplotlib.axis_1">
    <g id="xtick_1">
     <g id="line2d_1">
      <defs>
       <path d="
M0 0
L0 -4" id="m93b0483c22" style="stroke:#000000;stroke-width:0.5;"/>
      </defs>
      <g>
       <use style="stroke:#000000;stroke-width:0.5;" x="73.125" xlink:href="#m93b0483c22" y="396.9"/>
      </g>
     </g>
     <g id="text_1">
      <!-- 5,000 -->
      <defs>
       <path d="
M47 62.2031
L47 69.7031
L12 69.7031
L5.40625 32.9062
L12.7031 32.5
Q15.2031 35.5 18.4531 37.3438
Q21.7031 39.2031 25.9062 39.2031
Q29.5 39.2031 32.4531 38
Q35.4062 36.7969 37.5 34.6406
Q39.5938 32.5 40.75 29.5469
Q41.9062 26.5938 41.9062 23.0938
Q41.9062 18.9062 40.7031 15.75
Q39.5 12.5938 37.4531 10.5
Q35.4062 8.40625 32.6562 7.34375
Q29.9062 6.29688 26.9062 6.29688
Q23.7031 6.29688 21.0469 7.25
Q18.4062 8.20312 16.4531 9.95312
Q14.5 11.7031 13.3438 14.0469
Q12.2031 16.4062 12 19.0938
L3.5 19.0938
Q3.59375 14.2969 5.39062 10.5
Q7.20312 6.70312 10.2969 4.14062
Q13.4062 1.59375 17.4531 0.25
Q21.5 -1.09375 26.0938 -1.09375
Q32.2969 -1.09375 36.9375 0.84375
Q41.5938 2.79688 44.6875 6.09375
Q47.7969 9.40625 49.3438 13.6562
Q50.9062 17.9062 50.9062 22.4062
Q50.9062 28.5 49.0938 33.0469
Q47.2969 37.5938 44.1875 40.6406
Q41.0938 43.7031 36.8906 45.2031
Q32.7031 46.7031 28 46.7031
Q24.4062 46.7031 20.75 45.4531
Q17.0938 44.2031 14.7969 41.5938
L14.5938 41.7969
L18.4062 62.2031
z
" id="HelveticaNeue-35"/>
       <path d="
M8.29688 11.0938
L8.29688 0
L14.2031 0
Q14.2969 -1.20312 14.0469 -2.59375
Q13.7969 -4 13.0938 -5.34375
Q12.4062 -6.70312 11.25 -7.84375
Q10.0938 -9 8.40625 -9.59375
L8.40625 -14.5938
Q14.2031 -12.9062 16.7969 -8.79688
Q19.4062 -4.70312 19.4062 1
L19.4062 11.0938
z
" id="HelveticaNeue-2c"/>
       <path d="
M13.2031 34.9062
Q13.2031 37.5 13.25 40.6406
Q13.2969 43.7969 13.75 46.9375
Q14.2031 50.0938 15.0469 53.0938
Q15.9062 56.0938 17.5469 58.3438
Q19.2031 60.5938 21.7031 62
Q24.2031 63.4062 27.7969 63.4062
Q31.4062 63.4062 33.9062 62
Q36.4062 60.5938 38.0469 58.3438
Q39.7031 56.0938 40.5469 53.0938
Q41.4062 50.0938 41.8438 46.9375
Q42.2969 43.7969 42.3438 40.6406
Q42.4062 37.5 42.4062 34.9062
Q42.4062 30.9062 42.1562 25.9531
Q41.9062 21 40.5469 16.6406
Q39.2031 12.2969 36.2031 9.29688
Q33.2031 6.29688 27.7969 6.29688
Q22.4062 6.29688 19.4062 9.29688
Q16.4062 12.2969 15.0469 16.6406
Q13.7031 21 13.4531 25.9531
Q13.2031 30.9062 13.2031 34.9062
M4.20312 34.7969
Q4.20312 30.9062 4.39062 26.7031
Q4.59375 22.5 5.39062 18.5
Q6.20312 14.5 7.70312 10.9531
Q9.20312 7.40625 11.7969 4.70312
Q14.4062 2 18.3438 0.453125
Q22.2969 -1.09375 27.7969 -1.09375
Q33.4062 -1.09375 37.2969 0.453125
Q41.2031 2 43.7969 4.70312
Q46.4062 7.40625 47.9062 10.9531
Q49.4062 14.5 50.2031 18.5
Q51 22.5 51.2031 26.7031
Q51.4062 30.9062 51.4062 34.7969
Q51.4062 38.7031 51.2031 42.8906
Q51 47.0938 50.2031 51.0938
Q49.4062 55.0938 47.9062 58.6875
Q46.4062 62.2969 43.7969 65
Q41.2031 67.7031 37.25 69.2969
Q33.2969 70.9062 27.7969 70.9062
Q22.2969 70.9062 18.3438 69.2969
Q14.4062 67.7031 11.7969 65
Q9.20312 62.2969 7.70312 58.6875
Q6.20312 55.0938 5.39062 51.0938
Q4.59375 47.0938 4.39062 42.8906
Q4.20312 38.7031 4.20312 34.7969" id="HelveticaNeue-30"/>
      </defs>
      <g transform="translate(56.15109375 410.896875)scale(0.14 -0.14)">
       <use xlink:href="#HelveticaNeue-35"/>
       <use x="55.5999908447" xlink:href="#HelveticaNeue-2c"/>
       <use x="83.3999786377" xlink:href="#HelveticaNeue-30"/>
       <use x="138.999969482" xlink:href="#HelveticaNeue-30"/>
       <use x="194.599960327" xlink:href="#HelveticaNeue-30"/>
      </g>
     </g>
    </g>
    <g id="xtick_2">
     <g id="line2d_2">
      <g>
       <use style="stroke:#000000;stroke-width:0.5;" x="163.8" xlink:href="#m93b0483c22" y="396.9"/>
      </g>
     </g>
     <g id="text_2">
      <!-- 6,000 -->
      <defs>
       <path d="
M41.4062 52.7969
L49.9062 52.7969
Q49.0938 61.5938 43.8906 66.25
Q38.7031 70.9062 29.9062 70.9062
Q22.2969 70.9062 17.2969 67.7031
Q12.2969 64.5 9.29688 59.2031
Q6.29688 53.9062 5.04688 47.0469
Q3.79688 40.2031 3.79688 32.9062
Q3.79688 27.2969 4.64062 21.2969
Q5.5 15.2969 8.09375 10.2969
Q10.7031 5.29688 15.5 2.09375
Q20.2969 -1.09375 28.2031 -1.09375
Q34.9062 -1.09375 39.4531 1.15625
Q44 3.40625 46.75 6.84375
Q49.5 10.2969 50.7031 14.5
Q51.9062 18.7031 51.9062 22.5938
Q51.9062 27.5 50.4062 31.7031
Q48.9062 35.9062 46.1562 39
Q43.4062 42.0938 39.3438 43.8438
Q35.2969 45.5938 30.2031 45.5938
Q24.4062 45.5938 19.9531 43.3906
Q15.5 41.2031 12.5 36.2969
L12.2969 36.5
Q12.4062 40.5938 13.0938 45.2969
Q13.7969 50 15.6406 54.0469
Q17.5 58.0938 20.7969 60.75
Q24.0938 63.4062 29.5 63.4062
Q34.5938 63.4062 37.6875 60.5
Q40.7969 57.5938 41.4062 52.7969
M28.5938 38.0938
Q32.2031 38.0938 34.8906 36.7969
Q37.5938 35.5 39.3906 33.3438
Q41.2031 31.2031 42.0469 28.25
Q42.9062 25.2969 42.9062 22
Q42.9062 18.9062 41.9531 16.0469
Q41 13.2031 39.2031 11
Q37.4062 8.79688 34.75 7.54688
Q32.0938 6.29688 28.5938 6.29688
Q25.0938 6.29688 22.3438 7.54688
Q19.5938 8.79688 17.75 10.8906
Q15.9062 13 14.9062 15.8906
Q13.9062 18.7969 13.9062 22.0938
Q13.9062 25.4062 14.8438 28.3438
Q15.7969 31.2969 17.6875 33.4375
Q19.5938 35.5938 22.2969 36.8438
Q25 38.0938 28.5938 38.0938" id="HelveticaNeue-36"/>
      </defs>
      <g transform="translate(146.846875 410.896875)scale(0.14 -0.14)">
       <use xlink:href="#HelveticaNeue-36"/>
       <use x="55.5999908447" xlink:href="#HelveticaNeue-2c"/>
       <use x="83.3999786377" xlink:href="#HelveticaNeue-30"/>
       <use x="138.999969482" xlink:href="#HelveticaNeue-30"/>
       <use x="194.599960327" xlink:href="#HelveticaNeue-30"/>
      </g>
     </g>
    </g>
    <g id="xtick_3">
     <g id="line2d_3">
      <g>
       <use style="stroke:#000000;stroke-width:0.5;" x="254.475" xlink:href="#m93b0483c22" y="396.9"/>
      </g>
     </g>
     <g id="text_3">
      <!-- 7,000 -->
      <defs>
       <path d="
M50.9062 62.4062
L50.9062 69.7031
L5 69.7031
L5 61.7031
L42.2031 61.7031
Q36.5938 55.7969 31.75 48.7969
Q26.9062 41.7969 23.2031 33.9375
Q19.5 26.0938 17.1406 17.5469
Q14.7969 9 14.2031 0
L23.7031 0
Q24.2031 8.29688 26.5 17.0938
Q28.7969 25.9062 32.4375 34.2031
Q36.0938 42.5 40.7969 49.7969
Q45.5 57.0938 50.9062 62.4062" id="HelveticaNeue-37"/>
      </defs>
      <g transform="translate(237.60609375 410.896875)scale(0.14 -0.14)">
       <use xlink:href="#HelveticaNeue-37"/>
       <use x="55.5999908447" xlink:href="#HelveticaNeue-2c"/>
       <use x="83.3999786377" xlink:href="#HelveticaNeue-30"/>
       <use x="138.999969482" xlink:href="#HelveticaNeue-30"/>
       <use x="194.599960327" xlink:href="#HelveticaNeue-30"/>
      </g>
     </g>
    </g>
    <g id="xtick_4">
     <g id="line2d_4">
      <g>
       <use style="stroke:#000000;stroke-width:0.5;" x="345.15" xlink:href="#m93b0483c22" y="396.9"/>
      </g>
     </g>
     <g id="text_4">
      <!-- 8,000 -->
      <defs>
       <path d="
M15.5 52.5
Q15.5 55.2031 16.5 57.2031
Q17.5 59.2031 19.1406 60.5938
Q20.7969 62 23.0938 62.7031
Q25.4062 63.4062 27.9062 63.4062
Q33.0938 63.4062 36.4375 60.6562
Q39.7969 57.9062 39.7969 52.5
Q39.7969 47.0938 36.5 44.0938
Q33.2031 41.0938 28.0938 41.0938
Q25.5 41.0938 23.2031 41.7969
Q20.9062 42.5 19.2031 43.8906
Q17.5 45.2969 16.5 47.4375
Q15.5 49.5938 15.5 52.5
M6.5 52.7969
Q6.5 48 9.20312 43.9531
Q11.9062 39.9062 16.4062 38.0938
Q10.4062 36 7.20312 31.3438
Q4 26.7031 4 20.4062
Q4 15 5.84375 10.9531
Q7.70312 6.90625 10.9531 4.20312
Q14.2031 1.5 18.5938 0.203125
Q23 -1.09375 28.0938 -1.09375
Q33 -1.09375 37.2969 0.296875
Q41.5938 1.70312 44.75 4.45312
Q47.9062 7.20312 49.75 11.2031
Q51.5938 15.2031 51.5938 20.4062
Q51.5938 27 48.5 31.5469
Q45.4062 36.0938 39 38.0938
Q43.5 40.0938 46.1406 44.0469
Q48.7969 48 48.7969 52.7969
Q48.7969 56.2031 47.5938 59.4531
Q46.4062 62.7031 43.8438 65.25
Q41.2969 67.7969 37.1875 69.3438
Q33.0938 70.9062 27.2969 70.9062
Q23.2031 70.9062 19.4531 69.7031
Q15.7031 68.5 12.7969 66.2031
Q9.90625 63.9062 8.20312 60.5469
Q6.5 57.2031 6.5 52.7969
M13 20
Q13 23.0938 14.1406 25.5938
Q15.2969 28.0938 17.3438 29.8906
Q19.4062 31.7031 22.1562 32.6406
Q24.9062 33.5938 28 33.5938
Q31 33.5938 33.6406 32.5469
Q36.2969 31.5 38.2969 29.7031
Q40.2969 27.9062 41.4375 25.4531
Q42.5938 23 42.5938 20.0938
Q42.5938 17.0938 41.5469 14.5938
Q40.5 12.0938 38.5469 10.25
Q36.5938 8.40625 33.9375 7.34375
Q31.2969 6.29688 28.0938 6.29688
Q21.5 6.29688 17.25 9.9375
Q13 13.5938 13 20" id="HelveticaNeue-38"/>
      </defs>
      <g transform="translate(328.21109375 410.896875)scale(0.14 -0.14)">
       <use xlink:href="#HelveticaNeue-38"/>
       <use x="55.5999908447" xlink:href="#HelveticaNeue-2c"/>
       <use x="83.3999786377" xlink:href="#HelveticaNeue-30"/>
       <use x="138.999969482" xlink:href="#HelveticaNeue-30"/>
       <use x="194.599960327" xlink:href="#HelveticaNeue-30"/>
      </g>
     </g>
    </g>
    <g id="xtick_5">
     <g id="line2d_5">
      <g>
       <use style="stroke:#000000;stroke-width:0.5;" x="435.825" xlink:href="#m93b0483c22" y="396.9"/>
      </g>
     </g>
     <g id="text_5">
      <!-- 9,000 -->
      <defs>
       <path d="
M13.4062 17.0938
L4.90625 17.0938
Q5.70312 7.90625 11.5938 3.40625
Q17.5 -1.09375 26.4062 -1.09375
Q39.2969 -1.09375 45.1406 8.75
Q51 18.5938 51 37
Q51 47.0938 49.0469 53.6406
Q47.0938 60.2031 43.7969 64
Q40.5 67.7969 36.0938 69.3438
Q31.7031 70.9062 26.7031 70.9062
Q21.5938 70.9062 17.2969 69.2031
Q13 67.5 9.89062 64.4531
Q6.79688 61.4062 5.09375 57.1562
Q3.40625 52.9062 3.40625 47.7969
Q3.40625 42.5938 4.84375 38.1875
Q6.29688 33.7969 9.14062 30.6875
Q12 27.5938 16.2031 25.8438
Q20.4062 24.0938 25.7969 24.0938
Q31 24.0938 35.3906 26.75
Q39.7969 29.4062 42.2031 33.9062
L42.4062 33.7031
Q42 19.7969 38.0938 13.0469
Q34.2031 6.29688 26.4062 6.29688
Q21.2969 6.29688 17.5938 9.09375
Q13.9062 11.9062 13.4062 17.0938
M40.9062 47.2031
Q40.9062 44.0938 39.9062 41.25
Q38.9062 38.4062 37 36.25
Q35.0938 34.0938 32.3906 32.8438
Q29.7031 31.5938 26.4062 31.5938
Q23.2969 31.5938 20.75 32.8438
Q18.2031 34.0938 16.3438 36.1875
Q14.5 38.2969 13.4531 41
Q12.4062 43.7031 12.4062 46.5938
Q12.4062 49.9062 13.1562 52.9062
Q13.9062 55.9062 15.5469 58.25
Q17.2031 60.5938 19.8438 62
Q22.5 63.4062 26.2969 63.4062
Q29.9062 63.4062 32.5938 62.0938
Q35.2969 60.7969 37.1406 58.5469
Q39 56.2969 39.9531 53.3906
Q40.9062 50.5 40.9062 47.2031" id="HelveticaNeue-39"/>
      </defs>
      <g transform="translate(418.84453125 410.896875)scale(0.14 -0.14)">
       <use xlink:href="#HelveticaNeue-39"/>
       <use x="55.5999908447" xlink:href="#HelveticaNeue-2c"/>
       <use x="83.3999786377" xlink:href="#HelveticaNeue-30"/>
       <use x="138.999969482" xlink:href="#HelveticaNeue-30"/>
       <use x="194.599960327" xlink:href="#HelveticaNeue-30"/>
      </g>
     </g>
    </g>
    <g id="xtick_6">
     <g id="line2d_6">
      <g>
       <use style="stroke:#000000;stroke-width:0.5;" x="526.5" xlink:href="#m93b0483c22" y="396.9"/>
      </g>
     </g>
     <g id="text_6">
      <!-- 10,000 -->
      <defs>
       <path d="
M35.5938 0
L35.5938 70.9062
L29.0938 70.9062
Q28.4062 66.9062 26.5 64.2969
Q24.5938 61.7031 21.8438 60.2031
Q19.0938 58.7031 15.6875 58.1406
Q12.2969 57.5938 8.70312 57.5938
L8.70312 50.7969
L27.0938 50.7969
L27.0938 0
z
" id="HelveticaNeue-31"/>
      </defs>
      <g transform="translate(505.99875 410.896875)scale(0.14 -0.14)">
       <use xlink:href="#HelveticaNeue-31"/>
       <use x="55.5999908447" xlink:href="#HelveticaNeue-30"/>
       <use x="111.199981689" xlink:href="#HelveticaNeue-2c"/>
       <use x="138.999969482" xlink:href="#HelveticaNeue-30"/>
       <use x="194.599960327" xlink:href="#HelveticaNeue-30"/>
       <use x="250.199951172" xlink:href="#HelveticaNeue-30"/>
      </g>
     </g>
    </g>
    <g id="text_7">
     <!-- Player points -->
     <defs>
      <path d="
M23.4062 51.7031
L23.4062 67.2031
L9.20312 67.2031
L9.20312 51.7031
L0.59375 51.7031
L0.59375 42.2031
L9.20312 42.2031
L9.20312 11.7031
Q9.20312 7.79688 10.5 5.39062
Q11.7969 3 14.0469 1.70312
Q16.2969 0.40625 19.25 -0.046875
Q22.2031 -0.5 25.5 -0.5
Q27.5938 -0.5 29.7969 -0.390625
Q32 -0.296875 33.7969 0
L33.7969 11
Q32.7969 10.7969 31.6875 10.6875
Q30.5938 10.5938 29.4062 10.5938
Q25.7969 10.5938 24.5938 11.7969
Q23.4062 13 23.4062 16.5938
L23.4062 42.2031
L33.7969 42.2031
L33.7969 51.7031
z
" id="HelveticaNeue-Bold-74"/>
      <path d="
M5.40625 51.7031
L5.40625 0
L19.5938 0
L19.5938 27.0938
Q19.5938 35 22.1875 38.4531
Q24.7969 41.9062 30.5938 41.9062
Q35.7031 41.9062 37.7031 38.75
Q39.7031 35.5938 39.7031 29.2031
L39.7031 0
L53.9062 0
L53.9062 31.7969
Q53.9062 36.5938 53.0469 40.5469
Q52.2031 44.5 50.0938 47.25
Q48 50 44.3438 51.5469
Q40.7031 53.0938 35 53.0938
Q30.5 53.0938 26.2031 51.0469
Q21.9062 49 19.2031 44.5
L18.9062 44.5
L18.9062 51.7031
z
" id="HelveticaNeue-Bold-6e"/>
      <path d="
M40.2031 31.4062
L17.0938 31.4062
Q17.2031 32.9062 17.75 34.7969
Q18.2969 36.7031 19.6406 38.3906
Q21 40.0938 23.25 41.25
Q25.5 42.4062 28.9062 42.4062
Q34.0938 42.4062 36.6406 39.5938
Q39.2031 36.7969 40.2031 31.4062
M17.0938 22.4062
L54.4062 22.4062
Q54.7969 28.4062 53.3906 33.9062
Q52 39.4062 48.8438 43.7031
Q45.7031 48 40.7969 50.5469
Q35.9062 53.0938 29.2969 53.0938
Q23.4062 53.0938 18.5469 51
Q13.7031 48.9062 10.2031 45.25
Q6.70312 41.5938 4.79688 36.5938
Q2.90625 31.5938 2.90625 25.7969
Q2.90625 19.7969 4.75 14.7969
Q6.59375 9.79688 10 6.1875
Q13.4062 2.59375 18.2969 0.640625
Q23.2031 -1.29688 29.2969 -1.29688
Q38.0938 -1.29688 44.2969 2.70312
Q50.5 6.70312 53.5 16
L41 16
Q40.2969 13.5938 37.1875 11.4375
Q34.0938 9.29688 29.7969 9.29688
Q23.7969 9.29688 20.5938 12.3906
Q17.4062 15.5 17.0938 22.4062" id="HelveticaNeue-Bold-65"/>
      <path d="
M31.5 9.29688
Q28.0938 9.29688 25.6875 10.6875
Q23.2969 12.0938 21.8438 14.3438
Q20.4062 16.5938 19.75 19.5938
Q19.0938 22.5938 19.0938 25.7031
Q19.0938 28.9062 19.6875 31.9062
Q20.2969 34.9062 21.75 37.2031
Q23.2031 39.5 25.5469 40.9531
Q27.9062 42.4062 31.4062 42.4062
Q34.7969 42.4062 37.1406 40.9531
Q39.5 39.5 41 37.1406
Q42.5 34.7969 43.1406 31.7969
Q43.7969 28.7969 43.7969 25.7031
Q43.7969 22.5938 43.1875 19.5938
Q42.5938 16.5938 41.1406 14.3438
Q39.7031 12.0938 37.3438 10.6875
Q35 9.29688 31.5 9.29688
M5.40625 51.7031
L5.40625 -18.0938
L19.5938 -18.0938
L19.5938 6.40625
L19.7969 6.40625
Q22.4062 2.59375 26.4531 0.640625
Q30.5 -1.29688 35.2969 -1.29688
Q41 -1.29688 45.25 0.890625
Q49.5 3.09375 52.3438 6.79688
Q55.2031 10.5 56.5938 15.2969
Q58 20.0938 58 25.2969
Q58 30.7969 56.5938 35.8438
Q55.2031 40.9062 52.2969 44.7031
Q49.4062 48.5 45 50.7969
Q40.5938 53.0938 34.5 53.0938
Q29.7031 53.0938 25.7031 51.1875
Q21.7031 49.2969 19.0938 45.0938
L18.9062 45.0938
L18.9062 51.7031
z
" id="HelveticaNeue-Bold-70"/>
      <path d="
M16.4062 16.7969
L2.90625 16.7969
Q3.09375 11.5938 5.25 8.14062
Q7.40625 4.70312 10.75 2.59375
Q14.0938 0.5 18.3906 -0.390625
Q22.7031 -1.29688 27.2031 -1.29688
Q31.5938 -1.29688 35.8438 -0.4375
Q40.0938 0.40625 43.3906 2.5
Q46.7031 4.59375 48.75 8.04688
Q50.7969 11.5 50.7969 16.5938
Q50.7969 20.2031 49.3906 22.6406
Q48 25.0938 45.7031 26.75
Q43.4062 28.4062 40.4531 29.4062
Q37.5 30.4062 34.4062 31.0938
Q31.4062 31.7969 28.5 32.3906
Q25.5938 33 23.3438 33.75
Q21.0938 34.5 19.6875 35.7031
Q18.2969 36.9062 18.2969 38.7969
Q18.2969 40.4062 19.0938 41.3438
Q19.9062 42.2969 21.0469 42.7969
Q22.2031 43.2969 23.5938 43.4375
Q25 43.5938 26.2031 43.5938
Q30 43.5938 32.7969 42.1406
Q35.5938 40.7031 35.9062 36.5938
L49.4062 36.5938
Q49 41.4062 46.9531 44.5469
Q44.9062 47.7031 41.7969 49.5938
Q38.7031 51.5 34.75 52.2969
Q30.7969 53.0938 26.5938 53.0938
Q22.4062 53.0938 18.4062 52.3438
Q14.4062 51.5938 11.2031 49.75
Q8 47.9062 6.04688 44.7031
Q4.09375 41.5 4.09375 36.5
Q4.09375 33.0938 5.5 30.75
Q6.90625 28.4062 9.20312 26.8438
Q11.5 25.2969 14.4531 24.3438
Q17.4062 23.4062 20.5 22.7031
Q28.0938 21.0938 32.3438 19.5
Q36.5938 17.9062 36.5938 14.7031
Q36.5938 12.7969 35.6875 11.5469
Q34.7969 10.2969 33.4375 9.54688
Q32.0938 8.79688 30.4375 8.4375
Q28.7969 8.09375 27.2969 8.09375
Q25.2031 8.09375 23.25 8.59375
Q21.2969 9.09375 19.7969 10.1406
Q18.2969 11.2031 17.3438 12.8438
Q16.4062 14.5 16.4062 16.7969" id="HelveticaNeue-Bold-73"/>
      <path d="
M5.40625 51.7031
L5.40625 0
L19.5938 0
L19.5938 23.2969
Q19.5938 26.7969 20.2969 29.7969
Q21 32.7969 22.6406 35.0469
Q24.2969 37.2969 27 38.5938
Q29.7031 39.9062 33.5938 39.9062
Q34.9062 39.9062 36.2969 39.75
Q37.7031 39.5938 38.7031 39.4062
L38.7031 52.5938
Q37 53.0938 35.5938 53.0938
Q32.9062 53.0938 30.4062 52.2969
Q27.9062 51.5 25.7031 50.0469
Q23.5 48.5938 21.7969 46.5469
Q20.0938 44.5 19.0938 42.0938
L18.9062 42.0938
L18.9062 51.7031
z
" id="HelveticaNeue-Bold-72"/>
      <path id="HelveticaNeue-Bold-20"/>
      <path d="
M4.79688 35.7969
L19 35.7969
Q19.4062 40 21.7969 41.7969
Q24.2031 43.5938 28.4062 43.5938
Q30.2969 43.5938 31.9375 43.3438
Q33.5938 43.0938 34.8438 42.3438
Q36.0938 41.5938 36.8438 40.25
Q37.5938 38.9062 37.5938 36.5938
Q37.7031 34.4062 36.2969 33.25
Q34.9062 32.0938 32.5 31.5
Q30.0938 30.9062 27 30.5938
Q23.9062 30.2969 20.7031 29.7969
Q17.5 29.2969 14.3438 28.4375
Q11.2031 27.5938 8.75 25.8906
Q6.29688 24.2031 4.75 21.3438
Q3.20312 18.5 3.20312 14.0938
Q3.20312 10.0938 4.54688 7.1875
Q5.90625 4.29688 8.29688 2.39062
Q10.7031 0.5 13.8906 -0.390625
Q17.0938 -1.29688 20.7969 -1.29688
Q25.5938 -1.29688 30.1875 0.09375
Q34.7969 1.5 38.2031 5
Q38.2969 3.70312 38.5469 2.45312
Q38.7969 1.20312 39.2031 0
L53.5938 0
Q52.5938 1.59375 52.1875 4.79688
Q51.7969 8 51.7969 11.5
L51.7969 38.4062
Q51.7969 43.0938 49.6875 45.9375
Q47.5938 48.7969 44.2969 50.3906
Q41 52 37 52.5469
Q33 53.0938 29.0938 53.0938
Q24.7969 53.0938 20.5469 52.25
Q16.2969 51.4062 12.8906 49.4062
Q9.5 47.4062 7.29688 44.0938
Q5.09375 40.7969 4.79688 35.7969
M37.5938 25.2969
L37.5938 20
Q37.5938 18.7969 37.3438 16.7969
Q37.0938 14.7969 36 12.8438
Q34.9062 10.9062 32.5938 9.5
Q30.2969 8.09375 26.0938 8.09375
Q24.4062 8.09375 22.7969 8.39062
Q21.2031 8.70312 20 9.45312
Q18.7969 10.2031 18.0938 11.5
Q17.4062 12.7969 17.4062 14.7031
Q17.4062 16.7031 18.0938 18
Q18.7969 19.2969 19.9375 20.1406
Q21.0938 21 22.6406 21.5
Q24.2031 22 25.7969 22.2969
Q27.5 22.5938 29.2031 22.7969
Q30.9062 23 32.4531 23.2969
Q34 23.5938 35.3438 24.0469
Q36.7031 24.5 37.5938 25.2969" id="HelveticaNeue-Bold-61"/>
      <path d="
M30.9062 -6.40625
L52.5 51.7031
L37.7969 51.7031
L26.5 16.2969
L26.2969 16.2969
L14.5938 51.7031
L-0.5 51.7031
L17.5938 3.20312
Q18.2031 1.70312 18.2031 0
Q18.2031 -2.29688 16.8438 -4.1875
Q15.5 -6.09375 12.7031 -6.40625
Q10.5938 -6.5 8.5 -6.29688
Q6.40625 -6.09375 4.40625 -5.90625
L4.40625 -17.5938
Q6.59375 -17.7969 8.75 -17.9375
Q10.9062 -18.0938 13.0938 -18.0938
Q20.4062 -18.0938 24.5 -15.3906
Q28.5938 -12.7031 30.9062 -6.40625" id="HelveticaNeue-Bold-79"/>
      <path d="
M20 59.7031
L20 71.4062
L5.79688 71.4062
L5.79688 59.7031
z

M5.79688 51.7031
L5.79688 0
L20 0
L20 51.7031
z
" id="HelveticaNeue-Bold-69"/>
      <path d="
M18 25.7969
Q18 28.9062 18.5938 31.9062
Q19.2031 34.9062 20.6406 37.2031
Q22.0938 39.5 24.5 40.9531
Q26.9062 42.4062 30.5 42.4062
Q34.0938 42.4062 36.5469 40.9531
Q39 39.5 40.4531 37.2031
Q41.9062 34.9062 42.5 31.9062
Q43.0938 28.9062 43.0938 25.7969
Q43.0938 22.7031 42.5 19.75
Q41.9062 16.7969 40.4531 14.4375
Q39 12.0938 36.5469 10.6875
Q34.0938 9.29688 30.5 9.29688
Q26.9062 9.29688 24.5 10.6875
Q22.0938 12.0938 20.6406 14.4375
Q19.2031 16.7969 18.5938 19.75
Q18 22.7031 18 25.7969
M3.79688 25.7969
Q3.79688 19.5938 5.6875 14.5938
Q7.59375 9.59375 11.0938 6.04688
Q14.5938 2.5 19.5 0.59375
Q24.4062 -1.29688 30.5 -1.29688
Q36.5938 -1.29688 41.5469 0.59375
Q46.5 2.5 50 6.04688
Q53.5 9.59375 55.3906 14.5938
Q57.2969 19.5938 57.2969 25.7969
Q57.2969 32 55.3906 37.0469
Q53.5 42.0938 50 45.6406
Q46.5 49.2031 41.5469 51.1406
Q36.5938 53.0938 30.5 53.0938
Q24.4062 53.0938 19.5 51.1406
Q14.5938 49.2031 11.0938 45.6406
Q7.59375 42.0938 5.6875 37.0469
Q3.79688 32 3.79688 25.7969" id="HelveticaNeue-Bold-6f"/>
      <path d="
M22.5938 37.7969
L22.5938 59.2031
L34.7969 59.2031
Q37.5 59.2031 40 58.7969
Q42.5 58.4062 44.3906 57.25
Q46.2969 56.0938 47.4375 54
Q48.5938 51.9062 48.5938 48.5
Q48.5938 45.0938 47.4375 43
Q46.2969 40.9062 44.3906 39.75
Q42.5 38.5938 40 38.1875
Q37.5 37.7969 34.7969 37.7969
z

M6.90625 71.4062
L6.90625 0
L22.5938 0
L22.5938 25.5938
L39.0938 25.5938
Q45.7969 25.5938 50.5 27.5469
Q55.2031 29.5 58.1406 32.7031
Q61.0938 35.9062 62.4375 40.0469
Q63.7969 44.2031 63.7969 48.5
Q63.7969 52.9062 62.4375 57
Q61.0938 61.0938 58.1406 64.2969
Q55.2031 67.5 50.5 69.4531
Q45.7969 71.4062 39.0938 71.4062
z
" id="HelveticaNeue-Bold-50"/>
      <path d="
M5.79688 71.4062
L5.79688 0
L20 0
L20 71.4062
z
" id="HelveticaNeue-Bold-6c"/>
     </defs>
     <g transform="translate(250.27625 430.0803125)scale(0.16 -0.16)">
      <use xlink:href="#HelveticaNeue-Bold-50"/>
      <use x="66.6999969482" xlink:href="#HelveticaNeue-Bold-6c"/>
      <use x="92.4999847412" xlink:href="#HelveticaNeue-Bold-61"/>
      <use x="149.899978638" xlink:href="#HelveticaNeue-Bold-79"/>
      <use x="201.799972534" xlink:href="#HelveticaNeue-Bold-65"/>
      <use x="259.199966431" xlink:href="#HelveticaNeue-Bold-72"/>
      <use x="298.099960327" xlink:href="#HelveticaNeue-Bold-20"/>
      <use x="325.89994812" xlink:href="#HelveticaNeue-Bold-70"/>
      <use x="386.999938965" xlink:href="#HelveticaNeue-Bold-6f"/>
      <use x="448.09992981" xlink:href="#HelveticaNeue-Bold-69"/>
      <use x="473.899917603" xlink:href="#HelveticaNeue-Bold-6e"/>
      <use x="533.199905396" xlink:href="#HelveticaNeue-Bold-74"/>
      <use x="568.399902344" xlink:href="#HelveticaNeue-Bold-73"/>
     </g>
    </g>
   </g>
   <g id="matplotlib.axis_2">
    <g id="ytick_1">
     <g id="line2d_7">
      <defs>
       <path d="
M0 0
L4 0" id="m728421d6d4" style="stroke:#000000;stroke-width:0.5;"/>
      </defs>
      <g>
       <use style="stroke:#000000;stroke-width:0.5;" x="73.125" xlink:href="#m728421d6d4" y="396.9"/>
      </g>
     </g>
     <g id="text_8">
      <!-- 2,000 -->
      <defs>
       <path d="
M4.40625 45.7969
L12.9062 45.7969
Q12.7969 49 13.5469 52.1406
Q14.2969 55.2969 16 57.7969
Q17.7031 60.2969 20.3438 61.8438
Q23 63.4062 26.7031 63.4062
Q29.5 63.4062 32 62.5
Q34.5 61.5938 36.3438 59.8906
Q38.2031 58.2031 39.2969 55.8438
Q40.4062 53.5 40.4062 50.5938
Q40.4062 46.9062 39.25 44.0938
Q38.0938 41.2969 35.8438 38.8906
Q33.5938 36.5 30.1875 34.1406
Q26.7969 31.7969 22.2969 29
Q18.5938 26.7969 15.1875 24.2969
Q11.7969 21.7969 9.09375 18.5
Q6.40625 15.2031 4.65625 10.75
Q2.90625 6.29688 2.40625 0
L48.7031 0
L48.7031 7.5
L12.2969 7.5
Q12.9062 10.7969 14.8438 13.3438
Q16.7969 15.9062 19.5469 18.0938
Q22.2969 20.2969 25.5938 22.25
Q28.9062 24.2031 32.2031 26.2031
Q35.5 28.2969 38.5938 30.5938
Q41.7031 32.9062 44.0938 35.75
Q46.5 38.5938 47.9531 42.1875
Q49.4062 45.7969 49.4062 50.5
Q49.4062 55.5 47.6562 59.2969
Q45.9062 63.0938 42.9062 65.6406
Q39.9062 68.2031 35.8438 69.5469
Q31.7969 70.9062 27.2031 70.9062
Q21.5938 70.9062 17.1875 69
Q12.7969 67.0938 9.84375 63.75
Q6.90625 60.4062 5.5 55.7969
Q4.09375 51.2031 4.40625 45.7969" id="HelveticaNeue-32"/>
      </defs>
      <g transform="translate(35.0240625 400.51921875)scale(0.14 -0.14)">
       <use xlink:href="#HelveticaNeue-32"/>
       <use x="55.5999908447" xlink:href="#HelveticaNeue-2c"/>
       <use x="83.3999786377" xlink:href="#HelveticaNeue-30"/>
       <use x="138.999969482" xlink:href="#HelveticaNeue-30"/>
       <use x="194.599960327" xlink:href="#HelveticaNeue-30"/>
      </g>
     </g>
    </g>
    <g id="ytick_2">
     <g id="line2d_8">
      <g>
       <use style="stroke:#000000;stroke-width:0.5;" x="73.125" xlink:href="#m728421d6d4" y="338.1"/>
      </g>
     </g>
     <g id="text_9">
      <!-- 2,500 -->
      <g transform="translate(35.0240625 341.71921875)scale(0.14 -0.14)">
       <use xlink:href="#HelveticaNeue-32"/>
       <use x="55.5999908447" xlink:href="#HelveticaNeue-2c"/>
       <use x="83.3999786377" xlink:href="#HelveticaNeue-35"/>
       <use x="138.999969482" xlink:href="#HelveticaNeue-30"/>
       <use x="194.599960327" xlink:href="#HelveticaNeue-30"/>
      </g>
     </g>
    </g>
    <g id="ytick_3">
     <g id="line2d_9">
      <g>
       <use style="stroke:#000000;stroke-width:0.5;" x="73.125" xlink:href="#m728421d6d4" y="279.3"/>
      </g>
     </g>
     <g id="text_10">
      <!-- 3,000 -->
      <defs>
       <path d="
M21.7969 40.5
L21.7969 33.2969
Q24.2031 33.5938 26.9062 33.5938
Q30.0938 33.5938 32.8438 32.75
Q35.5938 31.9062 37.5938 30.1562
Q39.5938 28.4062 40.7969 25.8438
Q42 23.2969 42 20
Q42 16.7969 40.75 14.25
Q39.5 11.7031 37.3906 9.95312
Q35.2969 8.20312 32.5 7.25
Q29.7031 6.29688 26.5938 6.29688
Q19.2969 6.29688 15.5 10.6406
Q11.7031 15 11.5 21.9062
L3 21.9062
Q2.90625 16.4062 4.54688 12.0938
Q6.20312 7.79688 9.29688 4.84375
Q12.4062 1.90625 16.7969 0.40625
Q21.2031 -1.09375 26.5938 -1.09375
Q31.5938 -1.09375 36.0469 0.25
Q40.5 1.59375 43.7969 4.29688
Q47.0938 7 49.0469 11.0469
Q51 15.0938 51 20.4062
Q51 26.7969 47.8438 31.5
Q44.7031 36.2031 38.2031 37.5938
L38.2031 37.7969
Q42.4062 39.7031 45.2031 43.3906
Q48 47.0938 48 51.9062
Q48 56.7969 46.3438 60.3906
Q44.7031 64 41.7969 66.2969
Q38.9062 68.5938 34.9531 69.75
Q31 70.9062 26.4062 70.9062
Q21.0938 70.9062 17.0469 69.2031
Q13 67.5 10.2969 64.5
Q7.59375 61.5 6.14062 57.2969
Q4.70312 53.0938 4.5 48
L13 48
Q13 51.0938 13.7969 53.8906
Q14.5938 56.7031 16.25 58.7969
Q17.9062 60.9062 20.4531 62.1562
Q23 63.4062 26.4062 63.4062
Q31.7969 63.4062 35.3906 60.5469
Q39 57.7031 39 52
Q39 49.2031 37.8906 47
Q36.7969 44.7969 34.9375 43.3438
Q33.0938 41.9062 30.6406 41.1562
Q28.2031 40.4062 25.5 40.4062
L23.7031 40.4062
Q23.2031 40.4062 22.7031 40.4062
Q22.2969 40.4062 21.7969 40.5" id="HelveticaNeue-33"/>
      </defs>
      <g transform="translate(35.0940625 282.91921875)scale(0.14 -0.14)">
       <use xlink:href="#HelveticaNeue-33"/>
       <use x="55.5999908447" xlink:href="#HelveticaNeue-2c"/>
       <use x="83.3999786377" xlink:href="#HelveticaNeue-30"/>
       <use x="138.999969482" xlink:href="#HelveticaNeue-30"/>
       <use x="194.599960327" xlink:href="#HelveticaNeue-30"/>
      </g>
     </g>
    </g>
    <g id="ytick_4">
     <g id="line2d_10">
      <g>
       <use style="stroke:#000000;stroke-width:0.5;" x="73.125" xlink:href="#m728421d6d4" y="220.5"/>
      </g>
     </g>
     <g id="text_11">
      <!-- 3,500 -->
      <g transform="translate(35.0940625 224.11921875)scale(0.14 -0.14)">
       <use xlink:href="#HelveticaNeue-33"/>
       <use x="55.5999908447" xlink:href="#HelveticaNeue-2c"/>
       <use x="83.3999786377" xlink:href="#HelveticaNeue-35"/>
       <use x="138.999969482" xlink:href="#HelveticaNeue-30"/>
       <use x="194.599960327" xlink:href="#HelveticaNeue-30"/>
      </g>
     </g>
    </g>
    <g id="ytick_5">
     <g id="line2d_11">
      <g>
       <use style="stroke:#000000;stroke-width:0.5;" x="73.125" xlink:href="#m728421d6d4" y="161.7"/>
      </g>
     </g>
     <g id="text_12">
      <!-- 4,000 -->
      <defs>
       <path d="
M33.9062 24.0938
L10.0938 24.0938
L33.7031 58.7969
L33.9062 58.7969
z

M41.9062 24.0938
L41.9062 70.9062
L35.0938 70.9062
L2.79688 24.7969
L2.79688 16.5938
L33.9062 16.5938
L33.9062 0
L41.9062 0
L41.9062 16.5938
L51.5 16.5938
L51.5 24.0938
z
" id="HelveticaNeue-34"/>
      </defs>
      <g transform="translate(35.07875 165.31921875)scale(0.14 -0.14)">
       <use xlink:href="#HelveticaNeue-34"/>
       <use x="55.5999908447" xlink:href="#HelveticaNeue-2c"/>
       <use x="83.3999786377" xlink:href="#HelveticaNeue-30"/>
       <use x="138.999969482" xlink:href="#HelveticaNeue-30"/>
       <use x="194.599960327" xlink:href="#HelveticaNeue-30"/>
      </g>
     </g>
    </g>
    <g id="ytick_6">
     <g id="line2d_12">
      <g>
       <use style="stroke:#000000;stroke-width:0.5;" x="73.125" xlink:href="#m728421d6d4" y="102.9"/>
      </g>
     </g>
     <g id="text_13">
      <!-- 4,500 -->
      <g transform="translate(35.07875 106.51921875)scale(0.14 -0.14)">
       <use xlink:href="#HelveticaNeue-34"/>
       <use x="55.5999908447" xlink:href="#HelveticaNeue-2c"/>
       <use x="83.3999786377" xlink:href="#HelveticaNeue-35"/>
       <use x="138.999969482" xlink:href="#HelveticaNeue-30"/>
       <use x="194.599960327" xlink:href="#HelveticaNeue-30"/>
      </g>
     </g>
    </g>
    <g id="ytick_7">
     <g id="line2d_13">
      <g>
       <use style="stroke:#000000;stroke-width:0.5;" x="73.125" xlink:href="#m728421d6d4" y="44.1"/>
      </g>
     </g>
     <g id="text_14">
      <!-- 5,000 -->
      <g transform="translate(35.1771875 47.71921875)scale(0.14 -0.14)">
       <use xlink:href="#HelveticaNeue-35"/>
       <use x="55.5999908447" xlink:href="#HelveticaNeue-2c"/>
       <use x="83.3999786377" xlink:href="#HelveticaNeue-30"/>
       <use x="138.999969482" xlink:href="#HelveticaNeue-30"/>
       <use x="194.599960327" xlink:href="#HelveticaNeue-30"/>
      </g>
     </g>
    </g>
    <g id="text_15">
     <!-- Player salary -->
     <g transform="translate(27.1290625 269.43125)rotate(-90.0)scale(0.16 -0.16)">
      <use xlink:href="#HelveticaNeue-Bold-50"/>
      <use x="66.6999969482" xlink:href="#HelveticaNeue-Bold-6c"/>
      <use x="92.4999847412" xlink:href="#HelveticaNeue-Bold-61"/>
      <use x="149.899978638" xlink:href="#HelveticaNeue-Bold-79"/>
      <use x="201.799972534" xlink:href="#HelveticaNeue-Bold-65"/>
      <use x="259.199966431" xlink:href="#HelveticaNeue-Bold-72"/>
      <use x="298.099960327" xlink:href="#HelveticaNeue-Bold-20"/>
      <use x="325.89994812" xlink:href="#HelveticaNeue-Bold-73"/>
      <use x="379.599945068" xlink:href="#HelveticaNeue-Bold-61"/>
      <use x="436.999938965" xlink:href="#HelveticaNeue-Bold-6c"/>
      <use x="462.799926758" xlink:href="#HelveticaNeue-Bold-61"/>
      <use x="520.199920654" xlink:href="#HelveticaNeue-Bold-72"/>
      <use x="559.099914551" xlink:href="#HelveticaNeue-Bold-79"/>
     </g>
    </g>
   </g>
   <g id="line2d_14">
    <path clip-path="url(#p5873ec822d)" d="
M-380.25 632.1" style="fill:none;stroke:#000000;stroke-dasharray:6.000000,6.000000;stroke-dashoffset:0.0;"/>
   </g>
   <g id="line2d_15">
    <path clip-path="url(#p5873ec822d)" d="
M472.186 373.498
L472.095 67.62" style="fill:none;stroke:#ffa500;stroke-dasharray:6.000000,6.000000;stroke-dashoffset:0.0;"/>
   </g>
   <g id="line2d_16">
    <path clip-path="url(#p5873ec822d)" d="
M472.095 67.62
L472.095 -1" style="fill:none;stroke:#008000;stroke-dasharray:6.000000,6.000000;stroke-dashoffset:0.0;"/>
   </g>
   <g id="line2d_17">
    <path clip-path="url(#p5873ec822d)" d="
M472.095 67.62
L444.893 55.86" style="fill:none;stroke:#008000;stroke-dasharray:6.000000,6.000000;stroke-dashoffset:0.0;"/>
   </g>
   <g id="line2d_18">
    <path clip-path="url(#p5873ec822d)" d="
M444.893 55.86
L444.893 -1" style="fill:none;stroke:#ff0000;stroke-dasharray:6.000000,6.000000;stroke-dashoffset:0.0;"/>
   </g>
   <g id="line2d_19">
    <path clip-path="url(#p5873ec822d)" d="
M472.186 373.498
L435.825 138.18" style="fill:none;stroke:#ffa500;stroke-dasharray:6.000000,6.000000;stroke-dashoffset:0.0;"/>
   </g>
   <g id="line2d_20">
    <path clip-path="url(#p5873ec822d)" d="
M435.825 138.18
L426.758 55.86" style="fill:none;stroke:#008000;stroke-dasharray:6.000000,6.000000;stroke-dashoffset:0.0;"/>
   </g>
   <g id="line2d_21">
    <path clip-path="url(#p5873ec822d)" d="
M435.825 138.18
L417.69 138.18" style="fill:none;stroke:#008000;stroke-dasharray:6.000000,6.000000;stroke-dashoffset:0.0;"/>
   </g>
   <g id="line2d_22">
    <path clip-path="url(#p5873ec822d)" d="
M417.69 138.18
L417.69 55.86" style="fill:none;stroke:#ff0000;stroke-dasharray:6.000000,6.000000;stroke-dashoffset:0.0;"/>
   </g>
   <g id="line2d_23">
    <path clip-path="url(#p5873ec822d)" d="
M417.69 138.18
L399.555 67.62" style="fill:none;stroke:#ff0000;stroke-dasharray:6.000000,6.000000;stroke-dashoffset:0.0;"/>
   </g>
   <g id="line2d_24">
    <path clip-path="url(#p5873ec822d)" d="
M472.186 373.498
L390.488 149.94" style="fill:none;stroke:#ffa500;stroke-dasharray:6.000000,6.000000;stroke-dashoffset:0.0;"/>
   </g>
   <g id="line2d_25">
    <path clip-path="url(#p5873ec822d)" d="
M390.488 149.94
L390.488 79.38" style="fill:none;stroke:#008000;stroke-dasharray:6.000000,6.000000;stroke-dashoffset:0.0;"/>
   </g>
   <g id="line2d_26">
    <path clip-path="url(#p5873ec822d)" d="
M390.488 79.38
L381.42 79.38" style="fill:none;stroke:#ff0000;stroke-dasharray:6.000000,6.000000;stroke-dashoffset:0.0;"/>
   </g>
   <g id="line2d_27">
    <path clip-path="url(#p5873ec822d)" d="
M381.42 79.38
L381.42 67.62" style="fill:none;stroke:#000000;stroke-dasharray:6.000000,6.000000;stroke-dashoffset:0.0;"/>
   </g>
   <g id="line2d_28">
    <path clip-path="url(#p5873ec822d)" d="
M472.186 373.498
L372.353 185.22" style="fill:none;stroke:#ffa500;stroke-dasharray:6.000000,6.000000;stroke-dashoffset:0.0;"/>
   </g>
   <g id="line2d_29">
    <path clip-path="url(#p5873ec822d)" d="
M372.353 185.22
L372.353 55.86" style="fill:none;stroke:#008000;stroke-dasharray:6.000000,6.000000;stroke-dashoffset:0.0;"/>
   </g>
   <g id="line2d_30">
    <path clip-path="url(#p5873ec822d)" d="
M372.353 185.22
L363.285 173.46" style="fill:none;stroke:#008000;stroke-dasharray:6.000000,6.000000;stroke-dashoffset:0.0;"/>
   </g>
   <g id="line2d_31">
    <path clip-path="url(#p5873ec822d)" d="
M363.285 173.46
L363.285 161.7" style="fill:none;stroke:#ff0000;stroke-dasharray:6.000000,6.000000;stroke-dashoffset:0.0;"/>
   </g>
   <g id="line2d_32">
    <path clip-path="url(#p5873ec822d)" d="
M363.285 161.7
L363.285 67.62" style="fill:none;stroke:#000000;stroke-dasharray:6.000000,6.000000;stroke-dashoffset:0.0;"/>
   </g>
   <g id="line2d_33">
    <path clip-path="url(#p5873ec822d)" d="
M363.285 67.62
L363.285 44.1" style="fill:none;stroke:#800080;stroke-dasharray:6.000000,6.000000;stroke-dashoffset:0.0;"/>
   </g>
   <g id="line2d_34">
    <path clip-path="url(#p5873ec822d)" d="
M363.285 161.7
L354.218 149.94" style="fill:none;stroke:#000000;stroke-dasharray:6.000000,6.000000;stroke-dashoffset:0.0;"/>
   </g>
   <g id="line2d_35">
    <path clip-path="url(#p5873ec822d)" d="
M354.218 149.94
L354.218 126.42" style="fill:none;stroke:#800080;stroke-dasharray:6.000000,6.000000;stroke-dashoffset:0.0;"/>
   </g>
   <g id="line2d_36">
    <path clip-path="url(#p5873ec822d)" d="
M354.218 126.42
L354.218 114.66" style="fill:none;stroke:#808080;stroke-dasharray:6.000000,6.000000;stroke-dashoffset:0.0;"/>
   </g>
   <g id="line2d_37">
    <path clip-path="url(#p5873ec822d)" d="
M354.218 114.66
L354.218 102.9" style="fill:none;stroke:#000000;stroke-dasharray:6.000000,6.000000;stroke-dashoffset:0.0;"/>
   </g>
   <g id="line2d_38">
    <path clip-path="url(#p5873ec822d)" d="
M354.218 114.66
L345.15 114.66" style="fill:none;stroke:#000000;stroke-dasharray:6.000000,6.000000;stroke-dashoffset:0.0;"/>
   </g>
   <g id="line2d_39">
    <path clip-path="url(#p5873ec822d)" d="
M345.15 114.66
L345.15 91.14" style="fill:none;stroke:#000000;stroke-dasharray:6.000000,6.000000;stroke-dashoffset:0.0;"/>
   </g>
   <g id="line2d_40">
    <path clip-path="url(#p5873ec822d)" d="
M345.15 114.66
L345.15 102.9" style="fill:none;stroke:#000000;stroke-dasharray:6.000000,6.000000;stroke-dashoffset:0.0;"/>
   </g>
   <g id="line2d_41">
    <path clip-path="url(#p5873ec822d)" d="
M372.353 185.22
L345.15 185.22" style="fill:none;stroke:#008000;stroke-dasharray:6.000000,6.000000;stroke-dashoffset:0.0;"/>
   </g>
   <g id="line2d_42">
    <path clip-path="url(#p5873ec822d)" d="
M472.186 373.498
L345.15 208.74" style="fill:none;stroke:#ffa500;stroke-dasharray:6.000000,6.000000;stroke-dashoffset:0.0;"/>
   </g>
   <g id="line2d_43">
    <path clip-path="url(#p5873ec822d)" d="
M345.15 208.74
L336.083 138.18" style="fill:none;stroke:#008000;stroke-dasharray:6.000000,6.000000;stroke-dashoffset:0.0;"/>
   </g>
   <g id="line2d_44">
    <path clip-path="url(#p5873ec822d)" d="
M472.186 373.498
L327.015 232.26" style="fill:none;stroke:#ffa500;stroke-dasharray:6.000000,6.000000;stroke-dashoffset:0.0;"/>
   </g>
   <g id="line2d_45">
    <path clip-path="url(#p5873ec822d)" d="
M327.015 232.26
L327.015 208.74" style="fill:none;stroke:#008000;stroke-dasharray:6.000000,6.000000;stroke-dashoffset:0.0;"/>
   </g>
   <g id="line2d_46">
    <path clip-path="url(#p5873ec822d)" d="
M327.015 208.74
L327.015 196.98" style="fill:none;stroke:#ff0000;stroke-dasharray:6.000000,6.000000;stroke-dashoffset:0.0;"/>
   </g>
   <g id="line2d_47">
    <path clip-path="url(#p5873ec822d)" d="
M327.015 196.98
L327.015 161.7" style="fill:none;stroke:#000000;stroke-dasharray:6.000000,6.000000;stroke-dashoffset:0.0;"/>
   </g>
   <g id="line2d_48">
    <path clip-path="url(#p5873ec822d)" d="
M327.015 161.7
L327.015 114.66" style="fill:none;stroke:#800080;stroke-dasharray:6.000000,6.000000;stroke-dashoffset:0.0;"/>
   </g>
   <g id="line2d_49">
    <path clip-path="url(#p5873ec822d)" d="
M327.015 114.66
L327.015 91.14" style="fill:none;stroke:#808080;stroke-dasharray:6.000000,6.000000;stroke-dashoffset:0.0;"/>
   </g>
   <g id="line2d_50">
    <path clip-path="url(#p5873ec822d)" d="
M327.015 161.7
L317.947 138.18" style="fill:none;stroke:#800080;stroke-dasharray:6.000000,6.000000;stroke-dashoffset:0.0;"/>
   </g>
   <g id="line2d_51">
    <path clip-path="url(#p5873ec822d)" d="
M317.947 138.18
L317.947 79.38" style="fill:none;stroke:#808080;stroke-dasharray:6.000000,6.000000;stroke-dashoffset:0.0;"/>
   </g>
   <g id="line2d_52">
    <path clip-path="url(#p5873ec822d)" d="
M317.947 138.18
L317.947 91.14" style="fill:none;stroke:#808080;stroke-dasharray:6.000000,6.000000;stroke-dashoffset:0.0;"/>
   </g>
   <g id="line2d_53">
    <path clip-path="url(#p5873ec822d)" d="
M327.015 161.7
L317.947 161.7" style="fill:none;stroke:#800080;stroke-dasharray:6.000000,6.000000;stroke-dashoffset:0.0;"/>
   </g>
   <g id="line2d_54">
    <path clip-path="url(#p5873ec822d)" d="
M327.015 196.98
L317.947 173.46" style="fill:none;stroke:#000000;stroke-dasharray:6.000000,6.000000;stroke-dashoffset:0.0;"/>
   </g>
   <g id="line2d_55">
    <path clip-path="url(#p5873ec822d)" d="
M317.947 173.46
L308.88 114.66" style="fill:none;stroke:#800080;stroke-dasharray:6.000000,6.000000;stroke-dashoffset:0.0;"/>
   </g>
   <g id="line2d_56">
    <path clip-path="url(#p5873ec822d)" d="
M327.015 232.26
L290.745 232.26" style="fill:none;stroke:#008000;stroke-dasharray:6.000000,6.000000;stroke-dashoffset:0.0;"/>
   </g>
   <g id="line2d_57">
    <path clip-path="url(#p5873ec822d)" d="
M290.745 232.26
L290.745 149.94" style="fill:none;stroke:#ff0000;stroke-dasharray:6.000000,6.000000;stroke-dashoffset:0.0;"/>
   </g>
   <g id="line2d_58">
    <path clip-path="url(#p5873ec822d)" d="
M290.745 149.94
L290.745 114.66" style="fill:none;stroke:#000000;stroke-dasharray:6.000000,6.000000;stroke-dashoffset:0.0;"/>
   </g>
   <g id="line2d_59">
    <path clip-path="url(#p5873ec822d)" d="
M290.745 114.66
L290.745 79.38" style="fill:none;stroke:#800080;stroke-dasharray:6.000000,6.000000;stroke-dashoffset:0.0;"/>
   </g>
   <g id="line2d_60">
    <path clip-path="url(#p5873ec822d)" d="
M290.745 149.94
L281.678 149.94" style="fill:none;stroke:#000000;stroke-dasharray:6.000000,6.000000;stroke-dashoffset:0.0;"/>
   </g>
   <g id="line2d_61">
    <path clip-path="url(#p5873ec822d)" d="
M281.678 149.94
L281.678 138.18" style="fill:none;stroke:#800080;stroke-dasharray:6.000000,6.000000;stroke-dashoffset:0.0;"/>
   </g>
   <g id="line2d_62">
    <path clip-path="url(#p5873ec822d)" d="
M281.678 138.18
L281.678 114.66" style="fill:none;stroke:#808080;stroke-dasharray:6.000000,6.000000;stroke-dashoffset:0.0;"/>
   </g>
   <g id="line2d_63">
    <path clip-path="url(#p5873ec822d)" d="
M290.745 232.26
L281.678 196.98" style="fill:none;stroke:#ff0000;stroke-dasharray:6.000000,6.000000;stroke-dashoffset:0.0;"/>
   </g>
   <g id="line2d_64">
    <path clip-path="url(#p5873ec822d)" d="
M472.186 373.498
L272.61 255.78" style="fill:none;stroke:#ffa500;stroke-dasharray:6.000000,6.000000;stroke-dashoffset:0.0;"/>
   </g>
   <g id="line2d_65">
    <path clip-path="url(#p5873ec822d)" d="
M272.61 255.78
L272.61 126.42" style="fill:none;stroke:#008000;stroke-dasharray:6.000000,6.000000;stroke-dashoffset:0.0;"/>
   </g>
   <g id="line2d_66">
    <path clip-path="url(#p5873ec822d)" d="
M272.61 255.78
L263.543 244.02" style="fill:none;stroke:#008000;stroke-dasharray:6.000000,6.000000;stroke-dashoffset:0.0;"/>
   </g>
   <g id="line2d_67">
    <path clip-path="url(#p5873ec822d)" d="
M263.543 244.02
L263.543 220.5" style="fill:none;stroke:#ff0000;stroke-dasharray:6.000000,6.000000;stroke-dashoffset:0.0;"/>
   </g>
   <g id="line2d_68">
    <path clip-path="url(#p5873ec822d)" d="
M263.543 220.5
L263.543 185.22" style="fill:none;stroke:#000000;stroke-dasharray:6.000000,6.000000;stroke-dashoffset:0.0;"/>
   </g>
   <g id="line2d_69">
    <path clip-path="url(#p5873ec822d)" d="
M263.543 185.22
L263.543 161.7" style="fill:none;stroke:#800080;stroke-dasharray:6.000000,6.000000;stroke-dashoffset:0.0;"/>
   </g>
   <g id="line2d_70">
    <path clip-path="url(#p5873ec822d)" d="
M263.543 161.7
L263.543 138.18" style="fill:none;stroke:#808080;stroke-dasharray:6.000000,6.000000;stroke-dashoffset:0.0;"/>
   </g>
   <g id="line2d_71">
    <path clip-path="url(#p5873ec822d)" d="
M472.186 373.498
L254.475 279.3" style="fill:none;stroke:#ffa500;stroke-dasharray:6.000000,6.000000;stroke-dashoffset:0.0;"/>
   </g>
   <g id="line2d_72">
    <path clip-path="url(#p5873ec822d)" d="
M254.475 279.3
L245.408 208.74" style="fill:none;stroke:#008000;stroke-dasharray:6.000000,6.000000;stroke-dashoffset:0.0;"/>
   </g>
   <g id="line2d_73">
    <path clip-path="url(#p5873ec822d)" d="
M245.408 208.74
L245.408 185.22" style="fill:none;stroke:#ff0000;stroke-dasharray:6.000000,6.000000;stroke-dashoffset:0.0;"/>
   </g>
   <g id="line2d_74">
    <path clip-path="url(#p5873ec822d)" d="
M245.408 185.22
L245.408 149.94" style="fill:none;stroke:#000000;stroke-dasharray:6.000000,6.000000;stroke-dashoffset:0.0;"/>
   </g>
   <g id="line2d_75">
    <path clip-path="url(#p5873ec822d)" d="
M245.408 149.94
L245.408 126.42" style="fill:none;stroke:#800080;stroke-dasharray:6.000000,6.000000;stroke-dashoffset:0.0;"/>
   </g>
   <g id="line2d_76">
    <path clip-path="url(#p5873ec822d)" d="
M245.408 208.74
L227.273 208.74" style="fill:none;stroke:#ff0000;stroke-dasharray:6.000000,6.000000;stroke-dashoffset:0.0;"/>
   </g>
   <g id="line2d_77">
    <path clip-path="url(#p5873ec822d)" d="
M472.186 373.498
L227.273 302.82" style="fill:none;stroke:#ffa500;stroke-dasharray:6.000000,6.000000;stroke-dashoffset:0.0;"/>
   </g>
   <g id="line2d_78">
    <path clip-path="url(#p5873ec822d)" d="
M227.273 302.82
L218.205 232.26" style="fill:none;stroke:#008000;stroke-dasharray:6.000000,6.000000;stroke-dashoffset:0.0;"/>
   </g>
   <g id="line2d_79">
    <path clip-path="url(#p5873ec822d)" d="
M218.205 232.26
L218.205 185.22" style="fill:none;stroke:#ff0000;stroke-dasharray:6.000000,6.000000;stroke-dashoffset:0.0;"/>
   </g>
   <g id="line2d_80">
    <path clip-path="url(#p5873ec822d)" d="
M218.205 185.22
L218.205 161.7" style="fill:none;stroke:#000000;stroke-dasharray:6.000000,6.000000;stroke-dashoffset:0.0;"/>
   </g>
   <g id="line2d_81">
    <path clip-path="url(#p5873ec822d)" d="
M218.205 232.26
L209.138 232.26" style="fill:none;stroke:#ff0000;stroke-dasharray:6.000000,6.000000;stroke-dashoffset:0.0;"/>
   </g>
   <g id="line2d_82">
    <path clip-path="url(#p5873ec822d)" d="
M209.138 232.26
L200.07 196.98" style="fill:none;stroke:#000000;stroke-dasharray:6.000000,6.000000;stroke-dashoffset:0.0;"/>
   </g>
   <g id="line2d_83">
    <path clip-path="url(#p5873ec822d)" d="
M227.273 302.82
L191.003 279.3" style="fill:none;stroke:#008000;stroke-dasharray:6.000000,6.000000;stroke-dashoffset:0.0;"/>
   </g>
   <g id="line2d_84">
    <path clip-path="url(#p5873ec822d)" d="
M191.003 279.3
L191.003 232.26" style="fill:none;stroke:#ff0000;stroke-dasharray:6.000000,6.000000;stroke-dashoffset:0.0;"/>
   </g>
   <g id="line2d_85">
    <path clip-path="url(#p5873ec822d)" d="
M191.003 279.3
L154.733 267.54" style="fill:none;stroke:#ff0000;stroke-dasharray:6.000000,6.000000;stroke-dashoffset:0.0;"/>
   </g>
   <g id="line2d_86">
    <path clip-path="url(#p5873ec822d)" d="
M472.186 373.498
L145.665 373.38" style="fill:none;stroke:#ffa500;stroke-dasharray:6.000000,6.000000;stroke-dashoffset:0.0;"/>
   </g>
   <g id="line2d_87">
    <path clip-path="url(#p5873ec822d)" d="
M145.665 373.38
L-1 248.551" style="fill:none;stroke:#008000;stroke-dasharray:6.000000,6.000000;stroke-dashoffset:0.0;"/>
   </g>
   <g id="line2d_88">
    <path clip-path="url(#p5873ec822d)" d="
M145.665 373.38
L-1 267.083" style="fill:none;stroke:#008000;stroke-dasharray:6.000000,6.000000;stroke-dashoffset:0.0;"/>
   </g>
   <g id="line2d_89">
    <path clip-path="url(#p5873ec822d)" d="
M-162.63 149.94" style="fill:none;stroke:#ff0000;stroke-dasharray:6.000000,6.000000;stroke-dashoffset:0.0;"/>
   </g>
   <g id="line2d_90">
    <path clip-path="url(#p5873ec822d)" d="
M145.665 373.38
L-1 295.056" style="fill:none;stroke:#008000;stroke-dasharray:6.000000,6.000000;stroke-dashoffset:0.0;"/>
   </g>
   <g id="line2d_91">
    <path clip-path="url(#p5873ec822d)" d="
M-162.63 208.74" style="fill:none;stroke:#ff0000;stroke-dasharray:6.000000,6.000000;stroke-dashoffset:0.0;"/>
   </g>
   <g id="line2d_92">
    <path clip-path="url(#p5873ec822d)" d="
M145.665 373.38
L-1 313.598" style="fill:none;stroke:#008000;stroke-dasharray:6.000000,6.000000;stroke-dashoffset:0.0;"/>
   </g>
   <g id="line2d_93">
    <path clip-path="url(#p5873ec822d)" d="
M-171.697 244.02" style="fill:none;stroke:#ff0000;stroke-dasharray:6.000000,6.000000;stroke-dashoffset:0.0;"/>
   </g>
   <g id="line2d_94">
    <path clip-path="url(#p5873ec822d)" d="
M-171.697 232.26" style="fill:none;stroke:#000000;stroke-dasharray:6.000000,6.000000;stroke-dashoffset:0.0;"/>
   </g>
   <g id="line2d_95">
    <path clip-path="url(#p5873ec822d)" d="
M-171.697 185.22" style="fill:none;stroke:#800080;stroke-dasharray:6.000000,6.000000;stroke-dashoffset:0.0;"/>
   </g>
   <g id="line2d_96">
    <path clip-path="url(#p5873ec822d)" d="
M-171.697 173.46" style="fill:none;stroke:#808080;stroke-dasharray:6.000000,6.000000;stroke-dashoffset:0.0;"/>
   </g>
   <g id="line2d_97">
    <path clip-path="url(#p5873ec822d)" d="
M-171.697 161.7" style="fill:none;stroke:#000000;stroke-dasharray:6.000000,6.000000;stroke-dashoffset:0.0;"/>
   </g>
   <g id="line2d_98">
    <path clip-path="url(#p5873ec822d)" d="
M-171.697 244.02" style="fill:none;stroke:#ff0000;stroke-dasharray:6.000000,6.000000;stroke-dashoffset:0.0;"/>
   </g>
   <g id="line2d_99">
    <path clip-path="url(#p5873ec822d)" d="
M-180.765 244.02" style="fill:none;stroke:#000000;stroke-dasharray:6.000000,6.000000;stroke-dashoffset:0.0;"/>
   </g>
   <g id="line2d_100">
    <path clip-path="url(#p5873ec822d)" d="
M-180.765 232.26" style="fill:none;stroke:#800080;stroke-dasharray:6.000000,6.000000;stroke-dashoffset:0.0;"/>
   </g>
   <g id="line2d_101">
    <path clip-path="url(#p5873ec822d)" d="
M145.665 373.38
L-1 352.245" style="fill:none;stroke:#008000;stroke-dasharray:6.000000,6.000000;stroke-dashoffset:0.0;"/>
   </g>
   <g id="line2d_102">
    <path clip-path="url(#p5873ec822d)" d="
M145.665 373.38
L-1 357.957" style="fill:none;stroke:#008000;stroke-dasharray:6.000000,6.000000;stroke-dashoffset:0.0;"/>
   </g>
   <g id="line2d_103">
    <path clip-path="url(#p5873ec822d)" d="
M-189.832 338.1" style="fill:none;stroke:#ff0000;stroke-dasharray:6.000000,6.000000;stroke-dashoffset:0.0;"/>
   </g>
   <g id="line2d_104">
    <path clip-path="url(#p5873ec822d)" d="
M-189.832 302.82" style="fill:none;stroke:#000000;stroke-dasharray:6.000000,6.000000;stroke-dashoffset:0.0;"/>
   </g>
   <g id="line2d_105">
    <path clip-path="url(#p5873ec822d)" d="
M-189.832 255.78" style="fill:none;stroke:#800080;stroke-dasharray:6.000000,6.000000;stroke-dashoffset:0.0;"/>
   </g>
   <g id="line2d_106">
    <path clip-path="url(#p5873ec822d)" d="
M-189.832 208.74" style="fill:none;stroke:#808080;stroke-dasharray:6.000000,6.000000;stroke-dashoffset:0.0;"/>
   </g>
   <g id="line2d_107">
    <path clip-path="url(#p5873ec822d)" d="
M-189.832 255.78" style="fill:none;stroke:#800080;stroke-dasharray:6.000000,6.000000;stroke-dashoffset:0.0;"/>
   </g>
   <g id="line2d_108">
    <path clip-path="url(#p5873ec822d)" d="
M-189.832 338.1" style="fill:none;stroke:#ff0000;stroke-dasharray:6.000000,6.000000;stroke-dashoffset:0.0;"/>
   </g>
   <g id="line2d_109">
    <path clip-path="url(#p5873ec822d)" d="
M-207.968 338.1" style="fill:none;stroke:#000000;stroke-dasharray:6.000000,6.000000;stroke-dashoffset:0.0;"/>
   </g>
   <g id="line2d_110">
    <path clip-path="url(#p5873ec822d)" d="
M-207.968 326.34" style="fill:none;stroke:#800080;stroke-dasharray:6.000000,6.000000;stroke-dashoffset:0.0;"/>
   </g>
   <g id="line2d_111">
    <path clip-path="url(#p5873ec822d)" d="
M-217.035 279.3" style="fill:none;stroke:#808080;stroke-dasharray:6.000000,6.000000;stroke-dashoffset:0.0;"/>
   </g>
   <g id="line2d_112">
    <path clip-path="url(#p5873ec822d)" d="
M-226.102 173.46" style="fill:none;stroke:#000000;stroke-dasharray:6.000000,6.000000;stroke-dashoffset:0.0;"/>
   </g>
   <g id="line2d_113">
    <path clip-path="url(#p5873ec822d)" d="
M-380.25 149.94" style="fill:none;stroke:#000000;stroke-dasharray:6.000000,6.000000;stroke-dashoffset:0.0;"/>
   </g>
   <g id="line2d_114">
    <path clip-path="url(#p5873ec822d)" d="
M-217.035 279.3" style="fill:none;stroke:#808080;stroke-dasharray:6.000000,6.000000;stroke-dashoffset:0.0;"/>
   </g>
   <g id="line2d_115">
    <path clip-path="url(#p5873ec822d)" d="
M-380.25 220.5" style="fill:none;stroke:#000000;stroke-dasharray:6.000000,6.000000;stroke-dashoffset:0.0;"/>
   </g>
   <g id="patch_3">
    <path d="
M73.125 396.9
L526.5 396.9" style="fill:none;stroke:#000000;"/>
   </g>
   <g id="patch_4">
    <path d="
M73.125 396.9
L73.125 44.1" style="fill:none;stroke:#000000;"/>
   </g>
   <g id="PathCollection_1">
    <defs>
     <path d="
M0 3.16228
C0.838646 3.16228 1.64306 2.82908 2.23607 2.23607
C2.82908 1.64306 3.16228 0.838646 3.16228 0
C3.16228 -0.838646 2.82908 -1.64306 2.23607 -2.23607
C1.64306 -2.82908 0.838646 -3.16228 0 -3.16228
C-0.838646 -3.16228 -1.64306 -2.82908 -2.23607 -2.23607
C-2.82908 -1.64306 -3.16228 -0.838646 -3.16228 0
C-3.16228 0.838646 -2.82908 1.64306 -2.23607 2.23607
C-1.64306 2.82908 -0.838646 3.16228 0 3.16228
z
" id="C0_0_b69519a06d"/>
    </defs>
    <g clip-path="url(#p5873ec822d)">
     <use style="fill:#0000ff;stroke:#000000;" x="472.095" xlink:href="#C0_0_b69519a06d" y="67.62"/>
    </g>
    <g clip-path="url(#p5873ec822d)">
     <use style="fill:#0000ff;stroke:#000000;" x="472.095" xlink:href="#C0_0_b69519a06d" y="-2.94"/>
    </g>
    <g clip-path="url(#p5873ec822d)">
     <use style="fill:#0000ff;stroke:#000000;" x="444.8925" xlink:href="#C0_0_b69519a06d" y="55.86"/>
    </g>
    <g clip-path="url(#p5873ec822d)">
     <use style="fill:#0000ff;stroke:#000000;" x="444.8925" xlink:href="#C0_0_b69519a06d" y="-73.5"/>
    </g>
    <g clip-path="url(#p5873ec822d)">
     <use style="fill:#0000ff;stroke:#000000;" x="435.825" xlink:href="#C0_0_b69519a06d" y="138.18"/>
    </g>
    <g clip-path="url(#p5873ec822d)">
     <use style="fill:#0000ff;stroke:#000000;" x="426.7575" xlink:href="#C0_0_b69519a06d" y="55.86"/>
    </g>
    <g clip-path="url(#p5873ec822d)">
     <use style="fill:#0000ff;stroke:#000000;" x="417.69" xlink:href="#C0_0_b69519a06d" y="138.18"/>
    </g>
    <g clip-path="url(#p5873ec822d)">
     <use style="fill:#0000ff;stroke:#000000;" x="417.69" xlink:href="#C0_0_b69519a06d" y="55.86"/>
    </g>
    <g clip-path="url(#p5873ec822d)">
     <use style="fill:#0000ff;stroke:#000000;" x="399.555" xlink:href="#C0_0_b69519a06d" y="67.62"/>
    </g>
    <g clip-path="url(#p5873ec822d)">
     <use style="fill:#0000ff;stroke:#000000;" x="390.4875" xlink:href="#C0_0_b69519a06d" y="149.94"/>
    </g>
    <g clip-path="url(#p5873ec822d)">
     <use style="fill:#0000ff;stroke:#000000;" x="390.4875" xlink:href="#C0_0_b69519a06d" y="79.38"/>
    </g>
    <g clip-path="url(#p5873ec822d)">
     <use style="fill:#0000ff;stroke:#000000;" x="381.42" xlink:href="#C0_0_b69519a06d" y="79.38"/>
    </g>
    <g clip-path="url(#p5873ec822d)">
     <use style="fill:#0000ff;stroke:#000000;" x="381.42" xlink:href="#C0_0_b69519a06d" y="67.62"/>
    </g>
    <g clip-path="url(#p5873ec822d)">
     <use style="fill:#0000ff;stroke:#000000;" x="372.3525" xlink:href="#C0_0_b69519a06d" y="185.22"/>
    </g>
    <g clip-path="url(#p5873ec822d)">
     <use style="fill:#0000ff;stroke:#000000;" x="372.3525" xlink:href="#C0_0_b69519a06d" y="55.86"/>
    </g>
    <g clip-path="url(#p5873ec822d)">
     <use style="fill:#0000ff;stroke:#000000;" x="363.285" xlink:href="#C0_0_b69519a06d" y="173.46"/>
    </g>
    <g clip-path="url(#p5873ec822d)">
     <use style="fill:#0000ff;stroke:#000000;" x="363.285" xlink:href="#C0_0_b69519a06d" y="161.7"/>
    </g>
    <g clip-path="url(#p5873ec822d)">
     <use style="fill:#0000ff;stroke:#000000;" x="363.285" xlink:href="#C0_0_b69519a06d" y="67.62"/>
    </g>
    <g clip-path="url(#p5873ec822d)">
     <use style="fill:#0000ff;stroke:#000000;" x="363.285" xlink:href="#C0_0_b69519a06d" y="44.1"/>
    </g>
    <g clip-path="url(#p5873ec822d)">
     <use style="fill:#0000ff;stroke:#000000;" x="354.2175" xlink:href="#C0_0_b69519a06d" y="149.94"/>
    </g>
    <g clip-path="url(#p5873ec822d)">
     <use style="fill:#0000ff;stroke:#000000;" x="354.2175" xlink:href="#C0_0_b69519a06d" y="126.42"/>
    </g>
    <g clip-path="url(#p5873ec822d)">
     <use style="fill:#0000ff;stroke:#000000;" x="354.2175" xlink:href="#C0_0_b69519a06d" y="114.66"/>
    </g>
    <g clip-path="url(#p5873ec822d)">
     <use style="fill:#0000ff;stroke:#000000;" x="354.2175" xlink:href="#C0_0_b69519a06d" y="102.9"/>
    </g>
    <g clip-path="url(#p5873ec822d)">
     <use style="fill:#0000ff;stroke:#000000;" x="345.15" xlink:href="#C0_0_b69519a06d" y="208.74"/>
    </g>
    <g clip-path="url(#p5873ec822d)">
     <use style="fill:#0000ff;stroke:#000000;" x="345.15" xlink:href="#C0_0_b69519a06d" y="185.22"/>
    </g>
    <g clip-path="url(#p5873ec822d)">
     <use style="fill:#0000ff;stroke:#000000;" x="345.15" xlink:href="#C0_0_b69519a06d" y="114.66"/>
    </g>
    <g clip-path="url(#p5873ec822d)">
     <use style="fill:#0000ff;stroke:#000000;" x="345.15" xlink:href="#C0_0_b69519a06d" y="102.9"/>
    </g>
    <g clip-path="url(#p5873ec822d)">
     <use style="fill:#0000ff;stroke:#000000;" x="345.15" xlink:href="#C0_0_b69519a06d" y="91.14"/>
    </g>
    <g clip-path="url(#p5873ec822d)">
     <use style="fill:#0000ff;stroke:#000000;" x="336.0825" xlink:href="#C0_0_b69519a06d" y="138.18"/>
    </g>
    <g clip-path="url(#p5873ec822d)">
     <use style="fill:#0000ff;stroke:#000000;" x="327.015" xlink:href="#C0_0_b69519a06d" y="232.26"/>
    </g>
    <g clip-path="url(#p5873ec822d)">
     <use style="fill:#0000ff;stroke:#000000;" x="327.015" xlink:href="#C0_0_b69519a06d" y="208.74"/>
    </g>
    <g clip-path="url(#p5873ec822d)">
     <use style="fill:#0000ff;stroke:#000000;" x="327.015" xlink:href="#C0_0_b69519a06d" y="196.98"/>
    </g>
    <g clip-path="url(#p5873ec822d)">
     <use style="fill:#0000ff;stroke:#000000;" x="327.015" xlink:href="#C0_0_b69519a06d" y="161.7"/>
    </g>
    <g clip-path="url(#p5873ec822d)">
     <use style="fill:#0000ff;stroke:#000000;" x="327.015" xlink:href="#C0_0_b69519a06d" y="114.66"/>
    </g>
    <g clip-path="url(#p5873ec822d)">
     <use style="fill:#0000ff;stroke:#000000;" x="327.015" xlink:href="#C0_0_b69519a06d" y="91.14"/>
    </g>
    <g clip-path="url(#p5873ec822d)">
     <use style="fill:#0000ff;stroke:#000000;" x="317.9475" xlink:href="#C0_0_b69519a06d" y="173.46"/>
    </g>
    <g clip-path="url(#p5873ec822d)">
     <use style="fill:#0000ff;stroke:#000000;" x="317.9475" xlink:href="#C0_0_b69519a06d" y="161.7"/>
    </g>
    <g clip-path="url(#p5873ec822d)">
     <use style="fill:#0000ff;stroke:#000000;" x="317.9475" xlink:href="#C0_0_b69519a06d" y="138.18"/>
    </g>
    <g clip-path="url(#p5873ec822d)">
     <use style="fill:#0000ff;stroke:#000000;" x="317.9475" xlink:href="#C0_0_b69519a06d" y="91.14"/>
    </g>
    <g clip-path="url(#p5873ec822d)">
     <use style="fill:#0000ff;stroke:#000000;" x="317.9475" xlink:href="#C0_0_b69519a06d" y="79.38"/>
    </g>
    <g clip-path="url(#p5873ec822d)">
     <use style="fill:#0000ff;stroke:#000000;" x="308.88" xlink:href="#C0_0_b69519a06d" y="114.66"/>
    </g>
    <g clip-path="url(#p5873ec822d)">
     <use style="fill:#0000ff;stroke:#000000;" x="290.745" xlink:href="#C0_0_b69519a06d" y="232.26"/>
    </g>
    <g clip-path="url(#p5873ec822d)">
     <use style="fill:#0000ff;stroke:#000000;" x="290.745" xlink:href="#C0_0_b69519a06d" y="149.94"/>
    </g>
    <g clip-path="url(#p5873ec822d)">
     <use style="fill:#0000ff;stroke:#000000;" x="290.745" xlink:href="#C0_0_b69519a06d" y="114.66"/>
    </g>
    <g clip-path="url(#p5873ec822d)">
     <use style="fill:#0000ff;stroke:#000000;" x="290.745" xlink:href="#C0_0_b69519a06d" y="79.38"/>
    </g>
    <g clip-path="url(#p5873ec822d)">
     <use style="fill:#0000ff;stroke:#000000;" x="281.6775" xlink:href="#C0_0_b69519a06d" y="196.98"/>
    </g>
    <g clip-path="url(#p5873ec822d)">
     <use style="fill:#0000ff;stroke:#000000;" x="281.6775" xlink:href="#C0_0_b69519a06d" y="149.94"/>
    </g>
    <g clip-path="url(#p5873ec822d)">
     <use style="fill:#0000ff;stroke:#000000;" x="281.6775" xlink:href="#C0_0_b69519a06d" y="138.18"/>
    </g>
    <g clip-path="url(#p5873ec822d)">
     <use style="fill:#0000ff;stroke:#000000;" x="281.6775" xlink:href="#C0_0_b69519a06d" y="114.66"/>
    </g>
    <g clip-path="url(#p5873ec822d)">
     <use style="fill:#0000ff;stroke:#000000;" x="272.61" xlink:href="#C0_0_b69519a06d" y="255.78"/>
    </g>
    <g clip-path="url(#p5873ec822d)">
     <use style="fill:#0000ff;stroke:#000000;" x="272.61" xlink:href="#C0_0_b69519a06d" y="126.42"/>
    </g>
    <g clip-path="url(#p5873ec822d)">
     <use style="fill:#0000ff;stroke:#000000;" x="263.5425" xlink:href="#C0_0_b69519a06d" y="244.02"/>
    </g>
    <g clip-path="url(#p5873ec822d)">
     <use style="fill:#0000ff;stroke:#000000;" x="263.5425" xlink:href="#C0_0_b69519a06d" y="220.5"/>
    </g>
    <g clip-path="url(#p5873ec822d)">
     <use style="fill:#0000ff;stroke:#000000;" x="263.5425" xlink:href="#C0_0_b69519a06d" y="185.22"/>
    </g>
    <g clip-path="url(#p5873ec822d)">
     <use style="fill:#0000ff;stroke:#000000;" x="263.5425" xlink:href="#C0_0_b69519a06d" y="161.7"/>
    </g>
    <g clip-path="url(#p5873ec822d)">
     <use style="fill:#0000ff;stroke:#000000;" x="263.5425" xlink:href="#C0_0_b69519a06d" y="138.18"/>
    </g>
    <g clip-path="url(#p5873ec822d)">
     <use style="fill:#0000ff;stroke:#000000;" x="254.475" xlink:href="#C0_0_b69519a06d" y="279.3"/>
    </g>
    <g clip-path="url(#p5873ec822d)">
     <use style="fill:#0000ff;stroke:#000000;" x="245.4075" xlink:href="#C0_0_b69519a06d" y="208.74"/>
    </g>
    <g clip-path="url(#p5873ec822d)">
     <use style="fill:#0000ff;stroke:#000000;" x="245.4075" xlink:href="#C0_0_b69519a06d" y="185.22"/>
    </g>
    <g clip-path="url(#p5873ec822d)">
     <use style="fill:#0000ff;stroke:#000000;" x="245.4075" xlink:href="#C0_0_b69519a06d" y="149.94"/>
    </g>
    <g clip-path="url(#p5873ec822d)">
     <use style="fill:#0000ff;stroke:#000000;" x="245.4075" xlink:href="#C0_0_b69519a06d" y="126.42"/>
    </g>
    <g clip-path="url(#p5873ec822d)">
     <use style="fill:#0000ff;stroke:#000000;" x="227.2725" xlink:href="#C0_0_b69519a06d" y="302.82"/>
    </g>
    <g clip-path="url(#p5873ec822d)">
     <use style="fill:#0000ff;stroke:#000000;" x="227.2725" xlink:href="#C0_0_b69519a06d" y="208.74"/>
    </g>
    <g clip-path="url(#p5873ec822d)">
     <use style="fill:#0000ff;stroke:#000000;" x="218.205" xlink:href="#C0_0_b69519a06d" y="232.26"/>
    </g>
    <g clip-path="url(#p5873ec822d)">
     <use style="fill:#0000ff;stroke:#000000;" x="218.205" xlink:href="#C0_0_b69519a06d" y="185.22"/>
    </g>
    <g clip-path="url(#p5873ec822d)">
     <use style="fill:#0000ff;stroke:#000000;" x="218.205" xlink:href="#C0_0_b69519a06d" y="161.7"/>
    </g>
    <g clip-path="url(#p5873ec822d)">
     <use style="fill:#0000ff;stroke:#000000;" x="209.1375" xlink:href="#C0_0_b69519a06d" y="232.26"/>
    </g>
    <g clip-path="url(#p5873ec822d)">
     <use style="fill:#0000ff;stroke:#000000;" x="200.07" xlink:href="#C0_0_b69519a06d" y="196.98"/>
    </g>
    <g clip-path="url(#p5873ec822d)">
     <use style="fill:#0000ff;stroke:#000000;" x="191.0025" xlink:href="#C0_0_b69519a06d" y="279.3"/>
    </g>
    <g clip-path="url(#p5873ec822d)">
     <use style="fill:#0000ff;stroke:#000000;" x="191.0025" xlink:href="#C0_0_b69519a06d" y="232.26"/>
    </g>
    <g clip-path="url(#p5873ec822d)">
     <use style="fill:#0000ff;stroke:#000000;" x="154.7325" xlink:href="#C0_0_b69519a06d" y="267.54"/>
    </g>
    <g clip-path="url(#p5873ec822d)">
     <use style="fill:#0000ff;stroke:#000000;" x="145.665" xlink:href="#C0_0_b69519a06d" y="373.38"/>
    </g>
    <g clip-path="url(#p5873ec822d)">
     <use style="fill:#0000ff;stroke:#000000;" x="-144.495" xlink:href="#C0_0_b69519a06d" y="126.42"/>
    </g>
    <g clip-path="url(#p5873ec822d)">
     <use style="fill:#0000ff;stroke:#000000;" x="-162.63" xlink:href="#C0_0_b69519a06d" y="208.74"/>
    </g>
    <g clip-path="url(#p5873ec822d)">
     <use style="fill:#0000ff;stroke:#000000;" x="-162.63" xlink:href="#C0_0_b69519a06d" y="173.46"/>
    </g>
    <g clip-path="url(#p5873ec822d)">
     <use style="fill:#0000ff;stroke:#000000;" x="-162.63" xlink:href="#C0_0_b69519a06d" y="149.94"/>
    </g>
    <g clip-path="url(#p5873ec822d)">
     <use style="fill:#0000ff;stroke:#000000;" x="-162.63" xlink:href="#C0_0_b69519a06d" y="138.18"/>
    </g>
    <g clip-path="url(#p5873ec822d)">
     <use style="fill:#0000ff;stroke:#000000;" x="-171.6975" xlink:href="#C0_0_b69519a06d" y="244.02"/>
    </g>
    <g clip-path="url(#p5873ec822d)">
     <use style="fill:#0000ff;stroke:#000000;" x="-171.6975" xlink:href="#C0_0_b69519a06d" y="232.26"/>
    </g>
    <g clip-path="url(#p5873ec822d)">
     <use style="fill:#0000ff;stroke:#000000;" x="-171.6975" xlink:href="#C0_0_b69519a06d" y="185.22"/>
    </g>
    <g clip-path="url(#p5873ec822d)">
     <use style="fill:#0000ff;stroke:#000000;" x="-171.6975" xlink:href="#C0_0_b69519a06d" y="173.46"/>
    </g>
    <g clip-path="url(#p5873ec822d)">
     <use style="fill:#0000ff;stroke:#000000;" x="-171.6975" xlink:href="#C0_0_b69519a06d" y="161.7"/>
    </g>
    <g clip-path="url(#p5873ec822d)">
     <use style="fill:#0000ff;stroke:#000000;" x="-171.6975" xlink:href="#C0_0_b69519a06d" y="114.66"/>
    </g>
    <g clip-path="url(#p5873ec822d)">
     <use style="fill:#0000ff;stroke:#000000;" x="-180.765" xlink:href="#C0_0_b69519a06d" y="326.34"/>
    </g>
    <g clip-path="url(#p5873ec822d)">
     <use style="fill:#0000ff;stroke:#000000;" x="-180.765" xlink:href="#C0_0_b69519a06d" y="244.02"/>
    </g>
    <g clip-path="url(#p5873ec822d)">
     <use style="fill:#0000ff;stroke:#000000;" x="-180.765" xlink:href="#C0_0_b69519a06d" y="232.26"/>
    </g>
    <g clip-path="url(#p5873ec822d)">
     <use style="fill:#0000ff;stroke:#000000;" x="-180.765" xlink:href="#C0_0_b69519a06d" y="185.22"/>
    </g>
    <g clip-path="url(#p5873ec822d)">
     <use style="fill:#0000ff;stroke:#000000;" x="-189.8325" xlink:href="#C0_0_b69519a06d" y="338.1"/>
    </g>
    <g clip-path="url(#p5873ec822d)">
     <use style="fill:#0000ff;stroke:#000000;" x="-189.8325" xlink:href="#C0_0_b69519a06d" y="302.82"/>
    </g>
    <g clip-path="url(#p5873ec822d)">
     <use style="fill:#0000ff;stroke:#000000;" x="-189.8325" xlink:href="#C0_0_b69519a06d" y="255.78"/>
    </g>
    <g clip-path="url(#p5873ec822d)">
     <use style="fill:#0000ff;stroke:#000000;" x="-189.8325" xlink:href="#C0_0_b69519a06d" y="208.74"/>
    </g>
    <g clip-path="url(#p5873ec822d)">
     <use style="fill:#0000ff;stroke:#000000;" x="-189.8325" xlink:href="#C0_0_b69519a06d" y="185.22"/>
    </g>
    <g clip-path="url(#p5873ec822d)">
     <use style="fill:#0000ff;stroke:#000000;" x="-198.9" xlink:href="#C0_0_b69519a06d" y="255.78"/>
    </g>
    <g clip-path="url(#p5873ec822d)">
     <use style="fill:#0000ff;stroke:#000000;" x="-207.9675" xlink:href="#C0_0_b69519a06d" y="338.1"/>
    </g>
    <g clip-path="url(#p5873ec822d)">
     <use style="fill:#0000ff;stroke:#000000;" x="-207.9675" xlink:href="#C0_0_b69519a06d" y="326.34"/>
    </g>
    <g clip-path="url(#p5873ec822d)">
     <use style="fill:#0000ff;stroke:#000000;" x="-217.035" xlink:href="#C0_0_b69519a06d" y="279.3"/>
    </g>
    <g clip-path="url(#p5873ec822d)">
     <use style="fill:#0000ff;stroke:#000000;" x="-226.1025" xlink:href="#C0_0_b69519a06d" y="173.46"/>
    </g>
    <g clip-path="url(#p5873ec822d)">
     <use style="fill:#0000ff;stroke:#000000;" x="-380.25" xlink:href="#C0_0_b69519a06d" y="220.5"/>
    </g>
    <g clip-path="url(#p5873ec822d)">
     <use style="fill:#0000ff;stroke:#000000;" x="-380.25" xlink:href="#C0_0_b69519a06d" y="149.94"/>
    </g>
    <g clip-path="url(#p5873ec822d)">
     <use style="fill:#0000ff;stroke:#000000;" x="-380.25" xlink:href="#C0_0_b69519a06d" y="126.42"/>
    </g>
    <g clip-path="url(#p5873ec822d)">
     <use style="fill:#0000ff;stroke:#000000;" x="-380.25" xlink:href="#C0_0_b69519a06d" y="67.62"/>
    </g>
   </g>
   <g id="PathCollection_2">
    <defs>
     <path d="
M-3.87267e-16 3.16228
L3.16228 -3.16228
L-3.16228 -3.16228
z
" id="C1_0_fe2793f20d"/>
    </defs>
    <g clip-path="url(#p5873ec822d)">
     <use style="fill:#ffa500;stroke:#000000;" x="472.185675" xlink:href="#C1_0_fe2793f20d" y="373.4976"/>
    </g>
   </g>
   <g id="legend_1">
    <g id="line2d_116">
     <path d="
M90.405 63.445
L110.565 63.445" style="fill:none;stroke:#000000;stroke-dasharray:6.000000,6.000000;stroke-dashoffset:0.0;"/>
    </g>
    <g id="line2d_117"/>
    <g id="text_16">
     <!-- Branches -->
     <defs>
      <path d="
M5.40625 71.4062
L5.40625 0
L19.5938 0
L19.5938 27.0938
Q19.5938 35 22.1875 38.4531
Q24.7969 41.9062 30.5938 41.9062
Q35.7031 41.9062 37.7031 38.75
Q39.7031 35.5938 39.7031 29.2031
L39.7031 0
L53.9062 0
L53.9062 31.7969
Q53.9062 36.5938 53.0469 40.5469
Q52.2031 44.5 50.0938 47.25
Q48 50 44.3438 51.5469
Q40.7031 53.0938 35 53.0938
Q31 53.0938 26.7969 51.0469
Q22.5938 49 19.9062 44.5
L19.5938 44.5
L19.5938 71.4062
z
" id="HelveticaNeue-Bold-68"/>
      <path d="
M40.5938 33.5
L54.5 33.5
Q54.2031 38.5 52.0938 42.1406
Q50 45.7969 46.6406 48.25
Q43.2969 50.7031 39.0469 51.8906
Q34.7969 53.0938 30.2031 53.0938
Q23.9062 53.0938 19 51
Q14.0938 48.9062 10.6875 45.1562
Q7.29688 41.4062 5.54688 36.25
Q3.79688 31.0938 3.79688 25.0938
Q3.79688 19.2969 5.6875 14.4375
Q7.59375 9.59375 11 6.09375
Q14.4062 2.59375 19.25 0.640625
Q24.0938 -1.29688 29.9062 -1.29688
Q40.2031 -1.29688 46.7969 4.09375
Q53.4062 9.5 54.7969 19.7969
L41.0938 19.7969
Q40.4062 15 37.6562 12.1406
Q34.9062 9.29688 29.7969 9.29688
Q26.5 9.29688 24.2031 10.7969
Q21.9062 12.2969 20.5469 14.6406
Q19.2031 17 18.5938 19.8906
Q18 22.7969 18 25.5938
Q18 28.5 18.5938 31.4531
Q19.2031 34.4062 20.6406 36.8438
Q22.0938 39.2969 24.3906 40.8438
Q26.7031 42.4062 30.0938 42.4062
Q39.2031 42.4062 40.5938 33.5" id="HelveticaNeue-Bold-63"/>
      <path d="
M22.5938 42.5
L22.5938 59.2031
L37.2969 59.2031
Q39.4062 59.2031 41.3438 58.8438
Q43.2969 58.5 44.7969 57.5938
Q46.2969 56.7031 47.1875 55.0938
Q48.0938 53.5 48.0938 51
Q48.0938 46.5 45.3906 44.5
Q42.7031 42.5 38.5 42.5
z

M6.90625 71.4062
L6.90625 0
L41.5 0
Q46.2969 0 50.8438 1.20312
Q55.4062 2.40625 58.9531 4.90625
Q62.5 7.40625 64.5938 11.3438
Q66.7031 15.2969 66.7031 20.7031
Q66.7031 27.4062 63.4531 32.1562
Q60.2031 36.9062 53.5938 38.7969
Q58.4062 41.0938 60.8438 44.6875
Q63.2969 48.2969 63.2969 53.7031
Q63.2969 58.7031 61.6406 62.0938
Q60 65.5 57 67.5469
Q54 69.5938 49.7969 70.5
Q45.5938 71.4062 40.5 71.4062
z

M22.5938 12.2031
L22.5938 31.7969
L39.7031 31.7969
Q44.7969 31.7969 47.8906 29.4375
Q51 27.0938 51 21.5938
Q51 18.7969 50.0469 17
Q49.0938 15.2031 47.5 14.1406
Q45.9062 13.0938 43.7969 12.6406
Q41.7031 12.2031 39.4062 12.2031
z
" id="HelveticaNeue-Bold-42"/>
     </defs>
     <g transform="translate(126.405 68.485)scale(0.16 -0.16)">
      <use xlink:href="#HelveticaNeue-Bold-42"/>
      <use x="70.3999938965" xlink:href="#HelveticaNeue-Bold-72"/>
      <use x="109.299987793" xlink:href="#HelveticaNeue-Bold-61"/>
      <use x="166.699981689" xlink:href="#HelveticaNeue-Bold-6e"/>
      <use x="225.999969482" xlink:href="#HelveticaNeue-Bold-63"/>
      <use x="283.399963379" xlink:href="#HelveticaNeue-Bold-68"/>
      <use x="342.699951172" xlink:href="#HelveticaNeue-Bold-65"/>
      <use x="400.099945068" xlink:href="#HelveticaNeue-Bold-73"/>
     </g>
    </g>
    <g id="PathCollection_3">
     <defs>
      <path d="
M0 3.16228
C0.838646 3.16228 1.64306 2.82908 2.23607 2.23607
C2.82908 1.64306 3.16228 0.838646 3.16228 0
C3.16228 -0.838646 2.82908 -1.64306 2.23607 -2.23607
C1.64306 -2.82908 0.838646 -3.16228 0 -3.16228
C-0.838646 -3.16228 -1.64306 -2.82908 -2.23607 -2.23607
C-2.82908 -1.64306 -3.16228 -0.838646 -3.16228 0
C-3.16228 0.838646 -2.82908 1.64306 -2.23607 2.23607
C-1.64306 2.82908 -0.838646 3.16228 0 3.16228
z
" id="C2_0_b69519a06d"/>
      <path d="
M0 3.16228
C0.838646 3.16228 1.64306 2.82908 2.23607 2.23607
C2.82908 1.64306 3.16228 0.838646 3.16228 0
C3.16228 -0.838646 2.82908 -1.64306 2.23607 -2.23607
C1.64306 -2.82908 0.838646 -3.16228 0 -3.16228
C-0.838646 -3.16228 -1.64306 -2.82908 -2.23607 -2.23607
C-2.82908 -1.64306 -3.16228 -0.838646 -3.16228 0
C-3.16228 0.838646 -2.82908 1.64306 -2.23607 2.23607
C-1.64306 2.82908 -0.838646 3.16228 0 3.16228
z
" id="C2_1_b69519a06d"/>
      <path d="
M0 3.16228
C0.838646 3.16228 1.64306 2.82908 2.23607 2.23607
C2.82908 1.64306 3.16228 0.838646 3.16228 0
C3.16228 -0.838646 2.82908 -1.64306 2.23607 -2.23607
C1.64306 -2.82908 0.838646 -3.16228 0 -3.16228
C-0.838646 -3.16228 -1.64306 -2.82908 -2.23607 -2.23607
C-2.82908 -1.64306 -3.16228 -0.838646 -3.16228 0
C-3.16228 0.838646 -2.82908 1.64306 -2.23607 2.23607
C-1.64306 2.82908 -0.838646 3.16228 0 3.16228
z
" id="C2_2_b69519a06d"/>
     </defs>
     <use style="fill:#0000ff;stroke:#000000;" x="90.405" xlink:href="#C2_0_b69519a06d" y="86.225"/>
     <use style="fill:#0000ff;stroke:#000000;" x="100.485" xlink:href="#C2_1_b69519a06d" y="84.965"/>
     <use style="fill:#0000ff;stroke:#000000;" x="110.565" xlink:href="#C2_2_b69519a06d" y="86.855"/>
    </g>
    <g id="text_17">
     <!-- Players -->
     <g transform="translate(126.405 90.005)scale(0.16 -0.16)">
      <use xlink:href="#HelveticaNeue-Bold-50"/>
      <use x="66.6999969482" xlink:href="#HelveticaNeue-Bold-6c"/>
      <use x="92.4999847412" xlink:href="#HelveticaNeue-Bold-61"/>
      <use x="149.899978638" xlink:href="#HelveticaNeue-Bold-79"/>
      <use x="201.799972534" xlink:href="#HelveticaNeue-Bold-65"/>
      <use x="259.199966431" xlink:href="#HelveticaNeue-Bold-72"/>
      <use x="298.099960327" xlink:href="#HelveticaNeue-Bold-73"/>
     </g>
    </g>
    <g id="PathCollection_4">
     <defs>
      <path d="
M-3.87267e-16 3.16228
L3.16228 -3.16228
L-3.16228 -3.16228
z
" id="C3_0_fe2793f20d"/>
      <path d="
M-3.87267e-16 3.16228
L3.16228 -3.16228
L-3.16228 -3.16228
z
" id="C3_1_fe2793f20d"/>
      <path d="
M-3.87267e-16 3.16228
L3.16228 -3.16228
L-3.16228 -3.16228
z
" id="C3_2_fe2793f20d"/>
     </defs>
     <use style="fill:#ffa500;stroke:#000000;" x="90.405" xlink:href="#C3_0_fe2793f20d" y="107.745"/>
     <use style="fill:#ffa500;stroke:#000000;" x="100.485" xlink:href="#C3_1_fe2793f20d" y="106.485"/>
     <use style="fill:#ffa500;stroke:#000000;" x="110.565" xlink:href="#C3_2_fe2793f20d" y="108.375"/>
    </g>
    <g id="text_18">
     <!-- Trunk node -->
     <defs>
      <path d="
M53.9062 0
L53.9062 51.7031
L39.7031 51.7031
L39.7031 24.5938
Q39.7031 16.7031 37.0938 13.25
Q34.5 9.79688 28.7031 9.79688
Q23.5938 9.79688 21.5938 12.9375
Q19.5938 16.0938 19.5938 22.5
L19.5938 51.7031
L5.40625 51.7031
L5.40625 19.9062
Q5.40625 15.0938 6.25 11.1406
Q7.09375 7.20312 9.1875 4.45312
Q11.2969 1.70312 14.9375 0.203125
Q18.5938 -1.29688 24.2969 -1.29688
Q28.7969 -1.29688 33.0938 0.703125
Q37.4062 2.70312 40.0938 7.20312
L40.4062 7.20312
L40.4062 0
z
" id="HelveticaNeue-Bold-75"/>
      <path d="
M42.0938 26
Q42.0938 22.7969 41.5 19.7969
Q40.9062 16.7969 39.5 14.4375
Q38.0938 12.0938 35.75 10.6875
Q33.4062 9.29688 29.9062 9.29688
Q26.5938 9.29688 24.25 10.75
Q21.9062 12.2031 20.3438 14.5469
Q18.7969 16.9062 18.0938 19.9062
Q17.4062 22.9062 17.4062 25.9062
Q17.4062 29.0938 18.0469 32.0469
Q18.7031 35 20.1406 37.2969
Q21.5938 39.5938 24 41
Q26.4062 42.4062 29.9062 42.4062
Q33.4062 42.4062 35.7031 41
Q38 39.5938 39.4531 37.3438
Q40.9062 35.0938 41.5 32.1406
Q42.0938 29.2031 42.0938 26
M42.2969 6.59375
L42.2969 0
L55.7969 0
L55.7969 71.4062
L41.5938 71.4062
L41.5938 45.4062
L41.4062 45.4062
Q39 49.2031 34.8438 51.1406
Q30.7031 53.0938 26.0938 53.0938
Q20.4062 53.0938 16.0938 50.8438
Q11.7969 48.5938 8.9375 44.8906
Q6.09375 41.2031 4.64062 36.3438
Q3.20312 31.5 3.20312 26.2969
Q3.20312 20.9062 4.64062 15.9062
Q6.09375 10.9062 8.9375 7.04688
Q11.7969 3.20312 16.1875 0.953125
Q20.5938 -1.29688 26.4062 -1.29688
Q31.5 -1.29688 35.5469 0.546875
Q39.5938 2.40625 42.0938 6.59375
z
" id="HelveticaNeue-Bold-64"/>
      <path d="
M6.70312 71.4062
L6.70312 0
L20.9062 0
L20.9062 17.7969
L26.4062 23.0938
L40.5938 0
L57.7969 0
L36.0938 32.7031
L55.5938 51.7031
L38.7969 51.7031
L20.9062 33.0938
L20.9062 71.4062
z
" id="HelveticaNeue-Bold-6b"/>
      <path d="
M22.7031 58.2031
L22.7031 0
L38.4062 0
L38.4062 58.2031
L59.7969 58.2031
L59.7969 71.4062
L1.29688 71.4062
L1.29688 58.2031
z
" id="HelveticaNeue-Bold-54"/>
     </defs>
     <g transform="translate(126.405 111.525)scale(0.16 -0.16)">
      <use xlink:href="#HelveticaNeue-Bold-54"/>
      <use x="51.8499908447" xlink:href="#HelveticaNeue-Bold-72"/>
      <use x="90.7499847412" xlink:href="#HelveticaNeue-Bold-75"/>
      <use x="150.049972534" xlink:href="#HelveticaNeue-Bold-6e"/>
      <use x="209.349960327" xlink:href="#HelveticaNeue-Bold-6b"/>
      <use x="266.749954224" xlink:href="#HelveticaNeue-Bold-20"/>
      <use x="294.549942017" xlink:href="#HelveticaNeue-Bold-6e"/>
      <use x="353.84992981" xlink:href="#HelveticaNeue-Bold-6f"/>
      <use x="414.949920654" xlink:href="#HelveticaNeue-Bold-64"/>
      <use x="476.049911499" xlink:href="#HelveticaNeue-Bold-65"/>
     </g>
    </g>
   </g>
  </g>
 </g>
 <defs>
  <clipPath id="p5873ec822d">
   <rect height="352.8" width="453.375" x="73.125" y="44.1"/>
  </clipPath>
 </defs>
</svg>
