<?xml version="1.0" encoding="utf-8" standalone="no"?>
<!DOCTYPE svg PUBLIC "-//W3C//DTD SVG 1.1//EN"
  "http://www.w3.org/Graphics/SVG/1.1/DTD/svg11.dtd">
<!-- Created with matplotlib (http://matplotlib.org/) -->
<svg height="441pt" version="1.1" viewBox="0 0 585 441" width="585pt" xmlns="http://www.w3.org/2000/svg" xmlns:xlink="http://www.w3.org/1999/xlink">
 <defs>
  <style type="text/css">
*{stroke-linecap:butt;stroke-linejoin:round;}
  </style>
 </defs>
 <g id="figure_1">
  <g id="patch_1">
   <path d="
M0 441
L585 441
L585 0
L0 0
z
" style="fill:#ffffff;"/>
  </g>
  <g id="axes_1">
   <g id="patch_2">
    <path d="
M73.125 396.9
L526.5 396.9
L526.5 44.1
L73.125 44.1
z
" style="fill:#ffffff;"/>
   </g>
   <g id="matplotlib.axis_1">
    <g id="xtick_1">
     <g id="line2d_1">
      <defs>
       <path d="
M0 0
L0 -4" id="m93b0483c22" style="stroke:#000000;stroke-width:0.5;"/>
      </defs>
      <g>
       <use style="stroke:#000000;stroke-width:0.5;" x="73.125" xlink:href="#m93b0483c22" y="396.9"/>
      </g>
     </g>
     <g id="text_1">
      <!-- 0 -->
      <defs>
       <path d="
M13.2031 34.9062
Q13.2031 37.5 13.25 40.6406
Q13.2969 43.7969 13.75 46.9375
Q14.2031 50.0938 15.0469 53.0938
Q15.9062 56.0938 17.5469 58.3438
Q19.2031 60.5938 21.7031 62
Q24.2031 63.4062 27.7969 63.4062
Q31.4062 63.4062 33.9062 62
Q36.4062 60.5938 38.0469 58.3438
Q39.7031 56.0938 40.5469 53.0938
Q41.4062 50.0938 41.8438 46.9375
Q42.2969 43.7969 42.3438 40.6406
Q42.4062 37.5 42.4062 34.9062
Q42.4062 30.9062 42.1562 25.9531
Q41.9062 21 40.5469 16.6406
Q39.2031 12.2969 36.2031 9.29688
Q33.2031 6.29688 27.7969 6.29688
Q22.4062 6.29688 19.4062 9.29688
Q16.4062 12.2969 15.0469 16.6406
Q13.7031 21 13.4531 25.9531
Q13.2031 30.9062 13.2031 34.9062
M4.20312 34.7969
Q4.20312 30.9062 4.39062 26.7031
Q4.59375 22.5 5.39062 18.5
Q6.20312 14.5 7.70312 10.9531
Q9.20312 7.40625 11.7969 4.70312
Q14.4062 2 18.3438 0.453125
Q22.2969 -1.09375 27.7969 -1.09375
Q33.4062 -1.09375 37.2969 0.453125
Q41.2031 2 43.7969 4.70312
Q46.4062 7.40625 47.9062 10.9531
Q49.4062 14.5 50.2031 18.5
Q51 22.5 51.2031 26.7031
Q51.4062 30.9062 51.4062 34.7969
Q51.4062 38.7031 51.2031 42.8906
Q51 47.0938 50.2031 51.0938
Q49.4062 55.0938 47.9062 58.6875
Q46.4062 62.2969 43.7969 65
Q41.2031 67.7031 37.25 69.2969
Q33.2969 70.9062 27.7969 70.9062
Q22.2969 70.9062 18.3438 69.2969
Q14.4062 67.7031 11.7969 65
Q9.20312 62.2969 7.70312 58.6875
Q6.20312 55.0938 5.39062 51.0938
Q4.59375 47.0938 4.39062 42.8906
Q4.20312 38.7031 4.20312 34.7969" id="HelveticaNeue-30"/>
      </defs>
      <g transform="translate(69.82078125 410.896875)scale(0.14 -0.14)">
       <use xlink:href="#HelveticaNeue-30"/>
      </g>
     </g>
    </g>
    <g id="xtick_2">
     <g id="line2d_2">
      <g>
       <use style="stroke:#000000;stroke-width:0.5;" x="163.8" xlink:href="#m93b0483c22" y="396.9"/>
      </g>
     </g>
     <g id="text_2">
      <!-- 2,000 -->
      <defs>
       <path d="
M8.29688 11.0938
L8.29688 0
L14.2031 0
Q14.2969 -1.20312 14.0469 -2.59375
Q13.7969 -4 13.0938 -5.34375
Q12.4062 -6.70312 11.25 -7.84375
Q10.0938 -9 8.40625 -9.59375
L8.40625 -14.5938
Q14.2031 -12.9062 16.7969 -8.79688
Q19.4062 -4.70312 19.4062 1
L19.4062 11.0938
z
" id="HelveticaNeue-2c"/>
       <path d="
M4.40625 45.7969
L12.9062 45.7969
Q12.7969 49 13.5469 52.1406
Q14.2969 55.2969 16 57.7969
Q17.7031 60.2969 20.3438 61.8438
Q23 63.4062 26.7031 63.4062
Q29.5 63.4062 32 62.5
Q34.5 61.5938 36.3438 59.8906
Q38.2031 58.2031 39.2969 55.8438
Q40.4062 53.5 40.4062 50.5938
Q40.4062 46.9062 39.25 44.0938
Q38.0938 41.2969 35.8438 38.8906
Q33.5938 36.5 30.1875 34.1406
Q26.7969 31.7969 22.2969 29
Q18.5938 26.7969 15.1875 24.2969
Q11.7969 21.7969 9.09375 18.5
Q6.40625 15.2031 4.65625 10.75
Q2.90625 6.29688 2.40625 0
L48.7031 0
L48.7031 7.5
L12.2969 7.5
Q12.9062 10.7969 14.8438 13.3438
Q16.7969 15.9062 19.5469 18.0938
Q22.2969 20.2969 25.5938 22.25
Q28.9062 24.2031 32.2031 26.2031
Q35.5 28.2969 38.5938 30.5938
Q41.7031 32.9062 44.0938 35.75
Q46.5 38.5938 47.9531 42.1875
Q49.4062 45.7969 49.4062 50.5
Q49.4062 55.5 47.6562 59.2969
Q45.9062 63.0938 42.9062 65.6406
Q39.9062 68.2031 35.8438 69.5469
Q31.7969 70.9062 27.2031 70.9062
Q21.5938 70.9062 17.1875 69
Q12.7969 67.0938 9.84375 63.75
Q6.90625 60.4062 5.5 55.7969
Q4.09375 51.2031 4.40625 45.7969" id="HelveticaNeue-32"/>
      </defs>
      <g transform="translate(146.74953125 410.896875)scale(0.14 -0.14)">
       <use xlink:href="#HelveticaNeue-32"/>
       <use x="55.5999908447" xlink:href="#HelveticaNeue-2c"/>
       <use x="83.3999786377" xlink:href="#HelveticaNeue-30"/>
       <use x="138.999969482" xlink:href="#HelveticaNeue-30"/>
       <use x="194.599960327" xlink:href="#HelveticaNeue-30"/>
      </g>
     </g>
    </g>
    <g id="xtick_3">
     <g id="line2d_3">
      <g>
       <use style="stroke:#000000;stroke-width:0.5;" x="254.475" xlink:href="#m93b0483c22" y="396.9"/>
      </g>
     </g>
     <g id="text_3">
      <!-- 4,000 -->
      <defs>
       <path d="
M33.9062 24.0938
L10.0938 24.0938
L33.7031 58.7969
L33.9062 58.7969
z

M41.9062 24.0938
L41.9062 70.9062
L35.0938 70.9062
L2.79688 24.7969
L2.79688 16.5938
L33.9062 16.5938
L33.9062 0
L41.9062 0
L41.9062 16.5938
L51.5 16.5938
L51.5 24.0938
z
" id="HelveticaNeue-34"/>
      </defs>
      <g transform="translate(237.451875 410.896875)scale(0.14 -0.14)">
       <use xlink:href="#HelveticaNeue-34"/>
       <use x="55.5999908447" xlink:href="#HelveticaNeue-2c"/>
       <use x="83.3999786377" xlink:href="#HelveticaNeue-30"/>
       <use x="138.999969482" xlink:href="#HelveticaNeue-30"/>
       <use x="194.599960327" xlink:href="#HelveticaNeue-30"/>
      </g>
     </g>
    </g>
    <g id="xtick_4">
     <g id="line2d_4">
      <g>
       <use style="stroke:#000000;stroke-width:0.5;" x="345.15" xlink:href="#m93b0483c22" y="396.9"/>
      </g>
     </g>
     <g id="text_4">
      <!-- 6,000 -->
      <defs>
       <path d="
M41.4062 52.7969
L49.9062 52.7969
Q49.0938 61.5938 43.8906 66.25
Q38.7031 70.9062 29.9062 70.9062
Q22.2969 70.9062 17.2969 67.7031
Q12.2969 64.5 9.29688 59.2031
Q6.29688 53.9062 5.04688 47.0469
Q3.79688 40.2031 3.79688 32.9062
Q3.79688 27.2969 4.64062 21.2969
Q5.5 15.2969 8.09375 10.2969
Q10.7031 5.29688 15.5 2.09375
Q20.2969 -1.09375 28.2031 -1.09375
Q34.9062 -1.09375 39.4531 1.15625
Q44 3.40625 46.75 6.84375
Q49.5 10.2969 50.7031 14.5
Q51.9062 18.7031 51.9062 22.5938
Q51.9062 27.5 50.4062 31.7031
Q48.9062 35.9062 46.1562 39
Q43.4062 42.0938 39.3438 43.8438
Q35.2969 45.5938 30.2031 45.5938
Q24.4062 45.5938 19.9531 43.3906
Q15.5 41.2031 12.5 36.2969
L12.2969 36.5
Q12.4062 40.5938 13.0938 45.2969
Q13.7969 50 15.6406 54.0469
Q17.5 58.0938 20.7969 60.75
Q24.0938 63.4062 29.5 63.4062
Q34.5938 63.4062 37.6875 60.5
Q40.7969 57.5938 41.4062 52.7969
M28.5938 38.0938
Q32.2031 38.0938 34.8906 36.7969
Q37.5938 35.5 39.3906 33.3438
Q41.2031 31.2031 42.0469 28.25
Q42.9062 25.2969 42.9062 22
Q42.9062 18.9062 41.9531 16.0469
Q41 13.2031 39.2031 11
Q37.4062 8.79688 34.75 7.54688
Q32.0938 6.29688 28.5938 6.29688
Q25.0938 6.29688 22.3438 7.54688
Q19.5938 8.79688 17.75 10.8906
Q15.9062 13 14.9062 15.8906
Q13.9062 18.7969 13.9062 22.0938
Q13.9062 25.4062 14.8438 28.3438
Q15.7969 31.2969 17.6875 33.4375
Q19.5938 35.5938 22.2969 36.8438
Q25 38.0938 28.5938 38.0938" id="HelveticaNeue-36"/>
      </defs>
      <g transform="translate(328.196875 410.896875)scale(0.14 -0.14)">
       <use xlink:href="#HelveticaNeue-36"/>
       <use x="55.5999908447" xlink:href="#HelveticaNeue-2c"/>
       <use x="83.3999786377" xlink:href="#HelveticaNeue-30"/>
       <use x="138.999969482" xlink:href="#HelveticaNeue-30"/>
       <use x="194.599960327" xlink:href="#HelveticaNeue-30"/>
      </g>
     </g>
    </g>
    <g id="xtick_5">
     <g id="line2d_5">
      <g>
       <use style="stroke:#000000;stroke-width:0.5;" x="435.825" xlink:href="#m93b0483c22" y="396.9"/>
      </g>
     </g>
     <g id="text_5">
      <!-- 8,000 -->
      <defs>
       <path d="
M15.5 52.5
Q15.5 55.2031 16.5 57.2031
Q17.5 59.2031 19.1406 60.5938
Q20.7969 62 23.0938 62.7031
Q25.4062 63.4062 27.9062 63.4062
Q33.0938 63.4062 36.4375 60.6562
Q39.7969 57.9062 39.7969 52.5
Q39.7969 47.0938 36.5 44.0938
Q33.2031 41.0938 28.0938 41.0938
Q25.5 41.0938 23.2031 41.7969
Q20.9062 42.5 19.2031 43.8906
Q17.5 45.2969 16.5 47.4375
Q15.5 49.5938 15.5 52.5
M6.5 52.7969
Q6.5 48 9.20312 43.9531
Q11.9062 39.9062 16.4062 38.0938
Q10.4062 36 7.20312 31.3438
Q4 26.7031 4 20.4062
Q4 15 5.84375 10.9531
Q7.70312 6.90625 10.9531 4.20312
Q14.2031 1.5 18.5938 0.203125
Q23 -1.09375 28.0938 -1.09375
Q33 -1.09375 37.2969 0.296875
Q41.5938 1.70312 44.75 4.45312
Q47.9062 7.20312 49.75 11.2031
Q51.5938 15.2031 51.5938 20.4062
Q51.5938 27 48.5 31.5469
Q45.4062 36.0938 39 38.0938
Q43.5 40.0938 46.1406 44.0469
Q48.7969 48 48.7969 52.7969
Q48.7969 56.2031 47.5938 59.4531
Q46.4062 62.7031 43.8438 65.25
Q41.2969 67.7969 37.1875 69.3438
Q33.0938 70.9062 27.2969 70.9062
Q23.2031 70.9062 19.4531 69.7031
Q15.7031 68.5 12.7969 66.2031
Q9.90625 63.9062 8.20312 60.5469
Q6.5 57.2031 6.5 52.7969
M13 20
Q13 23.0938 14.1406 25.5938
Q15.2969 28.0938 17.3438 29.8906
Q19.4062 31.7031 22.1562 32.6406
Q24.9062 33.5938 28 33.5938
Q31 33.5938 33.6406 32.5469
Q36.2969 31.5 38.2969 29.7031
Q40.2969 27.9062 41.4375 25.4531
Q42.5938 23 42.5938 20.0938
Q42.5938 17.0938 41.5469 14.5938
Q40.5 12.0938 38.5469 10.25
Q36.5938 8.40625 33.9375 7.34375
Q31.2969 6.29688 28.0938 6.29688
Q21.5 6.29688 17.25 9.9375
Q13 13.5938 13 20" id="HelveticaNeue-38"/>
      </defs>
      <g transform="translate(418.88609375 410.896875)scale(0.14 -0.14)">
       <use xlink:href="#HelveticaNeue-38"/>
       <use x="55.5999908447" xlink:href="#HelveticaNeue-2c"/>
       <use x="83.3999786377" xlink:href="#HelveticaNeue-30"/>
       <use x="138.999969482" xlink:href="#HelveticaNeue-30"/>
       <use x="194.599960327" xlink:href="#HelveticaNeue-30"/>
      </g>
     </g>
    </g>
    <g id="xtick_6">
     <g id="line2d_6">
      <g>
       <use style="stroke:#000000;stroke-width:0.5;" x="526.5" xlink:href="#m93b0483c22" y="396.9"/>
      </g>
     </g>
     <g id="text_6">
      <!-- 10,000 -->
      <defs>
       <path d="
M35.5938 0
L35.5938 70.9062
L29.0938 70.9062
Q28.4062 66.9062 26.5 64.2969
Q24.5938 61.7031 21.8438 60.2031
Q19.0938 58.7031 15.6875 58.1406
Q12.2969 57.5938 8.70312 57.5938
L8.70312 50.7969
L27.0938 50.7969
L27.0938 0
z
" id="HelveticaNeue-31"/>
      </defs>
      <g transform="translate(505.99875 410.896875)scale(0.14 -0.14)">
       <use xlink:href="#HelveticaNeue-31"/>
       <use x="55.5999908447" xlink:href="#HelveticaNeue-30"/>
       <use x="111.199981689" xlink:href="#HelveticaNeue-2c"/>
       <use x="138.999969482" xlink:href="#HelveticaNeue-30"/>
       <use x="194.599960327" xlink:href="#HelveticaNeue-30"/>
       <use x="250.199951172" xlink:href="#HelveticaNeue-30"/>
      </g>
     </g>
    </g>
    <g id="text_7">
     <!-- Player points -->
     <defs>
      <path d="
M23.4062 51.7031
L23.4062 67.2031
L9.20312 67.2031
L9.20312 51.7031
L0.59375 51.7031
L0.59375 42.2031
L9.20312 42.2031
L9.20312 11.7031
Q9.20312 7.79688 10.5 5.39062
Q11.7969 3 14.0469 1.70312
Q16.2969 0.40625 19.25 -0.046875
Q22.2031 -0.5 25.5 -0.5
Q27.5938 -0.5 29.7969 -0.390625
Q32 -0.296875 33.7969 0
L33.7969 11
Q32.7969 10.7969 31.6875 10.6875
Q30.5938 10.5938 29.4062 10.5938
Q25.7969 10.5938 24.5938 11.7969
Q23.4062 13 23.4062 16.5938
L23.4062 42.2031
L33.7969 42.2031
L33.7969 51.7031
z
" id="HelveticaNeue-Bold-74"/>
      <path d="
M5.40625 51.7031
L5.40625 0
L19.5938 0
L19.5938 27.0938
Q19.5938 35 22.1875 38.4531
Q24.7969 41.9062 30.5938 41.9062
Q35.7031 41.9062 37.7031 38.75
Q39.7031 35.5938 39.7031 29.2031
L39.7031 0
L53.9062 0
L53.9062 31.7969
Q53.9062 36.5938 53.0469 40.5469
Q52.2031 44.5 50.0938 47.25
Q48 50 44.3438 51.5469
Q40.7031 53.0938 35 53.0938
Q30.5 53.0938 26.2031 51.0469
Q21.9062 49 19.2031 44.5
L18.9062 44.5
L18.9062 51.7031
z
" id="HelveticaNeue-Bold-6e"/>
      <path d="
M40.2031 31.4062
L17.0938 31.4062
Q17.2031 32.9062 17.75 34.7969
Q18.2969 36.7031 19.6406 38.3906
Q21 40.0938 23.25 41.25
Q25.5 42.4062 28.9062 42.4062
Q34.0938 42.4062 36.6406 39.5938
Q39.2031 36.7969 40.2031 31.4062
M17.0938 22.4062
L54.4062 22.4062
Q54.7969 28.4062 53.3906 33.9062
Q52 39.4062 48.8438 43.7031
Q45.7031 48 40.7969 50.5469
Q35.9062 53.0938 29.2969 53.0938
Q23.4062 53.0938 18.5469 51
Q13.7031 48.9062 10.2031 45.25
Q6.70312 41.5938 4.79688 36.5938
Q2.90625 31.5938 2.90625 25.7969
Q2.90625 19.7969 4.75 14.7969
Q6.59375 9.79688 10 6.1875
Q13.4062 2.59375 18.2969 0.640625
Q23.2031 -1.29688 29.2969 -1.29688
Q38.0938 -1.29688 44.2969 2.70312
Q50.5 6.70312 53.5 16
L41 16
Q40.2969 13.5938 37.1875 11.4375
Q34.0938 9.29688 29.7969 9.29688
Q23.7969 9.29688 20.5938 12.3906
Q17.4062 15.5 17.0938 22.4062" id="HelveticaNeue-Bold-65"/>
      <path d="
M31.5 9.29688
Q28.0938 9.29688 25.6875 10.6875
Q23.2969 12.0938 21.8438 14.3438
Q20.4062 16.5938 19.75 19.5938
Q19.0938 22.5938 19.0938 25.7031
Q19.0938 28.9062 19.6875 31.9062
Q20.2969 34.9062 21.75 37.2031
Q23.2031 39.5 25.5469 40.9531
Q27.9062 42.4062 31.4062 42.4062
Q34.7969 42.4062 37.1406 40.9531
Q39.5 39.5 41 37.1406
Q42.5 34.7969 43.1406 31.7969
Q43.7969 28.7969 43.7969 25.7031
Q43.7969 22.5938 43.1875 19.5938
Q42.5938 16.5938 41.1406 14.3438
Q39.7031 12.0938 37.3438 10.6875
Q35 9.29688 31.5 9.29688
M5.40625 51.7031
L5.40625 -18.0938
L19.5938 -18.0938
L19.5938 6.40625
L19.7969 6.40625
Q22.4062 2.59375 26.4531 0.640625
Q30.5 -1.29688 35.2969 -1.29688
Q41 -1.29688 45.25 0.890625
Q49.5 3.09375 52.3438 6.79688
Q55.2031 10.5 56.5938 15.2969
Q58 20.0938 58 25.2969
Q58 30.7969 56.5938 35.8438
Q55.2031 40.9062 52.2969 44.7031
Q49.4062 48.5 45 50.7969
Q40.5938 53.0938 34.5 53.0938
Q29.7031 53.0938 25.7031 51.1875
Q21.7031 49.2969 19.0938 45.0938
L18.9062 45.0938
L18.9062 51.7031
z
" id="HelveticaNeue-Bold-70"/>
      <path d="
M16.4062 16.7969
L2.90625 16.7969
Q3.09375 11.5938 5.25 8.14062
Q7.40625 4.70312 10.75 2.59375
Q14.0938 0.5 18.3906 -0.390625
Q22.7031 -1.29688 27.2031 -1.29688
Q31.5938 -1.29688 35.8438 -0.4375
Q40.0938 0.40625 43.3906 2.5
Q46.7031 4.59375 48.75 8.04688
Q50.7969 11.5 50.7969 16.5938
Q50.7969 20.2031 49.3906 22.6406
Q48 25.0938 45.7031 26.75
Q43.4062 28.4062 40.4531 29.4062
Q37.5 30.4062 34.4062 31.0938
Q31.4062 31.7969 28.5 32.3906
Q25.5938 33 23.3438 33.75
Q21.0938 34.5 19.6875 35.7031
Q18.2969 36.9062 18.2969 38.7969
Q18.2969 40.4062 19.0938 41.3438
Q19.9062 42.2969 21.0469 42.7969
Q22.2031 43.2969 23.5938 43.4375
Q25 43.5938 26.2031 43.5938
Q30 43.5938 32.7969 42.1406
Q35.5938 40.7031 35.9062 36.5938
L49.4062 36.5938
Q49 41.4062 46.9531 44.5469
Q44.9062 47.7031 41.7969 49.5938
Q38.7031 51.5 34.75 52.2969
Q30.7969 53.0938 26.5938 53.0938
Q22.4062 53.0938 18.4062 52.3438
Q14.4062 51.5938 11.2031 49.75
Q8 47.9062 6.04688 44.7031
Q4.09375 41.5 4.09375 36.5
Q4.09375 33.0938 5.5 30.75
Q6.90625 28.4062 9.20312 26.8438
Q11.5 25.2969 14.4531 24.3438
Q17.4062 23.4062 20.5 22.7031
Q28.0938 21.0938 32.3438 19.5
Q36.5938 17.9062 36.5938 14.7031
Q36.5938 12.7969 35.6875 11.5469
Q34.7969 10.2969 33.4375 9.54688
Q32.0938 8.79688 30.4375 8.4375
Q28.7969 8.09375 27.2969 8.09375
Q25.2031 8.09375 23.25 8.59375
Q21.2969 9.09375 19.7969 10.1406
Q18.2969 11.2031 17.3438 12.8438
Q16.4062 14.5 16.4062 16.7969" id="HelveticaNeue-Bold-73"/>
      <path d="
M5.40625 51.7031
L5.40625 0
L19.5938 0
L19.5938 23.2969
Q19.5938 26.7969 20.2969 29.7969
Q21 32.7969 22.6406 35.0469
Q24.2969 37.2969 27 38.5938
Q29.7031 39.9062 33.5938 39.9062
Q34.9062 39.9062 36.2969 39.75
Q37.7031 39.5938 38.7031 39.4062
L38.7031 52.5938
Q37 53.0938 35.5938 53.0938
Q32.9062 53.0938 30.4062 52.2969
Q27.9062 51.5 25.7031 50.0469
Q23.5 48.5938 21.7969 46.5469
Q20.0938 44.5 19.0938 42.0938
L18.9062 42.0938
L18.9062 51.7031
z
" id="HelveticaNeue-Bold-72"/>
      <path id="HelveticaNeue-Bold-20"/>
      <path d="
M4.79688 35.7969
L19 35.7969
Q19.4062 40 21.7969 41.7969
Q24.2031 43.5938 28.4062 43.5938
Q30.2969 43.5938 31.9375 43.3438
Q33.5938 43.0938 34.8438 42.3438
Q36.0938 41.5938 36.8438 40.25
Q37.5938 38.9062 37.5938 36.5938
Q37.7031 34.4062 36.2969 33.25
Q34.9062 32.0938 32.5 31.5
Q30.0938 30.9062 27 30.5938
Q23.9062 30.2969 20.7031 29.7969
Q17.5 29.2969 14.3438 28.4375
Q11.2031 27.5938 8.75 25.8906
Q6.29688 24.2031 4.75 21.3438
Q3.20312 18.5 3.20312 14.0938
Q3.20312 10.0938 4.54688 7.1875
Q5.90625 4.29688 8.29688 2.39062
Q10.7031 0.5 13.8906 -0.390625
Q17.0938 -1.29688 20.7969 -1.29688
Q25.5938 -1.29688 30.1875 0.09375
Q34.7969 1.5 38.2031 5
Q38.2969 3.70312 38.5469 2.45312
Q38.7969 1.20312 39.2031 0
L53.5938 0
Q52.5938 1.59375 52.1875 4.79688
Q51.7969 8 51.7969 11.5
L51.7969 38.4062
Q51.7969 43.0938 49.6875 45.9375
Q47.5938 48.7969 44.2969 50.3906
Q41 52 37 52.5469
Q33 53.0938 29.0938 53.0938
Q24.7969 53.0938 20.5469 52.25
Q16.2969 51.4062 12.8906 49.4062
Q9.5 47.4062 7.29688 44.0938
Q5.09375 40.7969 4.79688 35.7969
M37.5938 25.2969
L37.5938 20
Q37.5938 18.7969 37.3438 16.7969
Q37.0938 14.7969 36 12.8438
Q34.9062 10.9062 32.5938 9.5
Q30.2969 8.09375 26.0938 8.09375
Q24.4062 8.09375 22.7969 8.39062
Q21.2031 8.70312 20 9.45312
Q18.7969 10.2031 18.0938 11.5
Q17.4062 12.7969 17.4062 14.7031
Q17.4062 16.7031 18.0938 18
Q18.7969 19.2969 19.9375 20.1406
Q21.0938 21 22.6406 21.5
Q24.2031 22 25.7969 22.2969
Q27.5 22.5938 29.2031 22.7969
Q30.9062 23 32.4531 23.2969
Q34 23.5938 35.3438 24.0469
Q36.7031 24.5 37.5938 25.2969" id="HelveticaNeue-Bold-61"/>
      <path d="
M30.9062 -6.40625
L52.5 51.7031
L37.7969 51.7031
L26.5 16.2969
L26.2969 16.2969
L14.5938 51.7031
L-0.5 51.7031
L17.5938 3.20312
Q18.2031 1.70312 18.2031 0
Q18.2031 -2.29688 16.8438 -4.1875
Q15.5 -6.09375 12.7031 -6.40625
Q10.5938 -6.5 8.5 -6.29688
Q6.40625 -6.09375 4.40625 -5.90625
L4.40625 -17.5938
Q6.59375 -17.7969 8.75 -17.9375
Q10.9062 -18.0938 13.0938 -18.0938
Q20.4062 -18.0938 24.5 -15.3906
Q28.5938 -12.7031 30.9062 -6.40625" id="HelveticaNeue-Bold-79"/>
      <path d="
M20 59.7031
L20 71.4062
L5.79688 71.4062
L5.79688 59.7031
z

M5.79688 51.7031
L5.79688 0
L20 0
L20 51.7031
z
" id="HelveticaNeue-Bold-69"/>
      <path d="
M18 25.7969
Q18 28.9062 18.5938 31.9062
Q19.2031 34.9062 20.6406 37.2031
Q22.0938 39.5 24.5 40.9531
Q26.9062 42.4062 30.5 42.4062
Q34.0938 42.4062 36.5469 40.9531
Q39 39.5 40.4531 37.2031
Q41.9062 34.9062 42.5 31.9062
Q43.0938 28.9062 43.0938 25.7969
Q43.0938 22.7031 42.5 19.75
Q41.9062 16.7969 40.4531 14.4375
Q39 12.0938 36.5469 10.6875
Q34.0938 9.29688 30.5 9.29688
Q26.9062 9.29688 24.5 10.6875
Q22.0938 12.0938 20.6406 14.4375
Q19.2031 16.7969 18.5938 19.75
Q18 22.7031 18 25.7969
M3.79688 25.7969
Q3.79688 19.5938 5.6875 14.5938
Q7.59375 9.59375 11.0938 6.04688
Q14.5938 2.5 19.5 0.59375
Q24.4062 -1.29688 30.5 -1.29688
Q36.5938 -1.29688 41.5469 0.59375
Q46.5 2.5 50 6.04688
Q53.5 9.59375 55.3906 14.5938
Q57.2969 19.5938 57.2969 25.7969
Q57.2969 32 55.3906 37.0469
Q53.5 42.0938 50 45.6406
Q46.5 49.2031 41.5469 51.1406
Q36.5938 53.0938 30.5 53.0938
Q24.4062 53.0938 19.5 51.1406
Q14.5938 49.2031 11.0938 45.6406
Q7.59375 42.0938 5.6875 37.0469
Q3.79688 32 3.79688 25.7969" id="HelveticaNeue-Bold-6f"/>
      <path d="
M22.5938 37.7969
L22.5938 59.2031
L34.7969 59.2031
Q37.5 59.2031 40 58.7969
Q42.5 58.4062 44.3906 57.25
Q46.2969 56.0938 47.4375 54
Q48.5938 51.9062 48.5938 48.5
Q48.5938 45.0938 47.4375 43
Q46.2969 40.9062 44.3906 39.75
Q42.5 38.5938 40 38.1875
Q37.5 37.7969 34.7969 37.7969
z

M6.90625 71.4062
L6.90625 0
L22.5938 0
L22.5938 25.5938
L39.0938 25.5938
Q45.7969 25.5938 50.5 27.5469
Q55.2031 29.5 58.1406 32.7031
Q61.0938 35.9062 62.4375 40.0469
Q63.7969 44.2031 63.7969 48.5
Q63.7969 52.9062 62.4375 57
Q61.0938 61.0938 58.1406 64.2969
Q55.2031 67.5 50.5 69.4531
Q45.7969 71.4062 39.0938 71.4062
z
" id="HelveticaNeue-Bold-50"/>
      <path d="
M5.79688 71.4062
L5.79688 0
L20 0
L20 71.4062
z
" id="HelveticaNeue-Bold-6c"/>
     </defs>
     <g transform="translate(250.27625 430.0803125)scale(0.16 -0.16)">
      <use xlink:href="#HelveticaNeue-Bold-50"/>
      <use x="66.6999969482" xlink:href="#HelveticaNeue-Bold-6c"/>
      <use x="92.4999847412" xlink:href="#HelveticaNeue-Bold-61"/>
      <use x="149.899978638" xlink:href="#HelveticaNeue-Bold-79"/>
      <use x="201.799972534" xlink:href="#HelveticaNeue-Bold-65"/>
      <use x="259.199966431" xlink:href="#HelveticaNeue-Bold-72"/>
      <use x="298.099960327" xlink:href="#HelveticaNeue-Bold-20"/>
      <use x="325.89994812" xlink:href="#HelveticaNeue-Bold-70"/>
      <use x="386.999938965" xlink:href="#HelveticaNeue-Bold-6f"/>
      <use x="448.09992981" xlink:href="#HelveticaNeue-Bold-69"/>
      <use x="473.899917603" xlink:href="#HelveticaNeue-Bold-6e"/>
      <use x="533.199905396" xlink:href="#HelveticaNeue-Bold-74"/>
      <use x="568.399902344" xlink:href="#HelveticaNeue-Bold-73"/>
     </g>
    </g>
   </g>
   <g id="matplotlib.axis_2">
    <g id="ytick_1">
     <g id="line2d_7">
      <defs>
       <path d="
M0 0
L4 0" id="m728421d6d4" style="stroke:#000000;stroke-width:0.5;"/>
      </defs>
      <g>
       <use style="stroke:#000000;stroke-width:0.5;" x="73.125" xlink:href="#m728421d6d4" y="396.9"/>
      </g>
     </g>
     <g id="text_8">
      <!-- 2,000 -->
      <g transform="translate(35.0240625 400.51921875)scale(0.14 -0.14)">
       <use xlink:href="#HelveticaNeue-32"/>
       <use x="55.5999908447" xlink:href="#HelveticaNeue-2c"/>
       <use x="83.3999786377" xlink:href="#HelveticaNeue-30"/>
       <use x="138.999969482" xlink:href="#HelveticaNeue-30"/>
       <use x="194.599960327" xlink:href="#HelveticaNeue-30"/>
      </g>
     </g>
    </g>
    <g id="ytick_2">
     <g id="line2d_8">
      <g>
       <use style="stroke:#000000;stroke-width:0.5;" x="73.125" xlink:href="#m728421d6d4" y="357.7"/>
      </g>
     </g>
     <g id="text_9">
      <!-- 2,500 -->
      <defs>
       <path d="
M47 62.2031
L47 69.7031
L12 69.7031
L5.40625 32.9062
L12.7031 32.5
Q15.2031 35.5 18.4531 37.3438
Q21.7031 39.2031 25.9062 39.2031
Q29.5 39.2031 32.4531 38
Q35.4062 36.7969 37.5 34.6406
Q39.5938 32.5 40.75 29.5469
Q41.9062 26.5938 41.9062 23.0938
Q41.9062 18.9062 40.7031 15.75
Q39.5 12.5938 37.4531 10.5
Q35.4062 8.40625 32.6562 7.34375
Q29.9062 6.29688 26.9062 6.29688
Q23.7031 6.29688 21.0469 7.25
Q18.4062 8.20312 16.4531 9.95312
Q14.5 11.7031 13.3438 14.0469
Q12.2031 16.4062 12 19.0938
L3.5 19.0938
Q3.59375 14.2969 5.39062 10.5
Q7.20312 6.70312 10.2969 4.14062
Q13.4062 1.59375 17.4531 0.25
Q21.5 -1.09375 26.0938 -1.09375
Q32.2969 -1.09375 36.9375 0.84375
Q41.5938 2.79688 44.6875 6.09375
Q47.7969 9.40625 49.3438 13.6562
Q50.9062 17.9062 50.9062 22.4062
Q50.9062 28.5 49.0938 33.0469
Q47.2969 37.5938 44.1875 40.6406
Q41.0938 43.7031 36.8906 45.2031
Q32.7031 46.7031 28 46.7031
Q24.4062 46.7031 20.75 45.4531
Q17.0938 44.2031 14.7969 41.5938
L14.5938 41.7969
L18.4062 62.2031
z
" id="HelveticaNeue-35"/>
      </defs>
      <g transform="translate(35.0240625 361.31921875)scale(0.14 -0.14)">
       <use xlink:href="#HelveticaNeue-32"/>
       <use x="55.5999908447" xlink:href="#HelveticaNeue-2c"/>
       <use x="83.3999786377" xlink:href="#HelveticaNeue-35"/>
       <use x="138.999969482" xlink:href="#HelveticaNeue-30"/>
       <use x="194.599960327" xlink:href="#HelveticaNeue-30"/>
      </g>
     </g>
    </g>
    <g id="ytick_3">
     <g id="line2d_9">
      <g>
       <use style="stroke:#000000;stroke-width:0.5;" x="73.125" xlink:href="#m728421d6d4" y="318.5"/>
      </g>
     </g>
     <g id="text_10">
      <!-- 3,000 -->
      <defs>
       <path d="
M21.7969 40.5
L21.7969 33.2969
Q24.2031 33.5938 26.9062 33.5938
Q30.0938 33.5938 32.8438 32.75
Q35.5938 31.9062 37.5938 30.1562
Q39.5938 28.4062 40.7969 25.8438
Q42 23.2969 42 20
Q42 16.7969 40.75 14.25
Q39.5 11.7031 37.3906 9.95312
Q35.2969 8.20312 32.5 7.25
Q29.7031 6.29688 26.5938 6.29688
Q19.2969 6.29688 15.5 10.6406
Q11.7031 15 11.5 21.9062
L3 21.9062
Q2.90625 16.4062 4.54688 12.0938
Q6.20312 7.79688 9.29688 4.84375
Q12.4062 1.90625 16.7969 0.40625
Q21.2031 -1.09375 26.5938 -1.09375
Q31.5938 -1.09375 36.0469 0.25
Q40.5 1.59375 43.7969 4.29688
Q47.0938 7 49.0469 11.0469
Q51 15.0938 51 20.4062
Q51 26.7969 47.8438 31.5
Q44.7031 36.2031 38.2031 37.5938
L38.2031 37.7969
Q42.4062 39.7031 45.2031 43.3906
Q48 47.0938 48 51.9062
Q48 56.7969 46.3438 60.3906
Q44.7031 64 41.7969 66.2969
Q38.9062 68.5938 34.9531 69.75
Q31 70.9062 26.4062 70.9062
Q21.0938 70.9062 17.0469 69.2031
Q13 67.5 10.2969 64.5
Q7.59375 61.5 6.14062 57.2969
Q4.70312 53.0938 4.5 48
L13 48
Q13 51.0938 13.7969 53.8906
Q14.5938 56.7031 16.25 58.7969
Q17.9062 60.9062 20.4531 62.1562
Q23 63.4062 26.4062 63.4062
Q31.7969 63.4062 35.3906 60.5469
Q39 57.7031 39 52
Q39 49.2031 37.8906 47
Q36.7969 44.7969 34.9375 43.3438
Q33.0938 41.9062 30.6406 41.1562
Q28.2031 40.4062 25.5 40.4062
L23.7031 40.4062
Q23.2031 40.4062 22.7031 40.4062
Q22.2969 40.4062 21.7969 40.5" id="HelveticaNeue-33"/>
      </defs>
      <g transform="translate(35.0940625 322.11921875)scale(0.14 -0.14)">
       <use xlink:href="#HelveticaNeue-33"/>
       <use x="55.5999908447" xlink:href="#HelveticaNeue-2c"/>
       <use x="83.3999786377" xlink:href="#HelveticaNeue-30"/>
       <use x="138.999969482" xlink:href="#HelveticaNeue-30"/>
       <use x="194.599960327" xlink:href="#HelveticaNeue-30"/>
      </g>
     </g>
    </g>
    <g id="ytick_4">
     <g id="line2d_10">
      <g>
       <use style="stroke:#000000;stroke-width:0.5;" x="73.125" xlink:href="#m728421d6d4" y="279.3"/>
      </g>
     </g>
     <g id="text_11">
      <!-- 3,500 -->
      <g transform="translate(35.0940625 282.91921875)scale(0.14 -0.14)">
       <use xlink:href="#HelveticaNeue-33"/>
       <use x="55.5999908447" xlink:href="#HelveticaNeue-2c"/>
       <use x="83.3999786377" xlink:href="#HelveticaNeue-35"/>
       <use x="138.999969482" xlink:href="#HelveticaNeue-30"/>
       <use x="194.599960327" xlink:href="#HelveticaNeue-30"/>
      </g>
     </g>
    </g>
    <g id="ytick_5">
     <g id="line2d_11">
      <g>
       <use style="stroke:#000000;stroke-width:0.5;" x="73.125" xlink:href="#m728421d6d4" y="240.1"/>
      </g>
     </g>
     <g id="text_12">
      <!-- 4,000 -->
      <g transform="translate(35.07875 243.71921875)scale(0.14 -0.14)">
       <use xlink:href="#HelveticaNeue-34"/>
       <use x="55.5999908447" xlink:href="#HelveticaNeue-2c"/>
       <use x="83.3999786377" xlink:href="#HelveticaNeue-30"/>
       <use x="138.999969482" xlink:href="#HelveticaNeue-30"/>
       <use x="194.599960327" xlink:href="#HelveticaNeue-30"/>
      </g>
     </g>
    </g>
    <g id="ytick_6">
     <g id="line2d_12">
      <g>
       <use style="stroke:#000000;stroke-width:0.5;" x="73.125" xlink:href="#m728421d6d4" y="200.9"/>
      </g>
     </g>
     <g id="text_13">
      <!-- 4,500 -->
      <g transform="translate(35.07875 204.51921875)scale(0.14 -0.14)">
       <use xlink:href="#HelveticaNeue-34"/>
       <use x="55.5999908447" xlink:href="#HelveticaNeue-2c"/>
       <use x="83.3999786377" xlink:href="#HelveticaNeue-35"/>
       <use x="138.999969482" xlink:href="#HelveticaNeue-30"/>
       <use x="194.599960327" xlink:href="#HelveticaNeue-30"/>
      </g>
     </g>
    </g>
    <g id="ytick_7">
     <g id="line2d_13">
      <g>
       <use style="stroke:#000000;stroke-width:0.5;" x="73.125" xlink:href="#m728421d6d4" y="161.7"/>
      </g>
     </g>
     <g id="text_14">
      <!-- 5,000 -->
      <g transform="translate(35.1771875 165.31921875)scale(0.14 -0.14)">
       <use xlink:href="#HelveticaNeue-35"/>
       <use x="55.5999908447" xlink:href="#HelveticaNeue-2c"/>
       <use x="83.3999786377" xlink:href="#HelveticaNeue-30"/>
       <use x="138.999969482" xlink:href="#HelveticaNeue-30"/>
       <use x="194.599960327" xlink:href="#HelveticaNeue-30"/>
      </g>
     </g>
    </g>
    <g id="ytick_8">
     <g id="line2d_14">
      <g>
       <use style="stroke:#000000;stroke-width:0.5;" x="73.125" xlink:href="#m728421d6d4" y="122.5"/>
      </g>
     </g>
     <g id="text_15">
      <!-- 5,500 -->
      <g transform="translate(35.1771875 126.11921875)scale(0.14 -0.14)">
       <use xlink:href="#HelveticaNeue-35"/>
       <use x="55.5999908447" xlink:href="#HelveticaNeue-2c"/>
       <use x="83.3999786377" xlink:href="#HelveticaNeue-35"/>
       <use x="138.999969482" xlink:href="#HelveticaNeue-30"/>
       <use x="194.599960327" xlink:href="#HelveticaNeue-30"/>
      </g>
     </g>
    </g>
    <g id="ytick_9">
     <g id="line2d_15">
      <g>
       <use style="stroke:#000000;stroke-width:0.5;" x="73.125" xlink:href="#m728421d6d4" y="83.3"/>
      </g>
     </g>
     <g id="text_16">
      <!-- 6,000 -->
      <g transform="translate(35.21875 86.91921875)scale(0.14 -0.14)">
       <use xlink:href="#HelveticaNeue-36"/>
       <use x="55.5999908447" xlink:href="#HelveticaNeue-2c"/>
       <use x="83.3999786377" xlink:href="#HelveticaNeue-30"/>
       <use x="138.999969482" xlink:href="#HelveticaNeue-30"/>
       <use x="194.599960327" xlink:href="#HelveticaNeue-30"/>
      </g>
     </g>
    </g>
    <g id="ytick_10">
     <g id="line2d_16">
      <g>
       <use style="stroke:#000000;stroke-width:0.5;" x="73.125" xlink:href="#m728421d6d4" y="44.1"/>
      </g>
     </g>
     <g id="text_17">
      <!-- 6,500 -->
      <g transform="translate(35.21875 47.71921875)scale(0.14 -0.14)">
       <use xlink:href="#HelveticaNeue-36"/>
       <use x="55.5999908447" xlink:href="#HelveticaNeue-2c"/>
       <use x="83.3999786377" xlink:href="#HelveticaNeue-35"/>
       <use x="138.999969482" xlink:href="#HelveticaNeue-30"/>
       <use x="194.599960327" xlink:href="#HelveticaNeue-30"/>
      </g>
     </g>
    </g>
    <g id="text_18">
     <!-- Player salary -->
     <g transform="translate(27.1290625 269.43125)rotate(-90.0)scale(0.16 -0.16)">
      <use xlink:href="#HelveticaNeue-Bold-50"/>
      <use x="66.6999969482" xlink:href="#HelveticaNeue-Bold-6c"/>
      <use x="92.4999847412" xlink:href="#HelveticaNeue-Bold-61"/>
      <use x="149.899978638" xlink:href="#HelveticaNeue-Bold-79"/>
      <use x="201.799972534" xlink:href="#HelveticaNeue-Bold-65"/>
      <use x="259.199966431" xlink:href="#HelveticaNeue-Bold-72"/>
      <use x="298.099960327" xlink:href="#HelveticaNeue-Bold-20"/>
      <use x="325.89994812" xlink:href="#HelveticaNeue-Bold-73"/>
      <use x="379.599945068" xlink:href="#HelveticaNeue-Bold-61"/>
      <use x="436.999938965" xlink:href="#HelveticaNeue-Bold-6c"/>
      <use x="462.799926758" xlink:href="#HelveticaNeue-Bold-61"/>
      <use x="520.199920654" xlink:href="#HelveticaNeue-Bold-72"/>
      <use x="559.099914551" xlink:href="#HelveticaNeue-Bold-79"/>
     </g>
    </g>
   </g>
   <g id="line2d_17">
    <path clip-path="url(#p5873ec822d)" d="
M73.125 553.7" style="fill:none;stroke:#000000;stroke-dasharray:6.000000,6.000000;stroke-dashoffset:0.0;"/>
   </g>
   <g id="patch_3">
    <path clip-path="url(#p5873ec822d)" d="
M499.298 180.516
L501.567 188.354
L499.3 188.356
L499.343 381.298
L499.343 381.298
L499.3 188.356
L497.033 188.358
z
" style="stroke:#000000;stroke-dasharray:6.000000,6.000000;stroke-dashoffset:0.0;"/>
   </g>
   <g id="patch_4">
    <path clip-path="url(#p5873ec822d)" d="
M499.298 133.476
L501.564 141.316
L499.298 141.316
L499.298 177.38
L499.297 177.38
L499.297 141.316
L497.031 141.316
z
" style="stroke:#000000;stroke-dasharray:6.000000,6.000000;stroke-dashoffset:0.0;"/>
   </g>
   <g id="patch_5">
    <path clip-path="url(#p5873ec822d)" d="
M487.417 170.532
L492.435 169.292
L491.718 173.011
L499.298 177.38
L499.297 177.38
L491.718 173.011
L491.001 176.73
z
" style="stroke:#000000;stroke-dasharray:6.000000,6.000000;stroke-dashoffset:0.0;"/>
   </g>
   <g id="patch_6">
    <path clip-path="url(#p5873ec822d)" d="
M485.696 86.436
L487.963 94.276
L485.696 94.276
L485.696 169.54
L485.696 169.54
L485.696 94.276
L483.429 94.276
z
" style="stroke:#000000;stroke-dasharray:6.000000,6.000000;stroke-dashoffset:0.0;"/>
   </g>
   <g id="patch_7">
    <path clip-path="url(#p5873ec822d)" d="
M481.519 227.495
L484.632 234.412
L482.41 235.182
L499.343 381.298
L499.343 381.298
L482.41 235.182
L480.187 235.952
z
" style="stroke:#000000;stroke-dasharray:6.000000,6.000000;stroke-dashoffset:0.0;"/>
   </g>
   <g id="patch_8">
    <path clip-path="url(#p5873ec822d)" d="
M476.885 172.644
L479.77 179.851
L477.526 180.406
L481.163 224.42
L481.162 224.42
L477.526 180.406
L475.282 180.96
z
" style="stroke:#000000;stroke-dasharray:6.000000,6.000000;stroke-dashoffset:0.0;"/>
   </g>
   <g id="patch_9">
    <path clip-path="url(#p5873ec822d)" d="
M473.909 224.42
L478.442 220.5
L478.442 224.42
L481.163 224.42
L481.163 224.42
L478.442 224.42
L478.442 228.34
z
" style="stroke:#000000;stroke-dasharray:6.000000,6.000000;stroke-dashoffset:0.0;"/>
   </g>
   <g id="patch_10">
    <path clip-path="url(#p5873ec822d)" d="
M472.095 172.676
L474.362 180.516
L472.095 180.516
L472.095 224.42
L472.095 224.42
L472.095 180.516
L469.828 180.516
z
" style="stroke:#000000;stroke-dasharray:6.000000,6.000000;stroke-dashoffset:0.0;"/>
   </g>
   <g id="patch_11">
    <path clip-path="url(#p5873ec822d)" d="
M463.601 180.355
L467.185 186.553
L465.035 187.793
L472.095 224.42
L472.095 224.42
L465.035 187.793
L462.884 189.032
z
" style="stroke:#000000;stroke-dasharray:6.000000,6.000000;stroke-dashoffset:0.0;"/>
   </g>
   <g id="patch_12">
    <path clip-path="url(#p5873ec822d)" d="
M459.27 235.094
L463.261 240.499
L461.212 242.178
L499.343 381.298
L499.343 381.298
L461.212 242.178
L459.164 243.857
z
" style="stroke:#000000;stroke-dasharray:6.000000,6.000000;stroke-dashoffset:0.0;"/>
   </g>
   <g id="patch_13">
    <path clip-path="url(#p5873ec822d)" d="
M458.494 188.356
L460.761 196.196
L458.494 196.196
L458.494 232.26
L458.494 232.26
L458.494 196.196
L456.227 196.196
z
" style="stroke:#000000;stroke-dasharray:6.000000,6.000000;stroke-dashoffset:0.0;"/>
   </g>
   <g id="patch_14">
    <path clip-path="url(#p5873ec822d)" d="
M455.774 185.22
L460.307 181.3
L460.307 185.22
L458.494 185.22
L458.494 185.22
L460.307 185.22
L460.307 189.14
z
" style="stroke:#000000;stroke-dasharray:6.000000,6.000000;stroke-dashoffset:0.0;"/>
   </g>
   <g id="patch_15">
    <path clip-path="url(#p5873ec822d)" d="
M453.96 180.516
L456.227 188.356
L453.96 188.356
L453.96 185.22
L453.96 185.22
L453.96 188.356
L451.693 188.356
z
" style="stroke:#000000;stroke-dasharray:6.000000,6.000000;stroke-dashoffset:0.0;"/>
   </g>
   <g id="patch_16">
    <path clip-path="url(#p5873ec822d)" d="
M450.454 258.364
L454.891 262.603
L453.023 264.824
L499.343 381.298
L499.343 381.298
L453.023 264.824
L451.155 267.045
z
" style="stroke:#000000;stroke-dasharray:6.000000,6.000000;stroke-dashoffset:0.0;"/>
   </g>
   <g id="patch_17">
    <path clip-path="url(#p5873ec822d)" d="
M449.426 172.676
L451.693 180.516
L449.426 180.516
L449.426 255.78
L449.426 255.78
L449.426 180.516
L447.159 180.516
z
" style="stroke:#000000;stroke-dasharray:6.000000,6.000000;stroke-dashoffset:0.0;"/>
   </g>
   <g id="patch_18">
    <path clip-path="url(#p5873ec822d)" d="
M446.175 250.157
L450.984 252.929
L449.381 255.701
L449.426 255.78
L449.426 255.78
L449.381 255.701
L447.778 258.473
z
" style="stroke:#000000;stroke-dasharray:6.000000,6.000000;stroke-dashoffset:0.0;"/>
   </g>
   <g id="patch_19">
    <path clip-path="url(#p5873ec822d)" d="
M444.893 243.236
L447.159 251.076
L444.893 251.076
L444.893 247.94
L444.892 247.94
L444.892 251.076
L442.626 251.076
z
" style="stroke:#000000;stroke-dasharray:6.000000,6.000000;stroke-dashoffset:0.0;"/>
   </g>
   <g id="patch_20">
    <path clip-path="url(#p5873ec822d)" d="
M444.893 180.516
L447.159 188.356
L444.893 188.356
L444.893 240.1
L444.892 240.1
L444.892 188.356
L442.626 188.356
z
" style="stroke:#000000;stroke-dasharray:6.000000,6.000000;stroke-dashoffset:0.0;"/>
   </g>
   <g id="patch_21">
    <path clip-path="url(#p5873ec822d)" d="
M444.893 164.836
L447.159 172.676
L444.893 172.676
L444.893 177.38
L444.892 177.38
L444.892 172.676
L442.626 172.676
z
" style="stroke:#000000;stroke-dasharray:6.000000,6.000000;stroke-dashoffset:0.0;"/>
   </g>
   <g id="patch_22">
    <path clip-path="url(#p5873ec822d)" d="
M441.641 234.477
L446.45 237.249
L444.847 240.021
L444.893 240.1
L444.892 240.1
L444.847 240.021
L443.244 242.793
z
" style="stroke:#000000;stroke-dasharray:6.000000,6.000000;stroke-dashoffset:0.0;"/>
   </g>
   <g id="patch_23">
    <path clip-path="url(#p5873ec822d)" d="
M440.359 219.716
L442.626 227.556
L440.359 227.556
L440.359 232.26
L440.359 232.26
L440.359 227.556
L438.092 227.556
z
" style="stroke:#000000;stroke-dasharray:6.000000,6.000000;stroke-dashoffset:0.0;"/>
   </g>
   <g id="patch_24">
    <path clip-path="url(#p5873ec822d)" d="
M440.359 211.876
L442.626 219.716
L440.359 219.716
L440.359 216.58
L440.359 216.58
L440.359 219.716
L438.092 219.716
z
" style="stroke:#000000;stroke-dasharray:6.000000,6.000000;stroke-dashoffset:0.0;"/>
   </g>
   <g id="patch_25">
    <path clip-path="url(#p5873ec822d)" d="
M440.359 204.036
L442.626 211.876
L440.359 211.876
L440.359 208.74
L440.359 208.74
L440.359 211.876
L438.092 211.876
z
" style="stroke:#000000;stroke-dasharray:6.000000,6.000000;stroke-dashoffset:0.0;"/>
   </g>
   <g id="patch_26">
    <path clip-path="url(#p5873ec822d)" d="
M437.639 208.74
L442.172 204.82
L442.172 208.74
L440.359 208.74
L440.359 208.74
L442.172 208.74
L442.172 212.66
z
" style="stroke:#000000;stroke-dasharray:6.000000,6.000000;stroke-dashoffset:0.0;"/>
   </g>
   <g id="patch_27">
    <path clip-path="url(#p5873ec822d)" d="
M435.825 196.196
L438.092 204.036
L435.825 204.036
L435.825 208.74
L435.825 208.74
L435.825 204.036
L433.558 204.036
z
" style="stroke:#000000;stroke-dasharray:6.000000,6.000000;stroke-dashoffset:0.0;"/>
   </g>
   <g id="patch_28">
    <path clip-path="url(#p5873ec822d)" d="
M435.825 204.036
L438.092 211.876
L435.825 211.876
L435.825 208.74
L435.825 208.74
L435.825 211.876
L433.558 211.876
z
" style="stroke:#000000;stroke-dasharray:6.000000,6.000000;stroke-dashoffset:0.0;"/>
   </g>
   <g id="patch_29">
    <path clip-path="url(#p5873ec822d)" d="
M437.639 255.78
L442.172 251.86
L442.172 255.78
L449.426 255.78
L449.426 255.78
L442.172 255.78
L442.172 259.7
z
" style="stroke:#000000;stroke-dasharray:6.000000,6.000000;stroke-dashoffset:0.0;"/>
   </g>
   <g id="patch_30">
    <path clip-path="url(#p5873ec822d)" d="
M437.107 273.677
L441.916 276.449
L440.313 279.221
L499.343 381.298
L499.343 381.298
L440.313 279.221
L438.71 281.993
z
" style="stroke:#000000;stroke-dasharray:6.000000,6.000000;stroke-dashoffset:0.0;"/>
   </g>
   <g id="patch_31">
    <path clip-path="url(#p5873ec822d)" d="
M431.589 227.513
L434.571 234.602
L432.335 235.247
L435.825 271.46
L435.825 271.46
L432.335 235.247
L430.099 235.891
z
" style="stroke:#000000;stroke-dasharray:6.000000,6.000000;stroke-dashoffset:0.0;"/>
   </g>
   <g id="patch_32">
    <path clip-path="url(#p5873ec822d)" d="
M428.208 289.022
L433.195 290.591
L431.835 293.726
L499.343 381.298
L499.343 381.298
L431.835 293.727
L430.475 296.862
z
" style="stroke:#000000;stroke-dasharray:6.000000,6.000000;stroke-dashoffset:0.0;"/>
   </g>
   <g id="patch_33">
    <path clip-path="url(#p5873ec822d)" d="
M426.758 274.596
L429.024 282.436
L426.758 282.436
L426.758 287.14
L426.757 287.14
L426.757 282.436
L424.491 282.436
z
" style="stroke:#000000;stroke-dasharray:6.000000,6.000000;stroke-dashoffset:0.0;"/>
   </g>
   <g id="patch_34">
    <path clip-path="url(#p5873ec822d)" d="
M426.758 266.756
L429.024 274.596
L426.758 274.596
L426.758 271.46
L426.757 271.46
L426.757 274.596
L424.491 274.596
z
" style="stroke:#000000;stroke-dasharray:6.000000,6.000000;stroke-dashoffset:0.0;"/>
   </g>
   <g id="patch_35">
    <path clip-path="url(#p5873ec822d)" d="
M426.758 243.236
L429.024 251.076
L426.758 251.076
L426.758 263.62
L426.757 263.62
L426.757 251.076
L424.491 251.076
z
" style="stroke:#000000;stroke-dasharray:6.000000,6.000000;stroke-dashoffset:0.0;"/>
   </g>
   <g id="patch_36">
    <path clip-path="url(#p5873ec822d)" d="
M426.758 211.876
L429.024 219.716
L426.758 219.716
L426.758 240.1
L426.757 240.1
L426.757 219.716
L424.491 219.716
z
" style="stroke:#000000;stroke-dasharray:6.000000,6.000000;stroke-dashoffset:0.0;"/>
   </g>
   <g id="patch_37">
    <path clip-path="url(#p5873ec822d)" d="
M426.758 196.196
L429.024 204.036
L426.758 204.036
L426.758 208.74
L426.757 208.74
L426.757 204.036
L424.491 204.036
z
" style="stroke:#000000;stroke-dasharray:6.000000,6.000000;stroke-dashoffset:0.0;"/>
   </g>
   <g id="patch_38">
    <path clip-path="url(#p5873ec822d)" d="
M423.035 227.225
L427.09 232.484
L425.062 234.237
L426.758 240.1
L426.757 240.1
L425.062 234.237
L423.035 235.99
z
" style="stroke:#000000;stroke-dasharray:6.000000,6.000000;stroke-dashoffset:0.0;"/>
   </g>
   <g id="patch_39">
    <path clip-path="url(#p5873ec822d)" d="
M422.224 188.356
L424.491 196.196
L422.224 196.196
L422.224 224.42
L422.224 224.42
L422.224 196.196
L419.957 196.196
z
" style="stroke:#000000;stroke-dasharray:6.000000,6.000000;stroke-dashoffset:0.0;"/>
   </g>
   <g id="patch_40">
    <path clip-path="url(#p5873ec822d)" d="
M422.224 196.196
L424.491 204.036
L422.224 204.036
L422.224 224.42
L422.224 224.42
L422.224 204.036
L419.957 204.036
z
" style="stroke:#000000;stroke-dasharray:6.000000,6.000000;stroke-dashoffset:0.0;"/>
   </g>
   <g id="patch_41">
    <path clip-path="url(#p5873ec822d)" d="
M424.037 240.1
L428.571 236.18
L428.571 240.1
L426.758 240.1
L426.758 240.1
L428.571 240.1
L428.571 244.02
z
" style="stroke:#000000;stroke-dasharray:6.000000,6.000000;stroke-dashoffset:0.0;"/>
   </g>
   <g id="patch_42">
    <path clip-path="url(#p5873ec822d)" d="
M423.035 250.745
L427.09 256.004
L425.062 257.757
L426.758 263.62
L426.757 263.62
L425.062 257.757
L423.035 259.51
z
" style="stroke:#000000;stroke-dasharray:6.000000,6.000000;stroke-dashoffset:0.0;"/>
   </g>
   <g id="patch_43">
    <path clip-path="url(#p5873ec822d)" d="
M418.046 211.815
L421.158 218.734
L418.935 219.503
L422.224 247.94
L422.224 247.94
L418.935 219.503
L416.712 220.272
z
" style="stroke:#000000;stroke-dasharray:6.000000,6.000000;stroke-dashoffset:0.0;"/>
   </g>
   <g id="patch_44">
    <path clip-path="url(#p5873ec822d)" d="
M410.436 287.14
L414.97 283.22
L414.97 287.14
L426.758 287.14
L426.758 287.14
L414.97 287.14
L414.97 291.06
z
" style="stroke:#000000;stroke-dasharray:6.000000,6.000000;stroke-dashoffset:0.0;"/>
   </g>
   <g id="patch_45">
    <path clip-path="url(#p5873ec822d)" d="
M408.623 235.396
L410.889 243.236
L408.623 243.236
L408.623 287.14
L408.622 287.14
L408.622 243.236
L406.356 243.236
z
" style="stroke:#000000;stroke-dasharray:6.000000,6.000000;stroke-dashoffset:0.0;"/>
   </g>
   <g id="patch_46">
    <path clip-path="url(#p5873ec822d)" d="
M408.623 211.876
L410.889 219.716
L408.623 219.716
L408.623 232.26
L408.622 232.26
L408.622 219.716
L406.356 219.716
z
" style="stroke:#000000;stroke-dasharray:6.000000,6.000000;stroke-dashoffset:0.0;"/>
   </g>
   <g id="patch_47">
    <path clip-path="url(#p5873ec822d)" d="
M408.623 188.356
L410.889 196.196
L408.623 196.196
L408.623 208.74
L408.622 208.74
L408.622 196.196
L406.356 196.196
z
" style="stroke:#000000;stroke-dasharray:6.000000,6.000000;stroke-dashoffset:0.0;"/>
   </g>
   <g id="patch_48">
    <path clip-path="url(#p5873ec822d)" d="
M405.902 232.26
L410.436 228.34
L410.436 232.26
L408.623 232.26
L408.623 232.26
L410.436 232.26
L410.436 236.18
z
" style="stroke:#000000;stroke-dasharray:6.000000,6.000000;stroke-dashoffset:0.0;"/>
   </g>
   <g id="patch_49">
    <path clip-path="url(#p5873ec822d)" d="
M404.089 227.556
L406.356 235.396
L404.089 235.396
L404.089 232.26
L404.089 232.26
L404.089 235.396
L401.822 235.396
z
" style="stroke:#000000;stroke-dasharray:6.000000,6.000000;stroke-dashoffset:0.0;"/>
   </g>
   <g id="patch_50">
    <path clip-path="url(#p5873ec822d)" d="
M404.089 211.876
L406.356 219.716
L404.089 219.716
L404.089 224.42
L404.089 224.42
L404.089 219.716
L401.822 219.716
z
" style="stroke:#000000;stroke-dasharray:6.000000,6.000000;stroke-dashoffset:0.0;"/>
   </g>
   <g id="patch_51">
    <path clip-path="url(#p5873ec822d)" d="
M404.662 266.595
L408.246 272.793
L406.096 274.033
L408.623 287.14
L408.622 287.14
L406.096 274.033
L403.945 275.272
z
" style="stroke:#000000;stroke-dasharray:6.000000,6.000000;stroke-dashoffset:0.0;"/>
   </g>
   <g id="patch_52">
    <path clip-path="url(#p5873ec822d)" d="
M401.206 304.118
L406.271 303.796
L405.333 307.364
L499.343 381.298
L499.343 381.298
L405.333 307.364
L404.394 310.932
z
" style="stroke:#000000;stroke-dasharray:6.000000,6.000000;stroke-dashoffset:0.0;"/>
   </g>
   <g id="patch_53">
    <path clip-path="url(#p5873ec822d)" d="
M399.555 219.716
L401.822 227.556
L399.555 227.556
L399.555 302.82
L399.555 302.82
L399.555 227.556
L397.288 227.556
z
" style="stroke:#000000;stroke-dasharray:6.000000,6.000000;stroke-dashoffset:0.0;"/>
   </g>
   <g id="patch_54">
    <path clip-path="url(#p5873ec822d)" d="
M396.304 297.197
L401.112 299.969
L399.509 302.741
L399.555 302.82
L399.555 302.82
L399.509 302.741
L397.907 305.513
z
" style="stroke:#000000;stroke-dasharray:6.000000,6.000000;stroke-dashoffset:0.0;"/>
   </g>
   <g id="patch_55">
    <path clip-path="url(#p5873ec822d)" d="
M395.021 282.436
L397.288 290.276
L395.021 290.276
L395.021 294.98
L395.021 294.98
L395.021 290.276
L392.754 290.276
z
" style="stroke:#000000;stroke-dasharray:6.000000,6.000000;stroke-dashoffset:0.0;"/>
   </g>
   <g id="patch_56">
    <path clip-path="url(#p5873ec822d)" d="
M395.021 258.916
L397.288 266.756
L395.021 266.756
L395.021 279.3
L395.021 279.3
L395.021 266.756
L392.754 266.756
z
" style="stroke:#000000;stroke-dasharray:6.000000,6.000000;stroke-dashoffset:0.0;"/>
   </g>
   <g id="patch_57">
    <path clip-path="url(#p5873ec822d)" d="
M395.021 243.236
L397.288 251.076
L395.021 251.076
L395.021 255.78
L395.021 255.78
L395.021 251.076
L392.754 251.076
z
" style="stroke:#000000;stroke-dasharray:6.000000,6.000000;stroke-dashoffset:0.0;"/>
   </g>
   <g id="patch_58">
    <path clip-path="url(#p5873ec822d)" d="
M395.021 227.556
L397.288 235.396
L395.021 235.396
L395.021 240.1
L395.021 240.1
L395.021 235.396
L392.754 235.396
z
" style="stroke:#000000;stroke-dasharray:6.000000,6.000000;stroke-dashoffset:0.0;"/>
   </g>
   <g id="patch_59">
    <path clip-path="url(#p5873ec822d)" d="
M392.208 319.492
L397.226 318.255
L396.509 321.973
L499.343 381.298
L499.343 381.298
L396.509 321.974
L395.791 325.692
z
" style="stroke:#000000;stroke-dasharray:6.000000,6.000000;stroke-dashoffset:0.0;"/>
   </g>
   <g id="patch_60">
    <path clip-path="url(#p5873ec822d)" d="
M386.252 274.553
L389.233 281.642
L386.997 282.287
L390.488 318.5
L390.487 318.5
L386.997 282.287
L384.761 282.931
z
" style="stroke:#000000;stroke-dasharray:6.000000,6.000000;stroke-dashoffset:0.0;"/>
   </g>
   <g id="patch_61">
    <path clip-path="url(#p5873ec822d)" d="
M385.954 258.916
L388.221 266.756
L385.954 266.756
L385.954 271.46
L385.954 271.46
L385.954 266.756
L383.687 266.756
z
" style="stroke:#000000;stroke-dasharray:6.000000,6.000000;stroke-dashoffset:0.0;"/>
   </g>
   <g id="patch_62">
    <path clip-path="url(#p5873ec822d)" d="
M385.954 235.396
L388.221 243.236
L385.954 243.236
L385.954 255.78
L385.954 255.78
L385.954 243.236
L383.687 243.236
z
" style="stroke:#000000;stroke-dasharray:6.000000,6.000000;stroke-dashoffset:0.0;"/>
   </g>
   <g id="patch_63">
    <path clip-path="url(#p5873ec822d)" d="
M385.954 219.716
L388.221 227.556
L385.954 227.556
L385.954 232.26
L385.954 232.26
L385.954 227.556
L383.687 227.556
z
" style="stroke:#000000;stroke-dasharray:6.000000,6.000000;stroke-dashoffset:0.0;"/>
   </g>
   <g id="patch_64">
    <path clip-path="url(#p5873ec822d)" d="
M378.7 271.46
L383.233 267.54
L383.233 271.46
L385.954 271.46
L385.954 271.46
L383.233 271.46
L383.233 275.38
z
" style="stroke:#000000;stroke-dasharray:6.000000,6.000000;stroke-dashoffset:0.0;"/>
   </g>
   <g id="patch_65">
    <path clip-path="url(#p5873ec822d)" d="
M378.656 334.861
L383.574 332.738
L383.082 336.564
L499.343 381.298
L499.343 381.298
L383.082 336.564
L382.59 340.39
z
" style="stroke:#000000;stroke-dasharray:6.000000,6.000000;stroke-dashoffset:0.0;"/>
   </g>
   <g id="patch_66">
    <path clip-path="url(#p5873ec822d)" d="
M372.651 290.233
L375.632 297.322
L373.396 297.967
L376.886 334.18
L376.886 334.18
L373.396 297.967
L371.16 298.611
z
" style="stroke:#000000;stroke-dasharray:6.000000,6.000000;stroke-dashoffset:0.0;"/>
   </g>
   <g id="patch_67">
    <path clip-path="url(#p5873ec822d)" d="
M372.353 258.916
L374.619 266.756
L372.353 266.756
L372.353 287.14
L372.352 287.14
L372.352 266.756
L370.086 266.756
z
" style="stroke:#000000;stroke-dasharray:6.000000,6.000000;stroke-dashoffset:0.0;"/>
   </g>
   <g id="patch_68">
    <path clip-path="url(#p5873ec822d)" d="
M372.353 243.236
L374.619 251.076
L372.353 251.076
L372.353 255.78
L372.352 255.78
L372.352 251.076
L370.086 251.076
z
" style="stroke:#000000;stroke-dasharray:6.000000,6.000000;stroke-dashoffset:0.0;"/>
   </g>
   <g id="patch_69">
    <path clip-path="url(#p5873ec822d)" d="
M369.632 287.14
L374.166 283.22
L374.166 287.14
L372.353 287.14
L372.353 287.14
L374.166 287.14
L374.166 291.06
z
" style="stroke:#000000;stroke-dasharray:6.000000,6.000000;stroke-dashoffset:0.0;"/>
   </g>
   <g id="patch_70">
    <path clip-path="url(#p5873ec822d)" d="
M363.858 266.595
L367.443 272.793
L365.292 274.033
L367.819 287.14
L367.819 287.14
L365.292 274.033
L363.142 275.272
z
" style="stroke:#000000;stroke-dasharray:6.000000,6.000000;stroke-dashoffset:0.0;"/>
   </g>
   <g id="patch_71">
    <path clip-path="url(#p5873ec822d)" d="
M360.373 319.902
L365.442 319.902
L364.428 323.409
L376.886 334.18
L376.886 334.18
L364.428 323.409
L363.415 326.915
z
" style="stroke:#000000;stroke-dasharray:6.000000,6.000000;stroke-dashoffset:0.0;"/>
   </g>
   <g id="patch_72">
    <path clip-path="url(#p5873ec822d)" d="
M358.751 290.276
L361.018 298.116
L358.751 298.116
L358.751 318.5
L358.751 318.5
L358.751 298.116
L356.484 298.116
z
" style="stroke:#000000;stroke-dasharray:6.000000,6.000000;stroke-dashoffset:0.0;"/>
   </g>
   <g id="patch_73">
    <path clip-path="url(#p5873ec822d)" d="
M342.376 311.421
L347.324 309.519
L346.774 313.322
L358.751 318.5
L358.751 318.5
L346.774 313.322
L346.224 317.125
z
" style="stroke:#000000;stroke-dasharray:6.000000,6.000000;stroke-dashoffset:0.0;"/>
   </g>
   <g id="patch_74">
    <path clip-path="url(#p5873ec822d)" d="
M337.896 381.221
L342.43 377.303
L342.43 381.223
L499.343 381.298
L499.343 381.298
L342.43 381.223
L342.429 385.143
z
" style="stroke:#000000;stroke-dasharray:6.000000,6.000000;stroke-dashoffset:0.0;"/>
   </g>
   <g id="patch_75">
    <path clip-path="url(#p5873ec822d)" d="
M192.519 218.301
L197.553 219.325
L196.309 222.602
L336.083 381.22
L336.082 381.22
L196.309 222.602
L195.065 225.879
z
" style="stroke:#000000;stroke-dasharray:6.000000,6.000000;stroke-dashoffset:0.0;"/>
   </g>
   <g id="patch_76">
    <path clip-path="url(#p5873ec822d)" d="
M183.518 233.79
L188.582 234.192
L187.476 237.614
L336.083 381.22
L336.082 381.22
L187.476 237.614
L186.37 241.036
z
" style="stroke:#000000;stroke-dasharray:6.000000,6.000000;stroke-dashoffset:0.0;"/>
   </g>
   <g id="patch_77">
    <path clip-path="url(#p5873ec822d)" d="
M181.935 227.556
L184.202 235.396
L181.935 235.396
L181.935 232.26
L181.935 232.26
L181.935 235.396
L179.668 235.396
z
" style="stroke:#000000;stroke-dasharray:6.000000,6.000000;stroke-dashoffset:0.0;"/>
   </g>
   <g id="patch_78">
    <path clip-path="url(#p5873ec822d)" d="
M183.612 272.654
L188.667 272.014
L187.804 275.639
L336.083 381.22
L336.082 381.22
L187.804 275.639
L186.941 279.264
z
" style="stroke:#000000;stroke-dasharray:6.000000,6.000000;stroke-dashoffset:0.0;"/>
   </g>
   <g id="patch_79">
    <path clip-path="url(#p5873ec822d)" d="
M181.935 251.076
L184.202 258.916
L181.935 258.916
L181.935 271.46
L181.935 271.46
L181.935 258.916
L179.668 258.916
z
" style="stroke:#000000;stroke-dasharray:6.000000,6.000000;stroke-dashoffset:0.0;"/>
   </g>
   <g id="patch_80">
    <path clip-path="url(#p5873ec822d)" d="
M179.131 295.92
L184.136 294.531
L183.456 298.271
L336.083 381.22
L336.082 381.22
L183.456 298.271
L182.777 302.011
z
" style="stroke:#000000;stroke-dasharray:6.000000,6.000000;stroke-dashoffset:0.0;"/>
   </g>
   <g id="patch_81">
    <path clip-path="url(#p5873ec822d)" d="
M177.401 290.276
L179.668 298.116
L177.401 298.116
L177.401 294.98
L177.401 294.98
L177.401 298.116
L175.134 298.116
z
" style="stroke:#000000;stroke-dasharray:6.000000,6.000000;stroke-dashoffset:0.0;"/>
   </g>
   <g id="patch_82">
    <path clip-path="url(#p5873ec822d)" d="
M177.401 258.916
L179.668 266.756
L177.401 266.756
L177.401 287.14
L177.401 287.14
L177.401 266.756
L175.134 266.756
z
" style="stroke:#000000;stroke-dasharray:6.000000,6.000000;stroke-dashoffset:0.0;"/>
   </g>
   <g id="patch_83">
    <path clip-path="url(#p5873ec822d)" d="
M177.401 251.076
L179.668 258.916
L177.401 258.916
L177.401 255.78
L177.401 255.78
L177.401 258.916
L175.134 258.916
z
" style="stroke:#000000;stroke-dasharray:6.000000,6.000000;stroke-dashoffset:0.0;"/>
   </g>
   <g id="patch_84">
    <path clip-path="url(#p5873ec822d)" d="
M177.401 243.236
L179.668 251.076
L177.401 251.076
L177.401 247.94
L177.401 247.94
L177.401 251.076
L175.134 251.076
z
" style="stroke:#000000;stroke-dasharray:6.000000,6.000000;stroke-dashoffset:0.0;"/>
   </g>
   <g id="patch_85">
    <path clip-path="url(#p5873ec822d)" d="
M177.401 211.876
L179.668 219.716
L177.401 219.716
L177.401 240.1
L177.401 240.1
L177.401 219.716
L175.134 219.716
z
" style="stroke:#000000;stroke-dasharray:6.000000,6.000000;stroke-dashoffset:0.0;"/>
   </g>
   <g id="patch_86">
    <path clip-path="url(#p5873ec822d)" d="
M174.681 294.98
L179.215 291.06
L179.215 294.98
L177.401 294.98
L177.401 294.98
L179.215 294.98
L179.215 298.9
z
" style="stroke:#000000;stroke-dasharray:6.000000,6.000000;stroke-dashoffset:0.0;"/>
   </g>
   <g id="patch_87">
    <path clip-path="url(#p5873ec822d)" d="
M172.868 290.276
L175.134 298.116
L172.868 298.116
L172.868 294.98
L172.867 294.98
L172.867 298.116
L170.601 298.116
z
" style="stroke:#000000;stroke-dasharray:6.000000,6.000000;stroke-dashoffset:0.0;"/>
   </g>
   <g id="patch_88">
    <path clip-path="url(#p5873ec822d)" d="
M172.868 258.916
L175.134 266.756
L172.868 266.756
L172.868 287.14
L172.867 287.14
L172.867 266.756
L170.601 266.756
z
" style="stroke:#000000;stroke-dasharray:6.000000,6.000000;stroke-dashoffset:0.0;"/>
   </g>
   <g id="patch_89">
    <path clip-path="url(#p5873ec822d)" d="
M174.67 350.206
L179.426 347.176
L179.176 351.072
L336.083 381.22
L336.082 381.22
L179.176 351.072
L178.926 354.968
z
" style="stroke:#000000;stroke-dasharray:6.000000,6.000000;stroke-dashoffset:0.0;"/>
   </g>
   <g id="patch_90">
    <path clip-path="url(#p5873ec822d)" d="
M170.141 357.953
L174.843 354.68
L174.66 358.587
L336.083 381.22
L336.082 381.22
L174.66 358.587
L174.477 362.494
z
" style="stroke:#000000;stroke-dasharray:6.000000,6.000000;stroke-dashoffset:0.0;"/>
   </g>
   <g id="patch_91">
    <path clip-path="url(#p5873ec822d)" d="
M168.334 337.316
L170.601 345.156
L168.334 345.156
L168.334 357.7
L168.334 357.7
L168.334 345.156
L166.067 345.156
z
" style="stroke:#000000;stroke-dasharray:6.000000,6.000000;stroke-dashoffset:0.0;"/>
   </g>
   <g id="patch_92">
    <path clip-path="url(#p5873ec822d)" d="
M168.334 305.956
L170.601 313.796
L168.334 313.796
L168.334 334.18
L168.334 334.18
L168.334 313.796
L166.067 313.796
z
" style="stroke:#000000;stroke-dasharray:6.000000,6.000000;stroke-dashoffset:0.0;"/>
   </g>
   <g id="patch_93">
    <path clip-path="url(#p5873ec822d)" d="
M168.334 274.596
L170.601 282.436
L168.334 282.436
L168.334 302.82
L168.334 302.82
L168.334 282.436
L166.067 282.436
z
" style="stroke:#000000;stroke-dasharray:6.000000,6.000000;stroke-dashoffset:0.0;"/>
   </g>
   <g id="patch_94">
    <path clip-path="url(#p5873ec822d)" d="
M168.334 258.916
L170.601 266.756
L168.334 266.756
L168.334 271.46
L168.334 271.46
L168.334 266.756
L166.067 266.756
z
" style="stroke:#000000;stroke-dasharray:6.000000,6.000000;stroke-dashoffset:0.0;"/>
   </g>
   <g id="patch_95">
    <path clip-path="url(#p5873ec822d)" d="
M165.613 302.82
L170.147 298.9
L170.147 302.82
L168.334 302.82
L168.334 302.82
L170.147 302.82
L170.147 306.74
z
" style="stroke:#000000;stroke-dasharray:6.000000,6.000000;stroke-dashoffset:0.0;"/>
   </g>
   <g id="patch_96">
    <path clip-path="url(#p5873ec822d)" d="
M161.08 357.7
L165.613 353.78
L165.613 357.7
L168.334 357.7
L168.334 357.7
L165.613 357.7
L165.613 361.62
z
" style="stroke:#000000;stroke-dasharray:6.000000,6.000000;stroke-dashoffset:0.0;"/>
   </g>
   <g id="patch_97">
    <path clip-path="url(#p5873ec822d)" d="
M159.266 352.996
L161.533 360.836
L159.266 360.836
L159.266 357.7
L159.266 357.7
L159.266 360.836
L156.999 360.836
z
" style="stroke:#000000;stroke-dasharray:6.000000,6.000000;stroke-dashoffset:0.0;"/>
   </g>
   <g id="patch_98">
    <path clip-path="url(#p5873ec822d)" d="
M155.172 321.542
L158.471 328.198
L156.272 329.148
L159.266 349.86
L159.266 349.86
L156.272 329.148
L154.073 330.099
z
" style="stroke:#000000;stroke-dasharray:6.000000,6.000000;stroke-dashoffset:0.0;"/>
   </g>
   <g id="patch_99">
    <path clip-path="url(#p5873ec822d)" d="
M150.399 251.057
L153.153 258.416
L150.9 258.849
L154.733 318.5
L154.732 318.5
L150.9 258.849
L148.647 259.282
z
" style="stroke:#000000;stroke-dasharray:6.000000,6.000000;stroke-dashoffset:0.0;"/>
   </g>
   <g id="patch_100">
    <path clip-path="url(#p5873ec822d)" d="
M74.9261 232.626
L79.6936 229.649
L79.4288 233.542
L150.199 247.94
L150.199 247.94
L79.4288 233.542
L79.1639 237.436
z
" style="stroke:#000000;stroke-dasharray:6.000000,6.000000;stroke-dashoffset:0.0;"/>
   </g>
   <g id="patch_101">
    <path clip-path="url(#p5873ec822d)" d="
M73.125 219.716
L75.3919 227.556
L73.125 227.556
L73.125 232.26
L73.125 232.26
L73.125 227.556
L70.8581 227.556
z
" style="stroke:#000000;stroke-dasharray:6.000000,6.000000;stroke-dashoffset:0.0;"/>
   </g>
   <g id="patch_102">
    <path clip-path="url(#p5873ec822d)" d="
M74.8723 280.139
L79.8474 278.461
L79.2407 282.238
L154.733 318.5
L154.732 318.5
L79.2407 282.238
L78.634 286.015
z
" style="stroke:#000000;stroke-dasharray:6.000000,6.000000;stroke-dashoffset:0.0;"/>
   </g>
   <g id="patch_103">
    <path clip-path="url(#p5873ec822d)" d="
M73.125 180.516
L75.3919 188.356
L73.125 188.356
L73.125 279.3
L73.125 279.3
L73.125 188.356
L70.8581 188.356
z
" style="stroke:#000000;stroke-dasharray:6.000000,6.000000;stroke-dashoffset:0.0;"/>
   </g>
   <g id="patch_104">
    <path d="
M73.125 396.9
L526.5 396.9" style="fill:none;stroke:#000000;"/>
   </g>
   <g id="patch_105">
    <path d="
M73.125 396.9
L73.125 44.1" style="fill:none;stroke:#000000;"/>
   </g>
   <g id="PathCollection_1">
    <defs>
     <path d="
M0 3.16228
C0.838646 3.16228 1.64306 2.82908 2.23607 2.23607
C2.82908 1.64306 3.16228 0.838646 3.16228 0
C3.16228 -0.838646 2.82908 -1.64306 2.23607 -2.23607
C1.64306 -2.82908 0.838646 -3.16228 0 -3.16228
C-0.838646 -3.16228 -1.64306 -2.82908 -2.23607 -2.23607
C-2.82908 -1.64306 -3.16228 -0.838646 -3.16228 0
C-3.16228 0.838646 -2.82908 1.64306 -2.23607 2.23607
C-1.64306 2.82908 -0.838646 3.16228 0 3.16228
z
" id="C0_0_b69519a06d"/>
    </defs>
    <g clip-path="url(#p5873ec822d)">
     <use style="fill:#0000ff;stroke:#000000;" x="499.2975" xlink:href="#C0_0_b69519a06d" y="177.38"/>
    </g>
    <g clip-path="url(#p5873ec822d)">
     <use style="fill:#0000ff;stroke:#000000;" x="499.2975" xlink:href="#C0_0_b69519a06d" y="130.34"/>
    </g>
    <g clip-path="url(#p5873ec822d)">
     <use style="fill:#0000ff;stroke:#000000;" x="485.69625" xlink:href="#C0_0_b69519a06d" y="169.54"/>
    </g>
    <g clip-path="url(#p5873ec822d)">
     <use style="fill:#0000ff;stroke:#000000;" x="485.69625" xlink:href="#C0_0_b69519a06d" y="83.3"/>
    </g>
    <g clip-path="url(#p5873ec822d)">
     <use style="fill:#0000ff;stroke:#000000;" x="481.1625" xlink:href="#C0_0_b69519a06d" y="224.42"/>
    </g>
    <g clip-path="url(#p5873ec822d)">
     <use style="fill:#0000ff;stroke:#000000;" x="476.62875" xlink:href="#C0_0_b69519a06d" y="169.54"/>
    </g>
    <g clip-path="url(#p5873ec822d)">
     <use style="fill:#0000ff;stroke:#000000;" x="472.095" xlink:href="#C0_0_b69519a06d" y="224.42"/>
    </g>
    <g clip-path="url(#p5873ec822d)">
     <use style="fill:#0000ff;stroke:#000000;" x="472.095" xlink:href="#C0_0_b69519a06d" y="169.54"/>
    </g>
    <g clip-path="url(#p5873ec822d)">
     <use style="fill:#0000ff;stroke:#000000;" x="463.0275" xlink:href="#C0_0_b69519a06d" y="177.38"/>
    </g>
    <g clip-path="url(#p5873ec822d)">
     <use style="fill:#0000ff;stroke:#000000;" x="458.49375" xlink:href="#C0_0_b69519a06d" y="232.26"/>
    </g>
    <g clip-path="url(#p5873ec822d)">
     <use style="fill:#0000ff;stroke:#000000;" x="458.49375" xlink:href="#C0_0_b69519a06d" y="185.22"/>
    </g>
    <g clip-path="url(#p5873ec822d)">
     <use style="fill:#0000ff;stroke:#000000;" x="453.96" xlink:href="#C0_0_b69519a06d" y="185.22"/>
    </g>
    <g clip-path="url(#p5873ec822d)">
     <use style="fill:#0000ff;stroke:#000000;" x="453.96" xlink:href="#C0_0_b69519a06d" y="177.38"/>
    </g>
    <g clip-path="url(#p5873ec822d)">
     <use style="fill:#0000ff;stroke:#000000;" x="449.42625" xlink:href="#C0_0_b69519a06d" y="255.78"/>
    </g>
    <g clip-path="url(#p5873ec822d)">
     <use style="fill:#0000ff;stroke:#000000;" x="449.42625" xlink:href="#C0_0_b69519a06d" y="169.54"/>
    </g>
    <g clip-path="url(#p5873ec822d)">
     <use style="fill:#0000ff;stroke:#000000;" x="444.8925" xlink:href="#C0_0_b69519a06d" y="247.94"/>
    </g>
    <g clip-path="url(#p5873ec822d)">
     <use style="fill:#0000ff;stroke:#000000;" x="444.8925" xlink:href="#C0_0_b69519a06d" y="240.1"/>
    </g>
    <g clip-path="url(#p5873ec822d)">
     <use style="fill:#0000ff;stroke:#000000;" x="444.8925" xlink:href="#C0_0_b69519a06d" y="177.38"/>
    </g>
    <g clip-path="url(#p5873ec822d)">
     <use style="fill:#0000ff;stroke:#000000;" x="444.8925" xlink:href="#C0_0_b69519a06d" y="161.7"/>
    </g>
    <g clip-path="url(#p5873ec822d)">
     <use style="fill:#0000ff;stroke:#000000;" x="440.35875" xlink:href="#C0_0_b69519a06d" y="232.26"/>
    </g>
    <g clip-path="url(#p5873ec822d)">
     <use style="fill:#0000ff;stroke:#000000;" x="440.35875" xlink:href="#C0_0_b69519a06d" y="216.58"/>
    </g>
    <g clip-path="url(#p5873ec822d)">
     <use style="fill:#0000ff;stroke:#000000;" x="440.35875" xlink:href="#C0_0_b69519a06d" y="208.74"/>
    </g>
    <g clip-path="url(#p5873ec822d)">
     <use style="fill:#0000ff;stroke:#000000;" x="440.35875" xlink:href="#C0_0_b69519a06d" y="200.9"/>
    </g>
    <g clip-path="url(#p5873ec822d)">
     <use style="fill:#0000ff;stroke:#000000;" x="435.825" xlink:href="#C0_0_b69519a06d" y="271.46"/>
    </g>
    <g clip-path="url(#p5873ec822d)">
     <use style="fill:#0000ff;stroke:#000000;" x="435.825" xlink:href="#C0_0_b69519a06d" y="255.78"/>
    </g>
    <g clip-path="url(#p5873ec822d)">
     <use style="fill:#0000ff;stroke:#000000;" x="435.825" xlink:href="#C0_0_b69519a06d" y="208.74"/>
    </g>
    <g clip-path="url(#p5873ec822d)">
     <use style="fill:#0000ff;stroke:#000000;" x="435.825" xlink:href="#C0_0_b69519a06d" y="200.9"/>
    </g>
    <g clip-path="url(#p5873ec822d)">
     <use style="fill:#0000ff;stroke:#000000;" x="435.825" xlink:href="#C0_0_b69519a06d" y="193.06"/>
    </g>
    <g clip-path="url(#p5873ec822d)">
     <use style="fill:#0000ff;stroke:#000000;" x="431.29125" xlink:href="#C0_0_b69519a06d" y="224.42"/>
    </g>
    <g clip-path="url(#p5873ec822d)">
     <use style="fill:#0000ff;stroke:#000000;" x="426.7575" xlink:href="#C0_0_b69519a06d" y="287.14"/>
    </g>
    <g clip-path="url(#p5873ec822d)">
     <use style="fill:#0000ff;stroke:#000000;" x="426.7575" xlink:href="#C0_0_b69519a06d" y="271.46"/>
    </g>
    <g clip-path="url(#p5873ec822d)">
     <use style="fill:#0000ff;stroke:#000000;" x="426.7575" xlink:href="#C0_0_b69519a06d" y="263.62"/>
    </g>
    <g clip-path="url(#p5873ec822d)">
     <use style="fill:#0000ff;stroke:#000000;" x="426.7575" xlink:href="#C0_0_b69519a06d" y="240.1"/>
    </g>
    <g clip-path="url(#p5873ec822d)">
     <use style="fill:#0000ff;stroke:#000000;" x="426.7575" xlink:href="#C0_0_b69519a06d" y="208.74"/>
    </g>
    <g clip-path="url(#p5873ec822d)">
     <use style="fill:#0000ff;stroke:#000000;" x="426.7575" xlink:href="#C0_0_b69519a06d" y="193.06"/>
    </g>
    <g clip-path="url(#p5873ec822d)">
     <use style="fill:#0000ff;stroke:#000000;" x="422.22375" xlink:href="#C0_0_b69519a06d" y="247.94"/>
    </g>
    <g clip-path="url(#p5873ec822d)">
     <use style="fill:#0000ff;stroke:#000000;" x="422.22375" xlink:href="#C0_0_b69519a06d" y="240.1"/>
    </g>
    <g clip-path="url(#p5873ec822d)">
     <use style="fill:#0000ff;stroke:#000000;" x="422.22375" xlink:href="#C0_0_b69519a06d" y="224.42"/>
    </g>
    <g clip-path="url(#p5873ec822d)">
     <use style="fill:#0000ff;stroke:#000000;" x="422.22375" xlink:href="#C0_0_b69519a06d" y="193.06"/>
    </g>
    <g clip-path="url(#p5873ec822d)">
     <use style="fill:#0000ff;stroke:#000000;" x="422.22375" xlink:href="#C0_0_b69519a06d" y="185.22"/>
    </g>
    <g clip-path="url(#p5873ec822d)">
     <use style="fill:#0000ff;stroke:#000000;" x="417.69" xlink:href="#C0_0_b69519a06d" y="208.74"/>
    </g>
    <g clip-path="url(#p5873ec822d)">
     <use style="fill:#0000ff;stroke:#000000;" x="408.6225" xlink:href="#C0_0_b69519a06d" y="287.14"/>
    </g>
    <g clip-path="url(#p5873ec822d)">
     <use style="fill:#0000ff;stroke:#000000;" x="408.6225" xlink:href="#C0_0_b69519a06d" y="232.26"/>
    </g>
    <g clip-path="url(#p5873ec822d)">
     <use style="fill:#0000ff;stroke:#000000;" x="408.6225" xlink:href="#C0_0_b69519a06d" y="208.74"/>
    </g>
    <g clip-path="url(#p5873ec822d)">
     <use style="fill:#0000ff;stroke:#000000;" x="408.6225" xlink:href="#C0_0_b69519a06d" y="185.22"/>
    </g>
    <g clip-path="url(#p5873ec822d)">
     <use style="fill:#0000ff;stroke:#000000;" x="404.08875" xlink:href="#C0_0_b69519a06d" y="263.62"/>
    </g>
    <g clip-path="url(#p5873ec822d)">
     <use style="fill:#0000ff;stroke:#000000;" x="404.08875" xlink:href="#C0_0_b69519a06d" y="232.26"/>
    </g>
    <g clip-path="url(#p5873ec822d)">
     <use style="fill:#0000ff;stroke:#000000;" x="404.08875" xlink:href="#C0_0_b69519a06d" y="224.42"/>
    </g>
    <g clip-path="url(#p5873ec822d)">
     <use style="fill:#0000ff;stroke:#000000;" x="404.08875" xlink:href="#C0_0_b69519a06d" y="208.74"/>
    </g>
    <g clip-path="url(#p5873ec822d)">
     <use style="fill:#0000ff;stroke:#000000;" x="399.555" xlink:href="#C0_0_b69519a06d" y="302.82"/>
    </g>
    <g clip-path="url(#p5873ec822d)">
     <use style="fill:#0000ff;stroke:#000000;" x="399.555" xlink:href="#C0_0_b69519a06d" y="216.58"/>
    </g>
    <g clip-path="url(#p5873ec822d)">
     <use style="fill:#0000ff;stroke:#000000;" x="395.02125" xlink:href="#C0_0_b69519a06d" y="294.98"/>
    </g>
    <g clip-path="url(#p5873ec822d)">
     <use style="fill:#0000ff;stroke:#000000;" x="395.02125" xlink:href="#C0_0_b69519a06d" y="279.3"/>
    </g>
    <g clip-path="url(#p5873ec822d)">
     <use style="fill:#0000ff;stroke:#000000;" x="395.02125" xlink:href="#C0_0_b69519a06d" y="255.78"/>
    </g>
    <g clip-path="url(#p5873ec822d)">
     <use style="fill:#0000ff;stroke:#000000;" x="395.02125" xlink:href="#C0_0_b69519a06d" y="240.1"/>
    </g>
    <g clip-path="url(#p5873ec822d)">
     <use style="fill:#0000ff;stroke:#000000;" x="395.02125" xlink:href="#C0_0_b69519a06d" y="224.42"/>
    </g>
    <g clip-path="url(#p5873ec822d)">
     <use style="fill:#0000ff;stroke:#000000;" x="390.4875" xlink:href="#C0_0_b69519a06d" y="318.5"/>
    </g>
    <g clip-path="url(#p5873ec822d)">
     <use style="fill:#0000ff;stroke:#000000;" x="385.95375" xlink:href="#C0_0_b69519a06d" y="271.46"/>
    </g>
    <g clip-path="url(#p5873ec822d)">
     <use style="fill:#0000ff;stroke:#000000;" x="385.95375" xlink:href="#C0_0_b69519a06d" y="255.78"/>
    </g>
    <g clip-path="url(#p5873ec822d)">
     <use style="fill:#0000ff;stroke:#000000;" x="385.95375" xlink:href="#C0_0_b69519a06d" y="232.26"/>
    </g>
    <g clip-path="url(#p5873ec822d)">
     <use style="fill:#0000ff;stroke:#000000;" x="385.95375" xlink:href="#C0_0_b69519a06d" y="216.58"/>
    </g>
    <g clip-path="url(#p5873ec822d)">
     <use style="fill:#0000ff;stroke:#000000;" x="376.88625" xlink:href="#C0_0_b69519a06d" y="334.18"/>
    </g>
    <g clip-path="url(#p5873ec822d)">
     <use style="fill:#0000ff;stroke:#000000;" x="376.88625" xlink:href="#C0_0_b69519a06d" y="271.46"/>
    </g>
    <g clip-path="url(#p5873ec822d)">
     <use style="fill:#0000ff;stroke:#000000;" x="372.3525" xlink:href="#C0_0_b69519a06d" y="287.14"/>
    </g>
    <g clip-path="url(#p5873ec822d)">
     <use style="fill:#0000ff;stroke:#000000;" x="372.3525" xlink:href="#C0_0_b69519a06d" y="255.78"/>
    </g>
    <g clip-path="url(#p5873ec822d)">
     <use style="fill:#0000ff;stroke:#000000;" x="372.3525" xlink:href="#C0_0_b69519a06d" y="240.1"/>
    </g>
    <g clip-path="url(#p5873ec822d)">
     <use style="fill:#0000ff;stroke:#000000;" x="367.81875" xlink:href="#C0_0_b69519a06d" y="287.14"/>
    </g>
    <g clip-path="url(#p5873ec822d)">
     <use style="fill:#0000ff;stroke:#000000;" x="363.285" xlink:href="#C0_0_b69519a06d" y="263.62"/>
    </g>
    <g clip-path="url(#p5873ec822d)">
     <use style="fill:#0000ff;stroke:#000000;" x="358.75125" xlink:href="#C0_0_b69519a06d" y="318.5"/>
    </g>
    <g clip-path="url(#p5873ec822d)">
     <use style="fill:#0000ff;stroke:#000000;" x="358.75125" xlink:href="#C0_0_b69519a06d" y="287.14"/>
    </g>
    <g clip-path="url(#p5873ec822d)">
     <use style="fill:#0000ff;stroke:#000000;" x="340.61625" xlink:href="#C0_0_b69519a06d" y="310.66"/>
    </g>
    <g clip-path="url(#p5873ec822d)">
     <use style="fill:#0000ff;stroke:#000000;" x="336.0825" xlink:href="#C0_0_b69519a06d" y="381.22"/>
    </g>
    <g clip-path="url(#p5873ec822d)">
     <use style="fill:#0000ff;stroke:#000000;" x="191.0025" xlink:href="#C0_0_b69519a06d" y="216.58"/>
    </g>
    <g clip-path="url(#p5873ec822d)">
     <use style="fill:#0000ff;stroke:#000000;" x="181.935" xlink:href="#C0_0_b69519a06d" y="271.46"/>
    </g>
    <g clip-path="url(#p5873ec822d)">
     <use style="fill:#0000ff;stroke:#000000;" x="181.935" xlink:href="#C0_0_b69519a06d" y="247.94"/>
    </g>
    <g clip-path="url(#p5873ec822d)">
     <use style="fill:#0000ff;stroke:#000000;" x="181.935" xlink:href="#C0_0_b69519a06d" y="232.26"/>
    </g>
    <g clip-path="url(#p5873ec822d)">
     <use style="fill:#0000ff;stroke:#000000;" x="181.935" xlink:href="#C0_0_b69519a06d" y="224.42"/>
    </g>
    <g clip-path="url(#p5873ec822d)">
     <use style="fill:#0000ff;stroke:#000000;" x="177.40125" xlink:href="#C0_0_b69519a06d" y="294.98"/>
    </g>
    <g clip-path="url(#p5873ec822d)">
     <use style="fill:#0000ff;stroke:#000000;" x="177.40125" xlink:href="#C0_0_b69519a06d" y="287.14"/>
    </g>
    <g clip-path="url(#p5873ec822d)">
     <use style="fill:#0000ff;stroke:#000000;" x="177.40125" xlink:href="#C0_0_b69519a06d" y="255.78"/>
    </g>
    <g clip-path="url(#p5873ec822d)">
     <use style="fill:#0000ff;stroke:#000000;" x="177.40125" xlink:href="#C0_0_b69519a06d" y="247.94"/>
    </g>
    <g clip-path="url(#p5873ec822d)">
     <use style="fill:#0000ff;stroke:#000000;" x="177.40125" xlink:href="#C0_0_b69519a06d" y="240.1"/>
    </g>
    <g clip-path="url(#p5873ec822d)">
     <use style="fill:#0000ff;stroke:#000000;" x="177.40125" xlink:href="#C0_0_b69519a06d" y="208.74"/>
    </g>
    <g clip-path="url(#p5873ec822d)">
     <use style="fill:#0000ff;stroke:#000000;" x="172.8675" xlink:href="#C0_0_b69519a06d" y="349.86"/>
    </g>
    <g clip-path="url(#p5873ec822d)">
     <use style="fill:#0000ff;stroke:#000000;" x="172.8675" xlink:href="#C0_0_b69519a06d" y="294.98"/>
    </g>
    <g clip-path="url(#p5873ec822d)">
     <use style="fill:#0000ff;stroke:#000000;" x="172.8675" xlink:href="#C0_0_b69519a06d" y="287.14"/>
    </g>
    <g clip-path="url(#p5873ec822d)">
     <use style="fill:#0000ff;stroke:#000000;" x="172.8675" xlink:href="#C0_0_b69519a06d" y="255.78"/>
    </g>
    <g clip-path="url(#p5873ec822d)">
     <use style="fill:#0000ff;stroke:#000000;" x="168.33375" xlink:href="#C0_0_b69519a06d" y="357.7"/>
    </g>
    <g clip-path="url(#p5873ec822d)">
     <use style="fill:#0000ff;stroke:#000000;" x="168.33375" xlink:href="#C0_0_b69519a06d" y="334.18"/>
    </g>
    <g clip-path="url(#p5873ec822d)">
     <use style="fill:#0000ff;stroke:#000000;" x="168.33375" xlink:href="#C0_0_b69519a06d" y="302.82"/>
    </g>
    <g clip-path="url(#p5873ec822d)">
     <use style="fill:#0000ff;stroke:#000000;" x="168.33375" xlink:href="#C0_0_b69519a06d" y="271.46"/>
    </g>
    <g clip-path="url(#p5873ec822d)">
     <use style="fill:#0000ff;stroke:#000000;" x="168.33375" xlink:href="#C0_0_b69519a06d" y="255.78"/>
    </g>
    <g clip-path="url(#p5873ec822d)">
     <use style="fill:#0000ff;stroke:#000000;" x="163.8" xlink:href="#C0_0_b69519a06d" y="302.82"/>
    </g>
    <g clip-path="url(#p5873ec822d)">
     <use style="fill:#0000ff;stroke:#000000;" x="159.26625" xlink:href="#C0_0_b69519a06d" y="357.7"/>
    </g>
    <g clip-path="url(#p5873ec822d)">
     <use style="fill:#0000ff;stroke:#000000;" x="159.26625" xlink:href="#C0_0_b69519a06d" y="349.86"/>
    </g>
    <g clip-path="url(#p5873ec822d)">
     <use style="fill:#0000ff;stroke:#000000;" x="154.7325" xlink:href="#C0_0_b69519a06d" y="318.5"/>
    </g>
    <g clip-path="url(#p5873ec822d)">
     <use style="fill:#0000ff;stroke:#000000;" x="150.19875" xlink:href="#C0_0_b69519a06d" y="247.94"/>
    </g>
    <g clip-path="url(#p5873ec822d)">
     <use style="fill:#0000ff;stroke:#000000;" x="73.125" xlink:href="#C0_0_b69519a06d" y="279.3"/>
    </g>
    <g clip-path="url(#p5873ec822d)">
     <use style="fill:#0000ff;stroke:#000000;" x="73.125" xlink:href="#C0_0_b69519a06d" y="232.26"/>
    </g>
    <g clip-path="url(#p5873ec822d)">
     <use style="fill:#0000ff;stroke:#000000;" x="73.125" xlink:href="#C0_0_b69519a06d" y="216.58"/>
    </g>
    <g clip-path="url(#p5873ec822d)">
     <use style="fill:#0000ff;stroke:#000000;" x="73.125" xlink:href="#C0_0_b69519a06d" y="177.38"/>
    </g>
   </g>
   <g id="PathCollection_2">
    <defs>
     <path d="
M-3.87267e-16 3.16228
L3.16228 -3.16228
L-3.16228 -3.16228
z
" id="C1_0_fe2793f20d"/>
    </defs>
    <g clip-path="url(#p5873ec822d)">
     <use style="fill:#ffa500;stroke:#ffa500;" x="499.3428375" xlink:href="#C1_0_fe2793f20d" y="381.2984"/>
    </g>
   </g>
   <g id="legend_1">
    <g id="line2d_18">
     <path d="
M90.405 63.445
L110.565 63.445" style="fill:none;stroke:#000000;stroke-dasharray:6.000000,6.000000;stroke-dashoffset:0.0;"/>
    </g>
    <g id="line2d_19"/>
    <g id="text_19">
     <!-- Branches -->
     <defs>
      <path d="
M5.40625 71.4062
L5.40625 0
L19.5938 0
L19.5938 27.0938
Q19.5938 35 22.1875 38.4531
Q24.7969 41.9062 30.5938 41.9062
Q35.7031 41.9062 37.7031 38.75
Q39.7031 35.5938 39.7031 29.2031
L39.7031 0
L53.9062 0
L53.9062 31.7969
Q53.9062 36.5938 53.0469 40.5469
Q52.2031 44.5 50.0938 47.25
Q48 50 44.3438 51.5469
Q40.7031 53.0938 35 53.0938
Q31 53.0938 26.7969 51.0469
Q22.5938 49 19.9062 44.5
L19.5938 44.5
L19.5938 71.4062
z
" id="HelveticaNeue-Bold-68"/>
      <path d="
M40.5938 33.5
L54.5 33.5
Q54.2031 38.5 52.0938 42.1406
Q50 45.7969 46.6406 48.25
Q43.2969 50.7031 39.0469 51.8906
Q34.7969 53.0938 30.2031 53.0938
Q23.9062 53.0938 19 51
Q14.0938 48.9062 10.6875 45.1562
Q7.29688 41.4062 5.54688 36.25
Q3.79688 31.0938 3.79688 25.0938
Q3.79688 19.2969 5.6875 14.4375
Q7.59375 9.59375 11 6.09375
Q14.4062 2.59375 19.25 0.640625
Q24.0938 -1.29688 29.9062 -1.29688
Q40.2031 -1.29688 46.7969 4.09375
Q53.4062 9.5 54.7969 19.7969
L41.0938 19.7969
Q40.4062 15 37.6562 12.1406
Q34.9062 9.29688 29.7969 9.29688
Q26.5 9.29688 24.2031 10.7969
Q21.9062 12.2969 20.5469 14.6406
Q19.2031 17 18.5938 19.8906
Q18 22.7969 18 25.5938
Q18 28.5 18.5938 31.4531
Q19.2031 34.4062 20.6406 36.8438
Q22.0938 39.2969 24.3906 40.8438
Q26.7031 42.4062 30.0938 42.4062
Q39.2031 42.4062 40.5938 33.5" id="HelveticaNeue-Bold-63"/>
      <path d="
M22.5938 42.5
L22.5938 59.2031
L37.2969 59.2031
Q39.4062 59.2031 41.3438 58.8438
Q43.2969 58.5 44.7969 57.5938
Q46.2969 56.7031 47.1875 55.0938
Q48.0938 53.5 48.0938 51
Q48.0938 46.5 45.3906 44.5
Q42.7031 42.5 38.5 42.5
z

M6.90625 71.4062
L6.90625 0
L41.5 0
Q46.2969 0 50.8438 1.20312
Q55.4062 2.40625 58.9531 4.90625
Q62.5 7.40625 64.5938 11.3438
Q66.7031 15.2969 66.7031 20.7031
Q66.7031 27.4062 63.4531 32.1562
Q60.2031 36.9062 53.5938 38.7969
Q58.4062 41.0938 60.8438 44.6875
Q63.2969 48.2969 63.2969 53.7031
Q63.2969 58.7031 61.6406 62.0938
Q60 65.5 57 67.5469
Q54 69.5938 49.7969 70.5
Q45.5938 71.4062 40.5 71.4062
z

M22.5938 12.2031
L22.5938 31.7969
L39.7031 31.7969
Q44.7969 31.7969 47.8906 29.4375
Q51 27.0938 51 21.5938
Q51 18.7969 50.0469 17
Q49.0938 15.2031 47.5 14.1406
Q45.9062 13.0938 43.7969 12.6406
Q41.7031 12.2031 39.4062 12.2031
z
" id="HelveticaNeue-Bold-42"/>
     </defs>
     <g transform="translate(126.405 68.485)scale(0.16 -0.16)">
      <use xlink:href="#HelveticaNeue-Bold-42"/>
      <use x="70.3999938965" xlink:href="#HelveticaNeue-Bold-72"/>
      <use x="109.299987793" xlink:href="#HelveticaNeue-Bold-61"/>
      <use x="166.699981689" xlink:href="#HelveticaNeue-Bold-6e"/>
      <use x="225.999969482" xlink:href="#HelveticaNeue-Bold-63"/>
      <use x="283.399963379" xlink:href="#HelveticaNeue-Bold-68"/>
      <use x="342.699951172" xlink:href="#HelveticaNeue-Bold-65"/>
      <use x="400.099945068" xlink:href="#HelveticaNeue-Bold-73"/>
     </g>
    </g>
    <g id="PathCollection_3">
     <defs>
      <path d="
M0 3.16228
C0.838646 3.16228 1.64306 2.82908 2.23607 2.23607
C2.82908 1.64306 3.16228 0.838646 3.16228 0
C3.16228 -0.838646 2.82908 -1.64306 2.23607 -2.23607
C1.64306 -2.82908 0.838646 -3.16228 0 -3.16228
C-0.838646 -3.16228 -1.64306 -2.82908 -2.23607 -2.23607
C-2.82908 -1.64306 -3.16228 -0.838646 -3.16228 0
C-3.16228 0.838646 -2.82908 1.64306 -2.23607 2.23607
C-1.64306 2.82908 -0.838646 3.16228 0 3.16228
z
" id="C2_0_b69519a06d"/>
      <path d="
M0 3.16228
C0.838646 3.16228 1.64306 2.82908 2.23607 2.23607
C2.82908 1.64306 3.16228 0.838646 3.16228 0
C3.16228 -0.838646 2.82908 -1.64306 2.23607 -2.23607
C1.64306 -2.82908 0.838646 -3.16228 0 -3.16228
C-0.838646 -3.16228 -1.64306 -2.82908 -2.23607 -2.23607
C-2.82908 -1.64306 -3.16228 -0.838646 -3.16228 0
C-3.16228 0.838646 -2.82908 1.64306 -2.23607 2.23607
C-1.64306 2.82908 -0.838646 3.16228 0 3.16228
z
" id="C2_1_b69519a06d"/>
      <path d="
M0 3.16228
C0.838646 3.16228 1.64306 2.82908 2.23607 2.23607
C2.82908 1.64306 3.16228 0.838646 3.16228 0
C3.16228 -0.838646 2.82908 -1.64306 2.23607 -2.23607
C1.64306 -2.82908 0.838646 -3.16228 0 -3.16228
C-0.838646 -3.16228 -1.64306 -2.82908 -2.23607 -2.23607
C-2.82908 -1.64306 -3.16228 -0.838646 -3.16228 0
C-3.16228 0.838646 -2.82908 1.64306 -2.23607 2.23607
C-1.64306 2.82908 -0.838646 3.16228 0 3.16228
z
" id="C2_2_b69519a06d"/>
     </defs>
     <use style="fill:#0000ff;stroke:#000000;" x="90.405" xlink:href="#C2_0_b69519a06d" y="86.225"/>
     <use style="fill:#0000ff;stroke:#000000;" x="100.485" xlink:href="#C2_1_b69519a06d" y="84.965"/>
     <use style="fill:#0000ff;stroke:#000000;" x="110.565" xlink:href="#C2_2_b69519a06d" y="86.855"/>
    </g>
    <g id="text_20">
     <!-- Players -->
     <g transform="translate(126.405 90.005)scale(0.16 -0.16)">
      <use xlink:href="#HelveticaNeue-Bold-50"/>
      <use x="66.6999969482" xlink:href="#HelveticaNeue-Bold-6c"/>
      <use x="92.4999847412" xlink:href="#HelveticaNeue-Bold-61"/>
      <use x="149.899978638" xlink:href="#HelveticaNeue-Bold-79"/>
      <use x="201.799972534" xlink:href="#HelveticaNeue-Bold-65"/>
      <use x="259.199966431" xlink:href="#HelveticaNeue-Bold-72"/>
      <use x="298.099960327" xlink:href="#HelveticaNeue-Bold-73"/>
     </g>
    </g>
    <g id="PathCollection_4">
     <defs>
      <path d="
M-3.87267e-16 3.16228
L3.16228 -3.16228
L-3.16228 -3.16228
z
" id="C3_0_fe2793f20d"/>
      <path d="
M-3.87267e-16 3.16228
L3.16228 -3.16228
L-3.16228 -3.16228
z
" id="C3_1_fe2793f20d"/>
      <path d="
M-3.87267e-16 3.16228
L3.16228 -3.16228
L-3.16228 -3.16228
z
" id="C3_2_fe2793f20d"/>
     </defs>
     <use style="fill:#ffa500;stroke:#ffa500;" x="90.405" xlink:href="#C3_0_fe2793f20d" y="107.745"/>
     <use style="fill:#ffa500;stroke:#ffa500;" x="100.485" xlink:href="#C3_1_fe2793f20d" y="106.485"/>
     <use style="fill:#ffa500;stroke:#ffa500;" x="110.565" xlink:href="#C3_2_fe2793f20d" y="108.375"/>
    </g>
    <g id="text_21">
     <!-- Trunk node -->
     <defs>
      <path d="
M53.9062 0
L53.9062 51.7031
L39.7031 51.7031
L39.7031 24.5938
Q39.7031 16.7031 37.0938 13.25
Q34.5 9.79688 28.7031 9.79688
Q23.5938 9.79688 21.5938 12.9375
Q19.5938 16.0938 19.5938 22.5
L19.5938 51.7031
L5.40625 51.7031
L5.40625 19.9062
Q5.40625 15.0938 6.25 11.1406
Q7.09375 7.20312 9.1875 4.45312
Q11.2969 1.70312 14.9375 0.203125
Q18.5938 -1.29688 24.2969 -1.29688
Q28.7969 -1.29688 33.0938 0.703125
Q37.4062 2.70312 40.0938 7.20312
L40.4062 7.20312
L40.4062 0
z
" id="HelveticaNeue-Bold-75"/>
      <path d="
M42.0938 26
Q42.0938 22.7969 41.5 19.7969
Q40.9062 16.7969 39.5 14.4375
Q38.0938 12.0938 35.75 10.6875
Q33.4062 9.29688 29.9062 9.29688
Q26.5938 9.29688 24.25 10.75
Q21.9062 12.2031 20.3438 14.5469
Q18.7969 16.9062 18.0938 19.9062
Q17.4062 22.9062 17.4062 25.9062
Q17.4062 29.0938 18.0469 32.0469
Q18.7031 35 20.1406 37.2969
Q21.5938 39.5938 24 41
Q26.4062 42.4062 29.9062 42.4062
Q33.4062 42.4062 35.7031 41
Q38 39.5938 39.4531 37.3438
Q40.9062 35.0938 41.5 32.1406
Q42.0938 29.2031 42.0938 26
M42.2969 6.59375
L42.2969 0
L55.7969 0
L55.7969 71.4062
L41.5938 71.4062
L41.5938 45.4062
L41.4062 45.4062
Q39 49.2031 34.8438 51.1406
Q30.7031 53.0938 26.0938 53.0938
Q20.4062 53.0938 16.0938 50.8438
Q11.7969 48.5938 8.9375 44.8906
Q6.09375 41.2031 4.64062 36.3438
Q3.20312 31.5 3.20312 26.2969
Q3.20312 20.9062 4.64062 15.9062
Q6.09375 10.9062 8.9375 7.04688
Q11.7969 3.20312 16.1875 0.953125
Q20.5938 -1.29688 26.4062 -1.29688
Q31.5 -1.29688 35.5469 0.546875
Q39.5938 2.40625 42.0938 6.59375
z
" id="HelveticaNeue-Bold-64"/>
      <path d="
M6.70312 71.4062
L6.70312 0
L20.9062 0
L20.9062 17.7969
L26.4062 23.0938
L40.5938 0
L57.7969 0
L36.0938 32.7031
L55.5938 51.7031
L38.7969 51.7031
L20.9062 33.0938
L20.9062 71.4062
z
" id="HelveticaNeue-Bold-6b"/>
      <path d="
M22.7031 58.2031
L22.7031 0
L38.4062 0
L38.4062 58.2031
L59.7969 58.2031
L59.7969 71.4062
L1.29688 71.4062
L1.29688 58.2031
z
" id="HelveticaNeue-Bold-54"/>
     </defs>
     <g transform="translate(126.405 111.525)scale(0.16 -0.16)">
      <use xlink:href="#HelveticaNeue-Bold-54"/>
      <use x="51.8499908447" xlink:href="#HelveticaNeue-Bold-72"/>
      <use x="90.7499847412" xlink:href="#HelveticaNeue-Bold-75"/>
      <use x="150.049972534" xlink:href="#HelveticaNeue-Bold-6e"/>
      <use x="209.349960327" xlink:href="#HelveticaNeue-Bold-6b"/>
      <use x="266.749954224" xlink:href="#HelveticaNeue-Bold-20"/>
      <use x="294.549942017" xlink:href="#HelveticaNeue-Bold-6e"/>
      <use x="353.84992981" xlink:href="#HelveticaNeue-Bold-6f"/>
      <use x="414.949920654" xlink:href="#HelveticaNeue-Bold-64"/>
      <use x="476.049911499" xlink:href="#HelveticaNeue-Bold-65"/>
     </g>
    </g>
   </g>
  </g>
 </g>
 <defs>
  <clipPath id="p5873ec822d">
   <rect height="352.8" width="453.375" x="73.125" y="44.1"/>
  </clipPath>
 </defs>
</svg>
