<?xml version="1.0" encoding="utf-8" standalone="no"?>
<!DOCTYPE svg PUBLIC "-//W3C//DTD SVG 1.1//EN"
  "http://www.w3.org/Graphics/SVG/1.1/DTD/svg11.dtd">
<!-- Created with matplotlib (https://matplotlib.org/) -->
<svg height="345.6pt" version="1.1" viewBox="0 0 460.8 345.6" width="460.8pt" xmlns="http://www.w3.org/2000/svg" xmlns:xlink="http://www.w3.org/1999/xlink">
 <defs>
  <style type="text/css">
*{stroke-linecap:butt;stroke-linejoin:round;}
  </style>
 </defs>
 <g id="figure_1">
  <g id="patch_1">
   <path d="M 0 345.6 
L 460.8 345.6 
L 460.8 0 
L 0 0 
z
" style="fill:#ffffff;"/>
  </g>
  <g id="axes_1">
   <g id="patch_2">
    <path d="M 57.6 307.584 
L 414.72 307.584 
L 414.72 41.472 
L 57.6 41.472 
z
" style="fill:#ffffff;"/>
   </g>
   <g id="patch_3">
    <path clip-path="url(#p4b9f19002e)" d="M 73.832727 307.584 
L 218.123636 307.584 
L 218.123636 201.1392 
L 73.832727 201.1392 
z
" style="fill:url(#h6cf779078b);"/>
   </g>
   <g id="patch_4">
    <path clip-path="url(#p4b9f19002e)" d="M 254.196364 307.584 
L 398.487273 307.584 
L 398.487273 201.1392 
L 254.196364 201.1392 
z
" style="fill:url(#h6cf779078b);"/>
   </g>
   <g id="patch_5">
    <path clip-path="url(#p4b9f19002e)" d="M 73.832727 201.1392 
L 218.123636 201.1392 
L 218.123636 68.0832 
L 73.832727 68.0832 
z
" style="fill:url(#h0ee256605a);"/>
   </g>
   <g id="patch_6">
    <path clip-path="url(#p4b9f19002e)" d="M 254.196364 201.1392 
L 398.487273 201.1392 
L 398.487273 187.8336 
L 254.196364 187.8336 
z
" style="fill:url(#h0ee256605a);"/>
   </g>
   <g id="patch_7">
    <path clip-path="url(#p4b9f19002e)" d="M 73.832727 68.0832 
L 218.123636 68.0832 
L 218.123636 41.472 
L 73.832727 41.472 
z
" style="fill:url(#hcc5d31c4d4);"/>
   </g>
   <g id="patch_8">
    <path clip-path="url(#p4b9f19002e)" d="M 254.196364 187.8336 
L 398.487273 187.8336 
L 398.487273 41.472 
L 254.196364 41.472 
z
" style="fill:url(#hcc5d31c4d4);"/>
   </g>
   <g id="patch_9">
    <path clip-path="url(#p4b9f19002e)" d="M 220.127188 154.528 
Q 231.160616 154.528 242.194045 154.528 
L 242.194045 134.528 
Q 247.195004 154.528 252.195964 174.528 
Q 247.195004 194.528 242.194045 214.528 
L 242.194045 194.528 
Q 231.160616 194.528 220.127188 194.528 
L 220.127188 154.528 
z
" style="fill:#808080;stroke:#808080;stroke-linecap:round;"/>
   </g>
   <g id="matplotlib.axis_1">
    <g id="xtick_1">
     <g id="line2d_1"/>
     <g id="text_1">
      <!-- Before -->
      <defs>
       <path d="M 38.375 44.671875 
Q 42.828125 44.671875 45.109375 46.625 
Q 47.40625 48.578125 47.40625 52.390625 
Q 47.40625 56.15625 45.109375 58.125 
Q 42.828125 60.109375 38.375 60.109375 
L 27.984375 60.109375 
L 27.984375 44.671875 
z
M 39.015625 12.796875 
Q 44.671875 12.796875 47.53125 15.1875 
Q 50.390625 17.578125 50.390625 22.40625 
Q 50.390625 27.15625 47.5625 29.515625 
Q 44.734375 31.890625 39.015625 31.890625 
L 27.984375 31.890625 
L 27.984375 12.796875 
z
M 56.5 39.015625 
Q 62.546875 37.25 65.859375 32.515625 
Q 69.1875 27.78125 69.1875 20.90625 
Q 69.1875 10.359375 62.0625 5.171875 
Q 54.9375 0 40.375 0 
L 9.1875 0 
L 9.1875 72.90625 
L 37.40625 72.90625 
Q 52.59375 72.90625 59.40625 68.3125 
Q 66.21875 63.71875 66.21875 53.609375 
Q 66.21875 48.296875 63.71875 44.5625 
Q 61.234375 40.828125 56.5 39.015625 
z
" id="DejaVuSans-Bold-66"/>
       <path d="M 62.984375 27.484375 
L 62.984375 22.515625 
L 22.125 22.515625 
Q 22.75 16.359375 26.5625 13.28125 
Q 30.375 10.203125 37.203125 10.203125 
Q 42.71875 10.203125 48.5 11.84375 
Q 54.296875 13.484375 60.40625 16.796875 
L 60.40625 3.328125 
Q 54.203125 0.984375 48 -0.21875 
Q 41.796875 -1.421875 35.59375 -1.421875 
Q 20.75 -1.421875 12.515625 6.125 
Q 4.296875 13.671875 4.296875 27.296875 
Q 4.296875 40.671875 12.375 48.328125 
Q 20.453125 56 34.625 56 
Q 47.515625 56 55.25 48.234375 
Q 62.984375 40.484375 62.984375 27.484375 
z
M 45.015625 33.296875 
Q 45.015625 38.28125 42.109375 41.328125 
Q 39.203125 44.390625 34.515625 44.390625 
Q 29.4375 44.390625 26.265625 41.53125 
Q 23.09375 38.671875 22.3125 33.296875 
z
" id="DejaVuSans-Bold-101"/>
       <path d="M 44.390625 75.984375 
L 44.390625 64.5 
L 34.71875 64.5 
Q 31 64.5 29.53125 63.15625 
Q 28.078125 61.8125 28.078125 58.5 
L 28.078125 54.6875 
L 43.015625 54.6875 
L 43.015625 42.1875 
L 28.078125 42.1875 
L 28.078125 0 
L 10.59375 0 
L 10.59375 42.1875 
L 1.90625 42.1875 
L 1.90625 54.6875 
L 10.59375 54.6875 
L 10.59375 58.5 
Q 10.59375 67.4375 15.578125 71.703125 
Q 20.5625 75.984375 31 75.984375 
z
" id="DejaVuSans-Bold-102"/>
       <path d="M 34.421875 43.5 
Q 28.609375 43.5 25.5625 39.328125 
Q 22.515625 35.15625 22.515625 27.296875 
Q 22.515625 19.4375 25.5625 15.25 
Q 28.609375 11.078125 34.421875 11.078125 
Q 40.140625 11.078125 43.15625 15.25 
Q 46.1875 19.4375 46.1875 27.296875 
Q 46.1875 35.15625 43.15625 39.328125 
Q 40.140625 43.5 34.421875 43.5 
z
M 34.421875 56 
Q 48.53125 56 56.46875 48.375 
Q 64.40625 40.765625 64.40625 27.296875 
Q 64.40625 13.8125 56.46875 6.1875 
Q 48.53125 -1.421875 34.421875 -1.421875 
Q 20.265625 -1.421875 12.28125 6.1875 
Q 4.296875 13.8125 4.296875 27.296875 
Q 4.296875 40.765625 12.28125 48.375 
Q 20.265625 56 34.421875 56 
z
" id="DejaVuSans-Bold-111"/>
       <path d="M 49.03125 39.796875 
Q 46.734375 40.875 44.453125 41.375 
Q 42.1875 41.890625 39.890625 41.890625 
Q 33.15625 41.890625 29.515625 37.5625 
Q 25.875 33.25 25.875 25.203125 
L 25.875 0 
L 8.40625 0 
L 8.40625 54.6875 
L 25.875 54.6875 
L 25.875 45.703125 
Q 29.25 51.078125 33.609375 53.53125 
Q 37.984375 56 44.09375 56 
Q 44.96875 56 45.984375 55.921875 
Q 47.015625 55.859375 48.96875 55.609375 
z
" id="DejaVuSans-Bold-114"/>
      </defs>
      <g transform="translate(125.441697 319.442281)scale(0.11 -0.11)">
       <use xlink:href="#DejaVuSans-Bold-66"/>
       <use x="76.220703" xlink:href="#DejaVuSans-Bold-101"/>
       <use x="144.042969" xlink:href="#DejaVuSans-Bold-102"/>
       <use x="187.548828" xlink:href="#DejaVuSans-Bold-111"/>
       <use x="256.25" xlink:href="#DejaVuSans-Bold-114"/>
       <use x="305.566406" xlink:href="#DejaVuSans-Bold-101"/>
      </g>
     </g>
    </g>
    <g id="xtick_2">
     <g id="line2d_2"/>
     <g id="text_2">
      <!-- After -->
      <defs>
       <path d="M 53.421875 13.28125 
L 24.03125 13.28125 
L 19.390625 0 
L 0.484375 0 
L 27.484375 72.90625 
L 49.90625 72.90625 
L 76.90625 0 
L 58.015625 0 
z
M 28.71875 26.8125 
L 48.6875 26.8125 
L 38.71875 55.8125 
z
" id="DejaVuSans-Bold-65"/>
       <path d="M 27.484375 70.21875 
L 27.484375 54.6875 
L 45.515625 54.6875 
L 45.515625 42.1875 
L 27.484375 42.1875 
L 27.484375 19 
Q 27.484375 15.1875 29 13.84375 
Q 30.515625 12.5 35.015625 12.5 
L 44 12.5 
L 44 0 
L 29 0 
Q 18.65625 0 14.328125 4.3125 
Q 10.015625 8.640625 10.015625 19 
L 10.015625 42.1875 
L 1.3125 42.1875 
L 1.3125 54.6875 
L 10.015625 54.6875 
L 10.015625 70.21875 
z
" id="DejaVuSans-Bold-116"/>
      </defs>
      <g transform="translate(310.621271 319.442281)scale(0.11 -0.11)">
       <use xlink:href="#DejaVuSans-Bold-65"/>
       <use x="77.392578" xlink:href="#DejaVuSans-Bold-102"/>
       <use x="120.898438" xlink:href="#DejaVuSans-Bold-116"/>
       <use x="168.701172" xlink:href="#DejaVuSans-Bold-101"/>
       <use x="236.523438" xlink:href="#DejaVuSans-Bold-114"/>
      </g>
      <!-- (Expected) -->
      <defs>
       <path d="M 37.703125 -13.1875 
L 23.1875 -13.1875 
Q 15.71875 -1.125 12.15625 9.734375 
Q 8.59375 20.609375 8.59375 31.296875 
Q 8.59375 42 12.171875 52.953125 
Q 15.765625 63.921875 23.1875 75.875 
L 37.703125 75.875 
Q 31.453125 64.3125 28.328125 53.25 
Q 25.203125 42.1875 25.203125 31.390625 
Q 25.203125 20.609375 28.296875 9.515625 
Q 31.390625 -1.5625 37.703125 -13.1875 
z
" id="DejaVuSans-Bold-40"/>
       <path d="M 9.1875 72.90625 
L 59.90625 72.90625 
L 59.90625 58.6875 
L 27.984375 58.6875 
L 27.984375 45.125 
L 58.015625 45.125 
L 58.015625 30.90625 
L 27.984375 30.90625 
L 27.984375 14.203125 
L 60.984375 14.203125 
L 60.984375 0 
L 9.1875 0 
z
" id="DejaVuSans-Bold-69"/>
       <path d="M 22.21875 27.984375 
L 2.484375 54.6875 
L 21 54.6875 
L 32.171875 38.484375 
L 43.5 54.6875 
L 62.015625 54.6875 
L 42.28125 28.078125 
L 62.984375 0 
L 44.484375 0 
L 32.171875 17.28125 
L 20.015625 0 
L 1.515625 0 
z
" id="DejaVuSans-Bold-120"/>
       <path d="M 25.875 7.90625 
L 25.875 -20.796875 
L 8.40625 -20.796875 
L 8.40625 54.6875 
L 25.875 54.6875 
L 25.875 46.6875 
Q 29.5 51.46875 33.890625 53.734375 
Q 38.28125 56 44 56 
Q 54.109375 56 60.59375 47.96875 
Q 67.09375 39.9375 67.09375 27.296875 
Q 67.09375 14.65625 60.59375 6.609375 
Q 54.109375 -1.421875 44 -1.421875 
Q 38.28125 -1.421875 33.890625 0.84375 
Q 29.5 3.125 25.875 7.90625 
z
M 37.5 43.3125 
Q 31.890625 43.3125 28.875 39.1875 
Q 25.875 35.0625 25.875 27.296875 
Q 25.875 19.53125 28.875 15.40625 
Q 31.890625 11.28125 37.5 11.28125 
Q 43.109375 11.28125 46.0625 15.375 
Q 49.03125 19.484375 49.03125 27.296875 
Q 49.03125 35.109375 46.0625 39.203125 
Q 43.109375 43.3125 37.5 43.3125 
z
" id="DejaVuSans-Bold-112"/>
       <path d="M 52.59375 52.984375 
L 52.59375 38.71875 
Q 49.03125 41.15625 45.4375 42.328125 
Q 41.84375 43.5 37.984375 43.5 
Q 30.671875 43.5 26.59375 39.234375 
Q 22.515625 34.96875 22.515625 27.296875 
Q 22.515625 19.625 26.59375 15.34375 
Q 30.671875 11.078125 37.984375 11.078125 
Q 42.09375 11.078125 45.78125 12.296875 
Q 49.46875 13.53125 52.59375 15.921875 
L 52.59375 1.609375 
Q 48.484375 0.09375 44.265625 -0.65625 
Q 40.046875 -1.421875 35.796875 -1.421875 
Q 21 -1.421875 12.640625 6.171875 
Q 4.296875 13.765625 4.296875 27.296875 
Q 4.296875 40.828125 12.640625 48.40625 
Q 21 56 35.796875 56 
Q 40.09375 56 44.265625 55.25 
Q 48.4375 54.5 52.59375 52.984375 
z
" id="DejaVuSans-Bold-99"/>
       <path d="M 45.609375 46.6875 
L 45.609375 75.984375 
L 63.1875 75.984375 
L 63.1875 0 
L 45.609375 0 
L 45.609375 7.90625 
Q 42 3.078125 37.640625 0.828125 
Q 33.296875 -1.421875 27.59375 -1.421875 
Q 17.484375 -1.421875 10.984375 6.609375 
Q 4.5 14.65625 4.5 27.296875 
Q 4.5 39.9375 10.984375 47.96875 
Q 17.484375 56 27.59375 56 
Q 33.25 56 37.625 53.734375 
Q 42 51.46875 45.609375 46.6875 
z
M 34.078125 11.28125 
Q 39.703125 11.28125 42.65625 15.375 
Q 45.609375 19.484375 45.609375 27.296875 
Q 45.609375 35.109375 42.65625 39.203125 
Q 39.703125 43.3125 34.078125 43.3125 
Q 28.515625 43.3125 25.5625 39.203125 
Q 22.609375 35.109375 22.609375 27.296875 
Q 22.609375 19.484375 25.5625 15.375 
Q 28.515625 11.28125 34.078125 11.28125 
z
" id="DejaVuSans-Bold-100"/>
       <path d="M 8.015625 -13.1875 
Q 14.265625 -1.5625 17.390625 9.515625 
Q 20.515625 20.609375 20.515625 31.390625 
Q 20.515625 42.1875 17.390625 53.25 
Q 14.265625 64.3125 8.015625 75.875 
L 22.515625 75.875 
Q 29.9375 63.921875 33.515625 52.953125 
Q 37.109375 42 37.109375 31.296875 
Q 37.109375 20.609375 33.546875 9.734375 
Q 29.984375 -1.125 22.515625 -13.1875 
z
" id="DejaVuSans-Bold-41"/>
      </defs>
      <g transform="translate(292.785803 331.759875)scale(0.11 -0.11)">
       <use xlink:href="#DejaVuSans-Bold-40"/>
       <use x="45.703125" xlink:href="#DejaVuSans-Bold-69"/>
       <use x="114.013672" xlink:href="#DejaVuSans-Bold-120"/>
       <use x="178.515625" xlink:href="#DejaVuSans-Bold-112"/>
       <use x="250.097656" xlink:href="#DejaVuSans-Bold-101"/>
       <use x="317.919922" xlink:href="#DejaVuSans-Bold-99"/>
       <use x="377.197266" xlink:href="#DejaVuSans-Bold-116"/>
       <use x="425" xlink:href="#DejaVuSans-Bold-101"/>
       <use x="492.822266" xlink:href="#DejaVuSans-Bold-100"/>
       <use x="564.404297" xlink:href="#DejaVuSans-Bold-41"/>
      </g>
     </g>
    </g>
   </g>
   <g id="matplotlib.axis_2">
    <g id="ytick_1">
     <g id="line2d_3">
      <defs>
       <path d="M 0 0 
L -3.5 0 
" id="mcfb4be94e6" style="stroke:#000000;stroke-width:0.8;"/>
      </defs>
      <g>
       <use style="stroke:#000000;stroke-width:0.8;" x="57.6" xlink:href="#mcfb4be94e6" y="307.584"/>
      </g>
     </g>
     <g id="text_3">
      <!-- 0 -->
      <defs>
       <path d="M 31.78125 66.40625 
Q 24.171875 66.40625 20.328125 58.90625 
Q 16.5 51.421875 16.5 36.375 
Q 16.5 21.390625 20.328125 13.890625 
Q 24.171875 6.390625 31.78125 6.390625 
Q 39.453125 6.390625 43.28125 13.890625 
Q 47.125 21.390625 47.125 36.375 
Q 47.125 51.421875 43.28125 58.90625 
Q 39.453125 66.40625 31.78125 66.40625 
z
M 31.78125 74.21875 
Q 44.046875 74.21875 50.515625 64.515625 
Q 56.984375 54.828125 56.984375 36.375 
Q 56.984375 17.96875 50.515625 8.265625 
Q 44.046875 -1.421875 31.78125 -1.421875 
Q 19.53125 -1.421875 13.0625 8.265625 
Q 6.59375 17.96875 6.59375 36.375 
Q 6.59375 54.828125 13.0625 64.515625 
Q 19.53125 74.21875 31.78125 74.21875 
z
" id="DejaVuSans-48"/>
      </defs>
      <g transform="translate(44.2375 311.383219)scale(0.1 -0.1)">
       <use xlink:href="#DejaVuSans-48"/>
      </g>
     </g>
    </g>
    <g id="ytick_2">
     <g id="line2d_4">
      <g>
       <use style="stroke:#000000;stroke-width:0.8;" x="57.6" xlink:href="#mcfb4be94e6" y="241.056"/>
      </g>
     </g>
     <g id="text_4">
      <!-- 25 -->
      <defs>
       <path d="M 19.1875 8.296875 
L 53.609375 8.296875 
L 53.609375 0 
L 7.328125 0 
L 7.328125 8.296875 
Q 12.9375 14.109375 22.625 23.890625 
Q 32.328125 33.6875 34.8125 36.53125 
Q 39.546875 41.84375 41.421875 45.53125 
Q 43.3125 49.21875 43.3125 52.78125 
Q 43.3125 58.59375 39.234375 62.25 
Q 35.15625 65.921875 28.609375 65.921875 
Q 23.96875 65.921875 18.8125 64.3125 
Q 13.671875 62.703125 7.8125 59.421875 
L 7.8125 69.390625 
Q 13.765625 71.78125 18.9375 73 
Q 24.125 74.21875 28.421875 74.21875 
Q 39.75 74.21875 46.484375 68.546875 
Q 53.21875 62.890625 53.21875 53.421875 
Q 53.21875 48.921875 51.53125 44.890625 
Q 49.859375 40.875 45.40625 35.40625 
Q 44.1875 33.984375 37.640625 27.21875 
Q 31.109375 20.453125 19.1875 8.296875 
z
" id="DejaVuSans-50"/>
       <path d="M 10.796875 72.90625 
L 49.515625 72.90625 
L 49.515625 64.59375 
L 19.828125 64.59375 
L 19.828125 46.734375 
Q 21.96875 47.46875 24.109375 47.828125 
Q 26.265625 48.1875 28.421875 48.1875 
Q 40.625 48.1875 47.75 41.5 
Q 54.890625 34.8125 54.890625 23.390625 
Q 54.890625 11.625 47.5625 5.09375 
Q 40.234375 -1.421875 26.90625 -1.421875 
Q 22.3125 -1.421875 17.546875 -0.640625 
Q 12.796875 0.140625 7.71875 1.703125 
L 7.71875 11.625 
Q 12.109375 9.234375 16.796875 8.0625 
Q 21.484375 6.890625 26.703125 6.890625 
Q 35.15625 6.890625 40.078125 11.328125 
Q 45.015625 15.765625 45.015625 23.390625 
Q 45.015625 31 40.078125 35.4375 
Q 35.15625 39.890625 26.703125 39.890625 
Q 22.75 39.890625 18.8125 39.015625 
Q 14.890625 38.140625 10.796875 36.28125 
z
" id="DejaVuSans-53"/>
      </defs>
      <g transform="translate(37.875 244.855219)scale(0.1 -0.1)">
       <use xlink:href="#DejaVuSans-50"/>
       <use x="63.623047" xlink:href="#DejaVuSans-53"/>
      </g>
     </g>
    </g>
    <g id="ytick_3">
     <g id="line2d_5">
      <g>
       <use style="stroke:#000000;stroke-width:0.8;" x="57.6" xlink:href="#mcfb4be94e6" y="174.528"/>
      </g>
     </g>
     <g id="text_5">
      <!-- 50 -->
      <g transform="translate(37.875 178.327219)scale(0.1 -0.1)">
       <use xlink:href="#DejaVuSans-53"/>
       <use x="63.623047" xlink:href="#DejaVuSans-48"/>
      </g>
     </g>
    </g>
    <g id="ytick_4">
     <g id="line2d_6">
      <g>
       <use style="stroke:#000000;stroke-width:0.8;" x="57.6" xlink:href="#mcfb4be94e6" y="108"/>
      </g>
     </g>
     <g id="text_6">
      <!-- 75 -->
      <defs>
       <path d="M 8.203125 72.90625 
L 55.078125 72.90625 
L 55.078125 68.703125 
L 28.609375 0 
L 18.3125 0 
L 43.21875 64.59375 
L 8.203125 64.59375 
z
" id="DejaVuSans-55"/>
      </defs>
      <g transform="translate(37.875 111.799219)scale(0.1 -0.1)">
       <use xlink:href="#DejaVuSans-55"/>
       <use x="63.623047" xlink:href="#DejaVuSans-53"/>
      </g>
     </g>
    </g>
    <g id="ytick_5">
     <g id="line2d_7">
      <g>
       <use style="stroke:#000000;stroke-width:0.8;" x="57.6" xlink:href="#mcfb4be94e6" y="41.472"/>
      </g>
     </g>
     <g id="text_7">
      <!-- 100 -->
      <defs>
       <path d="M 12.40625 8.296875 
L 28.515625 8.296875 
L 28.515625 63.921875 
L 10.984375 60.40625 
L 10.984375 69.390625 
L 28.421875 72.90625 
L 38.28125 72.90625 
L 38.28125 8.296875 
L 54.390625 8.296875 
L 54.390625 0 
L 12.40625 0 
z
" id="DejaVuSans-49"/>
      </defs>
      <g transform="translate(31.5125 45.271219)scale(0.1 -0.1)">
       <use xlink:href="#DejaVuSans-49"/>
       <use x="63.623047" xlink:href="#DejaVuSans-48"/>
       <use x="127.246094" xlink:href="#DejaVuSans-48"/>
      </g>
     </g>
    </g>
    <g id="text_8">
     <!-- Proportion of work time, % -->
     <defs>
      <path d="M 9.1875 72.90625 
L 40.375 72.90625 
Q 54.296875 72.90625 61.734375 66.71875 
Q 69.1875 60.546875 69.1875 49.125 
Q 69.1875 37.640625 61.734375 31.46875 
Q 54.296875 25.296875 40.375 25.296875 
L 27.984375 25.296875 
L 27.984375 0 
L 9.1875 0 
z
M 27.984375 59.28125 
L 27.984375 38.921875 
L 38.375 38.921875 
Q 43.84375 38.921875 46.828125 41.578125 
Q 49.8125 44.234375 49.8125 49.125 
Q 49.8125 54 46.828125 56.640625 
Q 43.84375 59.28125 38.375 59.28125 
z
" id="DejaVuSans-Bold-80"/>
      <path d="M 8.40625 54.6875 
L 25.875 54.6875 
L 25.875 0 
L 8.40625 0 
z
M 8.40625 75.984375 
L 25.875 75.984375 
L 25.875 61.71875 
L 8.40625 61.71875 
z
" id="DejaVuSans-Bold-105"/>
      <path d="M 63.375 33.296875 
L 63.375 0 
L 45.796875 0 
L 45.796875 5.421875 
L 45.796875 25.484375 
Q 45.796875 32.5625 45.484375 35.25 
Q 45.171875 37.9375 44.390625 39.203125 
Q 43.359375 40.921875 41.59375 41.875 
Q 39.84375 42.828125 37.59375 42.828125 
Q 32.125 42.828125 29 38.59375 
Q 25.875 34.375 25.875 26.90625 
L 25.875 0 
L 8.40625 0 
L 8.40625 54.6875 
L 25.875 54.6875 
L 25.875 46.6875 
Q 29.828125 51.46875 34.265625 53.734375 
Q 38.71875 56 44.09375 56 
Q 53.5625 56 58.46875 50.1875 
Q 63.375 44.390625 63.375 33.296875 
z
" id="DejaVuSans-Bold-110"/>
      <path id="DejaVuSans-Bold-32"/>
      <path d="M 3.515625 54.6875 
L 20.515625 54.6875 
L 29.6875 17 
L 38.921875 54.6875 
L 53.515625 54.6875 
L 62.703125 17.390625 
L 71.921875 54.6875 
L 88.921875 54.6875 
L 74.515625 0 
L 55.421875 0 
L 46.1875 37.59375 
L 37.015625 0 
L 17.921875 0 
z
" id="DejaVuSans-Bold-119"/>
      <path d="M 8.40625 75.984375 
L 25.875 75.984375 
L 25.875 34.625 
L 46 54.6875 
L 66.3125 54.6875 
L 39.59375 29.59375 
L 68.40625 0 
L 47.21875 0 
L 25.875 22.796875 
L 25.875 0 
L 8.40625 0 
z
" id="DejaVuSans-Bold-107"/>
      <path d="M 59.078125 45.609375 
Q 62.40625 50.6875 66.96875 53.34375 
Q 71.53125 56 77 56 
Q 86.421875 56 91.359375 50.1875 
Q 96.296875 44.390625 96.296875 33.296875 
L 96.296875 0 
L 78.71875 0 
L 78.71875 28.515625 
Q 78.765625 29.15625 78.78125 29.828125 
Q 78.8125 30.515625 78.8125 31.78125 
Q 78.8125 37.59375 77.09375 40.203125 
Q 75.390625 42.828125 71.578125 42.828125 
Q 66.609375 42.828125 63.890625 38.71875 
Q 61.1875 34.625 61.078125 26.859375 
L 61.078125 0 
L 43.5 0 
L 43.5 28.515625 
Q 43.5 37.59375 41.9375 40.203125 
Q 40.375 42.828125 36.375 42.828125 
Q 31.34375 42.828125 28.609375 38.703125 
Q 25.875 34.578125 25.875 26.90625 
L 25.875 0 
L 8.296875 0 
L 8.296875 54.6875 
L 25.875 54.6875 
L 25.875 46.6875 
Q 29.109375 51.3125 33.28125 53.65625 
Q 37.453125 56 42.484375 56 
Q 48.140625 56 52.484375 53.265625 
Q 56.84375 50.53125 59.078125 45.609375 
z
" id="DejaVuSans-Bold-109"/>
      <path d="M 10.203125 18.890625 
L 27.78125 18.890625 
L 27.78125 4 
L 15.71875 -14.203125 
L 5.328125 -14.203125 
L 10.203125 4 
z
" id="DejaVuSans-Bold-44"/>
      <path d="M 77.484375 30.078125 
Q 74.03125 30.078125 72.125 27.078125 
Q 70.21875 24.078125 70.21875 18.5 
Q 70.21875 12.890625 72.09375 9.890625 
Q 73.96875 6.890625 77.484375 6.890625 
Q 81 6.890625 82.859375 9.890625 
Q 84.71875 12.890625 84.71875 18.5 
Q 84.71875 24.078125 82.828125 27.078125 
Q 80.953125 30.078125 77.484375 30.078125 
z
M 77.484375 38.28125 
Q 86.578125 38.28125 91.796875 33 
Q 97.015625 27.734375 97.015625 18.5 
Q 97.015625 9.28125 91.796875 3.921875 
Q 86.578125 -1.421875 77.484375 -1.421875 
Q 68.40625 -1.421875 63.15625 3.921875 
Q 57.90625 9.28125 57.90625 18.5 
Q 57.90625 27.6875 63.15625 32.984375 
Q 68.40625 38.28125 77.484375 38.28125 
z
M 32.71875 -1.421875 
L 21.921875 -1.421875 
L 67.484375 74.21875 
L 78.328125 74.21875 
z
M 22.703125 74.21875 
Q 31.78125 74.21875 36.984375 68.921875 
Q 42.1875 63.625 42.1875 54.390625 
Q 42.1875 45.171875 36.984375 39.84375 
Q 31.78125 34.515625 22.703125 34.515625 
Q 13.625 34.515625 8.421875 39.84375 
Q 3.21875 45.171875 3.21875 54.390625 
Q 3.21875 63.625 8.421875 68.921875 
Q 13.625 74.21875 22.703125 74.21875 
z
M 22.703125 66.015625 
Q 19.1875 66.015625 17.28125 62.984375 
Q 15.375 59.96875 15.375 54.390625 
Q 15.375 48.78125 17.28125 45.71875 
Q 19.1875 42.671875 22.703125 42.671875 
Q 26.21875 42.671875 28.09375 45.71875 
Q 29.984375 48.78125 29.984375 54.390625 
Q 29.984375 59.96875 28.078125 62.984375 
Q 26.171875 66.015625 22.703125 66.015625 
z
" id="DejaVuSans-Bold-37"/>
     </defs>
     <g transform="translate(25.224844 258.322219)rotate(-90)scale(0.11 -0.11)">
      <use xlink:href="#DejaVuSans-Bold-80"/>
      <use x="73.291016" xlink:href="#DejaVuSans-Bold-114"/>
      <use x="122.607422" xlink:href="#DejaVuSans-Bold-111"/>
      <use x="191.308594" xlink:href="#DejaVuSans-Bold-112"/>
      <use x="262.890625" xlink:href="#DejaVuSans-Bold-111"/>
      <use x="331.591797" xlink:href="#DejaVuSans-Bold-114"/>
      <use x="380.908203" xlink:href="#DejaVuSans-Bold-116"/>
      <use x="428.710938" xlink:href="#DejaVuSans-Bold-105"/>
      <use x="462.988281" xlink:href="#DejaVuSans-Bold-111"/>
      <use x="531.689453" xlink:href="#DejaVuSans-Bold-110"/>
      <use x="602.880859" xlink:href="#DejaVuSans-Bold-32"/>
      <use x="637.695312" xlink:href="#DejaVuSans-Bold-111"/>
      <use x="706.396484" xlink:href="#DejaVuSans-Bold-102"/>
      <use x="749.902344" xlink:href="#DejaVuSans-Bold-32"/>
      <use x="784.716797" xlink:href="#DejaVuSans-Bold-119"/>
      <use x="877.099609" xlink:href="#DejaVuSans-Bold-111"/>
      <use x="945.800781" xlink:href="#DejaVuSans-Bold-114"/>
      <use x="995.117188" xlink:href="#DejaVuSans-Bold-107"/>
      <use x="1061.621094" xlink:href="#DejaVuSans-Bold-32"/>
      <use x="1096.435547" xlink:href="#DejaVuSans-Bold-116"/>
      <use x="1144.238281" xlink:href="#DejaVuSans-Bold-105"/>
      <use x="1178.515625" xlink:href="#DejaVuSans-Bold-109"/>
      <use x="1282.714844" xlink:href="#DejaVuSans-Bold-101"/>
      <use x="1350.537109" xlink:href="#DejaVuSans-Bold-44"/>
      <use x="1388.525391" xlink:href="#DejaVuSans-Bold-32"/>
      <use x="1423.339844" xlink:href="#DejaVuSans-Bold-37"/>
     </g>
    </g>
   </g>
   <g id="patch_10">
    <path d="M 57.6 307.584 
L 57.6 41.472 
" style="fill:none;stroke:#000000;stroke-linecap:square;stroke-linejoin:miter;stroke-width:0.8;"/>
   </g>
   <g id="text_9">
    <path d="M 134.169588 251.0616 
Q 133.310213 251.0616 132.836776 251.695975 
Q 132.363338 252.33035 132.363338 253.483475 
Q 132.363338 254.63035 132.836776 255.266287 
Q 133.310213 255.900662 134.169588 255.900662 
Q 135.033651 255.900662 135.507088 255.266287 
Q 135.980526 254.63035 135.980526 253.483475 
Q 135.980526 252.33035 135.507088 251.695975 
Q 135.033651 251.0616 134.169588 251.0616 
z
M 134.169588 249.6991 
Q 135.927401 249.6991 136.922713 250.70535 
Q 137.919588 251.710037 137.919588 253.483475 
Q 137.919588 255.250662 136.922713 256.256912 
Q 135.927401 257.263162 134.169588 257.263162 
Q 132.416463 257.263162 131.418026 256.256912 
Q 130.419588 255.250662 130.419588 253.483475 
Q 130.419588 251.710037 131.418026 250.70535 
Q 132.416463 249.6991 134.169588 249.6991 
z
M 141.170565 250.0991 
L 141.170565 251.652225 
L 142.97369 251.652225 
L 142.97369 252.902225 
L 141.170565 252.902225 
L 141.170565 255.220975 
Q 141.170565 255.602225 141.322127 255.7366 
Q 141.47369 255.870975 141.92369 255.870975 
L 142.822127 255.870975 
L 142.822127 257.120975 
L 141.322127 257.120975 
Q 140.287752 257.120975 139.85494 256.689725 
Q 139.42369 256.256912 139.42369 255.220975 
L 139.42369 252.902225 
L 138.553377 252.902225 
L 138.553377 251.652225 
L 139.42369 251.652225 
L 139.42369 250.0991 
z
M 149.539901 253.791287 
L 149.539901 257.120975 
L 147.782088 257.120975 
L 147.782088 256.578787 
L 147.782088 254.581912 
Q 147.782088 253.864725 147.750838 253.595975 
Q 147.719588 253.327225 147.641463 253.200662 
Q 147.538338 253.028787 147.361776 252.933475 
Q 147.186776 252.838162 146.961776 252.838162 
Q 146.414901 252.838162 146.102401 253.2616 
Q 145.789901 253.683475 145.789901 254.43035 
L 145.789901 257.120975 
L 144.043026 257.120975 
L 144.043026 249.522537 
L 145.789901 249.522537 
L 145.789901 252.452225 
Q 146.185213 251.9741 146.628963 251.747537 
Q 147.074276 251.520975 147.611776 251.520975 
Q 148.558651 251.520975 149.049276 252.102225 
Q 149.539901 252.681912 149.539901 253.791287 
z
M 156.619979 254.372537 
L 156.619979 254.869412 
L 152.534041 254.869412 
Q 152.596541 255.485037 152.977791 255.79285 
Q 153.359041 256.100662 154.041854 256.100662 
Q 154.593416 256.100662 155.171541 255.9366 
Q 155.751229 255.772537 156.362166 255.441287 
L 156.362166 256.788162 
Q 155.741854 257.022537 155.121541 257.14285 
Q 154.501229 257.263162 153.880916 257.263162 
Q 152.396541 257.263162 151.573104 256.508475 
Q 150.751229 255.753787 150.751229 254.391287 
Q 150.751229 253.053787 151.559041 252.288162 
Q 152.366854 251.520975 153.784041 251.520975 
Q 155.073104 251.520975 155.846541 252.297537 
Q 156.619979 253.072537 156.619979 254.372537 
z
M 154.823104 253.791287 
Q 154.823104 253.29285 154.532479 252.988162 
Q 154.241854 252.681912 153.773104 252.681912 
Q 153.265291 252.681912 152.948104 252.96785 
Q 152.630916 253.253787 152.552791 253.791287 
z
M 162.006893 253.141287 
Q 161.777205 253.033475 161.54908 252.983475 
Q 161.322518 252.931912 161.09283 252.931912 
Q 160.419393 252.931912 160.05533 253.364725 
Q 159.691268 253.795975 159.691268 254.600662 
L 159.691268 257.120975 
L 157.944393 257.120975 
L 157.944393 251.652225 
L 159.691268 251.652225 
L 159.691268 252.550662 
Q 160.028768 252.013162 160.464705 251.76785 
Q 160.902205 251.520975 161.513143 251.520975 
Q 161.600643 251.520975 161.702205 251.528787 
Q 161.80533 251.535037 162.000643 251.560037 
z
" style="fill:#ffffff;stroke:#000000;stroke-width:2;"/>
    <path d="M 134.169588 251.0616 
Q 133.310213 251.0616 132.836776 251.695975 
Q 132.363338 252.33035 132.363338 253.483475 
Q 132.363338 254.63035 132.836776 255.266287 
Q 133.310213 255.900662 134.169588 255.900662 
Q 135.033651 255.900662 135.507088 255.266287 
Q 135.980526 254.63035 135.980526 253.483475 
Q 135.980526 252.33035 135.507088 251.695975 
Q 135.033651 251.0616 134.169588 251.0616 
z
M 134.169588 249.6991 
Q 135.927401 249.6991 136.922713 250.70535 
Q 137.919588 251.710037 137.919588 253.483475 
Q 137.919588 255.250662 136.922713 256.256912 
Q 135.927401 257.263162 134.169588 257.263162 
Q 132.416463 257.263162 131.418026 256.256912 
Q 130.419588 255.250662 130.419588 253.483475 
Q 130.419588 251.710037 131.418026 250.70535 
Q 132.416463 249.6991 134.169588 249.6991 
z
M 141.170565 250.0991 
L 141.170565 251.652225 
L 142.97369 251.652225 
L 142.97369 252.902225 
L 141.170565 252.902225 
L 141.170565 255.220975 
Q 141.170565 255.602225 141.322127 255.7366 
Q 141.47369 255.870975 141.92369 255.870975 
L 142.822127 255.870975 
L 142.822127 257.120975 
L 141.322127 257.120975 
Q 140.287752 257.120975 139.85494 256.689725 
Q 139.42369 256.256912 139.42369 255.220975 
L 139.42369 252.902225 
L 138.553377 252.902225 
L 138.553377 251.652225 
L 139.42369 251.652225 
L 139.42369 250.0991 
z
M 149.539901 253.791287 
L 149.539901 257.120975 
L 147.782088 257.120975 
L 147.782088 256.578787 
L 147.782088 254.581912 
Q 147.782088 253.864725 147.750838 253.595975 
Q 147.719588 253.327225 147.641463 253.200662 
Q 147.538338 253.028787 147.361776 252.933475 
Q 147.186776 252.838162 146.961776 252.838162 
Q 146.414901 252.838162 146.102401 253.2616 
Q 145.789901 253.683475 145.789901 254.43035 
L 145.789901 257.120975 
L 144.043026 257.120975 
L 144.043026 249.522537 
L 145.789901 249.522537 
L 145.789901 252.452225 
Q 146.185213 251.9741 146.628963 251.747537 
Q 147.074276 251.520975 147.611776 251.520975 
Q 148.558651 251.520975 149.049276 252.102225 
Q 149.539901 252.681912 149.539901 253.791287 
z
M 156.619979 254.372537 
L 156.619979 254.869412 
L 152.534041 254.869412 
Q 152.596541 255.485037 152.977791 255.79285 
Q 153.359041 256.100662 154.041854 256.100662 
Q 154.593416 256.100662 155.171541 255.9366 
Q 155.751229 255.772537 156.362166 255.441287 
L 156.362166 256.788162 
Q 155.741854 257.022537 155.121541 257.14285 
Q 154.501229 257.263162 153.880916 257.263162 
Q 152.396541 257.263162 151.573104 256.508475 
Q 150.751229 255.753787 150.751229 254.391287 
Q 150.751229 253.053787 151.559041 252.288162 
Q 152.366854 251.520975 153.784041 251.520975 
Q 155.073104 251.520975 155.846541 252.297537 
Q 156.619979 253.072537 156.619979 254.372537 
z
M 154.823104 253.791287 
Q 154.823104 253.29285 154.532479 252.988162 
Q 154.241854 252.681912 153.773104 252.681912 
Q 153.265291 252.681912 152.948104 252.96785 
Q 152.630916 253.253787 152.552791 253.791287 
z
M 162.006893 253.141287 
Q 161.777205 253.033475 161.54908 252.983475 
Q 161.322518 252.931912 161.09283 252.931912 
Q 160.419393 252.931912 160.05533 253.364725 
Q 159.691268 253.795975 159.691268 254.600662 
L 159.691268 257.120975 
L 157.944393 257.120975 
L 157.944393 251.652225 
L 159.691268 251.652225 
L 159.691268 252.550662 
Q 160.028768 252.013162 160.464705 251.76785 
Q 160.902205 251.520975 161.513143 251.520975 
Q 161.600643 251.520975 161.702205 251.528787 
Q 161.80533 251.535037 162.000643 251.560037 
z
" style="fill:#ffffff;"/>
   </g>
   <g id="text_10">
    <path d="M 314.533224 251.0616 
Q 313.673849 251.0616 313.200412 251.695975 
Q 312.726974 252.33035 312.726974 253.483475 
Q 312.726974 254.63035 313.200412 255.266287 
Q 313.673849 255.900662 314.533224 255.900662 
Q 315.397287 255.900662 315.870724 255.266287 
Q 316.344162 254.63035 316.344162 253.483475 
Q 316.344162 252.33035 315.870724 251.695975 
Q 315.397287 251.0616 314.533224 251.0616 
z
M 314.533224 249.6991 
Q 316.291037 249.6991 317.286349 250.70535 
Q 318.283224 251.710037 318.283224 253.483475 
Q 318.283224 255.250662 317.286349 256.256912 
Q 316.291037 257.263162 314.533224 257.263162 
Q 312.780099 257.263162 311.781662 256.256912 
Q 310.783224 255.250662 310.783224 253.483475 
Q 310.783224 251.710037 311.781662 250.70535 
Q 312.780099 249.6991 314.533224 249.6991 
z
M 321.534201 250.0991 
L 321.534201 251.652225 
L 323.337326 251.652225 
L 323.337326 252.902225 
L 321.534201 252.902225 
L 321.534201 255.220975 
Q 321.534201 255.602225 321.685763 255.7366 
Q 321.837326 255.870975 322.287326 255.870975 
L 323.185763 255.870975 
L 323.185763 257.120975 
L 321.685763 257.120975 
Q 320.651388 257.120975 320.218576 256.689725 
Q 319.787326 256.256912 319.787326 255.220975 
L 319.787326 252.902225 
L 318.917013 252.902225 
L 318.917013 251.652225 
L 319.787326 251.652225 
L 319.787326 250.0991 
z
M 329.903537 253.791287 
L 329.903537 257.120975 
L 328.145724 257.120975 
L 328.145724 256.578787 
L 328.145724 254.581912 
Q 328.145724 253.864725 328.114474 253.595975 
Q 328.083224 253.327225 328.005099 253.200662 
Q 327.901974 253.028787 327.725412 252.933475 
Q 327.550412 252.838162 327.325412 252.838162 
Q 326.778537 252.838162 326.466037 253.2616 
Q 326.153537 253.683475 326.153537 254.43035 
L 326.153537 257.120975 
L 324.406662 257.120975 
L 324.406662 249.522537 
L 326.153537 249.522537 
L 326.153537 252.452225 
Q 326.548849 251.9741 326.992599 251.747537 
Q 327.437912 251.520975 327.975412 251.520975 
Q 328.922287 251.520975 329.412912 252.102225 
Q 329.903537 252.681912 329.903537 253.791287 
z
M 336.983615 254.372537 
L 336.983615 254.869412 
L 332.897678 254.869412 
Q 332.960178 255.485037 333.341428 255.79285 
Q 333.722678 256.100662 334.40549 256.100662 
Q 334.957053 256.100662 335.535178 255.9366 
Q 336.114865 255.772537 336.725803 255.441287 
L 336.725803 256.788162 
Q 336.10549 257.022537 335.485178 257.14285 
Q 334.864865 257.263162 334.244553 257.263162 
Q 332.760178 257.263162 331.93674 256.508475 
Q 331.114865 255.753787 331.114865 254.391287 
Q 331.114865 253.053787 331.922678 252.288162 
Q 332.73049 251.520975 334.147678 251.520975 
Q 335.43674 251.520975 336.210178 252.297537 
Q 336.983615 253.072537 336.983615 254.372537 
z
M 335.18674 253.791287 
Q 335.18674 253.29285 334.896115 252.988162 
Q 334.60549 252.681912 334.13674 252.681912 
Q 333.628928 252.681912 333.31174 252.96785 
Q 332.994553 253.253787 332.916428 253.791287 
z
M 342.370529 253.141287 
Q 342.140842 253.033475 341.912717 252.983475 
Q 341.686154 252.931912 341.456467 252.931912 
Q 340.783029 252.931912 340.418967 253.364725 
Q 340.054904 253.795975 340.054904 254.600662 
L 340.054904 257.120975 
L 338.308029 257.120975 
L 338.308029 251.652225 
L 340.054904 251.652225 
L 340.054904 252.550662 
Q 340.392404 252.013162 340.828342 251.76785 
Q 341.265842 251.520975 341.876779 251.520975 
Q 341.964279 251.520975 342.065842 251.528787 
Q 342.168967 251.535037 342.364279 251.560037 
z
" style="fill:#ffffff;stroke:#000000;stroke-width:2;"/>
    <path d="M 314.533224 251.0616 
Q 313.673849 251.0616 313.200412 251.695975 
Q 312.726974 252.33035 312.726974 253.483475 
Q 312.726974 254.63035 313.200412 255.266287 
Q 313.673849 255.900662 314.533224 255.900662 
Q 315.397287 255.900662 315.870724 255.266287 
Q 316.344162 254.63035 316.344162 253.483475 
Q 316.344162 252.33035 315.870724 251.695975 
Q 315.397287 251.0616 314.533224 251.0616 
z
M 314.533224 249.6991 
Q 316.291037 249.6991 317.286349 250.70535 
Q 318.283224 251.710037 318.283224 253.483475 
Q 318.283224 255.250662 317.286349 256.256912 
Q 316.291037 257.263162 314.533224 257.263162 
Q 312.780099 257.263162 311.781662 256.256912 
Q 310.783224 255.250662 310.783224 253.483475 
Q 310.783224 251.710037 311.781662 250.70535 
Q 312.780099 249.6991 314.533224 249.6991 
z
M 321.534201 250.0991 
L 321.534201 251.652225 
L 323.337326 251.652225 
L 323.337326 252.902225 
L 321.534201 252.902225 
L 321.534201 255.220975 
Q 321.534201 255.602225 321.685763 255.7366 
Q 321.837326 255.870975 322.287326 255.870975 
L 323.185763 255.870975 
L 323.185763 257.120975 
L 321.685763 257.120975 
Q 320.651388 257.120975 320.218576 256.689725 
Q 319.787326 256.256912 319.787326 255.220975 
L 319.787326 252.902225 
L 318.917013 252.902225 
L 318.917013 251.652225 
L 319.787326 251.652225 
L 319.787326 250.0991 
z
M 329.903537 253.791287 
L 329.903537 257.120975 
L 328.145724 257.120975 
L 328.145724 256.578787 
L 328.145724 254.581912 
Q 328.145724 253.864725 328.114474 253.595975 
Q 328.083224 253.327225 328.005099 253.200662 
Q 327.901974 253.028787 327.725412 252.933475 
Q 327.550412 252.838162 327.325412 252.838162 
Q 326.778537 252.838162 326.466037 253.2616 
Q 326.153537 253.683475 326.153537 254.43035 
L 326.153537 257.120975 
L 324.406662 257.120975 
L 324.406662 249.522537 
L 326.153537 249.522537 
L 326.153537 252.452225 
Q 326.548849 251.9741 326.992599 251.747537 
Q 327.437912 251.520975 327.975412 251.520975 
Q 328.922287 251.520975 329.412912 252.102225 
Q 329.903537 252.681912 329.903537 253.791287 
z
M 336.983615 254.372537 
L 336.983615 254.869412 
L 332.897678 254.869412 
Q 332.960178 255.485037 333.341428 255.79285 
Q 333.722678 256.100662 334.40549 256.100662 
Q 334.957053 256.100662 335.535178 255.9366 
Q 336.114865 255.772537 336.725803 255.441287 
L 336.725803 256.788162 
Q 336.10549 257.022537 335.485178 257.14285 
Q 334.864865 257.263162 334.244553 257.263162 
Q 332.760178 257.263162 331.93674 256.508475 
Q 331.114865 255.753787 331.114865 254.391287 
Q 331.114865 253.053787 331.922678 252.288162 
Q 332.73049 251.520975 334.147678 251.520975 
Q 335.43674 251.520975 336.210178 252.297537 
Q 336.983615 253.072537 336.983615 254.372537 
z
M 335.18674 253.791287 
Q 335.18674 253.29285 334.896115 252.988162 
Q 334.60549 252.681912 334.13674 252.681912 
Q 333.628928 252.681912 333.31174 252.96785 
Q 332.994553 253.253787 332.916428 253.791287 
z
M 342.370529 253.141287 
Q 342.140842 253.033475 341.912717 252.983475 
Q 341.686154 252.931912 341.456467 252.931912 
Q 340.783029 252.931912 340.418967 253.364725 
Q 340.054904 253.795975 340.054904 254.600662 
L 340.054904 257.120975 
L 338.308029 257.120975 
L 338.308029 251.652225 
L 340.054904 251.652225 
L 340.054904 252.550662 
Q 340.392404 252.013162 340.828342 251.76785 
Q 341.265842 251.520975 341.876779 251.520975 
Q 341.964279 251.520975 342.065842 251.528787 
Q 342.168967 251.535037 342.364279 251.560037 
z
" style="fill:#ffffff;"/>
   </g>
   <g id="text_11">
    <path d="M 123.923494 136.970575 
Q 123.404744 137.239325 122.843807 137.375262 
Q 122.282869 137.512762 121.671932 137.512762 
Q 119.850057 137.512762 118.785994 136.494012 
Q 117.721932 135.475262 117.721932 133.733075 
Q 117.721932 131.984637 118.785994 130.96745 
Q 119.850057 129.9487 121.671932 129.9487 
Q 122.282869 129.9487 122.843807 130.0862 
Q 123.404744 130.222137 123.923494 130.490887 
L 123.923494 131.9987 
Q 123.400057 131.64245 122.892244 131.476825 
Q 122.384432 131.3112 121.823494 131.3112 
Q 120.817244 131.3112 120.240682 131.956512 
Q 119.665682 132.600262 119.665682 133.733075 
Q 119.665682 134.8612 120.240682 135.506512 
Q 120.817244 136.150262 121.823494 136.150262 
Q 122.384432 136.150262 122.892244 135.984637 
Q 123.400057 135.81745 123.923494 135.4612 
z
M 128.004549 133.020575 
Q 127.423299 133.020575 127.118612 133.437762 
Q 126.813924 133.85495 126.813924 134.640887 
Q 126.813924 135.426825 127.118612 135.845575 
Q 127.423299 136.262762 128.004549 136.262762 
Q 128.576424 136.262762 128.877987 135.845575 
Q 129.181112 135.426825 129.181112 134.640887 
Q 129.181112 133.85495 128.877987 133.437762 
Q 128.576424 133.020575 128.004549 133.020575 
z
M 128.004549 131.770575 
Q 129.415487 131.770575 130.209237 132.533075 
Q 131.002987 133.294012 131.002987 134.640887 
Q 131.002987 135.989325 130.209237 136.751825 
Q 129.415487 137.512762 128.004549 137.512762 
Q 126.588924 137.512762 125.790487 136.751825 
Q 124.992049 135.989325 124.992049 134.640887 
Q 124.992049 133.294012 125.790487 132.533075 
Q 126.588924 131.770575 128.004549 131.770575 
z
M 135.993416 132.701825 
L 135.993416 129.772137 
L 137.751229 129.772137 
L 137.751229 137.370575 
L 135.993416 137.370575 
L 135.993416 136.57995 
Q 135.632479 137.062762 135.196541 137.287762 
Q 134.762166 137.512762 134.191854 137.512762 
Q 133.180916 137.512762 132.530916 136.709637 
Q 131.882479 135.90495 131.882479 134.640887 
Q 131.882479 133.376825 132.530916 132.5737 
Q 133.180916 131.770575 134.191854 131.770575 
Q 134.757479 131.770575 135.194979 131.997137 
Q 135.632479 132.2237 135.993416 132.701825 
z
M 134.840291 136.24245 
Q 135.402791 136.24245 135.698104 135.833075 
Q 135.993416 135.422137 135.993416 134.640887 
Q 135.993416 133.859637 135.698104 133.450262 
Q 135.402791 133.039325 134.840291 133.039325 
Q 134.284041 133.039325 133.988729 133.450262 
Q 133.693416 133.859637 133.693416 134.640887 
Q 133.693416 135.422137 133.988729 135.833075 
Q 134.284041 136.24245 134.840291 136.24245 
z
M 144.889119 134.622137 
L 144.889119 135.119012 
L 140.803182 135.119012 
Q 140.865682 135.734637 141.246932 136.04245 
Q 141.628182 136.350262 142.310994 136.350262 
Q 142.862557 136.350262 143.440682 136.1862 
Q 144.020369 136.022137 144.631307 135.690887 
L 144.631307 137.037762 
Q 144.010994 137.272137 143.390682 137.39245 
Q 142.770369 137.512762 142.150057 137.512762 
Q 140.665682 137.512762 139.842244 136.758075 
Q 139.020369 136.003387 139.020369 134.640887 
Q 139.020369 133.303387 139.828182 132.537762 
Q 140.635994 131.770575 142.053182 131.770575 
Q 143.342244 131.770575 144.115682 132.547137 
Q 144.889119 133.322137 144.889119 134.622137 
z
M 143.092244 134.040887 
Q 143.092244 133.54245 142.801619 133.237762 
Q 142.510994 132.931512 142.042244 132.931512 
Q 141.534432 132.931512 141.217244 133.21745 
Q 140.900057 133.503387 140.821932 134.040887 
z
M 153.415291 132.701825 
L 153.415291 129.772137 
L 155.173104 129.772137 
L 155.173104 137.370575 
L 153.415291 137.370575 
L 153.415291 136.57995 
Q 153.054354 137.062762 152.618416 137.287762 
Q 152.184041 137.512762 151.613729 137.512762 
Q 150.602791 137.512762 149.952791 136.709637 
Q 149.304354 135.90495 149.304354 134.640887 
Q 149.304354 133.376825 149.952791 132.5737 
Q 150.602791 131.770575 151.613729 131.770575 
Q 152.179354 131.770575 152.616854 131.997137 
Q 153.054354 132.2237 153.415291 132.701825 
z
M 152.262166 136.24245 
Q 152.824666 136.24245 153.119979 135.833075 
Q 153.415291 135.422137 153.415291 134.640887 
Q 153.415291 133.859637 153.119979 133.450262 
Q 152.824666 133.039325 152.262166 133.039325 
Q 151.705916 133.039325 151.410604 133.450262 
Q 151.115291 133.859637 151.115291 134.640887 
Q 151.115291 135.422137 151.410604 135.833075 
Q 151.705916 136.24245 152.262166 136.24245 
z
M 162.310994 134.622137 
L 162.310994 135.119012 
L 158.225057 135.119012 
Q 158.287557 135.734637 158.668807 136.04245 
Q 159.050057 136.350262 159.732869 136.350262 
Q 160.284432 136.350262 160.862557 136.1862 
Q 161.442244 136.022137 162.053182 135.690887 
L 162.053182 137.037762 
Q 161.432869 137.272137 160.812557 137.39245 
Q 160.192244 137.512762 159.571932 137.512762 
Q 158.087557 137.512762 157.264119 136.758075 
Q 156.442244 136.003387 156.442244 134.640887 
Q 156.442244 133.303387 157.250057 132.537762 
Q 158.057869 131.770575 159.475057 131.770575 
Q 160.764119 131.770575 161.537557 132.547137 
Q 162.310994 133.322137 162.310994 134.622137 
z
M 160.514119 134.040887 
Q 160.514119 133.54245 160.223494 133.237762 
Q 159.932869 132.931512 159.464119 132.931512 
Q 158.956307 132.931512 158.639119 133.21745 
Q 158.321932 133.503387 158.243807 134.040887 
z
M 166.544783 136.24245 
Q 167.105721 136.24245 167.401033 135.833075 
Q 167.697908 135.422137 167.697908 134.640887 
Q 167.697908 133.859637 167.401033 133.450262 
Q 167.105721 133.039325 166.544783 133.039325 
Q 165.983846 133.039325 165.682283 133.451825 
Q 165.382283 133.864325 165.382283 134.640887 
Q 165.382283 135.41745 165.682283 135.82995 
Q 165.983846 136.24245 166.544783 136.24245 
z
M 165.382283 132.701825 
Q 165.744783 132.2237 166.183846 131.997137 
Q 166.622908 131.770575 167.194783 131.770575 
Q 168.205721 131.770575 168.854158 132.5737 
Q 169.504158 133.376825 169.504158 134.640887 
Q 169.504158 135.90495 168.854158 136.709637 
Q 168.205721 137.512762 167.194783 137.512762 
Q 166.622908 137.512762 166.183846 137.2862 
Q 165.744783 137.058075 165.382283 136.57995 
L 165.382283 137.370575 
L 163.635408 137.370575 
L 163.635408 129.772137 
L 165.382283 129.772137 
z
M 172.701424 130.3487 
L 172.701424 131.901825 
L 174.504549 131.901825 
L 174.504549 133.151825 
L 172.701424 133.151825 
L 172.701424 135.470575 
Q 172.701424 135.851825 172.852987 135.9862 
Q 173.004549 136.120575 173.454549 136.120575 
L 174.352987 136.120575 
L 174.352987 137.370575 
L 172.852987 137.370575 
Q 171.818612 137.370575 171.385799 136.939325 
Q 170.954549 136.506512 170.954549 135.470575 
L 170.954549 133.151825 
L 170.084237 133.151825 
L 170.084237 131.901825 
L 170.954549 131.901825 
L 170.954549 130.3487 
z
" style="fill:#ffffff;stroke:#000000;stroke-width:2;"/>
    <path d="M 123.923494 136.970575 
Q 123.404744 137.239325 122.843807 137.375262 
Q 122.282869 137.512762 121.671932 137.512762 
Q 119.850057 137.512762 118.785994 136.494012 
Q 117.721932 135.475262 117.721932 133.733075 
Q 117.721932 131.984637 118.785994 130.96745 
Q 119.850057 129.9487 121.671932 129.9487 
Q 122.282869 129.9487 122.843807 130.0862 
Q 123.404744 130.222137 123.923494 130.490887 
L 123.923494 131.9987 
Q 123.400057 131.64245 122.892244 131.476825 
Q 122.384432 131.3112 121.823494 131.3112 
Q 120.817244 131.3112 120.240682 131.956512 
Q 119.665682 132.600262 119.665682 133.733075 
Q 119.665682 134.8612 120.240682 135.506512 
Q 120.817244 136.150262 121.823494 136.150262 
Q 122.384432 136.150262 122.892244 135.984637 
Q 123.400057 135.81745 123.923494 135.4612 
z
M 128.004549 133.020575 
Q 127.423299 133.020575 127.118612 133.437762 
Q 126.813924 133.85495 126.813924 134.640887 
Q 126.813924 135.426825 127.118612 135.845575 
Q 127.423299 136.262762 128.004549 136.262762 
Q 128.576424 136.262762 128.877987 135.845575 
Q 129.181112 135.426825 129.181112 134.640887 
Q 129.181112 133.85495 128.877987 133.437762 
Q 128.576424 133.020575 128.004549 133.020575 
z
M 128.004549 131.770575 
Q 129.415487 131.770575 130.209237 132.533075 
Q 131.002987 133.294012 131.002987 134.640887 
Q 131.002987 135.989325 130.209237 136.751825 
Q 129.415487 137.512762 128.004549 137.512762 
Q 126.588924 137.512762 125.790487 136.751825 
Q 124.992049 135.989325 124.992049 134.640887 
Q 124.992049 133.294012 125.790487 132.533075 
Q 126.588924 131.770575 128.004549 131.770575 
z
M 135.993416 132.701825 
L 135.993416 129.772137 
L 137.751229 129.772137 
L 137.751229 137.370575 
L 135.993416 137.370575 
L 135.993416 136.57995 
Q 135.632479 137.062762 135.196541 137.287762 
Q 134.762166 137.512762 134.191854 137.512762 
Q 133.180916 137.512762 132.530916 136.709637 
Q 131.882479 135.90495 131.882479 134.640887 
Q 131.882479 133.376825 132.530916 132.5737 
Q 133.180916 131.770575 134.191854 131.770575 
Q 134.757479 131.770575 135.194979 131.997137 
Q 135.632479 132.2237 135.993416 132.701825 
z
M 134.840291 136.24245 
Q 135.402791 136.24245 135.698104 135.833075 
Q 135.993416 135.422137 135.993416 134.640887 
Q 135.993416 133.859637 135.698104 133.450262 
Q 135.402791 133.039325 134.840291 133.039325 
Q 134.284041 133.039325 133.988729 133.450262 
Q 133.693416 133.859637 133.693416 134.640887 
Q 133.693416 135.422137 133.988729 135.833075 
Q 134.284041 136.24245 134.840291 136.24245 
z
M 144.889119 134.622137 
L 144.889119 135.119012 
L 140.803182 135.119012 
Q 140.865682 135.734637 141.246932 136.04245 
Q 141.628182 136.350262 142.310994 136.350262 
Q 142.862557 136.350262 143.440682 136.1862 
Q 144.020369 136.022137 144.631307 135.690887 
L 144.631307 137.037762 
Q 144.010994 137.272137 143.390682 137.39245 
Q 142.770369 137.512762 142.150057 137.512762 
Q 140.665682 137.512762 139.842244 136.758075 
Q 139.020369 136.003387 139.020369 134.640887 
Q 139.020369 133.303387 139.828182 132.537762 
Q 140.635994 131.770575 142.053182 131.770575 
Q 143.342244 131.770575 144.115682 132.547137 
Q 144.889119 133.322137 144.889119 134.622137 
z
M 143.092244 134.040887 
Q 143.092244 133.54245 142.801619 133.237762 
Q 142.510994 132.931512 142.042244 132.931512 
Q 141.534432 132.931512 141.217244 133.21745 
Q 140.900057 133.503387 140.821932 134.040887 
z
M 153.415291 132.701825 
L 153.415291 129.772137 
L 155.173104 129.772137 
L 155.173104 137.370575 
L 153.415291 137.370575 
L 153.415291 136.57995 
Q 153.054354 137.062762 152.618416 137.287762 
Q 152.184041 137.512762 151.613729 137.512762 
Q 150.602791 137.512762 149.952791 136.709637 
Q 149.304354 135.90495 149.304354 134.640887 
Q 149.304354 133.376825 149.952791 132.5737 
Q 150.602791 131.770575 151.613729 131.770575 
Q 152.179354 131.770575 152.616854 131.997137 
Q 153.054354 132.2237 153.415291 132.701825 
z
M 152.262166 136.24245 
Q 152.824666 136.24245 153.119979 135.833075 
Q 153.415291 135.422137 153.415291 134.640887 
Q 153.415291 133.859637 153.119979 133.450262 
Q 152.824666 133.039325 152.262166 133.039325 
Q 151.705916 133.039325 151.410604 133.450262 
Q 151.115291 133.859637 151.115291 134.640887 
Q 151.115291 135.422137 151.410604 135.833075 
Q 151.705916 136.24245 152.262166 136.24245 
z
M 162.310994 134.622137 
L 162.310994 135.119012 
L 158.225057 135.119012 
Q 158.287557 135.734637 158.668807 136.04245 
Q 159.050057 136.350262 159.732869 136.350262 
Q 160.284432 136.350262 160.862557 136.1862 
Q 161.442244 136.022137 162.053182 135.690887 
L 162.053182 137.037762 
Q 161.432869 137.272137 160.812557 137.39245 
Q 160.192244 137.512762 159.571932 137.512762 
Q 158.087557 137.512762 157.264119 136.758075 
Q 156.442244 136.003387 156.442244 134.640887 
Q 156.442244 133.303387 157.250057 132.537762 
Q 158.057869 131.770575 159.475057 131.770575 
Q 160.764119 131.770575 161.537557 132.547137 
Q 162.310994 133.322137 162.310994 134.622137 
z
M 160.514119 134.040887 
Q 160.514119 133.54245 160.223494 133.237762 
Q 159.932869 132.931512 159.464119 132.931512 
Q 158.956307 132.931512 158.639119 133.21745 
Q 158.321932 133.503387 158.243807 134.040887 
z
M 166.544783 136.24245 
Q 167.105721 136.24245 167.401033 135.833075 
Q 167.697908 135.422137 167.697908 134.640887 
Q 167.697908 133.859637 167.401033 133.450262 
Q 167.105721 133.039325 166.544783 133.039325 
Q 165.983846 133.039325 165.682283 133.451825 
Q 165.382283 133.864325 165.382283 134.640887 
Q 165.382283 135.41745 165.682283 135.82995 
Q 165.983846 136.24245 166.544783 136.24245 
z
M 165.382283 132.701825 
Q 165.744783 132.2237 166.183846 131.997137 
Q 166.622908 131.770575 167.194783 131.770575 
Q 168.205721 131.770575 168.854158 132.5737 
Q 169.504158 133.376825 169.504158 134.640887 
Q 169.504158 135.90495 168.854158 136.709637 
Q 168.205721 137.512762 167.194783 137.512762 
Q 166.622908 137.512762 166.183846 137.2862 
Q 165.744783 137.058075 165.382283 136.57995 
L 165.382283 137.370575 
L 163.635408 137.370575 
L 163.635408 129.772137 
L 165.382283 129.772137 
z
M 172.701424 130.3487 
L 172.701424 131.901825 
L 174.504549 131.901825 
L 174.504549 133.151825 
L 172.701424 133.151825 
L 172.701424 135.470575 
Q 172.701424 135.851825 172.852987 135.9862 
Q 173.004549 136.120575 173.454549 136.120575 
L 174.352987 136.120575 
L 174.352987 137.370575 
L 172.852987 137.370575 
Q 171.818612 137.370575 171.385799 136.939325 
Q 170.954549 136.506512 170.954549 135.470575 
L 170.954549 133.151825 
L 170.084237 133.151825 
L 170.084237 131.901825 
L 170.954549 131.901825 
L 170.954549 130.3487 
z
" style="fill:#ffffff;"/>
   </g>
   <g id="text_12">
    <path d="M 304.287131 196.845775 
Q 303.768381 197.114525 303.207443 197.250462 
Q 302.646506 197.387962 302.035568 197.387962 
Q 300.213693 197.387962 299.149631 196.369212 
Q 298.085568 195.350462 298.085568 193.608275 
Q 298.085568 191.859837 299.149631 190.84265 
Q 300.213693 189.8239 302.035568 189.8239 
Q 302.646506 189.8239 303.207443 189.9614 
Q 303.768381 190.097337 304.287131 190.366087 
L 304.287131 191.8739 
Q 303.763693 191.51765 303.255881 191.352025 
Q 302.748068 191.1864 302.187131 191.1864 
Q 301.180881 191.1864 300.604318 191.831712 
Q 300.029318 192.475462 300.029318 193.608275 
Q 300.029318 194.7364 300.604318 195.381712 
Q 301.180881 196.025462 302.187131 196.025462 
Q 302.748068 196.025462 303.255881 195.859837 
Q 303.763693 195.69265 304.287131 195.3364 
z
M 308.368185 192.895775 
Q 307.786935 192.895775 307.482248 193.312962 
Q 307.17756 193.73015 307.17756 194.516087 
Q 307.17756 195.302025 307.482248 195.720775 
Q 307.786935 196.137962 308.368185 196.137962 
Q 308.94006 196.137962 309.241623 195.720775 
Q 309.544748 195.302025 309.544748 194.516087 
Q 309.544748 193.73015 309.241623 193.312962 
Q 308.94006 192.895775 308.368185 192.895775 
z
M 308.368185 191.645775 
Q 309.779123 191.645775 310.572873 192.408275 
Q 311.366623 193.169212 311.366623 194.516087 
Q 311.366623 195.864525 310.572873 196.627025 
Q 309.779123 197.387962 308.368185 197.387962 
Q 306.95256 197.387962 306.154123 196.627025 
Q 305.355685 195.864525 305.355685 194.516087 
Q 305.355685 193.169212 306.154123 192.408275 
Q 306.95256 191.645775 308.368185 191.645775 
z
M 316.357053 192.577025 
L 316.357053 189.647337 
L 318.114865 189.647337 
L 318.114865 197.245775 
L 316.357053 197.245775 
L 316.357053 196.45515 
Q 315.996115 196.937962 315.560178 197.162962 
Q 315.125803 197.387962 314.55549 197.387962 
Q 313.544553 197.387962 312.894553 196.584837 
Q 312.246115 195.78015 312.246115 194.516087 
Q 312.246115 193.252025 312.894553 192.4489 
Q 313.544553 191.645775 314.55549 191.645775 
Q 315.121115 191.645775 315.558615 191.872337 
Q 315.996115 192.0989 316.357053 192.577025 
z
M 315.203928 196.11765 
Q 315.766428 196.11765 316.06174 195.708275 
Q 316.357053 195.297337 316.357053 194.516087 
Q 316.357053 193.734837 316.06174 193.325462 
Q 315.766428 192.914525 315.203928 192.914525 
Q 314.647678 192.914525 314.352365 193.325462 
Q 314.057053 193.734837 314.057053 194.516087 
Q 314.057053 195.297337 314.352365 195.708275 
Q 314.647678 196.11765 315.203928 196.11765 
z
M 325.252756 194.497337 
L 325.252756 194.994212 
L 321.166818 194.994212 
Q 321.229318 195.609837 321.610568 195.91765 
Q 321.991818 196.225462 322.674631 196.225462 
Q 323.226193 196.225462 323.804318 196.0614 
Q 324.384006 195.897337 324.994943 195.566087 
L 324.994943 196.912962 
Q 324.374631 197.147337 323.754318 197.26765 
Q 323.134006 197.387962 322.513693 197.387962 
Q 321.029318 197.387962 320.205881 196.633275 
Q 319.384006 195.878587 319.384006 194.516087 
Q 319.384006 193.178587 320.191818 192.412962 
Q 320.999631 191.645775 322.416818 191.645775 
Q 323.705881 191.645775 324.479318 192.422337 
Q 325.252756 193.197337 325.252756 194.497337 
z
M 323.455881 193.916087 
Q 323.455881 193.41765 323.165256 193.112962 
Q 322.874631 192.806712 322.405881 192.806712 
Q 321.898068 192.806712 321.580881 193.09265 
Q 321.263693 193.378587 321.185568 193.916087 
z
M 333.778928 192.577025 
L 333.778928 189.647337 
L 335.53674 189.647337 
L 335.53674 197.245775 
L 333.778928 197.245775 
L 333.778928 196.45515 
Q 333.41799 196.937962 332.982053 197.162962 
Q 332.547678 197.387962 331.977365 197.387962 
Q 330.966428 197.387962 330.316428 196.584837 
Q 329.66799 195.78015 329.66799 194.516087 
Q 329.66799 193.252025 330.316428 192.4489 
Q 330.966428 191.645775 331.977365 191.645775 
Q 332.54299 191.645775 332.98049 191.872337 
Q 333.41799 192.0989 333.778928 192.577025 
z
M 332.625803 196.11765 
Q 333.188303 196.11765 333.483615 195.708275 
Q 333.778928 195.297337 333.778928 194.516087 
Q 333.778928 193.734837 333.483615 193.325462 
Q 333.188303 192.914525 332.625803 192.914525 
Q 332.069553 192.914525 331.77424 193.325462 
Q 331.478928 193.734837 331.478928 194.516087 
Q 331.478928 195.297337 331.77424 195.708275 
Q 332.069553 196.11765 332.625803 196.11765 
z
M 342.674631 194.497337 
L 342.674631 194.994212 
L 338.588693 194.994212 
Q 338.651193 195.609837 339.032443 195.91765 
Q 339.413693 196.225462 340.096506 196.225462 
Q 340.648068 196.225462 341.226193 196.0614 
Q 341.805881 195.897337 342.416818 195.566087 
L 342.416818 196.912962 
Q 341.796506 197.147337 341.176193 197.26765 
Q 340.555881 197.387962 339.935568 197.387962 
Q 338.451193 197.387962 337.627756 196.633275 
Q 336.805881 195.878587 336.805881 194.516087 
Q 336.805881 193.178587 337.613693 192.412962 
Q 338.421506 191.645775 339.838693 191.645775 
Q 341.127756 191.645775 341.901193 192.422337 
Q 342.674631 193.197337 342.674631 194.497337 
z
M 340.877756 193.916087 
Q 340.877756 193.41765 340.587131 193.112962 
Q 340.296506 192.806712 339.827756 192.806712 
Q 339.319943 192.806712 339.002756 193.09265 
Q 338.685568 193.378587 338.607443 193.916087 
z
M 346.90842 196.11765 
Q 347.469357 196.11765 347.76467 195.708275 
Q 348.061545 195.297337 348.061545 194.516087 
Q 348.061545 193.734837 347.76467 193.325462 
Q 347.469357 192.914525 346.90842 192.914525 
Q 346.347482 192.914525 346.04592 193.327025 
Q 345.74592 193.739525 345.74592 194.516087 
Q 345.74592 195.29265 346.04592 195.70515 
Q 346.347482 196.11765 346.90842 196.11765 
z
M 345.74592 192.577025 
Q 346.10842 192.0989 346.547482 191.872337 
Q 346.986545 191.645775 347.55842 191.645775 
Q 348.569357 191.645775 349.217795 192.4489 
Q 349.867795 193.252025 349.867795 194.516087 
Q 349.867795 195.78015 349.217795 196.584837 
Q 348.569357 197.387962 347.55842 197.387962 
Q 346.986545 197.387962 346.547482 197.1614 
Q 346.10842 196.933275 345.74592 196.45515 
L 345.74592 197.245775 
L 343.999045 197.245775 
L 343.999045 189.647337 
L 345.74592 189.647337 
z
M 353.06506 190.2239 
L 353.06506 191.777025 
L 354.868185 191.777025 
L 354.868185 193.027025 
L 353.06506 193.027025 
L 353.06506 195.345775 
Q 353.06506 195.727025 353.216623 195.8614 
Q 353.368185 195.995775 353.818185 195.995775 
L 354.716623 195.995775 
L 354.716623 197.245775 
L 353.216623 197.245775 
Q 352.182248 197.245775 351.749435 196.814525 
Q 351.318185 196.381712 351.318185 195.345775 
L 351.318185 193.027025 
L 350.447873 193.027025 
L 350.447873 191.777025 
L 351.318185 191.777025 
L 351.318185 190.2239 
z
" style="fill:#ffffff;stroke:#000000;stroke-width:2;"/>
    <path d="M 304.287131 196.845775 
Q 303.768381 197.114525 303.207443 197.250462 
Q 302.646506 197.387962 302.035568 197.387962 
Q 300.213693 197.387962 299.149631 196.369212 
Q 298.085568 195.350462 298.085568 193.608275 
Q 298.085568 191.859837 299.149631 190.84265 
Q 300.213693 189.8239 302.035568 189.8239 
Q 302.646506 189.8239 303.207443 189.9614 
Q 303.768381 190.097337 304.287131 190.366087 
L 304.287131 191.8739 
Q 303.763693 191.51765 303.255881 191.352025 
Q 302.748068 191.1864 302.187131 191.1864 
Q 301.180881 191.1864 300.604318 191.831712 
Q 300.029318 192.475462 300.029318 193.608275 
Q 300.029318 194.7364 300.604318 195.381712 
Q 301.180881 196.025462 302.187131 196.025462 
Q 302.748068 196.025462 303.255881 195.859837 
Q 303.763693 195.69265 304.287131 195.3364 
z
M 308.368185 192.895775 
Q 307.786935 192.895775 307.482248 193.312962 
Q 307.17756 193.73015 307.17756 194.516087 
Q 307.17756 195.302025 307.482248 195.720775 
Q 307.786935 196.137962 308.368185 196.137962 
Q 308.94006 196.137962 309.241623 195.720775 
Q 309.544748 195.302025 309.544748 194.516087 
Q 309.544748 193.73015 309.241623 193.312962 
Q 308.94006 192.895775 308.368185 192.895775 
z
M 308.368185 191.645775 
Q 309.779123 191.645775 310.572873 192.408275 
Q 311.366623 193.169212 311.366623 194.516087 
Q 311.366623 195.864525 310.572873 196.627025 
Q 309.779123 197.387962 308.368185 197.387962 
Q 306.95256 197.387962 306.154123 196.627025 
Q 305.355685 195.864525 305.355685 194.516087 
Q 305.355685 193.169212 306.154123 192.408275 
Q 306.95256 191.645775 308.368185 191.645775 
z
M 316.357053 192.577025 
L 316.357053 189.647337 
L 318.114865 189.647337 
L 318.114865 197.245775 
L 316.357053 197.245775 
L 316.357053 196.45515 
Q 315.996115 196.937962 315.560178 197.162962 
Q 315.125803 197.387962 314.55549 197.387962 
Q 313.544553 197.387962 312.894553 196.584837 
Q 312.246115 195.78015 312.246115 194.516087 
Q 312.246115 193.252025 312.894553 192.4489 
Q 313.544553 191.645775 314.55549 191.645775 
Q 315.121115 191.645775 315.558615 191.872337 
Q 315.996115 192.0989 316.357053 192.577025 
z
M 315.203928 196.11765 
Q 315.766428 196.11765 316.06174 195.708275 
Q 316.357053 195.297337 316.357053 194.516087 
Q 316.357053 193.734837 316.06174 193.325462 
Q 315.766428 192.914525 315.203928 192.914525 
Q 314.647678 192.914525 314.352365 193.325462 
Q 314.057053 193.734837 314.057053 194.516087 
Q 314.057053 195.297337 314.352365 195.708275 
Q 314.647678 196.11765 315.203928 196.11765 
z
M 325.252756 194.497337 
L 325.252756 194.994212 
L 321.166818 194.994212 
Q 321.229318 195.609837 321.610568 195.91765 
Q 321.991818 196.225462 322.674631 196.225462 
Q 323.226193 196.225462 323.804318 196.0614 
Q 324.384006 195.897337 324.994943 195.566087 
L 324.994943 196.912962 
Q 324.374631 197.147337 323.754318 197.26765 
Q 323.134006 197.387962 322.513693 197.387962 
Q 321.029318 197.387962 320.205881 196.633275 
Q 319.384006 195.878587 319.384006 194.516087 
Q 319.384006 193.178587 320.191818 192.412962 
Q 320.999631 191.645775 322.416818 191.645775 
Q 323.705881 191.645775 324.479318 192.422337 
Q 325.252756 193.197337 325.252756 194.497337 
z
M 323.455881 193.916087 
Q 323.455881 193.41765 323.165256 193.112962 
Q 322.874631 192.806712 322.405881 192.806712 
Q 321.898068 192.806712 321.580881 193.09265 
Q 321.263693 193.378587 321.185568 193.916087 
z
M 333.778928 192.577025 
L 333.778928 189.647337 
L 335.53674 189.647337 
L 335.53674 197.245775 
L 333.778928 197.245775 
L 333.778928 196.45515 
Q 333.41799 196.937962 332.982053 197.162962 
Q 332.547678 197.387962 331.977365 197.387962 
Q 330.966428 197.387962 330.316428 196.584837 
Q 329.66799 195.78015 329.66799 194.516087 
Q 329.66799 193.252025 330.316428 192.4489 
Q 330.966428 191.645775 331.977365 191.645775 
Q 332.54299 191.645775 332.98049 191.872337 
Q 333.41799 192.0989 333.778928 192.577025 
z
M 332.625803 196.11765 
Q 333.188303 196.11765 333.483615 195.708275 
Q 333.778928 195.297337 333.778928 194.516087 
Q 333.778928 193.734837 333.483615 193.325462 
Q 333.188303 192.914525 332.625803 192.914525 
Q 332.069553 192.914525 331.77424 193.325462 
Q 331.478928 193.734837 331.478928 194.516087 
Q 331.478928 195.297337 331.77424 195.708275 
Q 332.069553 196.11765 332.625803 196.11765 
z
M 342.674631 194.497337 
L 342.674631 194.994212 
L 338.588693 194.994212 
Q 338.651193 195.609837 339.032443 195.91765 
Q 339.413693 196.225462 340.096506 196.225462 
Q 340.648068 196.225462 341.226193 196.0614 
Q 341.805881 195.897337 342.416818 195.566087 
L 342.416818 196.912962 
Q 341.796506 197.147337 341.176193 197.26765 
Q 340.555881 197.387962 339.935568 197.387962 
Q 338.451193 197.387962 337.627756 196.633275 
Q 336.805881 195.878587 336.805881 194.516087 
Q 336.805881 193.178587 337.613693 192.412962 
Q 338.421506 191.645775 339.838693 191.645775 
Q 341.127756 191.645775 341.901193 192.422337 
Q 342.674631 193.197337 342.674631 194.497337 
z
M 340.877756 193.916087 
Q 340.877756 193.41765 340.587131 193.112962 
Q 340.296506 192.806712 339.827756 192.806712 
Q 339.319943 192.806712 339.002756 193.09265 
Q 338.685568 193.378587 338.607443 193.916087 
z
M 346.90842 196.11765 
Q 347.469357 196.11765 347.76467 195.708275 
Q 348.061545 195.297337 348.061545 194.516087 
Q 348.061545 193.734837 347.76467 193.325462 
Q 347.469357 192.914525 346.90842 192.914525 
Q 346.347482 192.914525 346.04592 193.327025 
Q 345.74592 193.739525 345.74592 194.516087 
Q 345.74592 195.29265 346.04592 195.70515 
Q 346.347482 196.11765 346.90842 196.11765 
z
M 345.74592 192.577025 
Q 346.10842 192.0989 346.547482 191.872337 
Q 346.986545 191.645775 347.55842 191.645775 
Q 348.569357 191.645775 349.217795 192.4489 
Q 349.867795 193.252025 349.867795 194.516087 
Q 349.867795 195.78015 349.217795 196.584837 
Q 348.569357 197.387962 347.55842 197.387962 
Q 346.986545 197.387962 346.547482 197.1614 
Q 346.10842 196.933275 345.74592 196.45515 
L 345.74592 197.245775 
L 343.999045 197.245775 
L 343.999045 189.647337 
L 345.74592 189.647337 
z
M 353.06506 190.2239 
L 353.06506 191.777025 
L 354.868185 191.777025 
L 354.868185 193.027025 
L 353.06506 193.027025 
L 353.06506 195.345775 
Q 353.06506 195.727025 353.216623 195.8614 
Q 353.368185 195.995775 353.818185 195.995775 
L 354.716623 195.995775 
L 354.716623 197.245775 
L 353.216623 197.245775 
Q 352.182248 197.245775 351.749435 196.814525 
Q 351.318185 196.381712 351.318185 195.345775 
L 351.318185 193.027025 
L 350.447873 193.027025 
L 350.447873 191.777025 
L 351.318185 191.777025 
L 351.318185 190.2239 
z
" style="fill:#ffffff;"/>
   </g>
   <g id="text_13">
    <path d="M 119.115682 50.24635 
L 121.214119 50.24635 
L 123.865682 55.24635 
L 123.865682 50.24635 
L 125.648494 50.24635 
L 125.648494 57.536975 
L 123.548494 57.536975 
L 120.896932 52.536975 
L 120.896932 57.536975 
L 119.115682 57.536975 
z
M 132.86451 54.788537 
L 132.86451 55.285412 
L 128.778572 55.285412 
Q 128.841072 55.901037 129.222322 56.20885 
Q 129.603572 56.516662 130.286385 56.516662 
Q 130.837947 56.516662 131.416072 56.3526 
Q 131.99576 56.188537 132.606697 55.857287 
L 132.606697 57.204162 
Q 131.986385 57.438537 131.366072 57.55885 
Q 130.74576 57.679162 130.125447 57.679162 
Q 128.641072 57.679162 127.817635 56.924475 
Q 126.99576 56.169787 126.99576 54.807287 
Q 126.99576 53.469787 127.803572 52.704162 
Q 128.611385 51.936975 130.028572 51.936975 
Q 131.317635 51.936975 132.091072 52.713537 
Q 132.86451 53.488537 132.86451 54.788537 
z
M 131.067635 54.207287 
Q 131.067635 53.70885 130.77701 53.404162 
Q 130.486385 53.097912 130.017635 53.097912 
Q 129.509822 53.097912 129.192635 53.38385 
Q 128.875447 53.669787 128.797322 54.207287 
z
M 133.699862 52.068225 
L 135.399862 52.068225 
L 136.317049 55.836975 
L 137.240487 52.068225 
L 138.699862 52.068225 
L 139.618612 55.797912 
L 140.540487 52.068225 
L 142.240487 52.068225 
L 140.799862 57.536975 
L 138.890487 57.536975 
L 137.967049 53.7776 
L 137.049862 57.536975 
L 135.140487 57.536975 
z
M 146.419588 52.068225 
L 148.119588 52.068225 
L 149.036776 55.836975 
L 149.960213 52.068225 
L 151.419588 52.068225 
L 152.338338 55.797912 
L 153.260213 52.068225 
L 154.960213 52.068225 
L 153.519588 57.536975 
L 151.610213 57.536975 
L 150.686776 53.7776 
L 149.769588 57.536975 
L 147.860213 57.536975 
z
M 158.748494 53.186975 
Q 158.167244 53.186975 157.862557 53.604162 
Q 157.557869 54.02135 157.557869 54.807287 
Q 157.557869 55.593225 157.862557 56.011975 
Q 158.167244 56.429162 158.748494 56.429162 
Q 159.320369 56.429162 159.621932 56.011975 
Q 159.925057 55.593225 159.925057 54.807287 
Q 159.925057 54.02135 159.621932 53.604162 
Q 159.320369 53.186975 158.748494 53.186975 
z
M 158.748494 51.936975 
Q 160.159432 51.936975 160.953182 52.699475 
Q 161.746932 53.460412 161.746932 54.807287 
Q 161.746932 56.155725 160.953182 56.918225 
Q 160.159432 57.679162 158.748494 57.679162 
Q 157.332869 57.679162 156.534432 56.918225 
Q 155.735994 56.155725 155.735994 54.807287 
Q 155.735994 53.460412 156.534432 52.699475 
Q 157.332869 51.936975 158.748494 51.936975 
z
M 167.079549 53.557287 
Q 166.849862 53.449475 166.621737 53.399475 
Q 166.395174 53.347912 166.165487 53.347912 
Q 165.492049 53.347912 165.127987 53.780725 
Q 164.763924 54.211975 164.763924 55.016662 
L 164.763924 57.536975 
L 163.017049 57.536975 
L 163.017049 52.068225 
L 164.763924 52.068225 
L 164.763924 52.966662 
Q 165.101424 52.429162 165.537362 52.18385 
Q 165.974862 51.936975 166.585799 51.936975 
Q 166.673299 51.936975 166.774862 51.944787 
Q 166.877987 51.951037 167.073299 51.976037 
z
M 167.94869 49.938537 
L 169.695565 49.938537 
L 169.695565 54.074475 
L 171.708065 52.068225 
L 173.739315 52.068225 
L 171.06744 54.5776 
L 173.94869 57.536975 
L 171.82994 57.536975 
L 169.695565 55.257287 
L 169.695565 57.536975 
L 167.94869 57.536975 
z
" style="fill:#ffffff;stroke:#000000;stroke-width:2;"/>
    <path d="M 119.115682 50.24635 
L 121.214119 50.24635 
L 123.865682 55.24635 
L 123.865682 50.24635 
L 125.648494 50.24635 
L 125.648494 57.536975 
L 123.548494 57.536975 
L 120.896932 52.536975 
L 120.896932 57.536975 
L 119.115682 57.536975 
z
M 132.86451 54.788537 
L 132.86451 55.285412 
L 128.778572 55.285412 
Q 128.841072 55.901037 129.222322 56.20885 
Q 129.603572 56.516662 130.286385 56.516662 
Q 130.837947 56.516662 131.416072 56.3526 
Q 131.99576 56.188537 132.606697 55.857287 
L 132.606697 57.204162 
Q 131.986385 57.438537 131.366072 57.55885 
Q 130.74576 57.679162 130.125447 57.679162 
Q 128.641072 57.679162 127.817635 56.924475 
Q 126.99576 56.169787 126.99576 54.807287 
Q 126.99576 53.469787 127.803572 52.704162 
Q 128.611385 51.936975 130.028572 51.936975 
Q 131.317635 51.936975 132.091072 52.713537 
Q 132.86451 53.488537 132.86451 54.788537 
z
M 131.067635 54.207287 
Q 131.067635 53.70885 130.77701 53.404162 
Q 130.486385 53.097912 130.017635 53.097912 
Q 129.509822 53.097912 129.192635 53.38385 
Q 128.875447 53.669787 128.797322 54.207287 
z
M 133.699862 52.068225 
L 135.399862 52.068225 
L 136.317049 55.836975 
L 137.240487 52.068225 
L 138.699862 52.068225 
L 139.618612 55.797912 
L 140.540487 52.068225 
L 142.240487 52.068225 
L 140.799862 57.536975 
L 138.890487 57.536975 
L 137.967049 53.7776 
L 137.049862 57.536975 
L 135.140487 57.536975 
z
M 146.419588 52.068225 
L 148.119588 52.068225 
L 149.036776 55.836975 
L 149.960213 52.068225 
L 151.419588 52.068225 
L 152.338338 55.797912 
L 153.260213 52.068225 
L 154.960213 52.068225 
L 153.519588 57.536975 
L 151.610213 57.536975 
L 150.686776 53.7776 
L 149.769588 57.536975 
L 147.860213 57.536975 
z
M 158.748494 53.186975 
Q 158.167244 53.186975 157.862557 53.604162 
Q 157.557869 54.02135 157.557869 54.807287 
Q 157.557869 55.593225 157.862557 56.011975 
Q 158.167244 56.429162 158.748494 56.429162 
Q 159.320369 56.429162 159.621932 56.011975 
Q 159.925057 55.593225 159.925057 54.807287 
Q 159.925057 54.02135 159.621932 53.604162 
Q 159.320369 53.186975 158.748494 53.186975 
z
M 158.748494 51.936975 
Q 160.159432 51.936975 160.953182 52.699475 
Q 161.746932 53.460412 161.746932 54.807287 
Q 161.746932 56.155725 160.953182 56.918225 
Q 160.159432 57.679162 158.748494 57.679162 
Q 157.332869 57.679162 156.534432 56.918225 
Q 155.735994 56.155725 155.735994 54.807287 
Q 155.735994 53.460412 156.534432 52.699475 
Q 157.332869 51.936975 158.748494 51.936975 
z
M 167.079549 53.557287 
Q 166.849862 53.449475 166.621737 53.399475 
Q 166.395174 53.347912 166.165487 53.347912 
Q 165.492049 53.347912 165.127987 53.780725 
Q 164.763924 54.211975 164.763924 55.016662 
L 164.763924 57.536975 
L 163.017049 57.536975 
L 163.017049 52.068225 
L 164.763924 52.068225 
L 164.763924 52.966662 
Q 165.101424 52.429162 165.537362 52.18385 
Q 165.974862 51.936975 166.585799 51.936975 
Q 166.673299 51.936975 166.774862 51.944787 
Q 166.877987 51.951037 167.073299 51.976037 
z
M 167.94869 49.938537 
L 169.695565 49.938537 
L 169.695565 54.074475 
L 171.708065 52.068225 
L 173.739315 52.068225 
L 171.06744 54.5776 
L 173.94869 57.536975 
L 171.82994 57.536975 
L 169.695565 55.257287 
L 169.695565 57.536975 
L 167.94869 57.536975 
z
" style="fill:#ffffff;"/>
   </g>
   <g id="text_14">
    <path d="M 299.479318 110.12155 
L 301.577756 110.12155 
L 304.229318 115.12155 
L 304.229318 110.12155 
L 306.012131 110.12155 
L 306.012131 117.412175 
L 303.912131 117.412175 
L 301.260568 112.412175 
L 301.260568 117.412175 
L 299.479318 117.412175 
z
M 313.228146 114.663737 
L 313.228146 115.160612 
L 309.142209 115.160612 
Q 309.204709 115.776237 309.585959 116.08405 
Q 309.967209 116.391862 310.650021 116.391862 
Q 311.201584 116.391862 311.779709 116.2278 
Q 312.359396 116.063737 312.970334 115.732487 
L 312.970334 117.079362 
Q 312.350021 117.313737 311.729709 117.43405 
Q 311.109396 117.554362 310.489084 117.554362 
Q 309.004709 117.554362 308.181271 116.799675 
Q 307.359396 116.044987 307.359396 114.682487 
Q 307.359396 113.344987 308.167209 112.579362 
Q 308.975021 111.812175 310.392209 111.812175 
Q 311.681271 111.812175 312.454709 112.588737 
Q 313.228146 113.363737 313.228146 114.663737 
z
M 311.431271 114.082487 
Q 311.431271 113.58405 311.140646 113.279362 
Q 310.850021 112.973112 310.381271 112.973112 
Q 309.873459 112.973112 309.556271 113.25905 
Q 309.239084 113.544987 309.160959 114.082487 
z
M 314.063498 111.943425 
L 315.763498 111.943425 
L 316.680685 115.712175 
L 317.604123 111.943425 
L 319.063498 111.943425 
L 319.982248 115.673112 
L 320.904123 111.943425 
L 322.604123 111.943425 
L 321.163498 117.412175 
L 319.254123 117.412175 
L 318.330685 113.6528 
L 317.413498 117.412175 
L 315.504123 117.412175 
z
M 326.783224 111.943425 
L 328.483224 111.943425 
L 329.400412 115.712175 
L 330.323849 111.943425 
L 331.783224 111.943425 
L 332.701974 115.673112 
L 333.623849 111.943425 
L 335.323849 111.943425 
L 333.883224 117.412175 
L 331.973849 117.412175 
L 331.050412 113.6528 
L 330.133224 117.412175 
L 328.223849 117.412175 
z
M 339.112131 113.062175 
Q 338.530881 113.062175 338.226193 113.479362 
Q 337.921506 113.89655 337.921506 114.682487 
Q 337.921506 115.468425 338.226193 115.887175 
Q 338.530881 116.304362 339.112131 116.304362 
Q 339.684006 116.304362 339.985568 115.887175 
Q 340.288693 115.468425 340.288693 114.682487 
Q 340.288693 113.89655 339.985568 113.479362 
Q 339.684006 113.062175 339.112131 113.062175 
z
M 339.112131 111.812175 
Q 340.523068 111.812175 341.316818 112.574675 
Q 342.110568 113.335612 342.110568 114.682487 
Q 342.110568 116.030925 341.316818 116.793425 
Q 340.523068 117.554362 339.112131 117.554362 
Q 337.696506 117.554362 336.898068 116.793425 
Q 336.099631 116.030925 336.099631 114.682487 
Q 336.099631 113.335612 336.898068 112.574675 
Q 337.696506 111.812175 339.112131 111.812175 
z
M 347.443185 113.432487 
Q 347.213498 113.324675 346.985373 113.274675 
Q 346.75881 113.223112 346.529123 113.223112 
Q 345.855685 113.223112 345.491623 113.655925 
Q 345.12756 114.087175 345.12756 114.891862 
L 345.12756 117.412175 
L 343.380685 117.412175 
L 343.380685 111.943425 
L 345.12756 111.943425 
L 345.12756 112.841862 
Q 345.46506 112.304362 345.900998 112.05905 
Q 346.338498 111.812175 346.949435 111.812175 
Q 347.036935 111.812175 347.138498 111.819987 
Q 347.241623 111.826237 347.436935 111.851237 
z
M 348.312326 109.813737 
L 350.059201 109.813737 
L 350.059201 113.949675 
L 352.071701 111.943425 
L 354.102951 111.943425 
L 351.431076 114.4528 
L 354.312326 117.412175 
L 352.193576 117.412175 
L 350.059201 115.132487 
L 350.059201 117.412175 
L 348.312326 117.412175 
z
" style="fill:#ffffff;stroke:#000000;stroke-width:2;"/>
    <path d="M 299.479318 110.12155 
L 301.577756 110.12155 
L 304.229318 115.12155 
L 304.229318 110.12155 
L 306.012131 110.12155 
L 306.012131 117.412175 
L 303.912131 117.412175 
L 301.260568 112.412175 
L 301.260568 117.412175 
L 299.479318 117.412175 
z
M 313.228146 114.663737 
L 313.228146 115.160612 
L 309.142209 115.160612 
Q 309.204709 115.776237 309.585959 116.08405 
Q 309.967209 116.391862 310.650021 116.391862 
Q 311.201584 116.391862 311.779709 116.2278 
Q 312.359396 116.063737 312.970334 115.732487 
L 312.970334 117.079362 
Q 312.350021 117.313737 311.729709 117.43405 
Q 311.109396 117.554362 310.489084 117.554362 
Q 309.004709 117.554362 308.181271 116.799675 
Q 307.359396 116.044987 307.359396 114.682487 
Q 307.359396 113.344987 308.167209 112.579362 
Q 308.975021 111.812175 310.392209 111.812175 
Q 311.681271 111.812175 312.454709 112.588737 
Q 313.228146 113.363737 313.228146 114.663737 
z
M 311.431271 114.082487 
Q 311.431271 113.58405 311.140646 113.279362 
Q 310.850021 112.973112 310.381271 112.973112 
Q 309.873459 112.973112 309.556271 113.25905 
Q 309.239084 113.544987 309.160959 114.082487 
z
M 314.063498 111.943425 
L 315.763498 111.943425 
L 316.680685 115.712175 
L 317.604123 111.943425 
L 319.063498 111.943425 
L 319.982248 115.673112 
L 320.904123 111.943425 
L 322.604123 111.943425 
L 321.163498 117.412175 
L 319.254123 117.412175 
L 318.330685 113.6528 
L 317.413498 117.412175 
L 315.504123 117.412175 
z
M 326.783224 111.943425 
L 328.483224 111.943425 
L 329.400412 115.712175 
L 330.323849 111.943425 
L 331.783224 111.943425 
L 332.701974 115.673112 
L 333.623849 111.943425 
L 335.323849 111.943425 
L 333.883224 117.412175 
L 331.973849 117.412175 
L 331.050412 113.6528 
L 330.133224 117.412175 
L 328.223849 117.412175 
z
M 339.112131 113.062175 
Q 338.530881 113.062175 338.226193 113.479362 
Q 337.921506 113.89655 337.921506 114.682487 
Q 337.921506 115.468425 338.226193 115.887175 
Q 338.530881 116.304362 339.112131 116.304362 
Q 339.684006 116.304362 339.985568 115.887175 
Q 340.288693 115.468425 340.288693 114.682487 
Q 340.288693 113.89655 339.985568 113.479362 
Q 339.684006 113.062175 339.112131 113.062175 
z
M 339.112131 111.812175 
Q 340.523068 111.812175 341.316818 112.574675 
Q 342.110568 113.335612 342.110568 114.682487 
Q 342.110568 116.030925 341.316818 116.793425 
Q 340.523068 117.554362 339.112131 117.554362 
Q 337.696506 117.554362 336.898068 116.793425 
Q 336.099631 116.030925 336.099631 114.682487 
Q 336.099631 113.335612 336.898068 112.574675 
Q 337.696506 111.812175 339.112131 111.812175 
z
M 347.443185 113.432487 
Q 347.213498 113.324675 346.985373 113.274675 
Q 346.75881 113.223112 346.529123 113.223112 
Q 345.855685 113.223112 345.491623 113.655925 
Q 345.12756 114.087175 345.12756 114.891862 
L 345.12756 117.412175 
L 343.380685 117.412175 
L 343.380685 111.943425 
L 345.12756 111.943425 
L 345.12756 112.841862 
Q 345.46506 112.304362 345.900998 112.05905 
Q 346.338498 111.812175 346.949435 111.812175 
Q 347.036935 111.812175 347.138498 111.819987 
Q 347.241623 111.826237 347.436935 111.851237 
z
M 348.312326 109.813737 
L 350.059201 109.813737 
L 350.059201 113.949675 
L 352.071701 111.943425 
L 354.102951 111.943425 
L 351.431076 114.4528 
L 354.312326 117.412175 
L 352.193576 117.412175 
L 350.059201 115.132487 
L 350.059201 117.412175 
L 348.312326 117.412175 
z
" style="fill:#ffffff;"/>
   </g>
   <g id="text_15">
    <!-- Expected time spent on catagories of work, -->
    <defs>
     <path d="M 51.125 52.984375 
L 51.125 39.703125 
Q 45.515625 42.046875 40.28125 43.21875 
Q 35.0625 44.390625 30.421875 44.390625 
Q 25.4375 44.390625 23.015625 43.140625 
Q 20.609375 41.890625 20.609375 39.3125 
Q 20.609375 37.203125 22.4375 36.078125 
Q 24.265625 34.96875 29 34.421875 
L 32.078125 33.984375 
Q 45.515625 32.28125 50.140625 28.375 
Q 54.78125 24.46875 54.78125 16.109375 
Q 54.78125 7.375 48.328125 2.96875 
Q 41.890625 -1.421875 29.109375 -1.421875 
Q 23.6875 -1.421875 17.890625 -0.5625 
Q 12.109375 0.296875 6 2 
L 6 15.28125 
Q 11.234375 12.75 16.71875 11.46875 
Q 22.21875 10.203125 27.875 10.203125 
Q 33.015625 10.203125 35.59375 11.609375 
Q 38.1875 13.03125 38.1875 15.828125 
Q 38.1875 18.171875 36.40625 19.3125 
Q 34.625 20.453125 29.296875 21.09375 
L 26.21875 21.484375 
Q 14.546875 22.953125 9.859375 26.90625 
Q 5.171875 30.859375 5.171875 38.921875 
Q 5.171875 47.609375 11.125 51.796875 
Q 17.09375 56 29.390625 56 
Q 34.234375 56 39.546875 55.265625 
Q 44.875 54.546875 51.125 52.984375 
z
" id="DejaVuSans-Bold-115"/>
     <path d="M 32.90625 24.609375 
Q 27.4375 24.609375 24.671875 22.75 
Q 21.921875 20.90625 21.921875 17.28125 
Q 21.921875 13.96875 24.140625 12.078125 
Q 26.375 10.203125 30.328125 10.203125 
Q 35.25 10.203125 38.625 13.734375 
Q 42 17.28125 42 22.609375 
L 42 24.609375 
z
M 59.625 31.203125 
L 59.625 0 
L 42 0 
L 42 8.109375 
Q 38.484375 3.125 34.078125 0.84375 
Q 29.6875 -1.421875 23.390625 -1.421875 
Q 14.890625 -1.421875 9.59375 3.53125 
Q 4.296875 8.5 4.296875 16.40625 
Q 4.296875 26.03125 10.90625 30.515625 
Q 17.53125 35.015625 31.6875 35.015625 
L 42 35.015625 
L 42 36.375 
Q 42 40.53125 38.71875 42.453125 
Q 35.453125 44.390625 28.515625 44.390625 
Q 22.90625 44.390625 18.0625 43.265625 
Q 13.234375 42.140625 9.078125 39.890625 
L 9.078125 53.21875 
Q 14.703125 54.59375 20.359375 55.296875 
Q 26.03125 56 31.6875 56 
Q 46.484375 56 53.046875 50.171875 
Q 59.625 44.34375 59.625 31.203125 
z
" id="DejaVuSans-Bold-97"/>
     <path d="M 45.609375 9.28125 
Q 42 4.5 37.640625 2.25 
Q 33.296875 0 27.59375 0 
Q 17.578125 0 11.03125 7.875 
Q 4.5 15.765625 4.5 27.984375 
Q 4.5 40.234375 11.03125 48.0625 
Q 17.578125 55.90625 27.59375 55.90625 
Q 33.296875 55.90625 37.640625 53.65625 
Q 42 51.421875 45.609375 46.578125 
L 45.609375 54.6875 
L 63.1875 54.6875 
L 63.1875 5.515625 
Q 63.1875 -7.671875 54.859375 -14.625 
Q 46.53125 -21.578125 30.71875 -21.578125 
Q 25.59375 -21.578125 20.796875 -20.796875 
Q 16.015625 -20.015625 11.1875 -18.40625 
L 11.1875 -4.78125 
Q 15.765625 -7.421875 20.15625 -8.71875 
Q 24.5625 -10.015625 29 -10.015625 
Q 37.59375 -10.015625 41.59375 -6.25 
Q 45.609375 -2.484375 45.609375 5.515625 
z
M 34.078125 43.3125 
Q 28.65625 43.3125 25.625 39.296875 
Q 22.609375 35.296875 22.609375 27.984375 
Q 22.609375 20.453125 25.53125 16.578125 
Q 28.46875 12.703125 34.078125 12.703125 
Q 39.546875 12.703125 42.578125 16.703125 
Q 45.609375 20.703125 45.609375 27.984375 
Q 45.609375 35.296875 42.578125 39.296875 
Q 39.546875 43.3125 34.078125 43.3125 
z
" id="DejaVuSans-Bold-103"/>
    </defs>
    <g transform="translate(88.569375 21.940875)scale(0.12 -0.12)">
     <use xlink:href="#DejaVuSans-Bold-69"/>
     <use x="68.310547" xlink:href="#DejaVuSans-Bold-120"/>
     <use x="132.8125" xlink:href="#DejaVuSans-Bold-112"/>
     <use x="204.394531" xlink:href="#DejaVuSans-Bold-101"/>
     <use x="272.216797" xlink:href="#DejaVuSans-Bold-99"/>
     <use x="331.494141" xlink:href="#DejaVuSans-Bold-116"/>
     <use x="379.296875" xlink:href="#DejaVuSans-Bold-101"/>
     <use x="447.119141" xlink:href="#DejaVuSans-Bold-100"/>
     <use x="518.701172" xlink:href="#DejaVuSans-Bold-32"/>
     <use x="553.515625" xlink:href="#DejaVuSans-Bold-116"/>
     <use x="601.318359" xlink:href="#DejaVuSans-Bold-105"/>
     <use x="635.595703" xlink:href="#DejaVuSans-Bold-109"/>
     <use x="739.794922" xlink:href="#DejaVuSans-Bold-101"/>
     <use x="807.617188" xlink:href="#DejaVuSans-Bold-32"/>
     <use x="842.431641" xlink:href="#DejaVuSans-Bold-115"/>
     <use x="901.953125" xlink:href="#DejaVuSans-Bold-112"/>
     <use x="973.535156" xlink:href="#DejaVuSans-Bold-101"/>
     <use x="1041.357422" xlink:href="#DejaVuSans-Bold-110"/>
     <use x="1112.548828" xlink:href="#DejaVuSans-Bold-116"/>
     <use x="1160.351562" xlink:href="#DejaVuSans-Bold-32"/>
     <use x="1195.166016" xlink:href="#DejaVuSans-Bold-111"/>
     <use x="1263.867188" xlink:href="#DejaVuSans-Bold-110"/>
     <use x="1335.058594" xlink:href="#DejaVuSans-Bold-32"/>
     <use x="1369.873047" xlink:href="#DejaVuSans-Bold-99"/>
     <use x="1429.150391" xlink:href="#DejaVuSans-Bold-97"/>
     <use x="1496.630859" xlink:href="#DejaVuSans-Bold-116"/>
     <use x="1544.433594" xlink:href="#DejaVuSans-Bold-97"/>
     <use x="1611.914062" xlink:href="#DejaVuSans-Bold-103"/>
     <use x="1683.496094" xlink:href="#DejaVuSans-Bold-111"/>
     <use x="1752.197266" xlink:href="#DejaVuSans-Bold-114"/>
     <use x="1801.513672" xlink:href="#DejaVuSans-Bold-105"/>
     <use x="1835.791016" xlink:href="#DejaVuSans-Bold-101"/>
     <use x="1903.613281" xlink:href="#DejaVuSans-Bold-115"/>
     <use x="1963.134766" xlink:href="#DejaVuSans-Bold-32"/>
     <use x="1997.949219" xlink:href="#DejaVuSans-Bold-111"/>
     <use x="2066.650391" xlink:href="#DejaVuSans-Bold-102"/>
     <use x="2110.15625" xlink:href="#DejaVuSans-Bold-32"/>
     <use x="2144.970703" xlink:href="#DejaVuSans-Bold-119"/>
     <use x="2237.353516" xlink:href="#DejaVuSans-Bold-111"/>
     <use x="2306.054688" xlink:href="#DejaVuSans-Bold-114"/>
     <use x="2355.371094" xlink:href="#DejaVuSans-Bold-107"/>
     <use x="2421.875" xlink:href="#DejaVuSans-Bold-44"/>
    </g>
    <!-- before and after resolving technical debt -->
    <defs>
     <path d="M 37.5 11.28125 
Q 43.109375 11.28125 46.0625 15.375 
Q 49.03125 19.484375 49.03125 27.296875 
Q 49.03125 35.109375 46.0625 39.203125 
Q 43.109375 43.3125 37.5 43.3125 
Q 31.890625 43.3125 28.875 39.1875 
Q 25.875 35.0625 25.875 27.296875 
Q 25.875 19.53125 28.875 15.40625 
Q 31.890625 11.28125 37.5 11.28125 
z
M 25.875 46.6875 
Q 29.5 51.46875 33.890625 53.734375 
Q 38.28125 56 44 56 
Q 54.109375 56 60.59375 47.96875 
Q 67.09375 39.9375 67.09375 27.296875 
Q 67.09375 14.65625 60.59375 6.609375 
Q 54.109375 -1.421875 44 -1.421875 
Q 38.28125 -1.421875 33.890625 0.84375 
Q 29.5 3.125 25.875 7.90625 
L 25.875 0 
L 8.40625 0 
L 8.40625 75.984375 
L 25.875 75.984375 
z
" id="DejaVuSans-Bold-98"/>
     <path d="M 8.40625 75.984375 
L 25.875 75.984375 
L 25.875 0 
L 8.40625 0 
z
" id="DejaVuSans-Bold-108"/>
     <path d="M 1.515625 54.6875 
L 19 54.6875 
L 32.625 16.890625 
L 46.1875 54.6875 
L 63.71875 54.6875 
L 42.1875 0 
L 23 0 
z
" id="DejaVuSans-Bold-118"/>
     <path d="M 63.375 33.296875 
L 63.375 0 
L 45.796875 0 
L 45.796875 5.421875 
L 45.796875 25.390625 
Q 45.796875 32.5625 45.484375 35.25 
Q 45.171875 37.9375 44.390625 39.203125 
Q 43.359375 40.921875 41.59375 41.875 
Q 39.84375 42.828125 37.59375 42.828125 
Q 32.125 42.828125 29 38.59375 
Q 25.875 34.375 25.875 26.90625 
L 25.875 0 
L 8.40625 0 
L 8.40625 75.984375 
L 25.875 75.984375 
L 25.875 46.6875 
Q 29.828125 51.46875 34.265625 53.734375 
Q 38.71875 56 44.09375 56 
Q 53.5625 56 58.46875 50.1875 
Q 63.375 44.390625 63.375 33.296875 
z
" id="DejaVuSans-Bold-104"/>
    </defs>
    <g transform="translate(96.825 35.472)scale(0.12 -0.12)">
     <use xlink:href="#DejaVuSans-Bold-98"/>
     <use x="71.582031" xlink:href="#DejaVuSans-Bold-101"/>
     <use x="139.404297" xlink:href="#DejaVuSans-Bold-102"/>
     <use x="182.910156" xlink:href="#DejaVuSans-Bold-111"/>
     <use x="251.611328" xlink:href="#DejaVuSans-Bold-114"/>
     <use x="300.927734" xlink:href="#DejaVuSans-Bold-101"/>
     <use x="368.75" xlink:href="#DejaVuSans-Bold-32"/>
     <use x="403.564453" xlink:href="#DejaVuSans-Bold-97"/>
     <use x="471.044922" xlink:href="#DejaVuSans-Bold-110"/>
     <use x="542.236328" xlink:href="#DejaVuSans-Bold-100"/>
     <use x="613.818359" xlink:href="#DejaVuSans-Bold-32"/>
     <use x="648.632812" xlink:href="#DejaVuSans-Bold-97"/>
     <use x="716.113281" xlink:href="#DejaVuSans-Bold-102"/>
     <use x="759.619141" xlink:href="#DejaVuSans-Bold-116"/>
     <use x="807.421875" xlink:href="#DejaVuSans-Bold-101"/>
     <use x="875.244141" xlink:href="#DejaVuSans-Bold-114"/>
     <use x="924.560547" xlink:href="#DejaVuSans-Bold-32"/>
     <use x="959.375" xlink:href="#DejaVuSans-Bold-114"/>
     <use x="1008.691406" xlink:href="#DejaVuSans-Bold-101"/>
     <use x="1076.513672" xlink:href="#DejaVuSans-Bold-115"/>
     <use x="1136.035156" xlink:href="#DejaVuSans-Bold-111"/>
     <use x="1204.736328" xlink:href="#DejaVuSans-Bold-108"/>
     <use x="1239.013672" xlink:href="#DejaVuSans-Bold-118"/>
     <use x="1304.199219" xlink:href="#DejaVuSans-Bold-105"/>
     <use x="1338.476562" xlink:href="#DejaVuSans-Bold-110"/>
     <use x="1409.667969" xlink:href="#DejaVuSans-Bold-103"/>
     <use x="1481.25" xlink:href="#DejaVuSans-Bold-32"/>
     <use x="1516.064453" xlink:href="#DejaVuSans-Bold-116"/>
     <use x="1563.867188" xlink:href="#DejaVuSans-Bold-101"/>
     <use x="1631.689453" xlink:href="#DejaVuSans-Bold-99"/>
     <use x="1690.966797" xlink:href="#DejaVuSans-Bold-104"/>
     <use x="1762.158203" xlink:href="#DejaVuSans-Bold-110"/>
     <use x="1833.349609" xlink:href="#DejaVuSans-Bold-105"/>
     <use x="1867.626953" xlink:href="#DejaVuSans-Bold-99"/>
     <use x="1926.904297" xlink:href="#DejaVuSans-Bold-97"/>
     <use x="1994.384766" xlink:href="#DejaVuSans-Bold-108"/>
     <use x="2028.662109" xlink:href="#DejaVuSans-Bold-32"/>
     <use x="2063.476562" xlink:href="#DejaVuSans-Bold-100"/>
     <use x="2135.058594" xlink:href="#DejaVuSans-Bold-101"/>
     <use x="2202.880859" xlink:href="#DejaVuSans-Bold-98"/>
     <use x="2274.462891" xlink:href="#DejaVuSans-Bold-116"/>
    </g>
   </g>
  </g>
 </g>
 <defs>
  <clipPath id="p4b9f19002e">
   <rect height="266.112" width="357.12" x="57.6" y="41.472"/>
  </clipPath>
 </defs>
 <defs>
  <pattern height="72" id="h6cf779078b" patternUnits="userSpaceOnUse" width="72" x="0" y="0">
   <rect fill="#1f77b4" height="73" width="73" x="0" y="0"/>
   <path d="M -36 36 
L 36 -36 
M -24 48 
L 48 -24 
M -12 60 
L 60 -12 
M 0 72 
L 72 0 
M 12 84 
L 84 12 
M 24 96 
L 96 24 
M 36 108 
L 108 36 
M -36 36 
L 36 108 
M -24 24 
L 48 96 
M -12 12 
L 60 84 
M 0 0 
L 72 72 
M 12 -12 
L 84 60 
M 24 -24 
L 96 48 
M 36 -36 
L 108 36 
" style="fill:#c7ddec;stroke:#c7ddec;stroke-linecap:butt;stroke-linejoin:miter;stroke-width:5.0;"/>
  </pattern>
  <pattern height="72" id="h0ee256605a" patternUnits="userSpaceOnUse" width="72" x="0" y="0">
   <rect fill="#2ca02c" height="73" width="73" x="0" y="0"/>
   <path d="M -36 36 
L 36 108 
M -24 24 
L 48 96 
M -12 12 
L 60 84 
M 0 0 
L 72 72 
M 12 -12 
L 84 60 
M 24 -24 
L 96 48 
M 36 -36 
L 108 36 
" style="fill:#cae7ca;stroke:#cae7ca;stroke-linecap:butt;stroke-linejoin:miter;stroke-width:5.0;"/>
  </pattern>
  <pattern height="72" id="hcc5d31c4d4" patternUnits="userSpaceOnUse" width="72" x="0" y="0">
   <rect fill="#d62728" height="73" width="73" x="0" y="0"/>
   <path d="M -36 36 
L 36 -36 
M -24 48 
L 48 -24 
M -12 60 
L 60 -12 
M 0 72 
L 72 0 
M 12 84 
L 84 12 
M 24 96 
L 96 24 
M 36 108 
L 108 36 
" style="fill:#f5c9c9;stroke:#f5c9c9;stroke-linecap:butt;stroke-linejoin:miter;stroke-width:5.0;"/>
  </pattern>
 </defs>
</svg>
